<svg width="77" height="142" viewBox="0 0 77 142" fill="none" xmlns="http://www.w3.org/2000/svg">
<mask id="path-1-inside-1_2247_3277" fill="white">
<path fill-rule="evenodd" clip-rule="evenodd" d="M8.93649 45.4869C3.49219 40.8169 0 33.5975 0 25.4955C0 11.4147 10.5478 0 23.5591 0C29.6478 0 35.1971 2.49963 39.3784 6.60236C40.2288 6.5044 41.0879 6.45455 41.9545 6.45455C60.8477 6.45455 76.1636 30.1509 76.1636 59.3818C76.1636 76.3092 71.0275 91.3805 63.0348 101.069C63.1778 103.918 63.2545 106.932 63.2545 110.05C63.2545 127.695 60.7982 142 57.7682 142C54.7381 142 52.2818 127.695 52.2818 110.05C52.2818 109.985 52.2818 109.92 52.2819 109.855C49.0234 111.449 45.5539 112.309 41.9545 112.309C37.3844 112.309 33.0237 110.923 29.0383 108.407C29.0431 108.951 29.0455 109.499 29.0455 110.05C29.0455 127.695 26.5891 142 23.5591 142C20.5291 142 18.0727 127.695 18.0727 110.05C18.0727 105.744 18.219 101.637 18.4842 97.8878C11.8723 88.2372 7.74545 74.5552 7.74545 59.3818C7.74545 54.5735 8.15988 49.9149 8.93649 45.4869Z"/>
</mask>
<path fill-rule="evenodd" clip-rule="evenodd" d="M8.93649 45.4869C3.49219 40.8169 0 33.5975 0 25.4955C0 11.4147 10.5478 0 23.5591 0C29.6478 0 35.1971 2.49963 39.3784 6.60236C40.2288 6.5044 41.0879 6.45455 41.9545 6.45455C60.8477 6.45455 76.1636 30.1509 76.1636 59.3818C76.1636 76.3092 71.0275 91.3805 63.0348 101.069C63.1778 103.918 63.2545 106.932 63.2545 110.05C63.2545 127.695 60.7982 142 57.7682 142C54.7381 142 52.2818 127.695 52.2818 110.05C52.2818 109.985 52.2818 109.92 52.2819 109.855C49.0234 111.449 45.5539 112.309 41.9545 112.309C37.3844 112.309 33.0237 110.923 29.0383 108.407C29.0431 108.951 29.0455 109.499 29.0455 110.05C29.0455 127.695 26.5891 142 23.5591 142C20.5291 142 18.0727 127.695 18.0727 110.05C18.0727 105.744 18.219 101.637 18.4842 97.8878C11.8723 88.2372 7.74545 74.5552 7.74545 59.3818C7.74545 54.5735 8.15988 49.9149 8.93649 45.4869Z" fill="#9A2B4E"/>
<path d="M8.93649 45.4869L10.9064 45.8324L11.1032 44.7104L10.2386 43.9688L8.93649 45.4869ZM39.3784 6.60236L37.9777 8.02993L38.659 8.69845L39.6073 8.58922L39.3784 6.60236ZM63.0348 101.069L61.4921 99.7962L60.9985 100.395L61.0373 101.169L63.0348 101.069ZM52.2819 109.855L54.2819 109.857L54.2853 106.648L51.4029 108.058L52.2819 109.855ZM29.0383 108.407L30.106 106.715L27.0065 104.759L27.0384 108.424L29.0383 108.407ZM18.4842 97.8878L20.4792 98.0289L20.5285 97.3329L20.1341 96.7574L18.4842 97.8878ZM-2 25.4955C-2 34.1739 1.74167 41.9503 7.63435 47.0049L10.2386 43.9688C5.24272 39.6834 2 33.0211 2 25.4955H-2ZM23.5591 -2C9.29738 -2 -2 10.4618 -2 25.4955H2C2 12.3676 11.7981 2 23.5591 2V-2ZM40.7792 5.17479C36.2547 0.7354 30.2133 -2 23.5591 -2V2C29.0823 2 34.1394 4.26385 37.9777 8.02993L40.7792 5.17479ZM41.9545 4.45455C41.0111 4.45455 40.0756 4.50883 39.1496 4.6155L39.6073 8.58922C40.3821 8.49997 41.1648 8.45455 41.9545 8.45455V4.45455ZM78.1636 59.3818C78.1636 44.4388 74.2526 30.8176 67.8237 20.8709C61.4078 10.9445 52.3072 4.45455 41.9545 4.45455V8.45455C50.4951 8.45455 58.499 13.8128 64.4643 23.0422C70.4167 32.2515 74.1636 45.0939 74.1636 59.3818H78.1636ZM64.5776 102.342C72.9235 92.2251 78.1636 76.6741 78.1636 59.3818H74.1636C74.1636 75.9442 69.1315 90.536 61.4921 99.7962L64.5776 102.342ZM61.0373 101.169C61.1786 103.984 61.2545 106.964 61.2545 110.05H65.2545C65.2545 106.899 65.1771 103.852 65.0323 100.969L61.0373 101.169ZM61.2545 110.05C61.2545 118.795 60.6449 126.664 59.6765 132.304C59.1895 135.139 58.6276 137.316 58.0506 138.737C57.7584 139.457 57.5075 139.868 57.3418 140.065C57.1607 140.281 57.2987 140 57.7682 140V144C58.9952 144 59.8727 143.272 60.4059 142.637C60.9545 141.983 61.3927 141.139 61.7568 140.242C62.4926 138.429 63.1129 135.926 63.6188 132.981C64.6361 127.056 65.2545 118.95 65.2545 110.05H61.2545ZM57.7682 140C58.2377 140 58.3757 140.281 58.1945 140.065C58.0289 139.868 57.778 139.457 57.4857 138.737C56.9088 137.316 56.3469 135.139 55.8599 132.304C54.8915 126.664 54.2818 118.795 54.2818 110.05H50.2818C50.2818 118.95 50.9003 127.056 51.9176 132.981C52.4235 135.926 53.0437 138.429 53.7795 140.242C54.1437 141.139 54.5818 141.983 55.1304 142.637C55.6636 143.272 56.5412 144 57.7682 144V140ZM54.2818 110.05C54.2818 109.985 54.2818 109.921 54.2819 109.857L50.2819 109.852C50.2818 109.918 50.2818 109.984 50.2818 110.05H54.2818ZM41.9545 114.309C45.8807 114.309 49.6494 113.369 53.161 111.651L51.4029 108.058C48.3974 109.529 45.2271 110.309 41.9545 110.309V114.309ZM27.9707 110.098C32.2382 112.792 36.9646 114.309 41.9545 114.309V110.309C37.8043 110.309 33.8091 109.053 30.106 106.715L27.9707 110.098ZM31.0455 110.05C31.0455 109.493 31.043 108.939 31.0382 108.389L27.0384 108.424C27.0431 108.963 27.0455 109.505 27.0455 110.05H31.0455ZM23.5591 144C24.7861 144 25.6637 143.272 26.1968 142.637C26.7454 141.983 27.1836 141.139 27.5477 140.242C28.2835 138.429 28.9038 135.926 29.4097 132.981C30.427 127.056 31.0455 118.95 31.0455 110.05H27.0455C27.0455 118.795 26.4358 126.664 25.4674 132.304C24.9804 135.139 24.4185 137.316 23.8415 138.737C23.5493 139.457 23.2984 139.868 23.1327 140.065C22.9516 140.281 23.0896 140 23.5591 140V144ZM16.0727 110.05C16.0727 118.95 16.6912 127.056 17.7085 132.981C18.2144 135.926 18.8346 138.429 19.5704 140.242C19.9346 141.139 20.3727 141.983 20.9214 142.637C21.4545 143.272 22.3321 144 23.5591 144V140C24.0286 140 24.1666 140.281 23.9854 140.065C23.8198 139.868 23.5689 139.457 23.2767 138.737C22.6997 137.316 22.1378 135.139 21.6508 132.304C20.6824 126.664 20.0727 118.795 20.0727 110.05H16.0727ZM16.4892 97.7466C16.2205 101.545 16.0727 105.7 16.0727 110.05H20.0727C20.0727 105.788 20.2175 101.728 20.4792 98.0289L16.4892 97.7466ZM5.74545 59.3818C5.74545 74.8926 9.95967 88.9841 16.8343 99.0182L20.1341 96.7574C13.785 87.4903 9.74545 74.2178 9.74545 59.3818H5.74545ZM6.96656 45.1414C6.16972 49.6847 5.74545 54.459 5.74545 59.3818H9.74545C9.74545 54.688 10.1501 50.145 10.9064 45.8324L6.96656 45.1414Z" fill="black" mask="url(#path-1-inside-1_2247_3277)"/>
<circle cx="20.5137" cy="24.5079" r="11.2129" fill="url(#paint0_linear_2247_3277)"/>
<circle cx="20.5194" cy="24.5252" r="7.08186" fill="#350F42"/>
<circle cx="20.5305" cy="24.5227" r="5.32735" fill="url(#paint1_linear_2247_3277)"/>
<circle cx="20.5077" cy="24.5096" r="2.69518" fill="#350F42"/>
<path d="M32.539 24.5098C33.3567 24.5098 34.0279 23.8449 33.9385 23.0321C33.6042 19.9926 32.2454 17.1397 30.0626 14.9569C27.529 12.4233 24.0928 11 20.5098 11C16.9268 11 13.4905 12.4233 10.9569 14.9569C8.7741 17.1397 7.41538 19.9926 7.08101 23.0321C6.9916 23.8449 7.66285 24.5098 8.48052 24.5098C9.29819 24.5098 9.95035 23.8436 10.0647 23.034C10.3829 20.7817 11.4236 18.6778 13.0507 17.0507C15.029 15.0724 17.7121 13.961 20.5098 13.961C23.3075 13.961 25.9906 15.0724 27.9688 17.0507C29.5959 18.6778 30.6366 20.7817 30.9548 23.034C31.0692 23.8436 31.7213 24.5098 32.539 24.5098Z" fill="#350F42"/>
<circle cx="18.8611" cy="21.8083" r="1.65794" fill="white"/>
<circle cx="23.2146" cy="27.9685" r="0.765425" fill="white"/>
<defs>
<linearGradient id="paint0_linear_2247_3277" x1="20.5137" y1="13.2949" x2="20.5137" y2="35.7208" gradientUnits="userSpaceOnUse">
<stop stop-color="#EBD6EB"/>
<stop offset="0.9999" stop-color="white"/>
</linearGradient>
<linearGradient id="paint1_linear_2247_3277" x1="20.5305" y1="19.1953" x2="20.5305" y2="29.85" gradientUnits="userSpaceOnUse">
<stop stop-color="#853085"/>
<stop offset="1" stop-color="#9D4A9D"/>
</linearGradient>
</defs>
</svg>
