<svg width="75" height="158" viewBox="0 0 75 158" fill="none" xmlns="http://www.w3.org/2000/svg">
<mask id="path-1-inside-1_2247_3291" fill="white">
<path fill-rule="evenodd" clip-rule="evenodd" d="M9.67849 46.098C3.81152 41.4608 0 33.9598 0 25.4955C0 11.4147 10.5478 0 23.5591 0C33.157 0 41.4143 6.21115 45.0863 15.1219C63.6255 17.2243 76.4892 42.0071 73.8908 70.8522C72.5462 85.7785 67.3224 98.8947 60.0145 107.905C60.619 113.039 60.9727 119.254 60.9727 125.95C60.9727 143.596 58.5164 157.9 55.4864 157.9C52.4563 157.9 50 143.596 50 125.95C50 122.725 50.0821 119.611 50.2347 116.676C45.4871 119.573 40.3353 120.971 35.0711 120.497C32.5251 120.267 30.0832 119.612 27.7704 118.578C27.1239 132.032 25.003 141.9 22.4864 141.9C19.4584 141.9 17.0034 127.615 17 109.986C8.68443 99.7133 4.09834 83.0328 5.74853 64.7138C6.34572 58.0844 7.70813 51.8121 9.67849 46.098Z"/>
</mask>
<path fill-rule="evenodd" clip-rule="evenodd" d="M9.67849 46.098C3.81152 41.4608 0 33.9598 0 25.4955C0 11.4147 10.5478 0 23.5591 0C33.157 0 41.4143 6.21115 45.0863 15.1219C63.6255 17.2243 76.4892 42.0071 73.8908 70.8522C72.5462 85.7785 67.3224 98.8947 60.0145 107.905C60.619 113.039 60.9727 119.254 60.9727 125.95C60.9727 143.596 58.5164 157.9 55.4864 157.9C52.4563 157.9 50 143.596 50 125.95C50 122.725 50.0821 119.611 50.2347 116.676C45.4871 119.573 40.3353 120.971 35.0711 120.497C32.5251 120.267 30.0832 119.612 27.7704 118.578C27.1239 132.032 25.003 141.9 22.4864 141.9C19.4584 141.9 17.0034 127.615 17 109.986C8.68443 99.7133 4.09834 83.0328 5.74853 64.7138C6.34572 58.0844 7.70813 51.8121 9.67849 46.098Z" fill="#9A2B4E"/>
<path d="M9.67849 46.098L11.5692 46.7499L12.0317 45.4087L10.9187 44.5289L9.67849 46.098ZM45.0863 15.1219L43.2372 15.8839L43.6872 16.976L44.861 17.1091L45.0863 15.1219ZM73.8908 70.8522L71.8989 70.6727L73.8908 70.8522ZM60.0145 107.905L58.4612 106.645L57.9296 107.3L58.0282 108.139L60.0145 107.905ZM50.2347 116.676L52.232 116.78L52.4289 112.994L49.1929 114.969L50.2347 116.676ZM35.0711 120.497L35.2506 118.505H35.2506L35.0711 120.497ZM27.7704 118.578L28.5869 116.752L25.9132 115.556L25.7727 118.482L27.7704 118.578ZM17 109.986L19 109.986L18.9999 109.278L18.5546 108.728L17 109.986ZM5.74853 64.7138L7.74046 64.8933L5.74853 64.7138ZM-2 25.4955C-2 34.5613 2.08348 42.6443 8.43832 47.667L10.9187 44.5289C5.53957 40.2773 2 33.3584 2 25.4955H-2ZM23.5591 -2C9.29738 -2 -2 10.4618 -2 25.4955H2C2 12.3676 11.7981 2 23.5591 2V-2ZM46.9355 14.3599C42.9943 4.79593 34.0662 -2 23.5591 -2V2C32.2478 2 39.8344 7.62638 43.2372 15.8839L46.9355 14.3599ZM75.8827 71.0316C77.2111 56.2852 74.5989 42.4879 69.1914 32.0393C63.7956 21.6134 55.4659 14.2862 45.3117 13.1346L44.861 17.1091C53.2459 18.06 60.6176 24.1754 65.6389 33.8778C70.6485 43.5574 73.1689 56.574 71.8989 70.6727L75.8827 71.0316ZM61.5678 109.165C69.163 99.8003 74.5082 86.2908 75.8827 71.0316L71.8989 70.6727C70.5843 85.2663 65.4817 97.9891 58.4612 106.645L61.5678 109.165ZM58.0282 108.139C58.6222 113.184 58.9727 119.32 58.9727 125.95H62.9727C62.9727 119.189 62.6158 112.895 62.0008 107.671L58.0282 108.139ZM58.9727 125.95C58.9727 134.695 58.363 142.564 57.3947 148.204C56.9077 151.039 56.3458 153.216 55.7688 154.637C55.4766 155.357 55.2257 155.768 55.06 155.965C54.8789 156.181 55.0169 155.9 55.4864 155.9V159.9C56.7133 159.9 57.5909 159.172 58.1241 158.537C58.6727 157.883 59.1108 157.039 59.475 156.142C60.2108 154.329 60.8311 151.826 61.337 148.881C62.3542 142.956 62.9727 134.85 62.9727 125.95H58.9727ZM55.4864 155.9C55.9558 155.9 56.0938 156.181 55.9127 155.965C55.747 155.768 55.4961 155.357 55.2039 154.637C54.627 153.216 54.065 151.039 53.5781 148.204C52.6097 142.564 52 134.695 52 125.95H48C48 134.85 48.6185 142.956 49.6358 148.881C50.1416 151.826 50.7619 154.329 51.4977 156.142C51.8619 157.039 52.3 157.883 52.8486 158.537C53.3818 159.172 54.2594 159.9 55.4864 159.9V155.9ZM52 125.95C52 122.758 52.0812 119.679 52.232 116.78L48.2374 116.572C48.0829 119.543 48 122.691 48 125.95H52ZM34.8917 122.489C40.6436 123.007 46.2184 121.47 51.2765 118.383L49.1929 114.969C44.7557 117.676 40.0271 118.935 35.2506 118.505L34.8917 122.489ZM26.9539 120.403C29.4605 121.524 32.1171 122.239 34.8917 122.489L35.2506 118.505C32.9331 118.296 30.7059 117.7 28.5869 116.752L26.9539 120.403ZM22.4864 143.9C23.5039 143.9 24.2883 143.392 24.8141 142.873C25.3341 142.36 25.7428 141.706 26.0747 141.036C26.7426 139.689 27.3056 137.854 27.7817 135.72C28.7414 131.418 29.4418 125.464 29.7681 118.674L25.7727 118.482C25.4525 125.146 24.7693 130.853 23.8777 134.849C23.4282 136.863 22.9487 138.336 22.4909 139.26C22.26 139.725 22.0851 139.947 22.0048 140.026C21.9304 140.099 22.098 139.9 22.4864 139.9V143.9ZM15 109.987C15.0017 118.879 15.6207 126.976 16.6379 132.893C17.1437 135.835 17.7637 138.335 18.4993 140.145C18.8633 141.041 19.3013 141.885 19.8498 142.538C20.383 143.173 21.2602 143.9 22.4864 143.9V139.9C22.9555 139.9 23.0937 140.181 22.913 139.966C22.7477 139.769 22.4971 139.358 22.2051 138.64C21.6286 137.221 21.0669 135.048 20.5801 132.215C19.6119 126.583 19.0017 118.723 19 109.986L15 109.987ZM3.75659 64.5344C2.07202 83.235 6.72574 100.472 15.4455 111.245L18.5546 108.728C10.6431 98.9542 6.12465 82.8305 7.74046 64.8933L3.75659 64.5344ZM7.78774 45.446C5.76344 51.3165 4.36794 57.7478 3.75659 64.5344L7.74046 64.8933C8.32349 58.421 9.65282 52.3076 11.5692 46.7499L7.78774 45.446Z" fill="black" mask="url(#path-1-inside-1_2247_3291)"/>
<circle cx="21.5137" cy="22.5079" r="11.2129" fill="url(#paint0_linear_2247_3291)"/>
<circle cx="21.5194" cy="22.5252" r="7.08186" fill="#350F42"/>
<circle cx="21.5305" cy="22.5227" r="5.32735" fill="url(#paint1_linear_2247_3291)"/>
<circle cx="21.5077" cy="22.5096" r="2.69518" fill="#350F42"/>
<path d="M33.539 22.5098C34.3567 22.5098 35.0279 21.8449 34.9385 21.0321C34.6042 17.9926 33.2454 15.1397 31.0626 12.9569C28.529 10.4233 25.0928 9 21.5098 9C17.9268 9 14.4905 10.4233 11.9569 12.9569C9.7741 15.1397 8.41538 17.9926 8.08101 21.0321C7.9916 21.8449 8.66285 22.5098 9.48052 22.5098C10.2982 22.5098 10.9504 21.8436 11.0647 21.034C11.3829 18.7817 12.4236 16.6778 14.0507 15.0507C16.029 13.0724 18.7121 11.961 21.5098 11.961C24.3075 11.961 26.9906 13.0724 28.9688 15.0507C30.5959 16.6778 31.6366 18.7817 31.9548 21.034C32.0692 21.8436 32.7213 22.5098 33.539 22.5098Z" fill="#350F42"/>
<circle cx="19.8611" cy="19.8083" r="1.65794" fill="white"/>
<circle cx="24.2146" cy="25.9685" r="0.765425" fill="white"/>
<defs>
<linearGradient id="paint0_linear_2247_3291" x1="21.5137" y1="11.2949" x2="21.5137" y2="33.7208" gradientUnits="userSpaceOnUse">
<stop stop-color="#EBD6EB"/>
<stop offset="0.9999" stop-color="white"/>
</linearGradient>
<linearGradient id="paint1_linear_2247_3291" x1="21.5305" y1="17.1953" x2="21.5305" y2="27.85" gradientUnits="userSpaceOnUse">
<stop stop-color="#853085"/>
<stop offset="1" stop-color="#9D4A9D"/>
</linearGradient>
</defs>
</svg>
