<svg width="75" height="158" viewBox="0 0 75 158" fill="none" xmlns="http://www.w3.org/2000/svg">
<mask id="path-1-inside-1_2247_3409" fill="white">
<path fill-rule="evenodd" clip-rule="evenodd" d="M7.82689 44.4736C3.02227 39.806 0 33.0327 0 25.4955C0 11.4147 10.5478 0 23.5591 0C33.6845 0 42.3181 6.91275 45.6497 16.6152C60.0144 22.157 71.7715 41.1868 73.8908 64.7138C75.5411 83.0342 70.9542 99.7159 62.6374 109.989C62.6338 127.616 60.1788 141.9 57.151 141.9C54.6344 141.9 52.5135 132.032 51.8671 118.578C49.5548 119.612 47.1135 120.268 44.5682 120.497C39.3033 120.971 34.1508 119.573 29.4026 116.675C29.5553 119.61 29.6374 122.724 29.6374 125.95C29.6374 143.596 27.1811 157.9 24.151 157.9C21.121 157.9 18.6647 143.596 18.6647 125.95C18.6647 119.253 19.0185 113.038 19.6231 107.903C12.3162 98.8927 7.09301 85.7774 5.74853 70.8522C4.89757 61.4057 5.70494 52.3948 7.82689 44.4736Z"/>
</mask>
<path fill-rule="evenodd" clip-rule="evenodd" d="M7.82689 44.4736C3.02227 39.806 0 33.0327 0 25.4955C0 11.4147 10.5478 0 23.5591 0C33.6845 0 42.3181 6.91275 45.6497 16.6152C60.0144 22.157 71.7715 41.1868 73.8908 64.7138C75.5411 83.0342 70.9542 99.7159 62.6374 109.989C62.6338 127.616 60.1788 141.9 57.151 141.9C54.6344 141.9 52.5135 132.032 51.8671 118.578C49.5548 119.612 47.1135 120.268 44.5682 120.497C39.3033 120.971 34.1508 119.573 29.4026 116.675C29.5553 119.61 29.6374 122.724 29.6374 125.95C29.6374 143.596 27.1811 157.9 24.151 157.9C21.121 157.9 18.6647 143.596 18.6647 125.95C18.6647 119.253 19.0185 113.038 19.6231 107.903C12.3162 98.8927 7.09301 85.7774 5.74853 70.8522C4.89757 61.4057 5.70494 52.3948 7.82689 44.4736Z" fill="#9A2B4E"/>
<path d="M7.82689 44.4736L9.75877 44.9911L10.0625 43.8571L9.22049 43.0391L7.82689 44.4736ZM45.6497 16.6152L43.7582 17.2647L44.0607 18.1458L44.9299 18.4811L45.6497 16.6152ZM73.8908 64.7138L71.8989 64.8933L73.8908 64.7138ZM62.6374 109.989L61.0829 108.73L60.6375 109.281L60.6374 109.988L62.6374 109.989ZM51.8671 118.578L53.8648 118.482L53.7242 115.557L51.0507 116.753L51.8671 118.578ZM44.5682 120.497L44.3888 118.505L44.5682 120.497ZM29.4026 116.675L30.4446 114.967L27.2084 112.992L27.4053 116.778L29.4026 116.675ZM19.6231 107.903L21.6094 108.137L21.7081 107.298L21.1765 106.643L19.6231 107.903ZM5.74853 70.8522L7.74046 70.6727L5.74853 70.8522ZM-2 25.4955C-2 33.5697 1.23852 40.8615 6.43328 45.9081L9.22049 43.0391C4.80602 38.7505 2 32.4957 2 25.4955H-2ZM23.5591 -2C9.29738 -2 -2 10.4618 -2 25.4955H2C2 12.3676 11.7981 2 23.5591 2V-2ZM47.5413 15.9656C43.9687 5.56155 34.646 -2 23.5591 -2V2C32.7231 2 40.6674 8.26395 43.7582 17.2647L47.5413 15.9656ZM75.8827 64.5344C73.7283 40.6184 61.7352 20.6772 46.3696 14.7492L44.9299 18.4811C58.2935 23.6368 69.8146 41.7552 71.8989 64.8933L75.8827 64.5344ZM64.1918 111.247C72.9129 100.475 77.5674 83.2365 75.8827 64.5344L71.8989 64.8933C73.5148 82.8319 68.9955 98.9567 61.0829 108.73L64.1918 111.247ZM57.151 143.9C58.3771 143.9 59.2543 143.173 59.7875 142.538C60.336 141.885 60.774 141.042 61.138 140.146C61.8735 138.335 62.4936 135.836 62.9994 132.894C64.0165 126.977 64.6356 118.88 64.6374 109.989L60.6374 109.988C60.6356 118.725 60.0254 126.584 59.0572 132.216C58.5703 135.048 58.0087 137.221 57.4322 138.64C57.1403 139.359 56.8897 139.769 56.7244 139.966C56.5437 140.181 56.6819 139.9 57.151 139.9V143.9ZM49.8694 118.674C50.1956 125.464 50.8961 131.419 51.8557 135.72C52.3319 137.854 52.8949 139.689 53.5627 141.036C53.8947 141.706 54.3034 142.36 54.8233 142.873C55.3492 143.392 56.1336 143.9 57.151 143.9V139.9C57.5393 139.9 57.707 140.099 57.6326 140.026C57.5523 139.947 57.3774 139.725 57.1465 139.26C56.6887 138.336 56.2092 136.863 55.7597 134.849C54.8682 130.853 54.185 125.147 53.8648 118.482L49.8694 118.674ZM44.7476 122.489C47.5215 122.239 50.1774 121.525 52.6834 120.404L51.0507 116.753C48.9322 117.7 46.7056 118.296 44.3888 118.505L44.7476 122.489ZM28.3607 118.382C33.4193 121.469 38.995 123.007 44.7476 122.489L44.3888 118.505C39.6116 118.935 34.8823 117.676 30.4446 114.967L28.3607 118.382ZM31.6374 125.95C31.6374 122.691 31.5545 119.542 31.3999 116.571L27.4053 116.778C27.5561 119.678 27.6374 122.758 27.6374 125.95H31.6374ZM24.151 159.9C25.378 159.9 26.2556 159.172 26.7888 158.537C27.3374 157.883 27.7755 157.039 28.1397 156.142C28.8755 154.329 29.4958 151.826 30.0016 148.881C31.0189 142.956 31.6374 134.85 31.6374 125.95H27.6374C27.6374 134.695 27.0277 142.564 26.0593 148.204C25.5724 151.039 25.0104 153.216 24.4335 154.637C24.1412 155.357 23.8904 155.768 23.7247 155.965C23.5436 156.181 23.6816 155.9 24.151 155.9V159.9ZM16.6647 125.95C16.6647 134.85 17.2831 142.956 18.3004 148.881C18.8063 151.826 19.4266 154.329 20.1624 156.142C20.5265 157.039 20.9647 157.883 21.5133 158.537C22.0465 159.172 22.924 159.9 24.151 159.9V155.9C24.6205 155.9 24.7585 156.181 24.5774 155.965C24.4117 155.768 24.1608 155.357 23.8686 154.637C23.2916 153.216 22.7297 151.039 22.2427 148.204C21.2744 142.564 20.6647 134.695 20.6647 125.95H16.6647ZM17.6368 107.669C17.0217 112.893 16.6647 119.188 16.6647 125.95H20.6647C20.6647 119.319 21.0152 113.182 21.6094 108.137L17.6368 107.669ZM3.75659 71.0316C5.13105 86.2896 10.4755 99.7983 18.0697 109.163L21.1765 106.643C14.1568 97.9872 9.05497 85.2652 7.74046 70.6727L3.75659 71.0316ZM5.895 43.9561C3.70908 52.1161 2.88569 61.3636 3.75659 71.0316L7.74046 70.6727C6.90946 61.4477 7.7008 52.6735 9.75877 44.9911L5.895 43.9561Z" fill="black" mask="url(#path-1-inside-1_2247_3409)"/>
<circle cx="21.5137" cy="22.5079" r="11.2129" fill="url(#paint0_linear_2247_3409)"/>
<circle cx="21.5194" cy="22.5252" r="7.08186" fill="#350F42"/>
<circle cx="21.5305" cy="22.5227" r="5.32735" fill="url(#paint1_linear_2247_3409)"/>
<circle cx="21.5077" cy="22.5096" r="2.69518" fill="#350F42"/>
<path d="M33.539 22.5098C34.3567 22.5098 35.0279 21.8449 34.9385 21.0321C34.6042 17.9926 33.2454 15.1397 31.0626 12.9569C28.529 10.4233 25.0928 9 21.5098 9C17.9268 9 14.4905 10.4233 11.9569 12.9569C9.7741 15.1397 8.41538 17.9926 8.08101 21.0321C7.9916 21.8449 8.66285 22.5098 9.48052 22.5098C10.2982 22.5098 10.9504 21.8436 11.0647 21.034C11.3829 18.7817 12.4236 16.6778 14.0507 15.0507C16.029 13.0724 18.7121 11.961 21.5098 11.961C24.3075 11.961 26.9906 13.0724 28.9688 15.0507C30.5959 16.6778 31.6366 18.7817 31.9548 21.034C32.0692 21.8436 32.7213 22.5098 33.539 22.5098Z" fill="#350F42"/>
<circle cx="19.8611" cy="19.8083" r="1.65794" fill="white"/>
<circle cx="24.2146" cy="25.9685" r="0.765425" fill="white"/>
<defs>
<linearGradient id="paint0_linear_2247_3409" x1="21.5137" y1="11.2949" x2="21.5137" y2="33.7208" gradientUnits="userSpaceOnUse">
<stop stop-color="#EBD6EB"/>
<stop offset="0.9999" stop-color="white"/>
</linearGradient>
<linearGradient id="paint1_linear_2247_3409" x1="21.5305" y1="17.1953" x2="21.5305" y2="27.85" gradientUnits="userSpaceOnUse">
<stop stop-color="#853085"/>
<stop offset="1" stop-color="#9D4A9D"/>
</linearGradient>
</defs>
</svg>
