<svg width="10" height="16" viewBox="0 0 10 16" fill="none" xmlns="http://www.w3.org/2000/svg">
<path d="M8.11302 12.6662C8.11302 13.4105 7.65395 13.6377 7.05798 14.1411C6.42467 13.6483 6.00293 13.4105 6.00293 12.6662C6.00293 11.9218 6.47529 11.3184 7.05798 11.3184C7.64066 11.3184 8.11302 11.9218 8.11302 12.6662Z" fill="url(#paint0_linear_2212_1931)"/>
<path d="M7.86136 12.19C7.86136 12.6714 7.51179 12.8183 7.05798 13.1439C6.57573 12.8251 6.25459 12.6714 6.25459 12.19C6.25459 11.7086 6.61428 11.3184 7.05798 11.3184C7.50167 11.3184 7.86136 11.7086 7.86136 12.19Z" fill="url(#paint1_linear_2212_1931)"/>
<path d="M4.44296 15.0285C4.44296 15.5189 4.14071 15.6685 3.74834 16.0002C3.33138 15.6755 3.05371 15.5189 3.05371 15.0285C3.05371 14.5381 3.36471 14.1406 3.74834 14.1406C4.13197 14.1406 4.44296 14.5381 4.44296 15.0285Z" fill="url(#paint2_linear_2212_1931)"/>
<path d="M4.27727 14.7148C4.27727 15.0319 4.04712 15.1287 3.74834 15.3432C3.43084 15.1332 3.2194 15.0319 3.2194 14.7148C3.2194 14.3977 3.45621 14.1406 3.74834 14.1406C4.04046 14.1406 4.27727 14.3977 4.27727 14.7148Z" fill="url(#paint3_linear_2212_1931)"/>
<path d="M10 5.40395C10 8.38847 7.82438 9.29933 5 11.3178C1.99869 9.34183 0 8.38847 0 5.40395C0 2.41943 2.23858 0 5 0C7.76142 0 10 2.41943 10 5.40395Z" fill="url(#paint4_linear_2212_1931)"/>
<path d="M8.80734 3.49477C8.80734 5.42488 7.15067 6.01394 5 7.31933C2.7146 6.04142 1.19266 5.42488 1.19266 3.49477C1.19266 1.56466 2.89726 0 5 0C7.10274 0 8.80734 1.56466 8.80734 3.49477Z" fill="url(#paint5_linear_2212_1931)"/>
<path d="M7.54915 2.20041C7.54915 3.41567 6.43995 3.78655 5 4.60846C3.46984 3.80386 2.45085 3.41567 2.45085 2.20041C2.45085 0.985158 3.59214 0 5 0C6.40786 0 7.54915 0.985158 7.54915 2.20041Z" fill="url(#paint6_linear_2212_1931)"/>
<defs>
<linearGradient id="paint0_linear_2212_1931" x1="7.05798" y1="11.3184" x2="7.05798" y2="14.1411" gradientUnits="userSpaceOnUse">
<stop stop-color="#FF6A00"/>
<stop offset="1" stop-color="#DC5C00"/>
</linearGradient>
<linearGradient id="paint1_linear_2212_1931" x1="7.05798" y1="11.3184" x2="7.05798" y2="13.1439" gradientUnits="userSpaceOnUse">
<stop stop-color="#FFF942"/>
<stop offset="1" stop-color="#FFCC00"/>
</linearGradient>
<linearGradient id="paint2_linear_2212_1931" x1="3.74834" y1="14.1406" x2="3.74834" y2="16.0002" gradientUnits="userSpaceOnUse">
<stop stop-color="#FF6A00"/>
<stop offset="1" stop-color="#DC5C00"/>
</linearGradient>
<linearGradient id="paint3_linear_2212_1931" x1="3.74834" y1="14.1406" x2="3.74834" y2="15.3432" gradientUnits="userSpaceOnUse">
<stop stop-color="#FFF942"/>
<stop offset="1" stop-color="#FFCC00"/>
</linearGradient>
<linearGradient id="paint4_linear_2212_1931" x1="5" y1="0" x2="5" y2="11.3178" gradientUnits="userSpaceOnUse">
<stop stop-color="#FF6A00"/>
<stop offset="1" stop-color="#DC5C00"/>
</linearGradient>
<linearGradient id="paint5_linear_2212_1931" x1="5" y1="0" x2="5" y2="11.3178" gradientUnits="userSpaceOnUse">
<stop stop-color="#FFF942"/>
<stop offset="1" stop-color="#FFCC00"/>
</linearGradient>
<linearGradient id="paint6_linear_2212_1931" x1="5" y1="0" x2="5" y2="4.60846" gradientUnits="userSpaceOnUse">
<stop stop-color="white"/>
<stop offset="1" stop-color="#FFF8CA"/>
</linearGradient>
</defs>
</svg>
