<svg width="10" height="16" viewBox="0 0 10 16" fill="none" xmlns="http://www.w3.org/2000/svg">
<path d="M7.46488 13.2357C7.46488 13.7121 7.13258 13.8575 6.70119 14.1797C6.24278 13.8643 5.9375 13.7121 5.9375 13.2357C5.9375 12.7593 6.27942 12.373 6.70119 12.373C7.12296 12.373 7.46488 12.7593 7.46488 13.2357Z" fill="url(#paint0_linear_2212_1932)"/>
<path d="M7.28271 12.9309C7.28271 13.239 7.02968 13.333 6.70119 13.5414C6.35212 13.3374 6.11966 13.239 6.11966 12.9309C6.11966 12.6228 6.38002 12.373 6.70119 12.373C7.02236 12.373 7.28271 12.6228 7.28271 12.9309Z" fill="url(#paint1_linear_2212_1932)"/>
<path d="M4.45314 15.5243C4.45314 15.7642 4.28699 15.8374 4.0713 15.9997C3.84209 15.8408 3.68945 15.7642 3.68945 15.5243C3.68945 15.2843 3.86041 15.0898 4.0713 15.0898C4.28218 15.0898 4.45314 15.2843 4.45314 15.5243Z" fill="url(#paint2_linear_2212_1932)"/>
<path d="M4.36206 15.3708C4.36206 15.5259 4.23554 15.5733 4.0713 15.6782C3.89676 15.5755 3.78054 15.5259 3.78054 15.3708C3.78054 15.2156 3.91071 15.0898 4.0713 15.0898C4.23188 15.0898 4.36206 15.2156 4.36206 15.3708Z" fill="url(#paint3_linear_2212_1932)"/>
<path d="M10 4.77238C10 7.40809 7.82438 8.21249 5 9.99509C1.99869 8.25002 0 7.40809 0 4.77238C0 2.13667 2.23858 0 5 0C7.76142 0 10 2.13667 10 4.77238Z" fill="url(#paint4_linear_2212_1932)"/>
<path d="M8.80734 3.08633C8.80734 4.79086 7.15067 5.31107 5 6.46389C2.7146 5.33534 1.19266 4.79086 1.19266 3.08633C1.19266 1.3818 2.89726 0 5 0C7.10274 0 8.80734 1.3818 8.80734 3.08633Z" fill="url(#paint5_linear_2212_1932)"/>
<path d="M7.54915 1.94324C7.54915 3.01647 6.43995 3.34401 5 4.06986C3.46984 3.35929 2.45085 3.01647 2.45085 1.94324C2.45085 0.87002 3.59214 0 5 0C6.40786 0 7.54915 0.87002 7.54915 1.94324Z" fill="url(#paint6_linear_2212_1932)"/>
<defs>
<linearGradient id="paint0_linear_2212_1932" x1="6.70119" y1="12.373" x2="6.70119" y2="14.1797" gradientUnits="userSpaceOnUse">
<stop stop-color="#FF6A00"/>
<stop offset="1" stop-color="#DC5C00"/>
</linearGradient>
<linearGradient id="paint1_linear_2212_1932" x1="6.70119" y1="12.373" x2="6.70119" y2="13.5414" gradientUnits="userSpaceOnUse">
<stop stop-color="#FFF942"/>
<stop offset="1" stop-color="#FFCC00"/>
</linearGradient>
<linearGradient id="paint2_linear_2212_1932" x1="4.0713" y1="15.0898" x2="4.0713" y2="15.9997" gradientUnits="userSpaceOnUse">
<stop stop-color="#FF6A00"/>
<stop offset="1" stop-color="#DC5C00"/>
</linearGradient>
<linearGradient id="paint3_linear_2212_1932" x1="4.0713" y1="15.0898" x2="4.0713" y2="15.6782" gradientUnits="userSpaceOnUse">
<stop stop-color="#FFF942"/>
<stop offset="1" stop-color="#FFCC00"/>
</linearGradient>
<linearGradient id="paint4_linear_2212_1932" x1="5" y1="0" x2="5" y2="9.99509" gradientUnits="userSpaceOnUse">
<stop stop-color="#FF6A00"/>
<stop offset="1" stop-color="#DC5C00"/>
</linearGradient>
<linearGradient id="paint5_linear_2212_1932" x1="5" y1="0" x2="5" y2="9.99509" gradientUnits="userSpaceOnUse">
<stop stop-color="#FFF942"/>
<stop offset="1" stop-color="#FFCC00"/>
</linearGradient>
<linearGradient id="paint6_linear_2212_1932" x1="5" y1="0" x2="5" y2="4.06986" gradientUnits="userSpaceOnUse">
<stop stop-color="white"/>
<stop offset="1" stop-color="#FFF8CA"/>
</linearGradient>
</defs>
</svg>
