<svg width="93" height="140" viewBox="0 0 93 140" fill="none" xmlns="http://www.w3.org/2000/svg">
<path d="M1 72.6719H92V129.237C92 134.207 87.9706 138.237 83 138.237H10C5.02944 138.237 1 134.207 1 129.237V72.6719Z" fill="#8384AA" stroke="#350F42" stroke-width="2"/>
<path d="M1 55C1 50.0294 5.02944 46 10 46H83C87.9706 46 92 50.0294 92 55V109.36C92 114.331 87.9706 118.36 83 118.36H10C5.02944 118.36 1 114.331 1 109.36V55Z" fill="url(#paint0_linear_2294_1837)" stroke="#350F42" stroke-width="2"/>
<path d="M14 56.3789H80V97.0017C80 101.972 75.9706 106.002 71 106.002H23C18.0294 106.002 14 101.972 14 97.0016V56.3789Z" fill="#8384AA" stroke="#350F42" stroke-width="2"/>
<path d="M14 45C14 40.0294 18.0294 36 23 36H71C75.9706 36 80 40.0294 80 45V81.8146C80 86.7852 75.9706 90.8146 71 90.8146H23C18.0294 90.8146 14 86.7852 14 81.8146V45Z" fill="url(#paint1_linear_2294_1837)" stroke="#350F42" stroke-width="2"/>
<path d="M22 15.416H44V51.0002C44 53.2093 42.2091 55.0002 40 55.0002H26C23.7909 55.0002 22 53.2093 22 51.0002V15.416Z" fill="#8384AA" stroke="#350F42" stroke-width="2"/>
<rect x="22" y="1" width="22" height="22" rx="4" fill="url(#paint2_linear_2294_1837)" stroke="#350F42" stroke-width="2"/>
<path d="M22 43.416H44V79.0002C44 81.2093 42.2091 83.0002 40 83.0002H26C23.7909 83.0002 22 81.2093 22 79.0002V43.416Z" fill="#8384AA" stroke="#350F42" stroke-width="2"/>
<rect x="22" y="29" width="22" height="22" rx="4" fill="url(#paint3_linear_2294_1837)" stroke="#350F42" stroke-width="2"/>
<path d="M50 15.416H72V51.0002C72 53.2093 70.2091 55.0002 68 55.0002H54C51.7909 55.0002 50 53.2093 50 51.0002V15.416Z" fill="#8384AA" stroke="#350F42" stroke-width="2"/>
<rect x="50" y="1" width="22" height="22" rx="4" fill="url(#paint4_linear_2294_1837)" stroke="#350F42" stroke-width="2"/>
<path d="M50 43.416H72V79.0002C72 81.2093 70.2091 83.0002 68 83.0002H54C51.7909 83.0002 50 81.2093 50 79.0002V43.416Z" fill="#8384AA" stroke="#350F42" stroke-width="2"/>
<rect x="50" y="29" width="22" height="22" rx="4" fill="url(#paint5_linear_2294_1837)" stroke="#350F42" stroke-width="2"/>
<circle cx="46.5" cy="23.5" r="15.5" fill="#9AD5FF" stroke="#1E0528" stroke-width="2"/>
<circle cx="41.8471" cy="17.1537" r="2.53846" fill="white"/>
<circle cx="53.2692" cy="32.2692" r="1.26923" fill="#E7E7F8"/>
<defs>
<linearGradient id="paint0_linear_2294_1837" x1="46.5" y1="45" x2="46.5" y2="119.36" gradientUnits="userSpaceOnUse">
<stop stop-color="#8F90BD"/>
<stop offset="1" stop-color="#A5A6CE"/>
</linearGradient>
<linearGradient id="paint1_linear_2294_1837" x1="47" y1="35" x2="47" y2="91.8146" gradientUnits="userSpaceOnUse">
<stop stop-color="#8F90BD"/>
<stop offset="1" stop-color="#A5A6CE"/>
</linearGradient>
<linearGradient id="paint2_linear_2294_1837" x1="33" y1="0" x2="33" y2="24" gradientUnits="userSpaceOnUse">
<stop stop-color="#8F90BD"/>
<stop offset="1" stop-color="#A5A6CE"/>
</linearGradient>
<linearGradient id="paint3_linear_2294_1837" x1="33" y1="28" x2="33" y2="52" gradientUnits="userSpaceOnUse">
<stop stop-color="#8F90BD"/>
<stop offset="1" stop-color="#A5A6CE"/>
</linearGradient>
<linearGradient id="paint4_linear_2294_1837" x1="61" y1="0" x2="61" y2="24" gradientUnits="userSpaceOnUse">
<stop stop-color="#8F90BD"/>
<stop offset="1" stop-color="#A5A6CE"/>
</linearGradient>
<linearGradient id="paint5_linear_2294_1837" x1="61" y1="28" x2="61" y2="52" gradientUnits="userSpaceOnUse">
<stop stop-color="#8F90BD"/>
<stop offset="1" stop-color="#A5A6CE"/>
</linearGradient>
</defs>
</svg>
