<svg width="62" height="48" viewBox="0 0 62 48" fill="none" xmlns="http://www.w3.org/2000/svg">
<mask id="path-1-inside-1_2294_2874" fill="white">
<path fill-rule="evenodd" clip-rule="evenodd" d="M31.6879 43.9976C36.7837 44.01 41.4138 44.0214 45.0176 42.7721C50.5863 47.1169 57.242 47.8934 59.9682 44.483C62.7269 41.0318 60.4169 34.5999 54.8087 30.117C54.1004 29.5508 53.3734 29.0428 52.6381 28.5942C52.549 12.7826 42.5098 0 30.1387 0C17.7123 0 7.63867 12.897 7.63867 28.8063C7.63867 29.4621 7.65578 30.0896 7.68948 30.6901C1.61867 34.3352 -1.50199 40.288 0.712176 44.0604C2.94868 47.8708 9.78127 48.0136 15.9732 44.3792C16.513 44.0624 17.0302 43.7272 17.5231 43.3769C20.7203 44.0168 24.5053 44.0076 28.5895 43.9976C29.1013 43.9963 29.6179 43.995 30.1387 43.995C30.6594 43.995 31.176 43.9963 31.6879 43.9976Z"/>
</mask>
<path fill-rule="evenodd" clip-rule="evenodd" d="M31.6879 43.9976C36.7837 44.01 41.4138 44.0214 45.0176 42.7721C50.5863 47.1169 57.242 47.8934 59.9682 44.483C62.7269 41.0318 60.4169 34.5999 54.8087 30.117C54.1004 29.5508 53.3734 29.0428 52.6381 28.5942C52.549 12.7826 42.5098 0 30.1387 0C17.7123 0 7.63867 12.897 7.63867 28.8063C7.63867 29.4621 7.65578 30.0896 7.68948 30.6901C1.61867 34.3352 -1.50199 40.288 0.712176 44.0604C2.94868 47.8708 9.78127 48.0136 15.9732 44.3792C16.513 44.0624 17.0302 43.7272 17.5231 43.3769C20.7203 44.0168 24.5053 44.0076 28.5895 43.9976C29.1013 43.9963 29.6179 43.995 30.1387 43.995C30.6594 43.995 31.176 43.9963 31.6879 43.9976Z" fill="#D29B35"/>
<path d="M45.0176 42.7721L46.2479 41.1953L45.3903 40.5261L44.3626 40.8824L45.0176 42.7721ZM31.6879 43.9976L31.683 45.9975H31.683L31.6879 43.9976ZM59.9682 44.483L58.4059 43.2342L59.9682 44.483ZM54.8087 30.117L53.56 31.6792L54.8087 30.117ZM52.6381 28.5942L50.6381 28.6055L50.6444 29.7208L51.5965 30.3016L52.6381 28.5942ZM7.68948 30.6901L8.719 32.4048L9.75396 31.7834L9.68633 30.5781L7.68948 30.6901ZM0.712176 44.0604L2.43702 43.048L0.712176 44.0604ZM15.9732 44.3792L16.9856 46.1041H16.9856L15.9732 44.3792ZM17.5231 43.3769L17.9155 41.4158L17.0685 41.2463L16.3644 41.7468L17.5231 43.3769ZM28.5895 43.9976L28.5943 45.9975H28.5944L28.5895 43.9976ZM44.3626 40.8824C41.1488 41.9965 36.9056 42.0103 31.6928 41.9976L31.683 45.9975C36.6618 46.0097 41.6787 46.0463 45.6727 44.6618L44.3626 40.8824ZM58.4059 43.2342C57.631 44.2037 56.1005 44.8151 53.7876 44.5489C51.5093 44.2866 48.7916 43.1799 46.2479 41.1953L43.7873 44.3489C46.8124 46.7091 50.2068 48.1631 53.3301 48.5226C56.4188 48.8782 59.5792 48.1727 61.5304 45.7317L58.4059 43.2342ZM53.56 31.6792C56.1225 33.7276 57.8543 36.1647 58.6438 38.3629C59.4461 40.5968 59.1899 42.2534 58.4059 43.2342L61.5304 45.7317C63.5051 43.2613 63.4734 39.9764 62.4083 37.0109C61.3304 34.0096 59.1031 30.9893 56.0575 28.5548L53.56 31.6792ZM51.5965 30.3016C52.2592 30.7059 52.9171 31.1654 53.56 31.6792L56.0575 28.5548C55.2837 27.9363 54.4875 27.3797 53.6796 26.8869L51.5965 30.3016ZM30.1387 2C40.9807 2 50.5525 13.409 50.6381 28.6055L54.638 28.583C54.5455 12.1562 44.039 -2 30.1387 -2V2ZM9.63867 28.8063C9.63867 13.5133 19.2487 2 30.1387 2V-2C16.1758 -2 5.63867 12.2807 5.63867 28.8063H9.63867ZM9.68633 30.5781C9.65488 30.0175 9.63867 29.4274 9.63867 28.8063H5.63867C5.63867 29.4968 5.65668 30.1618 5.69262 30.8022L9.68633 30.5781ZM6.65995 28.9755C3.36229 30.9554 0.780714 33.6087 -0.678597 36.4012C-2.12156 39.1624 -2.59746 42.3727 -1.01266 45.0728L2.43702 43.048C1.80764 41.9757 1.78499 40.3234 2.86651 38.2538C3.93169 36.2155 5.94585 34.0698 8.719 32.4048L6.65995 28.9755ZM-1.01266 45.0728C0.588269 47.8004 3.66735 48.9453 6.81763 49.0112C10.0059 49.0778 13.623 48.0778 16.9856 46.1041L14.9608 42.6544C12.1315 44.315 9.23632 45.0608 6.90118 45.012C4.52805 44.9624 3.07259 44.1309 2.43702 43.048L-1.01266 45.0728ZM16.9856 46.1041C17.5754 45.7579 18.1414 45.3912 18.6818 45.0071L16.3644 41.7468C15.919 42.0633 15.4507 42.3669 14.9608 42.6544L16.9856 46.1041ZM28.5846 41.9976C24.4403 42.0077 20.8755 42.0082 17.9155 41.4158L17.1306 45.338C20.5652 46.0254 24.5703 46.0074 28.5943 45.9975L28.5846 41.9976ZM30.1387 41.995C29.6151 41.995 29.0961 41.9963 28.5845 41.9976L28.5944 45.9975C29.1066 45.9963 29.6208 45.995 30.1387 45.995V41.995ZM31.6928 41.9976C31.1813 41.9963 30.6622 41.995 30.1387 41.995V45.995C30.6565 45.995 31.1707 45.9963 31.683 45.9975L31.6928 41.9976Z" fill="black" mask="url(#path-1-inside-1_2294_2874)"/>
<g filter="url(#filter0_d_2294_2874)">
<circle cx="28.1641" cy="20.502" r="8.71488" fill="url(#paint0_linear_2294_2874)"/>
<circle cx="28.176" cy="20.5139" r="5.50413" fill="#350F42"/>
<circle cx="28.1757" cy="20.5155" r="4.1405" fill="url(#paint1_linear_2294_2874)"/>
<circle cx="28.1614" cy="20.4993" r="2.09504" fill="#350F42"/>
<path d="M37.5134 20.5C38.1489 20.5 38.6706 19.9832 38.6011 19.3515C38.3412 16.9892 37.2852 14.7719 35.5887 13.0754C33.6196 11.1062 30.9488 10 28.1641 10C25.3793 10 22.7086 11.1062 20.7394 13.0754C19.0429 14.7719 17.9869 16.9892 17.727 19.3515C17.6575 19.9832 18.1792 20.5 18.8147 20.5C19.4502 20.5 19.9571 19.9823 20.046 19.353C20.2933 17.6025 21.1021 15.9673 22.3668 14.7027C23.9043 13.1651 25.9896 12.3014 28.1641 12.3014C30.3385 12.3014 32.4238 13.1651 33.9614 14.7027C35.226 15.9673 36.0348 17.6025 36.2821 19.353C36.371 19.9823 36.8779 20.5 37.5134 20.5Z" fill="#350F42"/>
<circle cx="26.8869" cy="18.4045" r="1.28926" fill="white"/>
<circle cx="30.263" cy="23.1888" r="0.595041" fill="white"/>
</g>
<defs>
<filter id="filter0_d_2294_2874" x="9.72266" y="4" width="36.8828" height="35.2168" filterUnits="userSpaceOnUse" color-interpolation-filters="sRGB">
<feFlood flood-opacity="0" result="BackgroundImageFix"/>
<feColorMatrix in="SourceAlpha" type="matrix" values="0 0 0 0 0 0 0 0 0 0 0 0 0 0 0 0 0 0 127 0" result="hardAlpha"/>
<feMorphology radius="4" operator="dilate" in="SourceAlpha" result="effect1_dropShadow_2294_2874"/>
<feOffset dy="2"/>
<feGaussianBlur stdDeviation="2"/>
<feComposite in2="hardAlpha" operator="out"/>
<feColorMatrix type="matrix" values="0 0 0 0 0.207843 0 0 0 0 0.0588235 0 0 0 0 0.258824 0 0 0 1 0"/>
<feBlend mode="normal" in2="BackgroundImageFix" result="effect1_dropShadow_2294_2874"/>
<feBlend mode="normal" in="SourceGraphic" in2="effect1_dropShadow_2294_2874" result="shape"/>
</filter>
<linearGradient id="paint0_linear_2294_2874" x1="28.1641" y1="11.7871" x2="28.1641" y2="29.2169" gradientUnits="userSpaceOnUse">
<stop stop-color="#EBD6EB"/>
<stop offset="0.9999" stop-color="white"/>
</linearGradient>
<linearGradient id="paint1_linear_2294_2874" x1="28.1757" y1="16.375" x2="28.1757" y2="24.656" gradientUnits="userSpaceOnUse">
<stop stop-color="#853085"/>
<stop offset="1" stop-color="#9D4A9D"/>
</linearGradient>
</defs>
</svg>
