<svg width="66" height="39" viewBox="0 0 66 39" fill="none" xmlns="http://www.w3.org/2000/svg">
<mask id="path-1-inside-1_2294_2905" fill="white">
<path fill-rule="evenodd" clip-rule="evenodd" d="M35.2558 36.9979C40.0563 37.0067 44.4921 37.0147 48.1984 36.4139C48.8874 36.7281 49.6103 37.0115 50.3624 37.2586C57.1834 39.4999 63.8309 37.914 65.2101 33.7165C66.3248 30.3243 63.6575 26.2646 58.993 23.6488C58.6716 10.536 47.381 0 33.5 0C20.16 0 9.21249 9.73068 8.09411 22.1277C2.59853 24.7443 -0.67242 29.3195 0.603408 33.0263C2.04135 37.204 8.71047 38.6965 15.4993 36.3598C15.8681 36.2329 16.2297 36.0972 16.5835 35.9536C20.6756 37.018 25.9437 37.0085 31.7442 36.9979H31.7471C32.3263 36.9969 32.9108 36.9958 33.5 36.9958C34.0892 36.9958 34.6737 36.9969 35.2529 36.9979H35.2558Z"/>
</mask>
<path fill-rule="evenodd" clip-rule="evenodd" d="M35.2558 36.9979C40.0563 37.0067 44.4921 37.0147 48.1984 36.4139C48.8874 36.7281 49.6103 37.0115 50.3624 37.2586C57.1834 39.4999 63.8309 37.914 65.2101 33.7165C66.3248 30.3243 63.6575 26.2646 58.993 23.6488C58.6716 10.536 47.381 0 33.5 0C20.16 0 9.21249 9.73068 8.09411 22.1277C2.59853 24.7443 -0.67242 29.3195 0.603408 33.0263C2.04135 37.204 8.71047 38.6965 15.4993 36.3598C15.8681 36.2329 16.2297 36.0972 16.5835 35.9536C20.6756 37.018 25.9437 37.0085 31.7442 36.9979H31.7471C32.3263 36.9969 32.9108 36.9958 33.5 36.9958C34.0892 36.9958 34.6737 36.9969 35.2529 36.9979H35.2558Z" fill="#D29B35"/>
<path d="M48.1984 36.4139L49.0282 34.5941L48.4767 34.3426L47.8783 34.4396L48.1984 36.4139ZM35.2558 36.9979L35.2594 34.9979H35.2558V36.9979ZM50.3624 37.2586L50.9868 35.3585H50.9868L50.3624 37.2586ZM65.2101 33.7165L63.3101 33.0922L65.2101 33.7165ZM58.993 23.6488L56.9936 23.6978L57.0215 24.8362L58.0147 25.3932L58.993 23.6488ZM8.09411 22.1277L8.95389 23.9335L9.98356 23.4432L10.086 22.3074L8.09411 22.1277ZM0.603408 33.0263L-1.28771 33.6772L0.603408 33.0263ZM15.4993 36.3598L16.1502 38.2509L16.1502 38.2509L15.4993 36.3598ZM16.5835 35.9536L17.0871 34.018L16.4454 33.8511L15.8311 34.1005L16.5835 35.9536ZM31.7442 36.9979V34.9979L31.7406 34.9979L31.7442 36.9979ZM31.7471 36.9979V38.9979L31.7507 38.9979L31.7471 36.9979ZM35.2529 36.9979L35.2493 38.9979H35.2529V36.9979ZM47.8783 34.4396C44.3665 35.009 40.1106 35.0068 35.2594 34.9979L35.2521 38.9979C40.0019 39.0066 44.6176 39.0205 48.5184 38.3881L47.8783 34.4396ZM50.9868 35.3585C50.3042 35.1343 49.6499 34.8777 49.0282 34.5941L47.3685 38.2336C48.1249 38.5785 48.9164 38.8886 49.7381 39.1587L50.9868 35.3585ZM63.3101 33.0922C62.9181 34.2851 61.6717 35.4059 59.3628 35.9567C57.0909 36.4987 54.1035 36.3827 50.9868 35.3585L49.7381 39.1587C53.4423 40.3758 57.1891 40.5875 60.291 39.8475C63.356 39.1163 66.1229 37.3455 67.1102 34.3409L63.3101 33.0922ZM58.0147 25.3932C60.1223 26.5751 61.6796 28.0312 62.5757 29.4562C63.471 30.8798 63.6291 32.1213 63.3101 33.0922L67.1102 34.3409C67.9058 31.9196 67.2876 29.4351 65.9618 27.3268C64.6368 25.2199 62.5282 23.3383 59.9712 21.9043L58.0147 25.3932ZM33.5 2C46.3874 2 56.701 11.7597 56.9936 23.6978L60.9924 23.5997C60.6422 9.31228 48.3747 -2 33.5 -2V2ZM10.086 22.3074C11.1047 11.0152 21.1189 2 33.5 2V-2C19.2011 -2 7.32024 8.44619 6.1022 21.948L10.086 22.3074ZM7.23433 20.3219C4.23742 21.7488 1.74867 23.7528 0.167537 26.0262C-1.40701 28.2902 -2.19968 31.0276 -1.28771 33.6772L2.49452 32.3754C2.13067 31.3182 2.33556 29.9146 3.45143 28.3101C4.56071 26.7151 6.45522 25.1231 8.95389 23.9335L7.23433 20.3219ZM-1.28771 33.6772C-0.2584 36.6677 2.53309 38.3995 5.60799 39.0877C8.71996 39.7841 12.4634 39.5199 16.1502 38.2509L14.8484 34.4687C11.7463 35.5364 8.76082 35.6943 6.48155 35.1842C4.1652 34.6658 2.90316 33.5626 2.49452 32.3754L-1.28771 33.6772ZM16.1502 38.2509C16.5532 38.1122 16.9487 37.9639 17.336 37.8066L15.8311 34.1005C15.5108 34.2306 15.183 34.3535 14.8484 34.4687L16.1502 38.2509ZM31.7406 34.9979C25.8479 35.0086 20.8745 35.0032 17.0871 34.018L16.08 37.8891C20.4767 39.0329 26.0394 39.0083 31.7479 38.9979L31.7406 34.9979ZM31.7471 34.9979H31.7442V38.9979H31.7471V34.9979ZM33.5 34.9958C32.9087 34.9958 32.3224 34.9969 31.7435 34.9979L31.7507 38.9979C32.3302 38.9969 32.9129 38.9958 33.5 38.9958V34.9958ZM35.2565 34.9979C34.6776 34.9969 34.0913 34.9958 33.5 34.9958V38.9958C34.0871 38.9958 34.6698 38.9969 35.2493 38.9979L35.2565 34.9979ZM35.2558 34.9979H35.2529V38.9979H35.2558V34.9979Z" fill="black" mask="url(#path-1-inside-1_2294_2905)"/>
<g filter="url(#filter0_d_2294_2905)">
<circle cx="29.5" cy="18.502" r="8.71488" fill="url(#paint0_linear_2294_2905)"/>
<circle cx="29.5119" cy="18.5139" r="5.50413" fill="#350F42"/>
<circle cx="29.5116" cy="18.5155" r="4.1405" fill="url(#paint1_linear_2294_2905)"/>
<circle cx="29.4974" cy="18.4993" r="2.09504" fill="#350F42"/>
<path d="M38.8493 18.5C39.4848 18.5 40.0065 17.9832 39.937 17.3515C39.6772 14.9892 38.6211 12.7719 36.9246 11.0754C34.9555 9.10625 32.2848 8 29.5 8C26.7152 8 24.0445 9.10625 22.0754 11.0754C20.3789 12.7719 19.3228 14.9892 19.063 17.3515C18.9935 17.9832 19.5152 18.5 20.1507 18.5C20.7862 18.5 21.2931 17.9823 21.382 17.353C21.6293 15.6025 22.4381 13.9673 23.7027 12.7027C25.2402 11.1651 27.3256 10.3014 29.5 10.3014C31.6744 10.3014 33.7598 11.1651 35.2973 12.7027C36.5619 13.9673 37.3707 15.6025 37.618 17.353C37.7069 17.9823 38.2138 18.5 38.8493 18.5Z" fill="#350F42"/>
<circle cx="28.2229" cy="16.4045" r="1.28926" fill="white"/>
<circle cx="31.5989" cy="21.1888" r="0.595041" fill="white"/>
</g>
<defs>
<filter id="filter0_d_2294_2905" x="11.0586" y="2" width="36.8828" height="35.2168" filterUnits="userSpaceOnUse" color-interpolation-filters="sRGB">
<feFlood flood-opacity="0" result="BackgroundImageFix"/>
<feColorMatrix in="SourceAlpha" type="matrix" values="0 0 0 0 0 0 0 0 0 0 0 0 0 0 0 0 0 0 127 0" result="hardAlpha"/>
<feMorphology radius="4" operator="dilate" in="SourceAlpha" result="effect1_dropShadow_2294_2905"/>
<feOffset dy="2"/>
<feGaussianBlur stdDeviation="2"/>
<feComposite in2="hardAlpha" operator="out"/>
<feColorMatrix type="matrix" values="0 0 0 0 0.207843 0 0 0 0 0.0588235 0 0 0 0 0.258824 0 0 0 1 0"/>
<feBlend mode="normal" in2="BackgroundImageFix" result="effect1_dropShadow_2294_2905"/>
<feBlend mode="normal" in="SourceGraphic" in2="effect1_dropShadow_2294_2905" result="shape"/>
</filter>
<linearGradient id="paint0_linear_2294_2905" x1="29.5" y1="9.78711" x2="29.5" y2="27.2169" gradientUnits="userSpaceOnUse">
<stop stop-color="#EBD6EB"/>
<stop offset="0.9999" stop-color="white"/>
</linearGradient>
<linearGradient id="paint1_linear_2294_2905" x1="29.5116" y1="14.375" x2="29.5116" y2="22.656" gradientUnits="userSpaceOnUse">
<stop stop-color="#853085"/>
<stop offset="1" stop-color="#9D4A9D"/>
</linearGradient>
</defs>
</svg>
