<svg width="87" height="55" viewBox="0 0 87 55" fill="none" xmlns="http://www.w3.org/2000/svg">
<path d="M44.9266 3.51853L45.5174 4.28325L44.9266 3.51854L44.7636 3.64447C41.4661 6.19197 36.8885 6.27654 33.4991 3.85259C27.4993 -0.438272 19.0668 1.98581 16.2615 8.80784L2.38679 42.5496C0.439136 47.2861 3.34748 52.6138 8.38481 53.5373C10.1843 53.8671 12.0426 53.5747 13.6538 52.708L17.2531 50.7718C20.3285 49.1175 24.0352 49.1456 27.0851 50.8464C30.7664 52.8994 35.2746 52.8923 38.963 50.8679C42.0686 49.1634 45.8587 49.1448 48.961 50.8399L49.1192 50.9263C52.7812 52.9272 57.2174 52.8927 60.8478 50.8351C63.836 49.1415 67.4817 49.0896 70.5169 50.6974L74.6292 52.8758C76.0603 53.6339 77.7052 53.8874 79.2982 53.5954C84.2691 52.6841 86.7793 47.0693 84.1434 42.7573L62.0895 6.68007C58.4504 0.72711 50.448 -0.747005 44.9266 3.51853Z" fill="url(#paint0_linear_2229_2061)" stroke="#350F42" stroke-width="2"/>
<defs>
<linearGradient id="paint0_linear_2229_2061" x1="57.6522" y1="22.9837" x2="57.6522" y2="53" gradientUnits="userSpaceOnUse">
<stop stop-color="#9D4A9D"/>
<stop offset="1" stop-color="#842F84"/>
</linearGradient>
</defs>
</svg>
