<svg width="16" height="16" viewBox="0 0 16 16" fill="none" xmlns="http://www.w3.org/2000/svg">
<mask id="path-1-inside-1_2231_1974" fill="white">
<path fill-rule="evenodd" clip-rule="evenodd" d="M13.9624 5.65412C15.1484 5.25594 15.9985 4.17728 15.9985 2.90909C15.9985 1.30244 14.634 0 12.9509 0C11.4582 0 10.2161 1.02436 9.95417 2.37682C9.45285 2.2495 8.92613 2.18164 8.38281 2.18164C6.73102 2.18164 5.23268 2.80882 4.13492 3.82732C3.79721 3.70417 3.43067 3.63672 3.04762 3.63672C1.36447 3.63672 0 4.93916 0 6.54581C0 7.96251 1.06091 9.14268 2.46574 9.40193C3.00672 11.489 4.72794 13.1319 6.91451 13.6481C7.18689 14.9881 8.42279 15.9998 9.90625 15.9998C11.5894 15.9998 12.9539 14.6974 12.9539 13.0907C12.9539 12.7255 12.8834 12.376 12.7546 12.054C13.8213 11.0062 14.4781 9.57622 14.4781 7.99982C14.4781 7.16522 14.294 6.37165 13.9624 5.65412Z"/>
</mask>
<path fill-rule="evenodd" clip-rule="evenodd" d="M13.9624 5.65412C15.1484 5.25594 15.9985 4.17728 15.9985 2.90909C15.9985 1.30244 14.634 0 12.9509 0C11.4582 0 10.2161 1.02436 9.95417 2.37682C9.45285 2.2495 8.92613 2.18164 8.38281 2.18164C6.73102 2.18164 5.23268 2.80882 4.13492 3.82732C3.79721 3.70417 3.43067 3.63672 3.04762 3.63672C1.36447 3.63672 0 4.93916 0 6.54581C0 7.96251 1.06091 9.14268 2.46574 9.40193C3.00672 11.489 4.72794 13.1319 6.91451 13.6481C7.18689 14.9881 8.42279 15.9998 9.90625 15.9998C11.5894 15.9998 12.9539 14.6974 12.9539 13.0907C12.9539 12.7255 12.8834 12.376 12.7546 12.054C13.8213 11.0062 14.4781 9.57622 14.4781 7.99982C14.4781 7.16522 14.294 6.37165 13.9624 5.65412Z" fill="#67F144"/>
<path d="M13.9624 5.65412L13.6441 4.70612L12.5868 5.06111L13.0546 6.07358L13.9624 5.65412ZM9.95417 2.37682L9.70802 3.34605L10.7345 3.60675L10.9359 2.56699L9.95417 2.37682ZM4.13492 3.82732L3.79234 4.76681L4.3668 4.97628L4.81506 4.5604L4.13492 3.82732ZM2.46574 9.40193L3.43375 9.15102L3.27386 8.53418L2.64721 8.41854L2.46574 9.40193ZM6.91451 13.6481L7.89446 13.4489L7.76701 12.8218L7.14427 12.6748L6.91451 13.6481ZM12.7546 12.054L12.0539 11.3406L11.579 11.8071L11.8261 12.4251L12.7546 12.054ZM14.9985 2.90909C14.9985 3.71025 14.4594 4.4324 13.6441 4.70612L14.2807 6.60212C15.8373 6.07949 16.9985 4.64432 16.9985 2.90909H14.9985ZM12.9509 1C14.1261 1 14.9985 1.89806 14.9985 2.90909H16.9985C16.9985 0.706829 15.142 -1 12.9509 -1V1ZM10.9359 2.56699C11.1024 1.70752 11.9136 1 12.9509 1V-1C11.0028 -1 9.32989 0.341205 8.97242 2.18665L10.9359 2.56699ZM8.38281 3.18164C8.84264 3.18164 9.28668 3.23904 9.70802 3.34605L10.2003 1.40759C9.61902 1.25996 9.00963 1.18164 8.38281 1.18164V3.18164ZM4.81506 4.5604C5.73072 3.71086 6.9871 3.18164 8.38281 3.18164V1.18164C6.47493 1.18164 4.73465 1.90678 3.45477 3.09424L4.81506 4.5604ZM3.04762 4.63672C3.31268 4.63672 3.56334 4.6833 3.79234 4.76681L4.4775 2.88783C4.03107 2.72504 3.54865 2.63672 3.04762 2.63672V4.63672ZM1 6.54581C1 5.53478 1.8724 4.63672 3.04762 4.63672V2.63672C0.85653 2.63672 -1 4.34355 -1 6.54581H1ZM2.64721 8.41854C1.67521 8.23916 1 7.43926 1 6.54581H-1C-1 8.48576 0.446603 10.0462 2.28426 10.3853L2.64721 8.41854ZM7.14427 12.6748C5.29972 12.2394 3.87687 10.8606 3.43375 9.15102L1.49773 9.65285C2.13658 12.1175 4.15616 14.0244 6.68474 14.6213L7.14427 12.6748ZM9.90625 14.9998C8.87558 14.9998 8.06768 14.301 7.89446 13.4489L5.93455 13.8473C6.3061 15.6752 7.97 16.9998 9.90625 16.9998V14.9998ZM11.9539 13.0907C11.9539 14.1018 11.0815 14.9998 9.90625 14.9998V16.9998C12.0973 16.9998 13.9539 15.293 13.9539 13.0907H11.9539ZM11.8261 12.4251C11.9086 12.6317 11.9539 12.8554 11.9539 13.0907H13.9539C13.9539 12.5956 13.8581 12.1203 13.6832 11.6829L11.8261 12.4251ZM13.4781 7.99982C13.4781 9.29035 12.942 10.4682 12.0539 11.3406L13.4554 12.7674C14.7005 11.5442 15.4781 9.86209 15.4781 7.99982H13.4781ZM13.0546 6.07358C13.3271 6.66323 13.4781 7.31399 13.4781 7.99982H15.4781C15.4781 7.01644 15.2608 6.08008 14.8702 5.23466L13.0546 6.07358Z" fill="#4ED82C" mask="url(#path-1-inside-1_2231_1974)"/>
</svg>
