<svg width="256" height="212" viewBox="0 0 256 212" fill="none" xmlns="http://www.w3.org/2000/svg">
<path d="M1 127.285H255V202C255 206.971 250.971 211 246 211H10C5.02944 211 1 206.971 1 202V127.285Z" fill="#8384AA" stroke="#350F42" stroke-width="2"/>
<path d="M10 53H246C250.971 53 255 57.0294 255 62V179.144C255 184.114 250.971 188.144 246 188.144H10C5.02944 188.144 1 184.114 1 179.144V62C1 57.0294 5.02944 53 10 53Z" fill="url(#paint0_linear_2231_2143)" stroke="#350F42" stroke-width="2"/>
<path d="M21 31H67V106C67 110.971 62.9706 115 58 115H30C25.0294 115 21 110.971 21 106V31Z" fill="#8384AA" stroke="#350F42" stroke-width="2"/>
<path d="M30 1H58C62.9706 1 67 5.02944 67 10V31.1428C67 36.1134 62.9706 40.1429 58 40.1429H30C25.0294 40.1429 21 36.1134 21 31.1429V10C21 5.02944 25.0294 1 30 1Z" fill="url(#paint1_linear_2231_2143)" stroke="#350F42" stroke-width="2"/>
<path d="M21 102H67V164C67 168.971 62.9706 173 58 173H30C25.0294 173 21 168.971 21 164V102Z" fill="#8384AA" stroke="#350F42" stroke-width="2"/>
<path d="M30 80H58C62.9706 80 67 84.0294 67 89V110.143C67 115.113 62.9706 119.143 58 119.143H30C25.0294 119.143 21 115.113 21 110.143V89C21 84.0294 25.0294 80 30 80Z" fill="url(#paint2_linear_2231_2143)" stroke="#350F42" stroke-width="2"/>
<path d="M105 64H151V106C151 110.971 146.971 115 142 115H114C109.029 115 105 110.971 105 106V64Z" fill="#8384AA" stroke="#350F42" stroke-width="2"/>
<path d="M114 42H142C146.971 42 151 46.0294 151 51V72.1428C151 77.1134 146.971 81.1429 142 81.1429H114C109.029 81.1429 105 77.1134 105 72.1429V51C105 46.0294 109.029 42 114 42Z" fill="url(#paint3_linear_2231_2143)" stroke="#350F42" stroke-width="2"/>
<path d="M105 149.285H151V163.999C151 168.97 146.971 172.999 142 172.999H114C109.029 172.999 105 168.97 105 163.999V149.285Z" fill="#8384AA" stroke="#350F42" stroke-width="2"/>
<path d="M114 127H142C146.971 127 151 131.029 151 136V157.143C151 162.113 146.971 166.143 142 166.143H114C109.029 166.143 105 162.113 105 157.143V136C105 131.029 109.029 127 114 127Z" fill="url(#paint4_linear_2231_2143)" stroke="#350F42" stroke-width="2"/>
<path d="M189 53H235V106C235 110.971 230.971 115 226 115H198C193.029 115 189 110.971 189 106V53Z" fill="#8384AA" stroke="#350F42" stroke-width="2"/>
<path d="M198 28H226C230.971 28 235 32.0294 235 37V58.1428C235 63.1134 230.971 67.1429 226 67.1429H198C193.029 67.1429 189 63.1134 189 58.1429V37C189 32.0294 193.029 28 198 28Z" fill="url(#paint5_linear_2231_2143)" stroke="#350F42" stroke-width="2"/>
<path d="M189 127H235V164C235 168.971 230.971 173 226 173H198C193.029 173 189 168.971 189 164V127Z" fill="#8384AA" stroke="#350F42" stroke-width="2"/>
<path d="M198 110H226C230.971 110 235 114.029 235 119V140.143C235 145.113 230.971 149.143 226 149.143H198C193.029 149.143 189 145.113 189 140.143V119C189 114.029 193.029 110 198 110Z" fill="url(#paint6_linear_2231_2143)" stroke="#350F42" stroke-width="2"/>
<g filter="url(#filter0_d_2231_2143)">
<circle cx="44.438" cy="60.4361" r="6.17239" fill="url(#paint7_linear_2231_2143)"/>
<circle cx="44.4413" cy="60.4452" r="3.89835" fill="#350F42"/>
<circle cx="44.4482" cy="60.4443" r="2.93254" fill="url(#paint8_linear_2231_2143)"/>
<circle cx="44.437" cy="60.437" r="1.48383" fill="#350F42"/>
<path d="M51.0585 60.4367C51.5086 60.4367 51.8781 60.0707 51.8289 59.6233C51.6448 57.9502 50.8969 56.3797 49.6953 55.1782C48.3006 53.7835 46.4091 53 44.4367 53C42.4644 53 40.5728 53.7835 39.1782 55.1782C37.9766 56.3797 37.2287 57.9502 37.0446 59.6233C36.9954 60.0707 37.3649 60.4367 37.815 60.4367V60.4367C38.2651 60.4367 38.6241 60.07 38.687 59.6244C38.8622 58.3845 39.4351 57.2264 40.3307 56.3307C41.4197 55.2417 42.8967 54.63 44.4367 54.63C45.9768 54.63 47.4537 55.2417 48.5427 56.3307C49.4384 57.2264 50.0112 58.3845 50.1864 59.6244C50.2494 60.07 50.6084 60.4367 51.0585 60.4367V60.4367Z" fill="#350F42"/>
<circle cx="43.5303" cy="58.9502" r="0.913127" fill="white"/>
<circle cx="45.9254" cy="62.3414" r="0.421443" fill="white"/>
</g>
<g filter="url(#filter1_d_2231_2143)">
<circle cx="44.438" cy="133.436" r="6.17239" fill="url(#paint9_linear_2231_2143)"/>
<circle cx="44.4413" cy="133.445" r="3.89835" fill="#350F42"/>
<circle cx="44.4482" cy="133.444" r="2.93254" fill="url(#paint10_linear_2231_2143)"/>
<circle cx="44.437" cy="133.437" r="1.48383" fill="#350F42"/>
<path d="M51.0585 133.437C51.5086 133.437 51.8781 133.071 51.8289 132.623C51.6448 130.95 50.8969 129.38 49.6953 128.178C48.3006 126.784 46.4091 126 44.4367 126C42.4644 126 40.5728 126.784 39.1782 128.178C37.9766 129.38 37.2287 130.95 37.0446 132.623C36.9954 133.071 37.3649 133.437 37.815 133.437V133.437C38.2651 133.437 38.6241 133.07 38.687 132.624C38.8622 131.385 39.4351 130.226 40.3307 129.331C41.4197 128.242 42.8967 127.63 44.4367 127.63C45.9768 127.63 47.4537 128.242 48.5427 129.331C49.4384 130.226 50.0112 131.385 50.1864 132.624C50.2494 133.07 50.6084 133.437 51.0585 133.437V133.437Z" fill="#350F42"/>
<circle cx="43.5303" cy="131.95" r="0.913127" fill="white"/>
<circle cx="45.9254" cy="135.341" r="0.421443" fill="white"/>
</g>
<g filter="url(#filter2_d_2231_2143)">
<circle cx="128.438" cy="97.4361" r="6.17239" fill="url(#paint11_linear_2231_2143)"/>
<circle cx="128.441" cy="97.4452" r="3.89835" fill="#350F42"/>
<circle cx="128.448" cy="97.4443" r="2.93254" fill="url(#paint12_linear_2231_2143)"/>
<circle cx="128.437" cy="97.437" r="1.48383" fill="#350F42"/>
<path d="M135.058 97.4367C135.509 97.4367 135.878 97.0707 135.829 96.6233C135.645 94.9502 134.897 93.3797 133.695 92.1782C132.301 90.7835 130.409 90 128.437 90C126.464 90 124.573 90.7835 123.178 92.1782C121.977 93.3797 121.229 94.9502 121.045 96.6233C120.995 97.0707 121.365 97.4367 121.815 97.4367V97.4367C122.265 97.4367 122.624 97.07 122.687 96.6244C122.862 95.3845 123.435 94.2264 124.331 93.3307C125.42 92.2417 126.897 91.63 128.437 91.63C129.977 91.63 131.454 92.2417 132.543 93.3307C133.438 94.2264 134.011 95.3845 134.186 96.6244C134.249 97.07 134.608 97.4367 135.058 97.4367V97.4367Z" fill="#350F42"/>
<circle cx="127.53" cy="95.9502" r="0.913127" fill="white"/>
<circle cx="129.925" cy="99.3414" r="0.421443" fill="white"/>
</g>
<g filter="url(#filter3_d_2231_2143)">
<circle cx="212.438" cy="88.4361" r="6.17239" fill="url(#paint13_linear_2231_2143)"/>
<circle cx="212.441" cy="88.4452" r="3.89835" fill="#350F42"/>
<circle cx="212.448" cy="88.4443" r="2.93254" fill="url(#paint14_linear_2231_2143)"/>
<circle cx="212.437" cy="88.437" r="1.48383" fill="#350F42"/>
<path d="M219.058 88.4367C219.509 88.4367 219.878 88.0707 219.829 87.6233C219.645 85.9502 218.897 84.3797 217.695 83.1782C216.301 81.7835 214.409 81 212.437 81C210.464 81 208.573 81.7835 207.178 83.1782C205.977 84.3797 205.229 85.9502 205.045 87.6233C204.995 88.0707 205.365 88.4367 205.815 88.4367V88.4367C206.265 88.4367 206.624 88.07 206.687 87.6244C206.862 86.3845 207.435 85.2264 208.331 84.3307C209.42 83.2417 210.897 82.63 212.437 82.63C213.977 82.63 215.454 83.2417 216.543 84.3307C217.438 85.2264 218.011 86.3845 218.186 87.6244C218.249 88.07 218.608 88.4367 219.058 88.4367V88.4367Z" fill="#350F42"/>
<circle cx="211.53" cy="86.9502" r="0.913127" fill="white"/>
<circle cx="213.925" cy="90.3414" r="0.421443" fill="white"/>
</g>
<g filter="url(#filter4_d_2231_2143)">
<circle cx="212.438" cy="160.436" r="6.17239" fill="url(#paint15_linear_2231_2143)"/>
<circle cx="212.441" cy="160.445" r="3.89835" fill="#350F42"/>
<circle cx="212.448" cy="160.444" r="2.93254" fill="url(#paint16_linear_2231_2143)"/>
<circle cx="212.437" cy="160.437" r="1.48383" fill="#350F42"/>
<path d="M219.058 160.437C219.509 160.437 219.878 160.071 219.829 159.623C219.645 157.95 218.897 156.38 217.695 155.178C216.301 153.784 214.409 153 212.437 153C210.464 153 208.573 153.784 207.178 155.178C205.977 156.38 205.229 157.95 205.045 159.623C204.995 160.071 205.365 160.437 205.815 160.437V160.437C206.265 160.437 206.624 160.07 206.687 159.624C206.862 158.385 207.435 157.226 208.331 156.331C209.42 155.242 210.897 154.63 212.437 154.63C213.977 154.63 215.454 155.242 216.543 156.331C217.438 157.226 218.011 158.385 218.186 159.624C218.249 160.07 218.608 160.437 219.058 160.437V160.437Z" fill="#350F42"/>
<circle cx="211.53" cy="158.95" r="0.913127" fill="white"/>
<circle cx="213.925" cy="162.341" r="0.421443" fill="white"/>
</g>
<g filter="url(#filter5_d_2231_2143)">
<circle cx="44.438" cy="154.436" r="6.17239" fill="url(#paint17_linear_2231_2143)"/>
<circle cx="44.4413" cy="154.445" r="3.89835" fill="#350F42"/>
<circle cx="44.4482" cy="154.444" r="2.93254" fill="url(#paint18_linear_2231_2143)"/>
<circle cx="44.437" cy="154.437" r="1.48383" fill="#350F42"/>
<path d="M51.0585 154.437C51.5086 154.437 51.8781 154.071 51.8289 153.623C51.6448 151.95 50.8969 150.38 49.6953 149.178C48.3006 147.784 46.4091 147 44.4367 147C42.4644 147 40.5728 147.784 39.1782 149.178C37.9766 150.38 37.2287 151.95 37.0446 153.623C36.9954 154.071 37.3649 154.437 37.815 154.437V154.437C38.2651 154.437 38.6241 154.07 38.687 153.624C38.8622 152.385 39.4351 151.226 40.3307 150.331C41.4197 149.242 42.8967 148.63 44.4367 148.63C45.9768 148.63 47.4537 149.242 48.5427 150.331C49.4384 151.226 50.0112 152.385 50.1864 153.624C50.2494 154.07 50.6084 154.437 51.0585 154.437V154.437Z" fill="#350F42"/>
<circle cx="43.5303" cy="152.95" r="0.913127" fill="white"/>
<circle cx="45.9254" cy="156.341" r="0.421443" fill="white"/>
</g>
<defs>
<filter id="filter0_d_2231_2143" x="33.0391" y="51" width="22.793" height="21.6094" filterUnits="userSpaceOnUse" color-interpolation-filters="sRGB">
<feFlood flood-opacity="0" result="BackgroundImageFix"/>
<feColorMatrix in="SourceAlpha" type="matrix" values="0 0 0 0 0 0 0 0 0 0 0 0 0 0 0 0 0 0 127 0" result="hardAlpha"/>
<feOffset dy="2"/>
<feGaussianBlur stdDeviation="2"/>
<feComposite in2="hardAlpha" operator="out"/>
<feColorMatrix type="matrix" values="0 0 0 0 0.207843 0 0 0 0 0.0588235 0 0 0 0 0.258824 0 0 0 1 0"/>
<feBlend mode="normal" in2="BackgroundImageFix" result="effect1_dropShadow_2231_2143"/>
<feBlend mode="normal" in="SourceGraphic" in2="effect1_dropShadow_2231_2143" result="shape"/>
</filter>
<filter id="filter1_d_2231_2143" x="33.0391" y="124" width="22.793" height="21.6094" filterUnits="userSpaceOnUse" color-interpolation-filters="sRGB">
<feFlood flood-opacity="0" result="BackgroundImageFix"/>
<feColorMatrix in="SourceAlpha" type="matrix" values="0 0 0 0 0 0 0 0 0 0 0 0 0 0 0 0 0 0 127 0" result="hardAlpha"/>
<feOffset dy="2"/>
<feGaussianBlur stdDeviation="2"/>
<feComposite in2="hardAlpha" operator="out"/>
<feColorMatrix type="matrix" values="0 0 0 0 0.207843 0 0 0 0 0.0588235 0 0 0 0 0.258824 0 0 0 1 0"/>
<feBlend mode="normal" in2="BackgroundImageFix" result="effect1_dropShadow_2231_2143"/>
<feBlend mode="normal" in="SourceGraphic" in2="effect1_dropShadow_2231_2143" result="shape"/>
</filter>
<filter id="filter2_d_2231_2143" x="117.039" y="88" width="22.793" height="21.6094" filterUnits="userSpaceOnUse" color-interpolation-filters="sRGB">
<feFlood flood-opacity="0" result="BackgroundImageFix"/>
<feColorMatrix in="SourceAlpha" type="matrix" values="0 0 0 0 0 0 0 0 0 0 0 0 0 0 0 0 0 0 127 0" result="hardAlpha"/>
<feOffset dy="2"/>
<feGaussianBlur stdDeviation="2"/>
<feComposite in2="hardAlpha" operator="out"/>
<feColorMatrix type="matrix" values="0 0 0 0 0.207843 0 0 0 0 0.0588235 0 0 0 0 0.258824 0 0 0 1 0"/>
<feBlend mode="normal" in2="BackgroundImageFix" result="effect1_dropShadow_2231_2143"/>
<feBlend mode="normal" in="SourceGraphic" in2="effect1_dropShadow_2231_2143" result="shape"/>
</filter>
<filter id="filter3_d_2231_2143" x="201.039" y="79" width="22.793" height="21.6094" filterUnits="userSpaceOnUse" color-interpolation-filters="sRGB">
<feFlood flood-opacity="0" result="BackgroundImageFix"/>
<feColorMatrix in="SourceAlpha" type="matrix" values="0 0 0 0 0 0 0 0 0 0 0 0 0 0 0 0 0 0 127 0" result="hardAlpha"/>
<feOffset dy="2"/>
<feGaussianBlur stdDeviation="2"/>
<feComposite in2="hardAlpha" operator="out"/>
<feColorMatrix type="matrix" values="0 0 0 0 0.207843 0 0 0 0 0.0588235 0 0 0 0 0.258824 0 0 0 1 0"/>
<feBlend mode="normal" in2="BackgroundImageFix" result="effect1_dropShadow_2231_2143"/>
<feBlend mode="normal" in="SourceGraphic" in2="effect1_dropShadow_2231_2143" result="shape"/>
</filter>
<filter id="filter4_d_2231_2143" x="201.039" y="151" width="22.793" height="21.6094" filterUnits="userSpaceOnUse" color-interpolation-filters="sRGB">
<feFlood flood-opacity="0" result="BackgroundImageFix"/>
<feColorMatrix in="SourceAlpha" type="matrix" values="0 0 0 0 0 0 0 0 0 0 0 0 0 0 0 0 0 0 127 0" result="hardAlpha"/>
<feOffset dy="2"/>
<feGaussianBlur stdDeviation="2"/>
<feComposite in2="hardAlpha" operator="out"/>
<feColorMatrix type="matrix" values="0 0 0 0 0.207843 0 0 0 0 0.0588235 0 0 0 0 0.258824 0 0 0 1 0"/>
<feBlend mode="normal" in2="BackgroundImageFix" result="effect1_dropShadow_2231_2143"/>
<feBlend mode="normal" in="SourceGraphic" in2="effect1_dropShadow_2231_2143" result="shape"/>
</filter>
<filter id="filter5_d_2231_2143" x="33.0391" y="145" width="22.793" height="21.6094" filterUnits="userSpaceOnUse" color-interpolation-filters="sRGB">
<feFlood flood-opacity="0" result="BackgroundImageFix"/>
<feColorMatrix in="SourceAlpha" type="matrix" values="0 0 0 0 0 0 0 0 0 0 0 0 0 0 0 0 0 0 127 0" result="hardAlpha"/>
<feOffset dy="2"/>
<feGaussianBlur stdDeviation="2"/>
<feComposite in2="hardAlpha" operator="out"/>
<feColorMatrix type="matrix" values="0 0 0 0 0.207843 0 0 0 0 0.0588235 0 0 0 0 0.258824 0 0 0 1 0"/>
<feBlend mode="normal" in2="BackgroundImageFix" result="effect1_dropShadow_2231_2143"/>
<feBlend mode="normal" in="SourceGraphic" in2="effect1_dropShadow_2231_2143" result="shape"/>
</filter>
<linearGradient id="paint0_linear_2231_2143" x1="128" y1="52" x2="128" y2="189.144" gradientUnits="userSpaceOnUse">
<stop stop-color="#8F90BD"/>
<stop offset="1" stop-color="#A5A6CE"/>
</linearGradient>
<linearGradient id="paint1_linear_2231_2143" x1="44" y1="0" x2="44" y2="41.1429" gradientUnits="userSpaceOnUse">
<stop stop-color="#8F90BD"/>
<stop offset="1" stop-color="#A5A6CE"/>
</linearGradient>
<linearGradient id="paint2_linear_2231_2143" x1="44" y1="79" x2="44" y2="120.143" gradientUnits="userSpaceOnUse">
<stop stop-color="#8F90BD"/>
<stop offset="1" stop-color="#A5A6CE"/>
</linearGradient>
<linearGradient id="paint3_linear_2231_2143" x1="128" y1="41" x2="128" y2="82.1429" gradientUnits="userSpaceOnUse">
<stop stop-color="#8F90BD"/>
<stop offset="1" stop-color="#A5A6CE"/>
</linearGradient>
<linearGradient id="paint4_linear_2231_2143" x1="128" y1="126" x2="128" y2="167.143" gradientUnits="userSpaceOnUse">
<stop stop-color="#8F90BD"/>
<stop offset="1" stop-color="#A5A6CE"/>
</linearGradient>
<linearGradient id="paint5_linear_2231_2143" x1="212" y1="27" x2="212" y2="68.1429" gradientUnits="userSpaceOnUse">
<stop stop-color="#8F90BD"/>
<stop offset="1" stop-color="#A5A6CE"/>
</linearGradient>
<linearGradient id="paint6_linear_2231_2143" x1="212" y1="109" x2="212" y2="150.143" gradientUnits="userSpaceOnUse">
<stop stop-color="#8F90BD"/>
<stop offset="1" stop-color="#A5A6CE"/>
</linearGradient>
<linearGradient id="paint7_linear_2231_2143" x1="44.438" y1="54.2637" x2="44.438" y2="66.6085" gradientUnits="userSpaceOnUse">
<stop stop-color="#EBD6EB"/>
<stop offset="0.9999" stop-color="white"/>
</linearGradient>
<linearGradient id="paint8_linear_2231_2143" x1="44.4482" y1="57.5117" x2="44.4482" y2="63.3768" gradientUnits="userSpaceOnUse">
<stop stop-color="#853085"/>
<stop offset="1" stop-color="#9D4A9D"/>
</linearGradient>
<linearGradient id="paint9_linear_2231_2143" x1="44.438" y1="127.264" x2="44.438" y2="139.608" gradientUnits="userSpaceOnUse">
<stop stop-color="#EBD6EB"/>
<stop offset="0.9999" stop-color="white"/>
</linearGradient>
<linearGradient id="paint10_linear_2231_2143" x1="44.4482" y1="130.512" x2="44.4482" y2="136.377" gradientUnits="userSpaceOnUse">
<stop stop-color="#853085"/>
<stop offset="1" stop-color="#9D4A9D"/>
</linearGradient>
<linearGradient id="paint11_linear_2231_2143" x1="128.438" y1="91.2637" x2="128.438" y2="103.608" gradientUnits="userSpaceOnUse">
<stop stop-color="#EBD6EB"/>
<stop offset="0.9999" stop-color="white"/>
</linearGradient>
<linearGradient id="paint12_linear_2231_2143" x1="128.448" y1="94.5117" x2="128.448" y2="100.377" gradientUnits="userSpaceOnUse">
<stop stop-color="#853085"/>
<stop offset="1" stop-color="#9D4A9D"/>
</linearGradient>
<linearGradient id="paint13_linear_2231_2143" x1="212.438" y1="82.2637" x2="212.438" y2="94.6085" gradientUnits="userSpaceOnUse">
<stop stop-color="#EBD6EB"/>
<stop offset="0.9999" stop-color="white"/>
</linearGradient>
<linearGradient id="paint14_linear_2231_2143" x1="212.448" y1="85.5117" x2="212.448" y2="91.3768" gradientUnits="userSpaceOnUse">
<stop stop-color="#853085"/>
<stop offset="1" stop-color="#9D4A9D"/>
</linearGradient>
<linearGradient id="paint15_linear_2231_2143" x1="212.438" y1="154.264" x2="212.438" y2="166.608" gradientUnits="userSpaceOnUse">
<stop stop-color="#EBD6EB"/>
<stop offset="0.9999" stop-color="white"/>
</linearGradient>
<linearGradient id="paint16_linear_2231_2143" x1="212.448" y1="157.512" x2="212.448" y2="163.377" gradientUnits="userSpaceOnUse">
<stop stop-color="#853085"/>
<stop offset="1" stop-color="#9D4A9D"/>
</linearGradient>
<linearGradient id="paint17_linear_2231_2143" x1="44.438" y1="148.264" x2="44.438" y2="160.608" gradientUnits="userSpaceOnUse">
<stop stop-color="#EBD6EB"/>
<stop offset="0.9999" stop-color="white"/>
</linearGradient>
<linearGradient id="paint18_linear_2231_2143" x1="44.4482" y1="151.512" x2="44.4482" y2="157.377" gradientUnits="userSpaceOnUse">
<stop stop-color="#853085"/>
<stop offset="1" stop-color="#9D4A9D"/>
</linearGradient>
</defs>
</svg>
