<svg width="1879" height="2535" viewBox="0 0 1879 2535" fill="none" xmlns="http://www.w3.org/2000/svg">
<rect y="1119.39" width="323" height="904" rx="161.5" transform="rotate(-45 0 1119.39)" fill="#65CDCD"/>
<path d="M220.071 360C220.071 161.177 381.249 0 580.071 0H1441.07C1639.89 0 1801.07 161.178 1801.07 360V2322.06C1801.07 2439.66 1705.74 2535 1588.13 2535C1483.19 2535 1393.9 2458.55 1377.74 2354.87L1359.27 2236.45C1297.21 1838.39 723.934 1838.39 661.87 2236.45L643.407 2354.87C627.241 2458.55 537.948 2535 433.01 2535C315.407 2535 220.071 2439.66 220.071 2322.06V360Z" fill="#95EAEA"/>
<rect x="1650.22" y="891.441" width="323" height="904" rx="161.5" transform="rotate(45 1650.22 891.441)" fill="#65CDCD"/>
<g filter="url(#filter0_d_2223_2081)">
<circle cx="816.072" cy="638.998" r="303.776" fill="url(#paint0_linear_2223_2081)"/>
<circle cx="816.504" cy="639.433" r="191.858" fill="#350F42"/>
<circle cx="816.504" cy="639.427" r="144.326" fill="url(#paint1_linear_2223_2081)"/>
<circle cx="816.071" cy="639" r="73.0272" fill="#350F42"/>
<path d="M1141.96 639C1164.11 639 1182.3 620.987 1179.88 598.968C1170.82 516.623 1134.01 439.335 1074.87 380.199C1006.23 311.561 913.141 273 816.071 273C719.002 273 625.909 311.561 557.27 380.199C498.134 439.335 461.325 516.623 452.266 598.968C449.844 620.987 468.029 639 490.181 639C512.333 639 530.001 620.954 533.1 599.02C541.72 538.001 569.913 481.003 613.994 436.922C667.588 383.328 740.277 353.219 816.071 353.219C891.865 353.219 964.555 383.328 1018.15 436.922C1062.23 481.003 1090.42 538.001 1099.04 599.02C1102.14 620.954 1119.81 639 1141.96 639Z" fill="#350F42"/>
<circle cx="771.565" cy="565.972" r="44.9406" fill="white"/>
<circle cx="889.099" cy="732.769" r="20.7418" fill="white"/>
</g>
<defs>
<filter id="filter0_d_2223_2081" x="400.049" y="261" width="832.045" height="773.773" filterUnits="userSpaceOnUse" color-interpolation-filters="sRGB">
<feFlood flood-opacity="0" result="BackgroundImageFix"/>
<feColorMatrix in="SourceAlpha" type="matrix" values="0 0 0 0 0 0 0 0 0 0 0 0 0 0 0 0 0 0 127 0" result="hardAlpha"/>
<feMorphology radius="4" operator="dilate" in="SourceAlpha" result="effect1_dropShadow_2223_2081"/>
<feOffset dy="40"/>
<feGaussianBlur stdDeviation="24"/>
<feComposite in2="hardAlpha" operator="out"/>
<feColorMatrix type="matrix" values="0 0 0 0 0.396078 0 0 0 0 0.803922 0 0 0 0 0.803922 0 0 0 1 0"/>
<feBlend mode="normal" in2="BackgroundImageFix" result="effect1_dropShadow_2223_2081"/>
<feBlend mode="normal" in="SourceGraphic" in2="effect1_dropShadow_2223_2081" result="shape"/>
</filter>
<linearGradient id="paint0_linear_2223_2081" x1="816.072" y1="335.223" x2="816.072" y2="942.774" gradientUnits="userSpaceOnUse">
<stop stop-color="#EBD6EB"/>
<stop offset="0.9999" stop-color="white"/>
</linearGradient>
<linearGradient id="paint1_linear_2223_2081" x1="816.504" y1="495.102" x2="816.504" y2="783.753" gradientUnits="userSpaceOnUse">
<stop stop-color="#853085"/>
<stop offset="1" stop-color="#9D4A9D"/>
</linearGradient>
</defs>
</svg>
