<svg width="17" height="17" viewBox="0 0 17 17" fill="none" xmlns="http://www.w3.org/2000/svg">
<mask id="path-1-inside-1_2242_2480" fill="white">
<path d="M17 8.5C17 13.1944 13.1944 17 8.5 17C3.80558 17 0 13.1944 0 8.5C0 3.80558 3.80558 0 8.5 0C13.1944 0 17 3.80558 17 8.5ZM3.66722 8.5C3.66722 11.1691 5.83093 13.3328 8.5 13.3328C11.1691 13.3328 13.3328 11.1691 13.3328 8.5C13.3328 5.83093 11.1691 3.66722 8.5 3.66722C5.83093 3.66722 3.66722 5.83093 3.66722 8.5Z"/>
</mask>
<path d="M17 8.5C17 13.1944 13.1944 17 8.5 17C3.80558 17 0 13.1944 0 8.5C0 3.80558 3.80558 0 8.5 0C13.1944 0 17 3.80558 17 8.5ZM3.66722 8.5C3.66722 11.1691 5.83093 13.3328 8.5 13.3328C11.1691 13.3328 13.3328 11.1691 13.3328 8.5C13.3328 5.83093 11.1691 3.66722 8.5 3.66722C5.83093 3.66722 3.66722 5.83093 3.66722 8.5Z" fill="#67F144" stroke="#4ED82C" stroke-width="0.8" mask="url(#path-1-inside-1_2242_2480)"/>
</svg>
