<svg width="20" height="22" viewBox="0 0 20 22" fill="none" xmlns="http://www.w3.org/2000/svg">
<circle cx="2.5" cy="2.5" r="2.5" transform="matrix(1 0 0 -1 8 5)" fill="#EAFF4A"/>
<circle cx="10.5" cy="20.5" r="1.5" fill="#EAFF4A"/>
<circle cx="19.5" cy="11.5" r="0.5" transform="rotate(-90 19.5 11.5)" fill="#EAFF4A"/>
<circle cx="0.5" cy="0.5" r="0.5" transform="matrix(0 -1 -1 0 2 13)" fill="#EAFF4A"/>
<circle cx="15.5" cy="19.5" r="0.5" fill="#EAFF4A"/>
<circle cx="0.5" cy="0.5" r="0.5" transform="matrix(0.848614 -0.529013 -0.529013 -0.848614 6.52734 4.37695)" fill="#EAFF4A"/>
<circle cx="15.6879" cy="4.68814" r="0.5" transform="rotate(-148.061 15.6879 4.68814)" fill="#EAFF4A"/>
<circle cx="2" cy="2" r="2" transform="matrix(0.626268 -0.779608 -0.779608 -0.626268 3.30859 9.8125)" fill="#EAFF4A"/>
<circle cx="4.49957" cy="17.5006" r="2.5" transform="rotate(39.9996 4.49957 17.5006)" fill="#EAFF4A"/>
<circle cx="17.507" cy="16.5053" r="1.50303" transform="rotate(-32.2745 17.507 16.5053)" fill="#EAFF4A"/>
<circle cx="1.5" cy="1.5" r="1.5" transform="matrix(0.632115 0.774875 0.774875 -0.632115 15.3906 6.28516)" fill="#EAFF4A"/>
</svg>
