<svg width="15" height="30" viewBox="0 0 15 30" fill="none" xmlns="http://www.w3.org/2000/svg">
<path d="M6.25839 26L6.68885 26.2544L5.75839 27.829V26C5.75839 20.7401 5.46843 18.3106 4.80715 16.7146C4.48205 15.93 4.05996 15.3312 3.50096 14.6799C3.23925 14.375 2.95135 14.0628 2.62801 13.7122C2.60241 13.6844 2.5766 13.6564 2.55055 13.6282C2.19747 13.2452 1.8075 12.8201 1.38184 12.3265C0.408629 11.1979 0.322522 9.95498 0.730272 8.78578C1.1257 7.6519 1.98195 6.58389 2.89913 5.68263C3.82388 4.77393 4.8509 3.996 5.64163 3.44761C6.03811 3.17264 6.37774 2.95362 6.619 2.8029C6.73968 2.72751 6.83589 2.66912 6.90245 2.62927C6.93574 2.60934 6.96162 2.59405 6.97946 2.58358L7.00011 2.5715L7.00576 2.56823L7.00739 2.56728L7.00791 2.56699C7.00808 2.56689 7.00822 2.56681 7.2579 3L7.00822 2.56681L8.57083 1.66614L7.69506 3.24268L7.69502 3.24276L7.69499 3.2428L7.6946 3.24352L7.69243 3.24745L7.68301 3.26469C7.67453 3.28026 7.66176 3.30389 7.64527 3.3349C7.61228 3.39693 7.56442 3.4884 7.50617 3.60396C7.38954 3.83535 7.23197 4.16192 7.06889 4.54124C6.73796 5.31096 6.40328 6.25495 6.31781 7.05323C6.27505 7.45255 6.29984 7.77233 6.38474 8.00321C6.46226 8.214 6.58964 8.35622 6.80599 8.43996C7.04538 8.53262 7.44016 8.57044 8.06855 8.44349C8.69191 8.31757 9.5035 8.03794 10.5455 7.54759C11.1017 7.28585 11.5961 7.11758 12.0308 7.04907C12.4651 6.9806 12.8718 7.00707 13.221 7.17382C13.9596 7.52663 14.1536 8.33808 14.1411 9.13281C14.1283 9.95626 13.8978 10.9803 13.5465 12.0886C13.1927 13.205 12.7049 14.4412 12.154 15.7004C11.052 18.2191 9.68512 20.8582 8.59623 22.8636C8.05129 23.8672 7.57492 24.7141 7.23464 25.3103C7.06448 25.6085 6.9283 25.844 6.83454 26.0053C6.78765 26.0859 6.75137 26.1479 6.72674 26.1899L6.69866 26.2377L6.69142 26.25L6.68955 26.2532L6.68905 26.254C6.68893 26.2542 6.68885 26.2544 6.25839 26Z" fill="#EDF0F1" stroke="#B5B0B0"/>
</svg>
