<svg width="46" height="58" viewBox="0 0 46 58" fill="none" xmlns="http://www.w3.org/2000/svg">
<mask id="path-1-inside-1_2294_2799" fill="white">
<path fill-rule="evenodd" clip-rule="evenodd" d="M42.921 28.8063C42.921 31.4486 42.674 33.6321 42.2114 35.4365C43.741 37.5999 44.8464 40.5746 45.1966 43.9298C45.9419 51.0707 42.9837 57.2313 38.5893 57.69C34.1949 58.1486 30.0283 52.7316 29.283 45.5906C29.2251 45.0356 29.1896 44.4864 29.1753 43.9454C27.6247 44.0067 25.9904 44.0022 24.2983 43.9976H24.2981C23.843 43.9963 23.3838 43.995 22.921 43.995C22.4581 43.995 21.9989 43.9963 21.5439 43.9976C19.4702 44.0033 17.4832 44.0087 15.6308 43.8931C14.6005 49.2077 11.5342 53.0604 7.93216 53.0415C3.51394 53.0184 -0.0372747 47.1794 0.000295374 39.9998C0.0213304 35.98 1.1629 32.3923 2.93911 30.0169C2.92706 29.6245 2.92098 29.221 2.92098 28.8063C2.92098 12.897 11.8753 0 22.921 0C33.9667 0 42.921 12.897 42.921 28.8063Z"/>
</mask>
<path fill-rule="evenodd" clip-rule="evenodd" d="M42.921 28.8063C42.921 31.4486 42.674 33.6321 42.2114 35.4365C43.741 37.5999 44.8464 40.5746 45.1966 43.9298C45.9419 51.0707 42.9837 57.2313 38.5893 57.69C34.1949 58.1486 30.0283 52.7316 29.283 45.5906C29.2251 45.0356 29.1896 44.4864 29.1753 43.9454C27.6247 44.0067 25.9904 44.0022 24.2983 43.9976H24.2981C23.843 43.9963 23.3838 43.995 22.921 43.995C22.4581 43.995 21.9989 43.9963 21.5439 43.9976C19.4702 44.0033 17.4832 44.0087 15.6308 43.8931C14.6005 49.2077 11.5342 53.0604 7.93216 53.0415C3.51394 53.0184 -0.0372747 47.1794 0.000295374 39.9998C0.0213304 35.98 1.1629 32.3923 2.93911 30.0169C2.92706 29.6245 2.92098 29.221 2.92098 28.8063C2.92098 12.897 11.8753 0 22.921 0C33.9667 0 42.921 12.897 42.921 28.8063Z" fill="#D29B35"/>
<path d="M42.2114 35.4365L40.2741 34.9398L40.0444 35.8358L40.5783 36.5911L42.2114 35.4365ZM45.1966 43.9298L43.2074 44.1374L45.1966 43.9298ZM38.5893 57.69L38.7969 59.6792L38.5893 57.69ZM29.283 45.5906L27.2939 45.7982H27.2939L29.283 45.5906ZM29.1753 43.9454L31.1746 43.8928L31.1213 41.8669L29.0963 41.947L29.1753 43.9454ZM24.2983 43.9976L24.3038 41.9976H24.2983V43.9976ZM24.2981 43.9976L24.2925 45.9976H24.2981V43.9976ZM21.5439 43.9976L21.5494 45.9975H21.5494L21.5439 43.9976ZM15.6308 43.8931L15.7554 41.897L14.0017 41.7875L13.6673 43.5125L15.6308 43.8931ZM7.93216 53.0415L7.92169 55.0415H7.92169L7.93216 53.0415ZM0.000295374 39.9998L-1.99968 39.9894L0.000295374 39.9998ZM2.93911 30.0169L4.54083 31.2146L4.95963 30.6546L4.93817 29.9555L2.93911 30.0169ZM44.1488 35.9331C44.6637 33.9244 44.921 31.5662 44.921 28.8063H40.921C40.921 31.3309 40.6842 33.3399 40.2741 34.9398L44.1488 35.9331ZM47.1858 43.7222C46.8051 40.0743 45.5982 36.7624 43.8445 34.2819L40.5783 36.5911C41.8837 38.4374 42.8878 41.0748 43.2074 44.1374L47.1858 43.7222ZM38.7969 59.6792C41.9425 59.3509 44.2593 57.0219 45.6233 54.1814C47.0036 51.3067 47.5905 47.6001 47.1858 43.7222L43.2074 44.1374C43.548 47.4003 43.0284 50.3445 42.0174 52.45C40.99 54.5898 39.6305 55.5704 38.3817 55.7008L38.7969 59.6792ZM27.2939 45.7982C27.6986 49.6762 29.0382 53.1817 30.9824 55.7095C32.9035 58.2071 35.6513 60.0075 38.7969 59.6792L38.3817 55.7008C37.1329 55.8311 35.6002 55.1523 34.1531 53.2708C32.7291 51.4194 31.6128 48.646 31.2722 45.383L27.2939 45.7982ZM27.176 43.998C27.1916 44.5909 27.2306 45.1918 27.2939 45.7982L31.2722 45.383C31.2197 44.8793 31.1875 44.3819 31.1746 43.8928L27.176 43.998ZM24.2928 45.9975C25.9758 46.0022 27.6538 46.0071 29.2544 45.9438L29.0963 41.947C27.5956 42.0063 26.0049 42.0022 24.3038 41.9976L24.2928 45.9975ZM24.2981 45.9976H24.2983V41.9976H24.2981V45.9976ZM22.921 45.995C23.3806 45.995 23.8371 45.9963 24.2925 45.9975L24.3036 41.9976C23.849 41.9963 23.3871 41.995 22.921 41.995V45.995ZM21.5494 45.9975C22.0049 45.9963 22.4613 45.995 22.921 45.995V41.995C22.4549 41.995 21.993 41.9963 21.5384 41.9976L21.5494 45.9975ZM15.5062 45.8892C17.4357 46.0097 19.4905 46.0032 21.5494 45.9975L21.5384 41.9976C19.4498 42.0033 17.5307 42.0078 15.7554 41.897L15.5062 45.8892ZM7.92169 55.0415C10.4932 55.0549 12.6829 53.6795 14.2864 51.7429C15.8895 49.8068 17.0298 47.1854 17.5942 44.2737L13.6673 43.5125C13.2015 45.9154 12.2936 47.8777 11.2054 49.1918C10.1177 50.5055 8.97322 51.0469 7.94262 51.0415L7.92169 55.0415ZM-1.99968 39.9894C-2.02008 43.8883 -1.07056 47.519 0.586529 50.2436C2.22388 52.9358 4.75905 55.0249 7.92169 55.0415L7.94263 51.0415C6.68705 51.035 5.23751 50.1931 4.00409 48.1651C2.7904 46.1695 1.9831 43.2909 2.00027 40.0103L-1.99968 39.9894ZM1.3374 28.8192C-0.745771 31.6051 -1.97689 35.6343 -1.99968 39.9894L2.00027 40.0103C2.01955 36.3258 3.07158 33.1795 4.54083 31.2146L1.3374 28.8192ZM0.920979 28.8063C0.920979 29.2406 0.927351 29.6645 0.940056 30.0783L4.93817 29.9555C4.92678 29.5844 4.92098 29.2015 4.92098 28.8063H0.920979ZM22.921 -2C16.5589 -2 11.0102 1.71642 7.13599 7.29654C3.25659 12.8841 0.920979 20.4951 0.920979 28.8063H4.92098C4.92098 21.2082 7.06252 14.4161 10.4217 9.57779C13.786 4.73208 18.2373 2 22.921 2V-2ZM44.921 28.8063C44.921 20.4951 42.5854 12.8841 38.706 7.29654C34.8317 1.71642 29.283 -2 22.921 -2V2C27.6046 2 32.0559 4.73208 35.4203 9.57779C38.7794 14.4161 40.921 21.2082 40.921 28.8063H44.921Z" fill="black" mask="url(#path-1-inside-1_2294_2799)"/>
<g filter="url(#filter0_d_2294_2799)">
<circle cx="20.2813" cy="22.502" r="8.71488" fill="url(#paint0_linear_2294_2799)"/>
<circle cx="20.2932" cy="22.5139" r="5.50413" fill="#350F42"/>
<circle cx="20.2928" cy="22.5155" r="4.1405" fill="url(#paint1_linear_2294_2799)"/>
<circle cx="20.2786" cy="22.4993" r="2.09504" fill="#350F42"/>
<path d="M29.6306 22.5C30.2661 22.5 30.7878 21.9832 30.7183 21.3515C30.4584 18.9892 29.4024 16.7719 27.7059 15.0754C25.7367 13.1062 23.066 12 20.2813 12C17.4965 12 14.8258 13.1062 12.8566 15.0754C11.1601 16.7719 10.1041 18.9892 9.84421 21.3515C9.77472 21.9832 10.2964 22.5 10.9319 22.5C11.5674 22.5 12.0743 21.9823 12.1632 21.353C12.4105 19.6025 13.2193 17.9673 14.4839 16.7027C16.0215 15.1651 18.1068 14.3014 20.2813 14.3014C22.4557 14.3014 24.541 15.1651 26.0786 16.7027C27.3432 17.9673 28.152 19.6025 28.3993 21.353C28.4882 21.9823 28.9951 22.5 29.6306 22.5Z" fill="#350F42"/>
<circle cx="19.0041" cy="20.4045" r="1.28926" fill="white"/>
<circle cx="22.3802" cy="25.1888" r="0.595041" fill="white"/>
</g>
<defs>
<filter id="filter0_d_2294_2799" x="1.83984" y="6" width="36.8828" height="35.2168" filterUnits="userSpaceOnUse" color-interpolation-filters="sRGB">
<feFlood flood-opacity="0" result="BackgroundImageFix"/>
<feColorMatrix in="SourceAlpha" type="matrix" values="0 0 0 0 0 0 0 0 0 0 0 0 0 0 0 0 0 0 127 0" result="hardAlpha"/>
<feMorphology radius="4" operator="dilate" in="SourceAlpha" result="effect1_dropShadow_2294_2799"/>
<feOffset dy="2"/>
<feGaussianBlur stdDeviation="2"/>
<feComposite in2="hardAlpha" operator="out"/>
<feColorMatrix type="matrix" values="0 0 0 0 0.207843 0 0 0 0 0.0588235 0 0 0 0 0.258824 0 0 0 1 0"/>
<feBlend mode="normal" in2="BackgroundImageFix" result="effect1_dropShadow_2294_2799"/>
<feBlend mode="normal" in="SourceGraphic" in2="effect1_dropShadow_2294_2799" result="shape"/>
</filter>
<linearGradient id="paint0_linear_2294_2799" x1="20.2813" y1="13.7871" x2="20.2813" y2="31.2169" gradientUnits="userSpaceOnUse">
<stop stop-color="#EBD6EB"/>
<stop offset="0.9999" stop-color="white"/>
</linearGradient>
<linearGradient id="paint1_linear_2294_2799" x1="20.2928" y1="18.375" x2="20.2928" y2="26.656" gradientUnits="userSpaceOnUse">
<stop stop-color="#853085"/>
<stop offset="1" stop-color="#9D4A9D"/>
</linearGradient>
</defs>
</svg>
