<svg width="46" height="58" viewBox="0 0 46 58" fill="none" xmlns="http://www.w3.org/2000/svg">
<mask id="path-1-inside-1_2294_2827" fill="white">
<path fill-rule="evenodd" clip-rule="evenodd" d="M2.39152 28.8063C2.39152 31.4486 2.63852 33.6321 3.10108 35.4365C1.57154 37.5999 0.466064 40.5746 0.115887 43.9298C-0.629398 51.0707 2.3288 57.2313 6.72321 57.69C11.1176 58.1486 15.2842 52.7316 16.0295 45.5906C16.0874 45.0356 16.1229 44.4864 16.1372 43.9454C17.6878 44.0067 19.3221 44.0022 21.0142 43.9976H21.0144C21.4695 43.9963 21.9287 43.995 22.3915 43.995C22.8544 43.995 23.3136 43.9963 23.7686 43.9976C25.8423 44.0033 27.8293 44.0087 29.6817 43.8931C30.712 49.2077 33.7783 53.0604 37.3803 53.0415C41.7986 53.0184 45.3498 47.1794 45.3122 39.9998C45.2912 35.98 44.1496 32.3923 42.3734 30.0169C42.3854 29.6245 42.3915 29.221 42.3915 28.8063C42.3915 12.897 33.4372 0 22.3915 0C11.3458 0 2.39152 12.897 2.39152 28.8063Z"/>
</mask>
<path fill-rule="evenodd" clip-rule="evenodd" d="M2.39152 28.8063C2.39152 31.4486 2.63852 33.6321 3.10108 35.4365C1.57154 37.5999 0.466064 40.5746 0.115887 43.9298C-0.629398 51.0707 2.3288 57.2313 6.72321 57.69C11.1176 58.1486 15.2842 52.7316 16.0295 45.5906C16.0874 45.0356 16.1229 44.4864 16.1372 43.9454C17.6878 44.0067 19.3221 44.0022 21.0142 43.9976H21.0144C21.4695 43.9963 21.9287 43.995 22.3915 43.995C22.8544 43.995 23.3136 43.9963 23.7686 43.9976C25.8423 44.0033 27.8293 44.0087 29.6817 43.8931C30.712 49.2077 33.7783 53.0604 37.3803 53.0415C41.7986 53.0184 45.3498 47.1794 45.3122 39.9998C45.2912 35.98 44.1496 32.3923 42.3734 30.0169C42.3854 29.6245 42.3915 29.221 42.3915 28.8063C42.3915 12.897 33.4372 0 22.3915 0C11.3458 0 2.39152 12.897 2.39152 28.8063Z" fill="#D29B35"/>
<path d="M3.10108 35.4365L5.03843 34.9398L5.26812 35.8358L4.73415 36.5911L3.10108 35.4365ZM0.115887 43.9298L2.10508 44.1374L0.115887 43.9298ZM6.72321 57.69L6.51561 59.6792L6.72321 57.69ZM16.0295 45.5906L18.0186 45.7982H18.0186L16.0295 45.5906ZM16.1372 43.9454L14.1379 43.8928L14.1912 41.8669L16.2162 41.947L16.1372 43.9454ZM21.0142 43.9976L21.0087 41.9976H21.0142V43.9976ZM21.0144 43.9976L21.02 45.9976H21.0144V43.9976ZM23.7686 43.9976L23.7631 45.9975H23.7631L23.7686 43.9976ZM29.6817 43.8931L29.5571 41.897L31.3108 41.7875L31.6452 43.5125L29.6817 43.8931ZM37.3803 53.0415L37.3908 55.0415H37.3908L37.3803 53.0415ZM45.3122 39.9998L47.3122 39.9894L45.3122 39.9998ZM42.3734 30.0169L40.7717 31.2146L40.3529 30.6546L40.3743 29.9555L42.3734 30.0169ZM1.16373 35.9331C0.648773 33.9244 0.391521 31.5662 0.391521 28.8063H4.39152C4.39152 31.3309 4.62827 33.3399 5.03843 34.9398L1.16373 35.9331ZM-1.87331 43.7222C-1.49259 40.0743 -0.285702 36.7624 1.468 34.2819L4.73415 36.5911C3.42879 38.4374 2.42472 41.0748 2.10508 44.1374L-1.87331 43.7222ZM6.51561 59.6792C3.37 59.3509 1.05317 57.0219 -0.310757 54.1814C-1.69113 51.3067 -2.27805 47.6001 -1.87331 43.7222L2.10508 44.1374C1.76453 47.4003 2.28408 50.3445 3.29509 52.45C4.32254 54.5898 5.68201 55.5704 6.93082 55.7008L6.51561 59.6792ZM18.0186 45.7982C17.6139 49.6762 16.2743 53.1817 14.3301 55.7095C12.409 58.2071 9.66121 60.0075 6.51561 59.6792L6.93082 55.7008C8.17963 55.8311 9.7123 55.1523 11.1594 53.2708C12.5834 51.4194 13.6997 48.646 14.0403 45.383L18.0186 45.7982ZM18.1365 43.998C18.1209 44.5909 18.0819 45.1918 18.0186 45.7982L14.0403 45.383C14.0928 44.8793 14.125 44.3819 14.1379 43.8928L18.1365 43.998ZM21.0197 45.9975C19.3367 46.0022 17.6587 46.0071 16.0581 45.9438L16.2162 41.947C17.7169 42.0063 19.3076 42.0022 21.0087 41.9976L21.0197 45.9975ZM21.0144 45.9976H21.0142V41.9976H21.0144V45.9976ZM22.3915 45.995C21.9319 45.995 21.4754 45.9963 21.02 45.9975L21.0089 41.9976C21.4635 41.9963 21.9254 41.995 22.3915 41.995V45.995ZM23.7631 45.9975C23.3076 45.9963 22.8512 45.995 22.3915 45.995V41.995C22.8576 41.995 23.3195 41.9963 23.7741 41.9976L23.7631 45.9975ZM29.8063 45.8892C27.8768 46.0097 25.822 46.0032 23.7631 45.9975L23.7741 41.9976C25.8627 42.0033 27.7818 42.0078 29.5571 41.897L29.8063 45.8892ZM37.3908 55.0415C34.8193 55.0549 32.6296 53.6795 31.0261 51.7429C29.423 49.8068 28.2827 47.1854 27.7183 44.2737L31.6452 43.5125C32.111 45.9154 33.0189 47.8777 34.1071 49.1918C35.1948 50.5055 36.3393 51.0469 37.3699 51.0415L37.3908 55.0415ZM47.3122 39.9894C47.3326 43.8883 46.3831 47.519 44.726 50.2436C43.0886 52.9358 40.5534 55.0249 37.3908 55.0415L37.3699 51.0415C38.6254 51.035 40.075 50.1931 41.3084 48.1651C42.5221 46.1695 43.3294 43.2909 43.3122 40.0103L47.3122 39.9894ZM43.9751 28.8192C46.0583 31.6051 47.2894 35.6343 47.3122 39.9894L43.3122 40.0103C43.293 36.3258 42.2409 33.1795 40.7717 31.2146L43.9751 28.8192ZM44.3915 28.8063C44.3915 29.2406 44.3851 29.6645 44.3724 30.0783L40.3743 29.9555C40.3857 29.5844 40.3915 29.2015 40.3915 28.8063H44.3915ZM22.3915 -2C28.7536 -2 34.3023 1.71642 38.1765 7.29654C42.0559 12.8841 44.3915 20.4951 44.3915 28.8063H40.3915C40.3915 21.2082 38.25 14.4161 34.8908 9.57779C31.5265 4.73208 27.0752 2 22.3915 2V-2ZM0.391521 28.8063C0.391521 20.4951 2.72713 12.8841 6.60653 7.29654C10.4808 1.71642 16.0295 -2 22.3915 -2V2C17.7079 2 13.2566 4.73208 9.89224 9.57779C6.53306 14.4161 4.39152 21.2082 4.39152 28.8063H0.391521Z" fill="black" mask="url(#path-1-inside-1_2294_2827)"/>
<g filter="url(#filter0_d_2294_2827)">
<circle cx="18.5" cy="23.502" r="8.71488" fill="url(#paint0_linear_2294_2827)"/>
<circle cx="18.5119" cy="23.5139" r="5.50413" fill="#350F42"/>
<circle cx="18.5116" cy="23.5155" r="4.1405" fill="url(#paint1_linear_2294_2827)"/>
<circle cx="18.4974" cy="23.4993" r="2.09504" fill="#350F42"/>
<path d="M27.8493 23.5C28.4848 23.5 29.0065 22.9832 28.937 22.3515C28.6772 19.9892 27.6211 17.7719 25.9246 16.0754C23.9555 14.1062 21.2848 13 18.5 13C15.7152 13 13.0445 14.1062 11.0754 16.0754C9.37886 17.7719 8.32284 19.9892 8.06296 22.3515C7.99347 22.9832 8.51518 23.5 9.15068 23.5C9.78619 23.5 10.2931 22.9823 10.382 22.353C10.6293 20.6025 11.4381 18.9673 12.7027 17.7027C14.2402 16.1651 16.3256 15.3014 18.5 15.3014C20.6744 15.3014 22.7598 16.1651 24.2973 17.7027C25.5619 18.9673 26.3707 20.6025 26.618 22.353C26.7069 22.9823 27.2138 23.5 27.8493 23.5Z" fill="#350F42"/>
<circle cx="17.2229" cy="21.4045" r="1.28926" fill="white"/>
<circle cx="20.5989" cy="26.1888" r="0.595041" fill="white"/>
</g>
<defs>
<filter id="filter0_d_2294_2827" x="0.0585938" y="7" width="36.8828" height="35.2168" filterUnits="userSpaceOnUse" color-interpolation-filters="sRGB">
<feFlood flood-opacity="0" result="BackgroundImageFix"/>
<feColorMatrix in="SourceAlpha" type="matrix" values="0 0 0 0 0 0 0 0 0 0 0 0 0 0 0 0 0 0 127 0" result="hardAlpha"/>
<feMorphology radius="4" operator="dilate" in="SourceAlpha" result="effect1_dropShadow_2294_2827"/>
<feOffset dy="2"/>
<feGaussianBlur stdDeviation="2"/>
<feComposite in2="hardAlpha" operator="out"/>
<feColorMatrix type="matrix" values="0 0 0 0 0.207843 0 0 0 0 0.0588235 0 0 0 0 0.258824 0 0 0 1 0"/>
<feBlend mode="normal" in2="BackgroundImageFix" result="effect1_dropShadow_2294_2827"/>
<feBlend mode="normal" in="SourceGraphic" in2="effect1_dropShadow_2294_2827" result="shape"/>
</filter>
<linearGradient id="paint0_linear_2294_2827" x1="18.5" y1="14.7871" x2="18.5" y2="32.2169" gradientUnits="userSpaceOnUse">
<stop stop-color="#EBD6EB"/>
<stop offset="0.9999" stop-color="white"/>
</linearGradient>
<linearGradient id="paint1_linear_2294_2827" x1="18.5116" y1="19.375" x2="18.5116" y2="27.656" gradientUnits="userSpaceOnUse">
<stop stop-color="#853085"/>
<stop offset="1" stop-color="#9D4A9D"/>
</linearGradient>
</defs>
</svg>
