<svg width="58" height="84" viewBox="0 0 58 84" fill="none" xmlns="http://www.w3.org/2000/svg">
<path d="M1 14H57V74C57 78.9706 52.9706 83 48 83H10C5.02944 83 1 78.9706 1 74V14Z" fill="#8384AA" stroke="#350F42" stroke-width="2"/>
<path d="M10 1H48C52.9706 1 57 5.02944 57 10V32C57 36.9706 52.9706 41 48 41H10C5.02944 41 1 36.9706 1 32V10C1 5.02944 5.02944 1 10 1Z" fill="url(#paint0_linear_2230_2220)" stroke="#350F42" stroke-width="2"/>
<g filter="url(#filter0_d_2230_2220)">
<circle cx="29.438" cy="54.4361" r="6.17239" fill="url(#paint1_linear_2230_2220)"/>
<circle cx="29.4413" cy="54.4452" r="3.89835" fill="#350F42"/>
<circle cx="29.4482" cy="54.4443" r="2.93254" fill="url(#paint2_linear_2230_2220)"/>
<circle cx="29.437" cy="54.437" r="1.48383" fill="#350F42"/>
<path d="M36.0585 54.4367C36.5086 54.4367 36.8781 54.0707 36.8289 53.6233C36.6448 51.9502 35.8969 50.3797 34.6953 49.1782C33.3006 47.7835 31.4091 47 29.4367 47C27.4644 47 25.5728 47.7835 24.1782 49.1782C22.9766 50.3797 22.2287 51.9502 22.0446 53.6233C21.9954 54.0707 22.3649 54.4367 22.815 54.4367V54.4367C23.2651 54.4367 23.6241 54.07 23.687 53.6244C23.8622 52.3845 24.4351 51.2264 25.3307 50.3307C26.4197 49.2417 27.8967 48.63 29.4367 48.63C30.9768 48.63 32.4537 49.2417 33.5427 50.3307C34.4384 51.2264 35.0112 52.3845 35.1864 53.6244C35.2494 54.07 35.6084 54.4367 36.0585 54.4367V54.4367Z" fill="#350F42"/>
<circle cx="28.5303" cy="52.9502" r="0.913127" fill="white"/>
<circle cx="30.9254" cy="56.3414" r="0.421443" fill="white"/>
</g>
<defs>
<filter id="filter0_d_2230_2220" x="18.0391" y="45" width="22.793" height="21.6094" filterUnits="userSpaceOnUse" color-interpolation-filters="sRGB">
<feFlood flood-opacity="0" result="BackgroundImageFix"/>
<feColorMatrix in="SourceAlpha" type="matrix" values="0 0 0 0 0 0 0 0 0 0 0 0 0 0 0 0 0 0 127 0" result="hardAlpha"/>
<feOffset dy="2"/>
<feGaussianBlur stdDeviation="2"/>
<feComposite in2="hardAlpha" operator="out"/>
<feColorMatrix type="matrix" values="0 0 0 0 0.207843 0 0 0 0 0.0588235 0 0 0 0 0.258824 0 0 0 1 0"/>
<feBlend mode="normal" in2="BackgroundImageFix" result="effect1_dropShadow_2230_2220"/>
<feBlend mode="normal" in="SourceGraphic" in2="effect1_dropShadow_2230_2220" result="shape"/>
</filter>
<linearGradient id="paint0_linear_2230_2220" x1="29" y1="0" x2="29" y2="42" gradientUnits="userSpaceOnUse">
<stop stop-color="#8F90BD"/>
<stop offset="1" stop-color="#A5A6CE"/>
</linearGradient>
<linearGradient id="paint1_linear_2230_2220" x1="29.438" y1="48.2637" x2="29.438" y2="60.6085" gradientUnits="userSpaceOnUse">
<stop stop-color="#EBD6EB"/>
<stop offset="0.9999" stop-color="white"/>
</linearGradient>
<linearGradient id="paint2_linear_2230_2220" x1="29.4482" y1="51.5117" x2="29.4482" y2="57.3768" gradientUnits="userSpaceOnUse">
<stop stop-color="#853085"/>
<stop offset="1" stop-color="#9D4A9D"/>
</linearGradient>
</defs>
</svg>
