<svg width="2632" height="2535" viewBox="0 0 2632 2535" fill="none" xmlns="http://www.w3.org/2000/svg">
<rect x="640.154" y="888.59" width="323" height="904" rx="161.5" transform="rotate(45 640.154 888.59)" fill="#65CDCD"/>
<path d="M564 360C564 161.177 725.178 0 924 0H1785C1983.82 0 2145 161.178 2145 360V2322.06C2145 2439.66 2049.66 2535 1932.06 2535C1827.12 2535 1737.83 2458.55 1721.66 2354.87L1703.2 2236.45C1641.14 1838.39 1067.86 1838.39 1005.8 2236.45L987.337 2354.87C971.17 2458.55 881.877 2535 776.94 2535C659.337 2535 564 2439.66 564 2322.06V360Z" fill="#95EAEA"/>
<rect x="1763.54" y="1119.84" width="323" height="904" rx="161.5" transform="rotate(-45 1763.54 1119.84)" fill="#65CDCD"/>
<g filter="url(#filter0_d_2223_2052)">
<circle cx="1160" cy="638.998" r="303.776" fill="url(#paint0_linear_2223_2052)"/>
<circle cx="1160.43" cy="639.433" r="191.858" fill="#350F42"/>
<circle cx="1160.43" cy="639.427" r="144.326" fill="url(#paint1_linear_2223_2052)"/>
<circle cx="1160" cy="639" r="73.0272" fill="#350F42"/>
<path d="M1485.89 639C1508.04 639 1526.23 620.987 1523.81 598.968C1514.75 516.623 1477.94 439.335 1418.8 380.199C1350.16 311.561 1257.07 273 1160 273C1062.93 273 969.837 311.561 901.199 380.199C842.063 439.335 805.253 516.623 796.195 598.968C793.772 620.987 811.958 639 834.109 639C856.261 639 873.93 620.954 877.028 599.02C885.649 538.001 913.842 481.003 957.922 436.922C1011.52 383.328 1084.21 353.219 1160 353.219C1235.79 353.219 1308.48 383.328 1362.08 436.922C1406.16 481.003 1434.35 538.001 1442.97 599.02C1446.07 620.954 1463.74 639 1485.89 639Z" fill="#350F42"/>
<circle cx="1115.49" cy="565.972" r="44.9406" fill="white"/>
<circle cx="1233.03" cy="732.769" r="20.7418" fill="white"/>
</g>
<defs>
<filter id="filter0_d_2223_2052" x="743.978" y="261" width="832.045" height="773.773" filterUnits="userSpaceOnUse" color-interpolation-filters="sRGB">
<feFlood flood-opacity="0" result="BackgroundImageFix"/>
<feColorMatrix in="SourceAlpha" type="matrix" values="0 0 0 0 0 0 0 0 0 0 0 0 0 0 0 0 0 0 127 0" result="hardAlpha"/>
<feMorphology radius="4" operator="dilate" in="SourceAlpha" result="effect1_dropShadow_2223_2052"/>
<feOffset dy="40"/>
<feGaussianBlur stdDeviation="24"/>
<feComposite in2="hardAlpha" operator="out"/>
<feColorMatrix type="matrix" values="0 0 0 0 0.396078 0 0 0 0 0.803922 0 0 0 0 0.803922 0 0 0 1 0"/>
<feBlend mode="normal" in2="BackgroundImageFix" result="effect1_dropShadow_2223_2052"/>
<feBlend mode="normal" in="SourceGraphic" in2="effect1_dropShadow_2223_2052" result="shape"/>
</filter>
<linearGradient id="paint0_linear_2223_2052" x1="1160" y1="335.223" x2="1160" y2="942.774" gradientUnits="userSpaceOnUse">
<stop stop-color="#EBD6EB"/>
<stop offset="0.9999" stop-color="white"/>
</linearGradient>
<linearGradient id="paint1_linear_2223_2052" x1="1160.43" y1="495.102" x2="1160.43" y2="783.753" gradientUnits="userSpaceOnUse">
<stop stop-color="#853085"/>
<stop offset="1" stop-color="#9D4A9D"/>
</linearGradient>
</defs>
</svg>
