<svg width="9" height="23" viewBox="0 0 9 23" fill="none" xmlns="http://www.w3.org/2000/svg">
<mask id="path-1-inside-1_2231_1999" fill="white">
<path fill-rule="evenodd" clip-rule="evenodd" d="M8.58495 14.9264L4.29247 0.521484L0 14.9264L4.29247 22.8258L8.58495 14.9264Z"/>
</mask>
<path fill-rule="evenodd" clip-rule="evenodd" d="M8.58495 14.9264L4.29247 0.521484L0 14.9264L4.29247 22.8258L8.58495 14.9264Z" fill="#53C1F9"/>
<path d="M4.29247 0.521484L5.25083 0.235907L4.29247 -2.98019L3.33412 0.235907L4.29247 0.521484ZM8.58495 14.9264L9.46361 15.4038L9.66192 15.0389L9.5433 14.6408L8.58495 14.9264ZM0 14.9264L-0.958356 14.6408L-1.07697 15.0389L-0.878658 15.4038L0 14.9264ZM4.29247 22.8258L3.41382 23.3033L4.29247 24.9203L5.17113 23.3033L4.29247 22.8258ZM3.33412 0.807062L7.62659 15.212L9.5433 14.6408L5.25083 0.235907L3.33412 0.807062ZM0.958356 15.212L5.25083 0.807062L3.33412 0.235907L-0.958356 14.6408L0.958356 15.212ZM-0.878658 15.4038L3.41382 23.3033L5.17113 22.3484L0.878658 14.4489L-0.878658 15.4038ZM5.17113 23.3033L9.46361 15.4038L7.70629 14.4489L3.41382 22.3484L5.17113 23.3033Z" fill="#2E9DD5" mask="url(#path-1-inside-1_2231_1999)"/>
</svg>
