<svg width="68" height="60" viewBox="0 0 68 60" fill="none" xmlns="http://www.w3.org/2000/svg">
<mask id="path-1-inside-1_2294_2590" fill="white">
<path fill-rule="evenodd" clip-rule="evenodd" d="M57.0324 20.327C58.05 18.4675 58.6286 16.3335 58.6286 14.0643C58.6286 6.84908 52.7795 1 45.5643 1C39.2622 1 34.0023 5.46234 32.7719 11.3997C30.076 11.7937 27.5095 12.5857 25.1345 13.7139C23.5927 9.25742 19.3594 6.05714 14.3786 6.05714C8.09436 6.05714 3 11.1515 3 17.4357C3 22.726 6.61029 27.173 11.5015 28.4474C10.3651 31.4234 9.74286 34.6525 9.74286 38.0266C9.74286 39.9807 9.95158 41.7206 10.348 43.269C7.48673 44.7353 5.52857 47.714 5.52857 51.15C5.52857 56.0377 9.49085 60 14.3786 60C18.2376 60 21.5197 57.5301 22.7303 54.0848C24.7328 54.5696 26.9062 54.8868 29.206 55.0841C30.6543 57.9977 33.6612 60 37.1357 60C40.6429 60 43.6736 57.9599 45.1058 55.0017C47.3455 54.7754 49.456 54.426 51.3946 53.9075C52.9274 56.5427 55.7818 58.3143 59.05 58.3143C63.9377 58.3143 67.9 54.352 67.9 49.4643C67.9 46.1567 66.0855 43.2729 63.3977 41.754C63.5874 40.6075 63.6857 39.3675 63.6857 38.0266C63.6857 31.25 61.1756 25.0584 57.0324 20.327Z"/>
</mask>
<path fill-rule="evenodd" clip-rule="evenodd" d="M57.0324 20.327C58.05 18.4675 58.6286 16.3335 58.6286 14.0643C58.6286 6.84908 52.7795 1 45.5643 1C39.2622 1 34.0023 5.46234 32.7719 11.3997C30.076 11.7937 27.5095 12.5857 25.1345 13.7139C23.5927 9.25742 19.3594 6.05714 14.3786 6.05714C8.09436 6.05714 3 11.1515 3 17.4357C3 22.726 6.61029 27.173 11.5015 28.4474C10.3651 31.4234 9.74286 34.6525 9.74286 38.0266C9.74286 39.9807 9.95158 41.7206 10.348 43.269C7.48673 44.7353 5.52857 47.714 5.52857 51.15C5.52857 56.0377 9.49085 60 14.3786 60C18.2376 60 21.5197 57.5301 22.7303 54.0848C24.7328 54.5696 26.9062 54.8868 29.206 55.0841C30.6543 57.9977 33.6612 60 37.1357 60C40.6429 60 43.6736 57.9599 45.1058 55.0017C47.3455 54.7754 49.456 54.426 51.3946 53.9075C52.9274 56.5427 55.7818 58.3143 59.05 58.3143C63.9377 58.3143 67.9 54.352 67.9 49.4643C67.9 46.1567 66.0855 43.2729 63.3977 41.754C63.5874 40.6075 63.6857 39.3675 63.6857 38.0266C63.6857 31.25 61.1756 25.0584 57.0324 20.327Z" fill="#5657AB"/>
<path d="M57.0324 20.327L55.278 19.3669L54.6069 20.593L55.5278 21.6446L57.0324 20.327ZM32.7719 11.3997L33.0611 13.3787L34.4463 13.1763L34.7303 11.8055L32.7719 11.3997ZM25.1345 13.7139L23.2444 14.3678L23.9748 16.479L25.9927 15.5204L25.1345 13.7139ZM11.5015 28.4474L13.3699 29.1608L14.1663 27.075L12.0057 26.512L11.5015 28.4474ZM10.348 43.269L11.2601 45.0489L12.6817 44.3204L12.2855 42.7729L10.348 43.269ZM22.7303 54.0848L23.2009 52.141L21.443 51.7154L20.8434 53.4218L22.7303 54.0848ZM29.206 55.0841L30.997 54.1939L30.4967 53.1875L29.377 53.0914L29.206 55.0841ZM45.1058 55.0017L44.9048 53.0118L43.7928 53.1242L43.3057 54.1301L45.1058 55.0017ZM51.3946 53.9075L53.1234 52.902L52.3547 51.5805L50.8778 51.9754L51.3946 53.9075ZM63.3977 41.754L61.4245 41.4275L61.1961 42.8072L62.4137 43.4953L63.3977 41.754ZM56.6286 14.0643C56.6286 15.9895 56.1385 17.7944 55.278 19.3669L58.7869 21.2872C59.9615 19.1407 60.6286 16.6774 60.6286 14.0643H56.6286ZM45.5643 3C51.6749 3 56.6286 7.95365 56.6286 14.0643H60.6286C60.6286 5.74451 53.8841 -1 45.5643 -1V3ZM34.7303 11.8055C35.7722 6.77786 40.2293 3 45.5643 3V-1C38.295 -1 32.2324 4.14681 30.8135 10.9939L34.7303 11.8055ZM25.9927 15.5204C28.1906 14.4763 30.5655 13.7434 33.0611 13.3787L32.4827 9.42074C29.5864 9.84401 26.8284 10.695 24.2763 11.9074L25.9927 15.5204ZM14.3786 8.05714C18.4808 8.05714 21.9728 10.6921 23.2444 14.3678L27.0246 13.06C25.2127 7.82274 20.238 4.05714 14.3786 4.05714V8.05714ZM5 17.4357C5 12.2561 9.19893 8.05714 14.3786 8.05714V4.05714C6.98979 4.05714 1 10.0469 1 17.4357H5ZM12.0057 26.512C7.97376 25.4615 5 21.7933 5 17.4357H1C1 23.6586 5.24681 28.8845 10.9972 30.3828L12.0057 26.512ZM11.7429 38.0266C11.7429 34.9001 12.3192 31.9126 13.3699 29.1608L9.63302 27.734C8.41111 30.9342 7.74286 34.4048 7.74286 38.0266H11.7429ZM12.2855 42.7729C11.9365 41.41 11.7429 39.8392 11.7429 38.0266H7.74286C7.74286 40.1221 7.96662 42.0313 8.4105 43.7651L12.2855 42.7729ZM7.52857 51.15C7.52857 48.4933 9.0405 46.1864 11.2601 45.0489L9.43588 41.4891C5.93297 43.2842 3.52857 46.9346 3.52857 51.15H7.52857ZM14.3786 58C10.5954 58 7.52857 54.9332 7.52857 51.15H3.52857C3.52857 57.1423 8.38628 62 14.3786 62V58ZM20.8434 53.4218C19.9055 56.0911 17.3624 58 14.3786 58V62C19.1128 62 23.134 58.969 24.6172 54.7478L20.8434 53.4218ZM29.377 53.0914C27.1482 52.9002 25.0794 52.5957 23.2009 52.141L22.2597 56.0287C24.3861 56.5434 26.6641 56.8734 29.0351 57.0768L29.377 53.0914ZM37.1357 58C34.4493 58 32.1204 56.4539 30.997 54.1939L27.4151 55.9743C29.1883 59.5416 32.8731 62 37.1357 62V58ZM43.3057 54.1301C42.1949 56.4246 39.8473 58 37.1357 58V62C41.4385 62 45.1523 59.4952 46.906 55.8732L43.3057 54.1301ZM50.8778 51.9754C49.0689 52.4592 47.0685 52.7932 44.9048 53.0118L45.3069 56.9916C47.6224 56.7576 49.8432 56.3927 51.9113 55.8396L50.8778 51.9754ZM59.05 56.3143C56.5229 56.3143 54.3128 54.9469 53.1234 52.902L49.6657 54.9131C51.5419 58.1386 55.0407 60.3143 59.05 60.3143V56.3143ZM65.9 49.4643C65.9 53.2474 62.8331 56.3143 59.05 56.3143V60.3143C65.0423 60.3143 69.9 55.4566 69.9 49.4643H65.9ZM62.4137 43.4953C64.4993 44.6738 65.9 46.9068 65.9 49.4643H69.9C69.9 45.4066 67.6717 41.872 64.3816 40.0128L62.4137 43.4953ZM61.6857 38.0266C61.6857 39.2701 61.5945 40.4002 61.4245 41.4275L65.3708 42.0806C65.5803 40.8149 65.6857 39.4648 65.6857 38.0266H61.6857ZM55.5278 21.6446C59.3642 26.0257 61.6857 31.7534 61.6857 38.0266H65.6857C65.6857 30.7465 62.987 24.0911 58.5371 19.0094L55.5278 21.6446Z" fill="black" mask="url(#path-1-inside-1_2294_2590)"/>
<g filter="url(#filter0_d_2294_2590)">
<circle cx="45.1747" cy="13.1766" r="5.95593" fill="url(#paint0_linear_2294_2590)"/>
<circle cx="45.1835" cy="13.1855" r="3.76164" fill="#350F42"/>
<circle cx="45.1852" cy="13.1871" r="2.8297" fill="url(#paint1_linear_2294_2590)"/>
<circle cx="45.174" cy="13.1759" r="1.4318" fill="#350F42"/>
<path d="M51.5654 13.1759C51.9998 13.1759 52.3563 12.8227 52.3088 12.391C52.1312 10.7766 51.4095 9.26122 50.2501 8.10178C48.9043 6.75603 47.0791 6 45.1759 6C43.2727 6 41.4475 6.75603 40.1018 8.10178C38.9423 9.26122 38.2206 10.7766 38.043 12.391C37.9955 12.8227 38.3521 13.1759 38.7864 13.1759C39.2207 13.1759 39.5671 12.8221 39.6279 12.3921C39.7969 11.1957 40.3497 10.0782 41.2139 9.21392C42.2647 8.16313 43.6899 7.5728 45.1759 7.5728C46.662 7.5728 48.0871 8.16313 49.1379 9.21392C50.0022 10.0782 50.5549 11.1957 50.724 12.3921C50.7847 12.8221 51.1311 13.1759 51.5654 13.1759Z" fill="#350F42"/>
<circle cx="44.303" cy="11.7444" r="0.881105" fill="white"/>
<circle cx="46.6098" cy="15.0141" r="0.406664" fill="white"/>
</g>
<g filter="url(#filter1_d_2294_2590)">
<circle cx="13.6758" cy="16.6758" r="4.71095" fill="url(#paint2_linear_2294_2590)"/>
<circle cx="13.6824" cy="16.6843" r="2.97533" fill="#350F42"/>
<circle cx="13.6835" cy="16.6855" r="2.2382" fill="url(#paint3_linear_2294_2590)"/>
<circle cx="13.6755" cy="16.6755" r="1.1325" fill="#350F42"/>
<path d="M18.7298 16.6759C19.0734 16.6759 19.3554 16.3966 19.3178 16.0551C19.1773 14.7781 18.6065 13.5795 17.6894 12.6624C16.625 11.598 15.1813 11 13.6759 11C12.1706 11 10.7269 11.598 9.66244 12.6624C8.74536 13.5795 8.17452 14.7781 8.03403 16.0551C7.99647 16.3966 8.27849 16.6759 8.62202 16.6759C8.96555 16.6759 9.23955 16.3961 9.2876 16.0559C9.42128 15.1096 9.8585 14.2257 10.5421 13.5421C11.3732 12.711 12.5005 12.244 13.6759 12.244C14.8513 12.244 15.9786 12.711 16.8097 13.5421C17.4933 14.2257 17.9306 15.1096 18.0642 16.0559C18.1123 16.3961 18.3863 16.6759 18.7298 16.6759Z" fill="#350F42"/>
<circle cx="12.986" cy="15.5446" r="0.696925" fill="white"/>
<circle cx="14.8099" cy="18.1303" r="0.321658" fill="white"/>
</g>
<defs>
<filter id="filter0_d_2294_2590" x="30.0391" y="0" width="30.2734" height="29.1328" filterUnits="userSpaceOnUse" color-interpolation-filters="sRGB">
<feFlood flood-opacity="0" result="BackgroundImageFix"/>
<feColorMatrix in="SourceAlpha" type="matrix" values="0 0 0 0 0 0 0 0 0 0 0 0 0 0 0 0 0 0 127 0" result="hardAlpha"/>
<feMorphology radius="4" operator="dilate" in="SourceAlpha" result="effect1_dropShadow_2294_2590"/>
<feOffset dy="2"/>
<feGaussianBlur stdDeviation="2"/>
<feComposite in2="hardAlpha" operator="out"/>
<feColorMatrix type="matrix" values="0 0 0 0 0.207843 0 0 0 0 0.0588235 0 0 0 0 0.258824 0 0 0 1 0"/>
<feBlend mode="normal" in2="BackgroundImageFix" result="effect1_dropShadow_2294_2590"/>
<feBlend mode="normal" in="SourceGraphic" in2="effect1_dropShadow_2294_2590" result="shape"/>
</filter>
<filter id="filter1_d_2294_2590" x="0.03125" y="5" width="27.2891" height="26.3867" filterUnits="userSpaceOnUse" color-interpolation-filters="sRGB">
<feFlood flood-opacity="0" result="BackgroundImageFix"/>
<feColorMatrix in="SourceAlpha" type="matrix" values="0 0 0 0 0 0 0 0 0 0 0 0 0 0 0 0 0 0 127 0" result="hardAlpha"/>
<feMorphology radius="4" operator="dilate" in="SourceAlpha" result="effect1_dropShadow_2294_2590"/>
<feOffset dy="2"/>
<feGaussianBlur stdDeviation="2"/>
<feComposite in2="hardAlpha" operator="out"/>
<feColorMatrix type="matrix" values="0 0 0 0 0.207843 0 0 0 0 0.0588235 0 0 0 0 0.258824 0 0 0 1 0"/>
<feBlend mode="normal" in2="BackgroundImageFix" result="effect1_dropShadow_2294_2590"/>
<feBlend mode="normal" in="SourceGraphic" in2="effect1_dropShadow_2294_2590" result="shape"/>
</filter>
<linearGradient id="paint0_linear_2294_2590" x1="45.1747" y1="7.2207" x2="45.1747" y2="19.1326" gradientUnits="userSpaceOnUse">
<stop stop-color="#EBD6EB"/>
<stop offset="0.9999" stop-color="white"/>
</linearGradient>
<linearGradient id="paint1_linear_2294_2590" x1="45.1852" y1="10.3574" x2="45.1852" y2="16.0168" gradientUnits="userSpaceOnUse">
<stop stop-color="#853085"/>
<stop offset="1" stop-color="#9D4A9D"/>
</linearGradient>
<linearGradient id="paint2_linear_2294_2590" x1="13.6758" y1="11.9648" x2="13.6758" y2="21.3867" gradientUnits="userSpaceOnUse">
<stop stop-color="#EBD6EB"/>
<stop offset="0.9999" stop-color="white"/>
</linearGradient>
<linearGradient id="paint3_linear_2294_2590" x1="13.6835" y1="14.4473" x2="13.6835" y2="18.9237" gradientUnits="userSpaceOnUse">
<stop stop-color="#853085"/>
<stop offset="1" stop-color="#9D4A9D"/>
</linearGradient>
</defs>
</svg>
