<svg width="30" height="30" viewBox="0 0 30 30" fill="none" xmlns="http://www.w3.org/2000/svg">
<mask id="path-1-inside-1_2376_1912" fill="white">
<path d="M29.6746 14.9467C29.6746 23.1411 23.0317 29.784 14.8373 29.784C6.64289 29.784 0 23.1411 0 14.9467C0 6.75226 6.64289 0.109375 14.8373 0.109375C23.0317 0.109375 29.6746 6.75226 29.6746 14.9467ZM6.40137 14.9467C6.40137 19.6057 10.1783 23.3826 14.8373 23.3826C19.4964 23.3826 23.2733 19.6057 23.2733 14.9467C23.2733 10.2876 19.4964 6.51074 14.8373 6.51074C10.1783 6.51074 6.40137 10.2876 6.40137 14.9467Z"/>
</mask>
<path d="M29.6746 14.9467C29.6746 23.1411 23.0317 29.784 14.8373 29.784C6.64289 29.784 0 23.1411 0 14.9467C0 6.75226 6.64289 0.109375 14.8373 0.109375C23.0317 0.109375 29.6746 6.75226 29.6746 14.9467ZM6.40137 14.9467C6.40137 19.6057 10.1783 23.3826 14.8373 23.3826C19.4964 23.3826 23.2733 19.6057 23.2733 14.9467C23.2733 10.2876 19.4964 6.51074 14.8373 6.51074C10.1783 6.51074 6.40137 10.2876 6.40137 14.9467Z" fill="#FF8DF4" stroke="#B334A6" stroke-width="0.8" mask="url(#path-1-inside-1_2376_1912)"/>
<path d="M26.1845 14.9458C26.1845 21.2121 21.1047 26.292 14.8384 26.292C8.57204 26.292 3.49219 21.2121 3.49219 14.9458C3.49219 8.67947 8.57204 3.59961 14.8384 3.59961C21.1047 3.59961 26.1845 8.67947 26.1845 14.9458ZM6.73528 14.9458C6.73528 19.421 10.3632 23.0489 14.8384 23.0489C19.3136 23.0489 22.9414 19.421 22.9414 14.9458C22.9414 10.4706 19.3136 6.84271 14.8384 6.84271C10.3632 6.84271 6.73528 10.4706 6.73528 14.9458Z" fill="#FFDFFC"/>
</svg>
