<svg width="30" height="30" viewBox="0 0 30 30" fill="none" xmlns="http://www.w3.org/2000/svg">
<circle cx="13.398" cy="4.26325" r="4.15276" transform="rotate(180 13.398 4.26325)" fill="#FF8DF4"/>
<circle cx="13.3838" cy="5.64751" r="2.76851" transform="rotate(180 13.3838 5.64751)" fill="#FFDFFC"/>
<circle cx="2.64975" cy="2.64975" r="2.64975" transform="matrix(-1 0 0 1 16.1953 24.4844)" fill="#FF8DF4"/>
<circle cx="1.7665" cy="1.7665" r="1.7665" transform="matrix(-1 0 0 1 15.3047 24.4844)" fill="#FFDFFC"/>
<circle cx="1.17215" cy="1.17215" r="1.17215" transform="matrix(0 -1 -1 0 3.70703 16.793)" fill="#FF8DF4"/>
<circle cx="0.781433" cy="0.781433" r="0.781433" transform="matrix(0 -1 -1 0 3.70703 16.3984)" fill="#FFDFFC"/>
<circle cx="25.8542" cy="16.7357" r="1.11588" transform="rotate(-90 25.8542 16.7357)" fill="#FF8DF4"/>
<circle cx="25.4822" cy="16.7307" r="0.743923" transform="rotate(-90 25.4822 16.7307)" fill="#FFDFFC"/>
<circle cx="1.30091" cy="1.30091" r="1.30091" transform="matrix(-1 0 0 1 9.35547 24.4844)" fill="#FF8DF4"/>
<circle cx="0.867272" cy="0.867272" r="0.867272" transform="matrix(-1 0 0 1 8.92188 24.4844)" fill="#FFDFFC"/>
<circle cx="19.6743" cy="5.30571" r="1.09234" transform="rotate(-148.061 19.6743 5.30571)" fill="#FF8DF4"/>
<circle cx="19.4821" cy="5.61396" r="0.728229" transform="rotate(-148.061 19.4821 5.61396)" fill="#FFDFFC"/>
<circle cx="23.1114" cy="10.6122" r="4.31862" transform="rotate(-128.775 23.1114 10.6122)" fill="#FF8DF4"/>
<circle cx="21.9805" cy="11.5012" r="2.87908" transform="rotate(-128.775 21.9805 11.5012)" fill="#FFDFFC"/>
<circle cx="4.44351" cy="4.44351" r="4.44351" transform="matrix(-0.766049 0.642783 0.642783 0.766049 22.3633 16.7305)" fill="#FF8DF4"/>
<circle cx="2.96234" cy="2.96234" r="2.96234" transform="matrix(-0.766049 0.642783 0.642783 0.766049 21.2227 17.6895)" fill="#FFDFFC"/>
<circle cx="2.35843" cy="2.35843" r="2.35843" transform="matrix(-0.8455 -0.533976 -0.533976 0.8455 7.87109 21.1797)" fill="#FF8DF4"/>
<circle cx="1.57229" cy="1.57229" r="1.57229" transform="matrix(-0.8455 -0.533976 -0.533976 0.8455 7.19922 20.7578)" fill="#FFDFFC"/>
<circle cx="4.77516" cy="9.31452" r="3.14712" transform="rotate(129.206 4.77516 9.31452)" fill="#FF8DF4"/>
<circle cx="5.57927" cy="9.98311" r="2.09808" transform="rotate(129.206 5.57927 9.98311)" fill="#FFDFFC"/>
</svg>
