<svg width="27" height="30" viewBox="0 0 27 30" fill="none" xmlns="http://www.w3.org/2000/svg">
<circle cx="14.768" cy="1.38321" r="1.38046" transform="rotate(180 14.768 1.38321)" fill="#FF8DF4"/>
<circle cx="14.7633" cy="1.84337" r="0.920307" transform="rotate(180 14.7633 1.84337)" fill="#FFDFFC"/>
<circle cx="0.674423" cy="0.674423" r="0.674423" transform="matrix(-1 0 0 1 14.8672 28.3281)" fill="#FF8DF4"/>
<circle cx="0.449615" cy="0.449615" r="0.449615" transform="matrix(-1 0 0 1 14.6406 28.3281)" fill="#FFDFFC"/>
<circle cx="25.5606" cy="6.77647" r="0.981437" transform="rotate(-128.775 25.5606 6.77647)" fill="#FF8DF4"/>
<circle cx="25.3074" cy="6.97858" r="0.654292" transform="rotate(-128.775 25.3074 6.97858)" fill="#FFDFFC"/>
<circle cx="1.2267" cy="1.2267" r="1.2267" transform="matrix(-0.766049 0.642783 0.642783 0.766049 24.0195 24.2793)" fill="#FF8DF4"/>
<circle cx="0.817802" cy="0.817802" r="0.817802" transform="matrix(-0.766049 0.642783 0.642783 0.766049 23.7031 24.5449)" fill="#FFDFFC"/>
<circle cx="1.01571" cy="1.01571" r="1.01571" transform="matrix(-0.8455 -0.533976 -0.533976 0.8455 5.42578 22.668)" fill="#FF8DF4"/>
<circle cx="0.677141" cy="0.677141" r="0.677141" transform="matrix(-0.8455 -0.533976 -0.533976 0.8455 5.13672 22.4863)" fill="#FFDFFC"/>
<circle cx="2.51106" cy="6.96799" r="1.11655" transform="rotate(129.206 2.51106 6.96799)" fill="#FF8DF4"/>
<circle cx="2.79644" cy="7.20392" r="0.744365" transform="rotate(129.206 2.79644 7.20392)" fill="#FFDFFC"/>
</svg>
