<svg width="90" height="154" viewBox="0 0 90 154" fill="none" xmlns="http://www.w3.org/2000/svg">
<mask id="path-1-inside-1_2294_3068" fill="white">
<path fill-rule="evenodd" clip-rule="evenodd" d="M41.3921 13.3387C41.4264 14.3703 41.4068 15.3768 41.3384 16.3457C44.9517 16.6364 48.6365 17.2696 52.1007 18.26C52.1249 18.2067 52.1493 18.1534 52.1739 18.1C55.3071 11.308 60.3769 6.96911 63.4977 8.40874C66.6054 9.84234 66.6085 16.4656 63.5145 23.228C66.7911 25.1709 69.8393 27.4745 72.6017 30.0949C73.2284 29.5708 73.8953 29.0593 74.5985 28.5672C80.7268 24.2786 87.2921 23.0847 89.2626 25.9006C91.2332 28.7164 87.8626 34.4756 81.7343 38.7642C81.3114 39.0601 80.8865 39.3414 80.4611 39.6075C85.2311 47.0618 87.9888 55.6451 88.438 64.5174C88.937 74.372 86.5665 84.1597 81.614 92.694C76.6615 101.228 69.3396 108.143 60.536 112.599C60.1149 112.812 59.6914 113.019 59.2654 113.22C59.0997 113.806 58.9286 114.395 58.7524 114.987C54.2257 130.202 47.9693 141.767 44.7783 140.818C42.0094 139.994 42.4585 130.018 45.5835 117.452C41.726 118.071 37.7951 118.247 33.8677 117.967C34.2649 120.045 34.6261 122.22 34.9415 124.463C37.1519 140.182 36.2713 153.301 32.9745 153.765C29.6778 154.229 25.2133 141.861 23.0029 126.141C22.4859 122.465 22.138 118.93 21.9506 115.667C19.9802 115.036 18.0507 114.286 16.1728 113.421C9.7074 110.444 8.91486 102.145 13.4138 96.6297C15.0279 94.6509 17.1222 93.3307 19.4682 92.5079C19.4156 89.4284 20.8292 86.886 22.9619 86.5355C25.1723 86.1722 27.4045 88.287 28.2807 91.4005C29.9294 91.4718 31.5729 91.6658 33.1543 91.9426C33.6954 92.0373 34.2405 92.1145 34.7889 92.1739C35.0285 92.1998 35.2682 92.2223 35.508 92.2413C35.1984 88.8406 36.662 85.9134 38.9619 85.5355C41.3864 85.137 43.837 87.7199 44.4958 91.3318C46.0063 90.896 47.4795 90.318 48.895 89.6014C53.2492 87.3974 56.8705 83.9776 59.32 79.7567C61.7695 75.5357 62.9419 70.6947 62.6951 65.8208C62.4483 60.9468 60.793 56.249 57.9297 52.297C57.6225 51.873 57.3475 51.4686 57.0872 51.0858L57.0869 51.0853L57.0866 51.0849L57.0864 51.0845L57.0863 51.0844C56.5328 50.2703 56.0454 49.5535 55.4552 48.9523C54.8489 48.3348 54.1759 47.7553 53.4495 47.2184C53.4276 47.2783 53.4052 47.3383 53.3821 47.3983C52.0322 50.9025 49.0486 53.0155 46.7179 52.1177C44.3872 51.2199 43.5921 47.6514 44.942 44.1471C45.0261 43.9288 45.1165 43.7158 45.2128 43.5087C41.4156 42.6309 37.4282 42.6939 34.1229 44.0009C34.5491 44.6758 34.9092 45.4442 35.1751 46.2834C36.309 49.8634 35.2981 53.3769 32.9171 54.1311C30.6003 54.865 27.8401 52.716 26.6481 49.3016C26.1062 49.7813 25.4966 50.3175 24.7102 50.983C23.5874 51.9329 22.4176 52.7551 21.2242 53.4502C22.2723 56.9698 21.2559 60.3832 18.9132 61.1253C16.5887 61.8616 13.8177 59.6957 12.6323 56.2614C5.23977 56.8593 -0.883538 52.4745 0.114904 43.2647L0.174948 42.7108C0.592239 38.8616 2.37671 35.202 4.81647 31.9701C4.58339 31.6557 4.35394 31.333 4.12879 31.0025C-0.0826519 24.821 -1.19419 18.2412 1.64611 16.3061C4.38721 14.4386 9.80719 17.5796 13.9679 23.3575C16.9508 21.2691 20.8989 19.0759 26.9219 17.2061C27.6509 17.0296 28.4139 16.8751 29.2056 16.7429C29.0735 15.7825 28.9874 14.7816 28.9532 13.7521C28.7047 6.27637 31.2879 0.123581 34.7228 0.00942336C38.1577 -0.104734 41.1437 5.86297 41.3921 13.3387Z"/>
</mask>
<path fill-rule="evenodd" clip-rule="evenodd" d="M41.3921 13.3387C41.4264 14.3703 41.4068 15.3768 41.3384 16.3457C44.9517 16.6364 48.6365 17.2696 52.1007 18.26C52.1249 18.2067 52.1493 18.1534 52.1739 18.1C55.3071 11.308 60.3769 6.96911 63.4977 8.40874C66.6054 9.84234 66.6085 16.4656 63.5145 23.228C66.7911 25.1709 69.8393 27.4745 72.6017 30.0949C73.2284 29.5708 73.8953 29.0593 74.5985 28.5672C80.7268 24.2786 87.2921 23.0847 89.2626 25.9006C91.2332 28.7164 87.8626 34.4756 81.7343 38.7642C81.3114 39.0601 80.8865 39.3414 80.4611 39.6075C85.2311 47.0618 87.9888 55.6451 88.438 64.5174C88.937 74.372 86.5665 84.1597 81.614 92.694C76.6615 101.228 69.3396 108.143 60.536 112.599C60.1149 112.812 59.6914 113.019 59.2654 113.22C59.0997 113.806 58.9286 114.395 58.7524 114.987C54.2257 130.202 47.9693 141.767 44.7783 140.818C42.0094 139.994 42.4585 130.018 45.5835 117.452C41.726 118.071 37.7951 118.247 33.8677 117.967C34.2649 120.045 34.6261 122.22 34.9415 124.463C37.1519 140.182 36.2713 153.301 32.9745 153.765C29.6778 154.229 25.2133 141.861 23.0029 126.141C22.4859 122.465 22.138 118.93 21.9506 115.667C19.9802 115.036 18.0507 114.286 16.1728 113.421C9.7074 110.444 8.91486 102.145 13.4138 96.6297C15.0279 94.6509 17.1222 93.3307 19.4682 92.5079C19.4156 89.4284 20.8292 86.886 22.9619 86.5355C25.1723 86.1722 27.4045 88.287 28.2807 91.4005C29.9294 91.4718 31.5729 91.6658 33.1543 91.9426C33.6954 92.0373 34.2405 92.1145 34.7889 92.1739C35.0285 92.1998 35.2682 92.2223 35.508 92.2413C35.1984 88.8406 36.662 85.9134 38.9619 85.5355C41.3864 85.137 43.837 87.7199 44.4958 91.3318C46.0063 90.896 47.4795 90.318 48.895 89.6014C53.2492 87.3974 56.8705 83.9776 59.32 79.7567C61.7695 75.5357 62.9419 70.6947 62.6951 65.8208C62.4483 60.9468 60.793 56.249 57.9297 52.297C57.6225 51.873 57.3475 51.4686 57.0872 51.0858L57.0869 51.0853L57.0866 51.0849L57.0864 51.0845L57.0863 51.0844C56.5328 50.2703 56.0454 49.5535 55.4552 48.9523C54.8489 48.3348 54.1759 47.7553 53.4495 47.2184C53.4276 47.2783 53.4052 47.3383 53.3821 47.3983C52.0322 50.9025 49.0486 53.0155 46.7179 52.1177C44.3872 51.2199 43.5921 47.6514 44.942 44.1471C45.0261 43.9288 45.1165 43.7158 45.2128 43.5087C41.4156 42.6309 37.4282 42.6939 34.1229 44.0009C34.5491 44.6758 34.9092 45.4442 35.1751 46.2834C36.309 49.8634 35.2981 53.3769 32.9171 54.1311C30.6003 54.865 27.8401 52.716 26.6481 49.3016C26.1062 49.7813 25.4966 50.3175 24.7102 50.983C23.5874 51.9329 22.4176 52.7551 21.2242 53.4502C22.2723 56.9698 21.2559 60.3832 18.9132 61.1253C16.5887 61.8616 13.8177 59.6957 12.6323 56.2614C5.23977 56.8593 -0.883538 52.4745 0.114904 43.2647L0.174948 42.7108C0.592239 38.8616 2.37671 35.202 4.81647 31.9701C4.58339 31.6557 4.35394 31.333 4.12879 31.0025C-0.0826519 24.821 -1.19419 18.2412 1.64611 16.3061C4.38721 14.4386 9.80719 17.5796 13.9679 23.3575C16.9508 21.2691 20.8989 19.0759 26.9219 17.2061C27.6509 17.0296 28.4139 16.8751 29.2056 16.7429C29.0735 15.7825 28.9874 14.7816 28.9532 13.7521C28.7047 6.27637 31.2879 0.123581 34.7228 0.00942336C38.1577 -0.104734 41.1437 5.86297 41.3921 13.3387Z" fill="#4286A2"/>
<path d="M41.3384 16.3457L39.3434 16.2049L39.204 18.1804L41.178 18.3392L41.3384 16.3457ZM41.3921 13.3387L43.391 13.2722V13.2722L41.3921 13.3387ZM52.1007 18.26L51.5509 20.183L53.2086 20.6569L53.9216 19.0872L52.1007 18.26ZM52.1739 18.1L53.99 18.9378L53.99 18.9378L52.1739 18.1ZM63.4977 8.40874L64.3355 6.59266V6.59266L63.4977 8.40874ZM63.5145 23.228L61.6958 22.396L60.9476 24.0312L62.4944 24.9484L63.5145 23.228ZM72.6017 30.0949L71.2253 31.546L72.5181 32.7722L73.8849 31.629L72.6017 30.0949ZM74.5985 28.5672L73.4518 26.9286L73.4518 26.9286L74.5985 28.5672ZM89.2626 25.9006L90.9013 24.7538H90.9013L89.2626 25.9006ZM81.7343 38.7642L80.5876 37.1256L81.7343 38.7642ZM80.4611 39.6075L79.4002 37.912L77.6874 38.9837L78.7765 40.6855L80.4611 39.6075ZM88.438 64.5174L90.4355 64.4162L88.438 64.5174ZM81.614 92.694L83.3438 93.6978L81.614 92.694ZM60.536 112.599L59.6327 110.815L60.536 112.599ZM59.2654 113.22L58.412 111.411L57.589 111.8L57.3411 112.675L59.2654 113.22ZM58.7524 114.987L56.8354 114.417L58.7524 114.987ZM44.7783 140.818L45.3487 138.901H45.3487L44.7783 140.818ZM45.5835 117.452L47.5244 117.935L48.2547 114.998L45.2666 115.477L45.5835 117.452ZM33.8677 117.967L34.0103 115.972L31.4149 115.786L31.9032 118.342L33.8677 117.967ZM34.9415 124.463L32.961 124.741L34.9415 124.463ZM32.9745 153.765L33.253 155.746L32.9745 153.765ZM23.0029 126.141L21.0224 126.42L23.0029 126.141ZM21.9506 115.667L23.9473 115.552L23.8685 114.181L22.5605 113.762L21.9506 115.667ZM16.1728 113.421L15.3363 115.238V115.238L16.1728 113.421ZM13.4138 96.6297L11.864 95.3656H11.864L13.4138 96.6297ZM19.4682 92.5079L20.1301 94.3952L21.4926 93.9174L21.4679 92.4738L19.4682 92.5079ZM22.9619 86.5355L23.2862 88.509H23.2862L22.9619 86.5355ZM28.2807 91.4005L26.3555 91.9423L26.7477 93.336L28.1943 93.3986L28.2807 91.4005ZM33.1543 91.9426L32.8095 93.9127V93.9127L33.1543 91.9426ZM34.7889 92.1739L34.5737 94.1623H34.5737L34.7889 92.1739ZM35.508 92.2413L35.3497 94.2351L37.7148 94.4228L37.4997 92.06L35.508 92.2413ZM38.9619 85.5355L39.2862 87.509L38.9619 85.5355ZM44.4958 91.3318L42.5283 91.6906L42.9252 93.8665L45.0503 93.2534L44.4958 91.3318ZM48.895 89.6014L49.7983 91.3859L48.895 89.6014ZM59.32 79.7567L61.0499 80.7605L59.32 79.7567ZM62.6951 65.8208L60.6977 65.9219V65.9219L62.6951 65.8208ZM57.9297 52.297L59.5493 51.1236L57.9297 52.297ZM57.0872 51.0858L58.7412 49.9613L58.7344 49.9513L58.7275 49.9414L57.0872 51.0858ZM57.0869 51.0853L55.4228 52.1947L55.4345 52.2123L55.4466 52.2296L57.0869 51.0853ZM57.0866 51.0849L58.7507 49.9755L58.742 49.9624L58.733 49.9494L57.0866 51.0849ZM57.0864 51.0845L55.4223 52.1939L55.431 52.207L55.44 52.22L57.0864 51.0845ZM57.0863 51.0844L58.7504 49.975L58.7453 49.9674L58.7402 49.9599L57.0863 51.0844ZM55.4552 48.9523L54.0281 50.3536H54.0281L55.4552 48.9523ZM53.4495 47.2184L54.6383 45.61L52.486 44.0192L51.5702 46.534L53.4495 47.2184ZM53.3821 47.3983L55.2484 48.1172L55.2484 48.1171L53.3821 47.3983ZM46.7179 52.1177L47.4368 50.2514H47.4368L46.7179 52.1177ZM44.942 44.1471L43.0756 43.4282L43.0756 43.4282L44.942 44.1471ZM45.2128 43.5087L47.0266 44.3513L48.0654 42.1153L45.6632 41.56L45.2128 43.5087ZM34.1229 44.0009L33.3874 42.141L31.1432 43.0284L32.4319 45.0689L34.1229 44.0009ZM35.1751 46.2834L33.2684 46.8874L35.1751 46.2834ZM32.9171 54.1311L33.521 56.0378L32.9171 54.1311ZM26.6481 49.3016L28.5364 48.6425L27.5542 45.8287L25.3226 47.804L26.6481 49.3016ZM24.7102 50.983L23.4183 49.4561L24.7102 50.983ZM21.2242 53.4502L20.2176 51.722L18.8585 52.5137L19.3074 54.021L21.2242 53.4502ZM18.9132 61.1253L18.3092 59.2186L18.9132 61.1253ZM12.6323 56.2614L14.5229 55.6089L14.0169 54.1429L12.4711 54.2679L12.6323 56.2614ZM0.114904 43.2647L2.10325 43.4802L2.10325 43.4802L0.114904 43.2647ZM0.174948 42.7108L-1.8134 42.4952L-1.8134 42.4952L0.174948 42.7108ZM4.81647 31.9701L6.41272 33.1751L7.31416 31.9809L6.42314 30.779L4.81647 31.9701ZM4.12879 31.0025L5.78165 29.8765L4.12879 31.0025ZM1.64611 16.3061L2.77219 17.959H2.77219L1.64611 16.3061ZM13.9679 23.3575L12.3449 24.5263L13.4982 26.1278L15.1149 24.9959L13.9679 23.3575ZM26.9219 17.2061L26.4514 15.2622L26.3896 15.2771L26.3289 15.296L26.9219 17.2061ZM29.2056 16.7429L29.5351 18.7155L31.4517 18.3954L31.1869 16.4704L29.2056 16.7429ZM28.9532 13.7521L26.9543 13.8185L26.9543 13.8185L28.9532 13.7521ZM34.7228 0.00942336L34.6564 -1.98947L34.7228 0.00942336ZM43.3335 16.4865C43.4067 15.4477 43.4276 14.3721 43.391 13.2722L39.3932 13.4051C39.4253 14.3686 39.4068 15.3059 39.3434 16.2049L43.3335 16.4865ZM52.6505 16.3371C49.047 15.3068 45.2307 14.6524 41.4988 14.3521L41.178 18.3392C44.6728 18.6204 48.2261 19.2324 51.5509 20.183L52.6505 16.3371ZM50.3579 17.2622C50.3316 17.3191 50.3056 17.376 50.2798 17.4329L53.9216 19.0872C53.9443 19.0374 53.967 18.9876 53.99 18.9378L50.3579 17.2622ZM64.3355 6.59266C61.6354 5.34711 58.7095 6.79129 56.54 8.64803C54.2259 10.6286 52.017 13.6656 50.3579 17.2622L53.99 18.9378C55.464 15.7424 57.3566 13.2141 59.1409 11.687C61.0698 10.0362 62.2392 10.0307 62.6599 10.2248L64.3355 6.59266ZM65.3331 24.0601C66.9716 20.479 67.8345 16.8473 67.8317 13.8182C67.8291 10.9768 67.0247 7.83321 64.3355 6.59266L62.6599 10.2248C63.0784 10.4179 63.8294 11.3027 63.8317 13.8219C63.8339 16.1535 63.1513 19.2147 61.6958 22.396L65.3331 24.0601ZM73.9781 28.6439C71.1073 25.9207 67.9397 23.5268 64.5345 21.5077L62.4944 24.9484C65.6426 26.8151 68.5712 29.0283 71.2253 31.546L73.9781 28.6439ZM73.4518 26.9286C72.702 27.4533 71.9896 27.9996 71.3186 28.5608L73.8849 31.629C74.4672 31.142 75.0885 30.6654 75.7452 30.2058L73.4518 26.9286ZM90.9013 24.7538C89.1964 22.3176 85.9414 22.0911 83.1319 22.602C80.1351 23.147 76.6969 24.6576 73.4518 26.9286L75.7452 30.2058C78.6283 28.1882 81.5369 26.9576 83.8475 26.5375C86.3454 26.0832 87.3584 26.6677 87.624 27.0473L90.9013 24.7538ZM82.8811 40.4028C86.1262 38.1318 88.7232 35.4191 90.2617 32.7903C91.704 30.3258 92.6061 27.1901 90.9013 24.7538L87.624 27.0473C87.8897 27.4269 88.0918 28.5787 86.8094 30.7699C85.6232 32.7968 83.4707 35.108 80.5876 37.1256L82.8811 40.4028ZM81.5219 41.303C81.9765 41.0186 82.4301 40.7184 82.8811 40.4028L80.5876 37.1256C80.1928 37.4019 79.7964 37.6641 79.4002 37.912L81.5219 41.303ZM90.4355 64.4162C89.9686 55.1961 87.1028 46.2761 82.1457 38.5295L78.7765 40.6855C83.3595 47.8474 86.009 56.0942 86.4406 64.6185L90.4355 64.4162ZM83.3438 93.6978C88.4906 84.8288 90.954 74.6573 90.4355 64.4162L86.4406 64.6185C86.92 74.0866 84.6425 83.4905 79.8842 91.6902L83.3438 93.6978ZM61.4392 114.383C70.5881 109.752 78.1971 102.567 83.3438 93.6978L79.8842 91.6902C75.1259 99.8898 68.0911 106.533 59.6327 110.815L61.4392 114.383ZM60.1189 115.029C60.5615 114.82 61.0017 114.605 61.4392 114.383L59.6327 110.815C59.2282 111.019 58.8213 111.218 58.412 111.411L60.1189 115.029ZM60.6694 115.558C60.8481 114.957 61.0216 114.359 61.1898 113.765L57.3411 112.675C57.1777 113.252 57.0092 113.833 56.8354 114.417L60.6694 115.558ZM44.208 142.735C45.2707 143.051 46.2695 142.78 47.0398 142.375C47.8013 141.975 48.5017 141.366 49.1355 140.684C50.4088 139.316 51.7255 137.315 53.0236 134.916C55.6356 130.088 58.3789 123.256 60.6694 115.558L56.8354 114.417C54.5992 121.933 51.9509 128.492 49.5054 133.013C48.2746 135.288 47.146 136.951 46.2073 137.959C45.7351 138.467 45.3879 138.724 45.1787 138.834C44.9784 138.94 45.0837 138.822 45.3487 138.901L44.208 142.735ZM43.6426 116.969C42.0606 123.331 41.1358 129.111 40.9721 133.463C40.8909 135.623 40.9916 137.548 41.3514 139.052C41.6697 140.382 42.3896 142.194 44.208 142.735L45.3487 138.901C45.7826 139.03 45.5203 139.286 45.2417 138.121C45.0046 137.13 44.8937 135.621 44.9693 133.613C45.1191 129.63 45.9814 124.139 47.5244 117.935L43.6426 116.969ZM33.7251 119.961C37.8065 120.253 41.8916 120.07 45.9004 119.427L45.2666 115.477C41.5604 116.072 37.7836 116.241 34.0103 115.972L33.7251 119.961ZM36.922 124.184C36.6022 121.91 36.2356 119.703 35.8321 117.591L31.9032 118.342C32.2942 120.388 32.6501 122.53 32.961 124.741L36.922 124.184ZM33.253 155.746C34.3509 155.591 35.1465 154.929 35.6787 154.241C36.2048 153.56 36.5884 152.715 36.8816 151.832C37.4706 150.058 37.836 147.691 38.0187 144.969C38.3864 139.492 38.0405 132.138 36.922 124.184L32.961 124.741C34.053 132.507 34.372 139.573 34.0277 144.701C33.8545 147.282 33.5197 149.264 33.0855 150.571C32.867 151.229 32.6583 151.608 32.5138 151.795C32.3754 151.974 32.4223 151.823 32.696 151.785L33.253 155.746ZM21.0224 126.42C22.1408 134.374 23.8362 141.538 25.7002 146.701C26.6264 149.267 27.6305 151.442 28.6858 152.984C29.2112 153.752 29.813 154.459 30.5064 154.968C31.2078 155.483 32.1551 155.9 33.253 155.746L32.696 151.785C32.9698 151.746 33.0564 151.878 32.874 151.744C32.6835 151.604 32.3785 151.298 31.9871 150.726C31.2091 149.588 30.3408 147.776 29.4625 145.343C27.7174 140.509 26.0754 133.629 24.9834 125.863L21.0224 126.42ZM19.9538 115.782C20.1446 119.103 20.4981 122.692 21.0224 126.42L24.9834 125.863C24.4736 122.238 24.1314 118.758 23.9473 115.552L19.9538 115.782ZM15.3363 115.238C17.2878 116.137 19.293 116.916 21.3406 117.572L22.5605 113.762C20.6673 113.156 18.8135 112.435 17.0092 111.605L15.3363 115.238ZM11.864 95.3656C6.78558 101.592 7.35141 111.561 15.3363 115.238L17.0092 111.605C12.0634 109.327 11.0441 102.699 14.9636 97.8939L11.864 95.3656ZM18.8063 90.6206C16.1755 91.5433 13.7498 93.0536 11.864 95.3656L14.9636 97.8939C16.3059 96.2482 18.0689 95.1181 20.1301 94.3952L18.8063 90.6206ZM22.6375 84.5619C20.8266 84.8596 19.4888 86.0663 18.6627 87.4997C17.8381 88.9305 17.4372 90.7063 17.4685 92.5421L21.4679 92.4738C21.4467 91.2301 21.7262 90.1949 22.1284 89.497C22.5291 88.8016 22.9644 88.5619 23.2862 88.509L22.6375 84.5619ZM30.2059 90.8587C29.6852 89.0083 28.7378 87.3589 27.4792 86.1955C26.2212 85.0327 24.516 84.2532 22.6375 84.5619L23.2862 88.509C23.6181 88.4544 24.1343 88.5507 24.764 89.1329C25.3932 89.7144 26 90.6792 26.3555 91.9423L30.2059 90.8587ZM33.4991 89.9726C31.8438 89.6829 30.1134 89.4778 28.3671 89.4023L28.1943 93.3986C29.7453 93.4657 31.3019 93.6488 32.8095 93.9127L33.4991 89.9726ZM35.0041 90.1855C34.4992 90.1309 33.9973 90.0598 33.4991 89.9726L32.8095 93.9127C33.3935 94.0149 33.9818 94.0982 34.5737 94.1623L35.0041 90.1855ZM35.6662 90.2476C35.4455 90.2301 35.2247 90.2094 35.0041 90.1855L34.5737 94.1623C34.8323 94.1903 35.091 94.2145 35.3497 94.2351L35.6662 90.2476ZM38.6375 83.5619C36.6811 83.8835 35.2847 85.2594 34.475 86.8455C33.6627 88.4369 33.3328 90.4074 33.5162 92.4226L37.4997 92.06C37.3736 90.6745 37.6207 89.481 38.0377 88.6642C38.4574 87.8421 38.9427 87.5654 39.2862 87.509L38.6375 83.5619ZM46.4634 90.9729C46.0742 88.8393 45.1428 86.9183 43.8389 85.55C42.5448 84.1921 40.7023 83.2226 38.6375 83.5619L39.2862 87.509C39.6459 87.4499 40.241 87.5726 40.9431 88.3095C41.6354 89.0359 42.2587 90.2123 42.5283 91.6906L46.4634 90.9729ZM47.9918 87.817C46.6885 88.4767 45.3321 89.0089 43.9414 89.4101L45.0503 93.2534C46.6805 92.783 48.2705 92.1592 49.7983 91.3859L47.9918 87.817ZM57.5902 78.7528C55.3349 82.6391 52.0007 85.7878 47.9918 87.817L49.7983 91.3859C54.4977 89.0071 58.4062 85.3161 61.0499 80.7605L57.5902 78.7528ZM60.6977 65.9219C60.9249 70.4094 59.8454 74.8665 57.5902 78.7528L61.0499 80.7605C63.6935 76.2048 64.9589 70.9801 64.6926 65.7196L60.6977 65.9219ZM56.3101 53.4705C58.9463 57.1091 60.4705 61.4344 60.6977 65.9219L64.6926 65.7196C64.4262 60.4592 62.6396 55.389 59.5493 51.1236L56.3101 53.4705ZM55.4333 52.2103C55.6919 52.5907 55.9828 53.0188 56.3101 53.4705L59.5493 51.1236C59.2621 50.7273 59.0032 50.3466 58.7412 49.9613L55.4333 52.2103ZM55.4466 52.2296L55.447 52.2301L58.7275 49.9414L58.7271 49.9409L55.4466 52.2296ZM55.4225 52.1943L55.4228 52.1947L58.751 49.9759L58.7507 49.9755L55.4225 52.1943ZM55.44 52.22L55.4402 52.2203L58.733 49.9494L58.7328 49.9491L55.44 52.22ZM55.4222 52.1938L55.4223 52.1939L58.7505 49.9751L58.7504 49.975L55.4222 52.1938ZM54.0281 50.3536C54.4693 50.8029 54.8562 51.3614 55.4323 52.2088L58.7402 49.9599C58.2094 49.1791 57.6216 48.3041 56.8823 47.5511L54.0281 50.3536ZM52.2607 48.8267C52.9093 49.3061 53.5014 49.8171 54.0281 50.3536L56.8823 47.5511C56.1963 46.8525 55.4426 46.2045 54.6383 45.61L52.2607 48.8267ZM55.2484 48.1171C55.2759 48.0457 55.3027 47.9743 55.3288 47.9027L51.5702 46.534C51.5526 46.5824 51.5344 46.6309 51.5157 46.6794L55.2484 48.1171ZM45.999 53.9841C47.9845 54.7489 50.0178 54.1427 51.5737 53.0409C53.1436 51.9291 54.4517 50.1855 55.2484 48.1172L51.5158 46.6794C50.9626 48.1153 50.1039 49.1803 49.2619 49.7766C48.4058 50.3829 47.7819 50.3843 47.4368 50.2514L45.999 53.9841ZM43.0756 43.4282C42.2789 45.4965 42.0792 47.6671 42.4976 49.5448C42.9122 51.4056 44.0134 53.2192 45.999 53.9841L47.4368 50.2514C47.0917 50.1185 46.63 49.6989 46.4019 48.6749C46.1775 47.6678 46.2552 46.302 46.8083 44.866L43.0756 43.4282ZM43.399 42.666C43.2838 42.9138 43.1759 43.168 43.0756 43.4282L46.8083 44.866C46.8763 44.6895 46.9492 44.5178 47.0266 44.3513L43.399 42.666ZM34.8583 45.8608C37.6941 44.7394 41.2509 44.6455 44.7623 45.4573L45.6632 41.56C41.5802 40.6162 37.1623 40.6484 33.3874 42.141L34.8583 45.8608ZM37.0817 45.6795C36.7654 44.6808 36.3337 43.756 35.8139 42.9329L32.4319 45.0689C32.7645 45.5956 33.0531 46.2076 33.2684 46.8874L37.0817 45.6795ZM33.521 56.0378C35.5495 55.3952 36.7591 53.6521 37.2862 51.82C37.8181 49.9712 37.751 47.7925 37.0817 45.6795L33.2684 46.8874C33.7331 48.3543 33.7275 49.7224 33.4422 50.7139C33.1521 51.7221 32.6657 52.1128 32.3131 52.2245L33.521 56.0378ZM24.7599 49.9608C25.4644 51.9789 26.6598 53.7121 28.1378 54.8544C29.6059 55.9891 31.5485 56.6626 33.521 56.0378L32.3131 52.2245C31.969 52.3335 31.373 52.2994 30.5838 51.6895C29.8045 51.0872 29.0238 50.0387 28.5364 48.6425L24.7599 49.9608ZM26.002 52.5098C26.8049 51.8304 27.4271 51.2831 27.9737 50.7992L25.3226 47.804C24.7853 48.2796 24.1884 48.8046 23.4183 49.4561L26.002 52.5098ZM22.2308 55.1785C23.5257 54.4242 24.7908 53.5345 26.002 52.5098L23.4183 49.4561C22.384 50.3312 21.3096 51.086 20.2176 51.722L22.2308 55.1785ZM19.5171 63.0319C21.5123 62.3999 22.7166 60.7011 23.2558 58.9042C23.7992 57.0935 23.7601 54.9585 23.141 52.8795L19.3074 54.021C19.7363 55.4616 19.7131 56.7931 19.4246 57.7545C19.132 58.7297 18.6568 59.1085 18.3092 59.2186L19.5171 63.0319ZM10.7418 56.9139C11.4422 58.9435 12.6382 60.6871 14.1188 61.8369C15.5892 62.9788 17.5378 63.6589 19.5171 63.0319L18.3092 59.2186C17.964 59.328 17.3649 59.2933 16.5723 58.6777C15.7899 58.0701 15.0077 57.0137 14.5229 55.6089L10.7418 56.9139ZM-1.87345 43.0491C-2.42612 48.1471 -1.01808 52.2172 1.86304 54.9037C4.70165 57.5506 8.68488 58.5872 12.7936 58.2549L12.4711 54.2679C9.18721 54.5335 6.41251 53.6767 4.59093 51.9782C2.81188 50.3193 1.65749 47.5921 2.10325 43.4802L-1.87345 43.0491ZM-1.8134 42.4952L-1.87345 43.0491L2.10325 43.4802L2.1633 42.9263L-1.8134 42.4952ZM3.22023 30.7651C0.63891 34.1846 -1.3455 38.1792 -1.8134 42.4952L2.1633 42.9263C2.52998 39.544 4.11452 36.2195 6.41272 33.1751L3.22023 30.7651ZM6.42314 30.779C6.20591 30.486 5.99185 30.185 5.78165 29.8765L2.47593 32.1286C2.71602 32.481 2.96087 32.8253 3.20981 33.1611L6.42314 30.779ZM5.78165 29.8765C3.80033 26.9683 2.6063 24.0444 2.21511 21.7288C1.79221 19.2254 2.38928 18.2198 2.77219 17.959L0.520026 14.6533C-1.93736 16.3275 -2.20467 19.5794 -1.72901 22.395C-1.22165 25.3984 0.245802 28.8553 2.47593 32.1286L5.78165 29.8765ZM2.77219 17.959C3.13846 17.7094 4.21781 17.5152 6.27837 18.699C8.19358 19.7993 10.3886 21.8096 12.3449 24.5263L15.5909 22.1888C13.3864 19.1275 10.7911 16.6784 8.27092 15.2306C5.89605 13.8663 2.89486 13.0353 0.520026 14.6533L2.77219 17.959ZM26.3289 15.296C20.1014 17.2293 15.9673 19.5163 12.8208 21.7192L15.1149 24.9959C17.9344 23.022 21.6964 20.9225 27.5149 19.1161L26.3289 15.296ZM28.8761 14.7702C28.041 14.9097 27.2307 15.0735 26.4514 15.2622L27.3924 19.1499C28.071 18.9857 28.7868 18.8405 29.5351 18.7155L28.8761 14.7702ZM26.9543 13.8185C26.9907 14.9161 27.0826 15.9858 27.2242 17.0154L31.1869 16.4704C31.0644 15.5792 30.984 14.6471 30.9521 13.6856L26.9543 13.8185ZM34.6564 -1.98947C31.6845 -1.89071 29.718 0.713027 28.6126 3.34596C27.4335 6.15442 26.8227 9.85981 26.9543 13.8185L30.9521 13.6856C30.8352 10.1686 31.3917 7.05977 32.3008 4.89437C33.2836 2.55345 34.3262 2.02371 34.7892 2.00832L34.6564 -1.98947ZM43.391 13.2722C43.2595 9.31355 42.4039 5.65689 41.041 2.93291C39.7632 0.379182 37.6282 -2.08824 34.6564 -1.98947L34.7892 2.00832C35.2523 1.99293 36.3277 2.45228 37.4638 4.72278C38.5147 6.82304 39.2764 9.88808 39.3932 13.4051L43.391 13.2722Z" fill="black" mask="url(#path-1-inside-1_2294_3068)"/>
<circle cx="16.0021" cy="38.3029" r="7.88489" fill="url(#paint0_linear_2294_3068)"/>
<circle cx="16.0073" cy="38.3139" r="4.97993" fill="#350F42"/>
<circle cx="16.0157" cy="38.3126" r="3.74616" fill="url(#paint1_linear_2294_3068)"/>
<circle cx="16.001" cy="38.3037" r="1.89551" fill="#350F42"/>
<path d="M24.4589 38.3027C25.0339 38.3027 25.5059 37.8352 25.443 37.2636C25.2079 35.1263 24.2525 33.1202 22.7175 31.5852C20.9359 29.8036 18.5196 28.8027 16 28.8027C13.4804 28.8027 11.0641 29.8036 9.28249 31.5852C7.74754 33.1202 6.79209 35.1263 6.55697 37.2636C6.49409 37.8352 6.96611 38.3027 7.54109 38.3027C8.11607 38.3027 8.57467 37.8343 8.6551 37.265C8.87885 35.6812 9.61064 34.2017 10.7548 33.0575C12.1459 31.6664 14.0327 30.8849 16 30.8849C17.9673 30.8849 19.8541 31.6664 21.2452 33.0575C22.3894 34.2017 23.1211 35.6812 23.3449 37.265C23.4253 37.8343 23.8839 38.3027 24.4589 38.3027Z" fill="#350F42"/>
<circle cx="14.8423" cy="36.4048" r="1.16647" fill="white"/>
<circle cx="17.9017" cy="40.7356" r="0.538371" fill="white"/>
<circle cx="34.0057" cy="26.3065" r="4.56818" fill="url(#paint2_linear_2294_3068)"/>
<circle cx="34.0063" cy="26.3129" r="2.88516" fill="#350F42"/>
<circle cx="34.0141" cy="26.313" r="2.17037" fill="url(#paint3_linear_2294_3068)"/>
<circle cx="34.0044" cy="26.3072" r="1.09818" fill="#350F42"/>
<path d="M38.9046 26.3066C39.2378 26.3066 39.5112 26.0358 39.4748 25.7046C39.3386 24.4663 38.785 23.3041 37.8958 22.4148C36.8636 21.3826 35.4636 20.8027 34.0039 20.8027C32.5442 20.8027 31.1442 21.3826 30.1121 22.4148C29.2228 23.3041 28.6692 24.4663 28.533 25.7046C28.4966 26.0358 28.77 26.3066 29.1032 26.3066C29.4363 26.3066 29.702 26.0353 29.7486 25.7054C29.8782 24.7878 30.3022 23.9307 30.9651 23.2678C31.771 22.4618 32.8641 22.0091 34.0039 22.0091C35.1437 22.0091 36.2368 22.4618 37.0427 23.2678C37.7056 23.9307 38.1296 24.7878 38.2592 25.7054C38.3058 26.0353 38.5715 26.3066 38.9046 26.3066Z" fill="#350F42"/>
<circle cx="33.3316" cy="25.2066" r="0.675325" fill="white"/>
<circle cx="35.1047" cy="27.716" r="0.311688" fill="white"/>
<circle cx="54.0057" cy="37.3065" r="4.56818" fill="url(#paint4_linear_2294_3068)"/>
<circle cx="54.0063" cy="37.3129" r="2.88516" fill="#350F42"/>
<circle cx="54.0141" cy="37.313" r="2.17037" fill="url(#paint5_linear_2294_3068)"/>
<circle cx="54.0044" cy="37.3072" r="1.09818" fill="#350F42"/>
<path d="M58.9046 37.3066C59.2378 37.3066 59.5112 37.0358 59.4748 36.7046C59.3386 35.4663 58.785 34.3041 57.8958 33.4148C56.8636 32.3826 55.4636 31.8027 54.0039 31.8027C52.5442 31.8027 51.1442 32.3826 50.1121 33.4148C49.2228 34.3041 48.6692 35.4663 48.533 36.7046C48.4966 37.0358 48.77 37.3066 49.1032 37.3066C49.4363 37.3066 49.702 37.0353 49.7486 36.7054C49.8782 35.7878 50.3022 34.9307 50.9651 34.2678C51.771 33.4618 52.8641 33.0091 54.0039 33.0091C55.1437 33.0091 56.2368 33.4618 57.0427 34.2678C57.7056 34.9307 58.1296 35.7878 58.2592 36.7054C58.3058 37.0353 58.5715 37.3066 58.9046 37.3066Z" fill="#350F42"/>
<circle cx="53.3316" cy="36.2066" r="0.675325" fill="white"/>
<circle cx="55.1047" cy="38.716" r="0.311688" fill="white"/>
<circle cx="71.0074" cy="49.3062" r="7.05814" fill="url(#paint6_linear_2294_3068)"/>
<circle cx="71.0086" cy="49.3172" r="4.45777" fill="#350F42"/>
<circle cx="71.0213" cy="49.3163" r="3.35337" fill="url(#paint7_linear_2294_3068)"/>
<circle cx="71.0054" cy="49.3081" r="1.69677" fill="#350F42"/>
<path d="M78.5759 49.3066C79.0906 49.3066 79.5131 48.8881 79.4568 48.3765C79.2463 46.4633 78.3911 44.6675 77.0171 43.2935C75.4223 41.6987 73.2593 40.8027 71.0039 40.8027C68.7485 40.8027 66.5855 41.6987 64.9907 43.2935C63.6167 44.6675 62.7615 46.4633 62.551 48.3765C62.4947 48.8881 62.9172 49.3066 63.4319 49.3066C63.9466 49.3066 64.3571 48.8873 64.4291 48.3777C64.6294 46.96 65.2845 45.6356 66.3087 44.6114C67.5539 43.3662 69.2429 42.6666 71.0039 42.6666C72.765 42.6666 74.4539 43.3662 75.6991 44.6114C76.7233 45.6356 77.3784 46.96 77.5787 48.3777C77.6507 48.8873 78.0612 49.3066 78.5759 49.3066Z" fill="#350F42"/>
<circle cx="69.9648" cy="47.6074" r="1.04294" fill="white"/>
<circle cx="72.704" cy="51.4833" r="0.481358" fill="white"/>
<defs>
<linearGradient id="paint0_linear_2294_3068" x1="16.0021" y1="30.418" x2="16.0021" y2="46.1877" gradientUnits="userSpaceOnUse">
<stop stop-color="#EBD6EB"/>
<stop offset="0.9999" stop-color="white"/>
</linearGradient>
<linearGradient id="paint1_linear_2294_3068" x1="16.0157" y1="34.5664" x2="16.0157" y2="42.0587" gradientUnits="userSpaceOnUse">
<stop stop-color="#853085"/>
<stop offset="1" stop-color="#9D4A9D"/>
</linearGradient>
<linearGradient id="paint2_linear_2294_3068" x1="34.0057" y1="21.7383" x2="34.0057" y2="30.8746" gradientUnits="userSpaceOnUse">
<stop stop-color="#EBD6EB"/>
<stop offset="0.9999" stop-color="white"/>
</linearGradient>
<linearGradient id="paint3_linear_2294_3068" x1="34.0141" y1="24.1426" x2="34.0141" y2="28.4833" gradientUnits="userSpaceOnUse">
<stop stop-color="#853085"/>
<stop offset="1" stop-color="#9D4A9D"/>
</linearGradient>
<linearGradient id="paint4_linear_2294_3068" x1="54.0057" y1="32.7383" x2="54.0057" y2="41.8746" gradientUnits="userSpaceOnUse">
<stop stop-color="#EBD6EB"/>
<stop offset="0.9999" stop-color="white"/>
</linearGradient>
<linearGradient id="paint5_linear_2294_3068" x1="54.0141" y1="35.1426" x2="54.0141" y2="39.4833" gradientUnits="userSpaceOnUse">
<stop stop-color="#853085"/>
<stop offset="1" stop-color="#9D4A9D"/>
</linearGradient>
<linearGradient id="paint6_linear_2294_3068" x1="71.0074" y1="42.248" x2="71.0074" y2="56.3643" gradientUnits="userSpaceOnUse">
<stop stop-color="#EBD6EB"/>
<stop offset="0.9999" stop-color="white"/>
</linearGradient>
<linearGradient id="paint7_linear_2294_3068" x1="71.0213" y1="45.9629" x2="71.0213" y2="52.6696" gradientUnits="userSpaceOnUse">
<stop stop-color="#853085"/>
<stop offset="1" stop-color="#9D4A9D"/>
</linearGradient>
</defs>
</svg>
