<svg width="90" height="161" viewBox="0 0 90 161" fill="none" xmlns="http://www.w3.org/2000/svg">
<mask id="path-1-inside-1_2294_3022" fill="white">
<path fill-rule="evenodd" clip-rule="evenodd" d="M41.3843 13.3308C41.4186 14.3625 41.399 15.369 41.3306 16.3379C44.9446 16.6286 48.6301 17.262 52.0948 18.2528C52.1191 18.1994 52.1435 18.146 52.1682 18.0926C55.3013 11.3006 60.3712 6.96167 63.4919 8.4013C66.5998 9.83494 66.6027 16.4586 63.5084 23.2213C66.7844 25.1639 69.8319 27.4672 72.5939 30.0871C73.2206 29.563 73.8875 29.0515 74.5907 28.5594C80.7189 24.2708 87.2843 23.0769 89.2548 25.8927C91.2253 28.7086 87.8548 34.4678 81.7265 38.7564C81.3036 39.0523 80.8787 39.3335 80.4532 39.5997C85.2233 47.054 87.981 55.6373 88.4302 64.5095C88.9292 74.3641 86.5587 84.1519 81.6062 92.6862C77.179 100.315 70.8584 106.65 63.2785 111.091C65.4775 115.985 67.6907 123.097 69.3591 131.145C72.5816 146.688 72.5513 159.837 69.2914 160.513C66.0315 161.189 60.7765 149.136 57.554 133.592C56.0987 126.572 55.3068 120.04 55.1762 114.926C47.8045 117.65 39.8763 118.644 32.0105 117.793C31.5453 119.828 30.9662 121.961 30.2755 124.143C26.5297 135.976 20.9201 144.755 17.7461 143.75C14.5722 142.745 15.0357 132.338 18.7816 120.504C19.3646 118.662 19.9928 116.895 20.65 115.226C19.1269 114.693 17.6302 114.088 16.1649 113.413C9.69958 110.437 8.90705 102.138 13.406 96.6219C15.0202 94.6429 17.1147 93.3227 19.461 92.4999C19.4087 89.4208 20.8222 86.8788 22.9546 86.5283C25.1649 86.1651 27.397 88.2796 28.2733 91.3927C29.9218 91.464 31.5652 91.6581 33.1465 91.9348C33.6876 92.0295 34.2327 92.1067 34.7811 92.1661C35.0209 92.192 35.2608 92.2145 35.5007 92.2336C35.1914 88.833 36.6549 85.9063 38.9546 85.5283C41.379 85.1299 43.8295 87.7124 44.4885 91.3238C45.9988 90.888 47.4718 90.3101 48.8872 89.5936C53.2414 87.3896 56.8627 83.9698 59.3122 79.7488C61.7617 75.5278 62.9341 70.6869 62.6873 65.813C62.4405 60.939 60.7852 56.2412 57.9219 52.2892C57.6146 51.8651 57.3395 51.4605 57.0791 51.0775L57.0787 51.077L57.0785 51.0766C56.525 50.2625 56.0376 49.5457 55.4474 48.9445C54.8412 48.3272 54.1685 47.7479 53.4423 47.211C53.4205 47.2711 53.398 47.3311 53.3749 47.3911C52.025 50.8954 49.0413 53.0084 46.7107 52.1106C44.38 51.2128 43.5849 47.6442 44.9348 44.14C45.0189 43.9214 45.1095 43.7083 45.2058 43.501C41.4084 42.6231 37.4207 42.686 34.1152 43.993C34.5416 44.6681 34.9019 45.4368 35.1678 46.2763C36.3018 49.8563 35.2909 53.3698 32.9099 54.124C30.5929 54.8579 27.8324 52.7085 26.6406 49.2936C26.0986 49.7733 25.489 50.3096 24.7023 50.9752C23.5803 51.9245 22.4112 52.7463 21.2186 53.4412C22.2704 56.9635 21.2543 60.3814 18.9099 61.124C16.5838 61.8608 13.8108 59.6916 12.6267 56.2534C5.23317 56.8524 -0.891449 52.4676 0.107092 43.2568L0.167137 42.703C0.584425 38.8538 2.3689 35.1942 4.80866 31.9623C4.57557 31.6479 4.34612 31.3252 4.12097 30.9947C-0.0904708 24.8132 -1.20201 18.2334 1.63829 16.2983C4.37939 14.4308 9.79938 17.5718 13.96 23.3497C16.943 21.2613 20.8911 19.0681 26.9141 17.1982C27.6431 17.0218 28.406 16.8673 29.1978 16.7351C29.0657 15.7747 28.9796 14.7738 28.9453 13.7442C28.6969 6.26856 31.28 0.115768 34.715 0.00161086C38.1499 -0.112546 41.1359 5.85516 41.3843 13.3308Z"/>
</mask>
<path fill-rule="evenodd" clip-rule="evenodd" d="M41.3843 13.3308C41.4186 14.3625 41.399 15.369 41.3306 16.3379C44.9446 16.6286 48.6301 17.262 52.0948 18.2528C52.1191 18.1994 52.1435 18.146 52.1682 18.0926C55.3013 11.3006 60.3712 6.96167 63.4919 8.4013C66.5998 9.83494 66.6027 16.4586 63.5084 23.2213C66.7844 25.1639 69.8319 27.4672 72.5939 30.0871C73.2206 29.563 73.8875 29.0515 74.5907 28.5594C80.7189 24.2708 87.2843 23.0769 89.2548 25.8927C91.2253 28.7086 87.8548 34.4678 81.7265 38.7564C81.3036 39.0523 80.8787 39.3335 80.4532 39.5997C85.2233 47.054 87.981 55.6373 88.4302 64.5095C88.9292 74.3641 86.5587 84.1519 81.6062 92.6862C77.179 100.315 70.8584 106.65 63.2785 111.091C65.4775 115.985 67.6907 123.097 69.3591 131.145C72.5816 146.688 72.5513 159.837 69.2914 160.513C66.0315 161.189 60.7765 149.136 57.554 133.592C56.0987 126.572 55.3068 120.04 55.1762 114.926C47.8045 117.65 39.8763 118.644 32.0105 117.793C31.5453 119.828 30.9662 121.961 30.2755 124.143C26.5297 135.976 20.9201 144.755 17.7461 143.75C14.5722 142.745 15.0357 132.338 18.7816 120.504C19.3646 118.662 19.9928 116.895 20.65 115.226C19.1269 114.693 17.6302 114.088 16.1649 113.413C9.69958 110.437 8.90705 102.138 13.406 96.6219C15.0202 94.6429 17.1147 93.3227 19.461 92.4999C19.4087 89.4208 20.8222 86.8788 22.9546 86.5283C25.1649 86.1651 27.397 88.2796 28.2733 91.3927C29.9218 91.464 31.5652 91.6581 33.1465 91.9348C33.6876 92.0295 34.2327 92.1067 34.7811 92.1661C35.0209 92.192 35.2608 92.2145 35.5007 92.2336C35.1914 88.833 36.6549 85.9063 38.9546 85.5283C41.379 85.1299 43.8295 87.7124 44.4885 91.3238C45.9988 90.888 47.4718 90.3101 48.8872 89.5936C53.2414 87.3896 56.8627 83.9698 59.3122 79.7488C61.7617 75.5278 62.9341 70.6869 62.6873 65.813C62.4405 60.939 60.7852 56.2412 57.9219 52.2892C57.6146 51.8651 57.3395 51.4605 57.0791 51.0775L57.0787 51.077L57.0785 51.0766C56.525 50.2625 56.0376 49.5457 55.4474 48.9445C54.8412 48.3272 54.1685 47.7479 53.4423 47.211C53.4205 47.2711 53.398 47.3311 53.3749 47.3911C52.025 50.8954 49.0413 53.0084 46.7107 52.1106C44.38 51.2128 43.5849 47.6442 44.9348 44.14C45.0189 43.9214 45.1095 43.7083 45.2058 43.501C41.4084 42.6231 37.4207 42.686 34.1152 43.993C34.5416 44.6681 34.9019 45.4368 35.1678 46.2763C36.3018 49.8563 35.2909 53.3698 32.9099 54.124C30.5929 54.8579 27.8324 52.7085 26.6406 49.2936C26.0986 49.7733 25.489 50.3096 24.7023 50.9752C23.5803 51.9245 22.4112 52.7463 21.2186 53.4412C22.2704 56.9635 21.2543 60.3814 18.9099 61.124C16.5838 61.8608 13.8108 59.6916 12.6267 56.2534C5.23317 56.8524 -0.891449 52.4676 0.107092 43.2568L0.167137 42.703C0.584425 38.8538 2.3689 35.1942 4.80866 31.9623C4.57557 31.6479 4.34612 31.3252 4.12097 30.9947C-0.0904708 24.8132 -1.20201 18.2334 1.63829 16.2983C4.37939 14.4308 9.79938 17.5718 13.96 23.3497C16.943 21.2613 20.8911 19.0681 26.9141 17.1982C27.6431 17.0218 28.406 16.8673 29.1978 16.7351C29.0657 15.7747 28.9796 14.7738 28.9453 13.7442C28.6969 6.26856 31.28 0.115768 34.715 0.00161086C38.1499 -0.112546 41.1359 5.85516 41.3843 13.3308Z" fill="#4286A2"/>
<path d="M41.3306 16.3379L39.3356 16.1971L39.1962 18.1726L41.1702 18.3314L41.3306 16.3379ZM41.3843 13.3308L43.3832 13.2644L41.3843 13.3308ZM52.0948 18.2528L51.545 20.1757L53.2028 20.6498L53.9158 19.0799L52.0948 18.2528ZM52.1682 18.0926L53.9842 18.9304L53.9842 18.9303L52.1682 18.0926ZM63.4919 8.4013L64.3297 6.58522L63.4919 8.4013ZM63.5084 23.2213L61.6897 22.3891L60.9415 24.0243L62.4883 24.9415L63.5084 23.2213ZM72.5939 30.0871L71.2175 31.5382L72.5103 32.7644L73.8771 31.6212L72.5939 30.0871ZM74.5907 28.5594L73.444 26.9208L73.444 26.9208L74.5907 28.5594ZM89.2548 25.8927L90.8934 24.746L89.2548 25.8927ZM81.7265 38.7564L80.5798 37.1178L81.7265 38.7564ZM80.4532 39.5997L79.3924 37.9042L77.6796 38.9759L78.7686 40.6777L80.4532 39.5997ZM88.4302 64.5095L90.4277 64.4084L88.4302 64.5095ZM81.6062 92.6862L83.336 93.69L81.6062 92.6862ZM63.2785 111.091L62.2674 109.366L60.7183 110.273L61.4542 111.911L63.2785 111.091ZM69.3591 131.145L71.3175 130.738L69.3591 131.145ZM69.2914 160.513L68.8854 158.554L69.2914 160.513ZM57.554 133.592L59.5124 133.186L57.554 133.592ZM55.1762 114.926L57.1756 114.875L57.1042 112.081L54.4828 113.05L55.1762 114.926ZM32.0105 117.793L32.2256 115.804L30.4573 115.613L30.0608 117.347L32.0105 117.793ZM30.2755 124.143L28.3688 123.539L30.2755 124.143ZM17.7461 143.75L18.3497 141.843H18.3497L17.7461 143.75ZM18.7816 120.504L16.8748 119.901L18.7816 120.504ZM20.65 115.226L22.5108 115.959L23.2726 114.025L21.3106 113.338L20.65 115.226ZM16.1649 113.413L17.0014 111.597L16.1649 113.413ZM13.406 96.6219L11.8562 95.3578H11.8562L13.406 96.6219ZM19.461 92.4999L20.1228 94.3872L21.4852 93.9095L21.4607 92.466L19.461 92.4999ZM22.9546 86.5283L23.279 88.5019H23.279L22.9546 86.5283ZM28.2733 91.3927L26.3481 91.9346L26.7404 93.3282L28.1868 93.3908L28.2733 91.3927ZM33.1465 91.9348L32.8017 93.9049L33.1465 91.9348ZM34.7811 92.1661L34.5658 94.1545L34.5659 94.1545L34.7811 92.1661ZM35.5007 92.2336L35.3425 94.2273L37.7074 94.4149L37.4925 92.0524L35.5007 92.2336ZM38.9546 85.5283L39.279 87.5018H39.279L38.9546 85.5283ZM44.4885 91.3238L42.521 91.6829L42.918 93.8586L45.0429 93.2454L44.4885 91.3238ZM48.8872 89.5936L47.984 87.8092L48.8872 89.5936ZM59.3122 79.7488L57.5824 78.745L59.3122 79.7488ZM62.6873 65.813L60.6899 65.9141L62.6873 65.813ZM57.9219 52.2892L56.3023 53.4627L57.9219 52.2892ZM57.0791 51.0775L58.733 49.953L58.7315 49.9508L57.0791 51.0775ZM57.0787 51.077L55.4146 52.1864L55.4204 52.195L55.4263 52.2036L57.0787 51.077ZM57.0785 51.0766L58.7426 49.9672L58.7375 49.9596L58.7324 49.9521L57.0785 51.0766ZM55.4474 48.9445L56.8745 47.5433H56.8745L55.4474 48.9445ZM53.4423 47.211L54.6312 45.6028L52.4789 44.0117L51.5631 46.5267L53.4423 47.211ZM53.3749 47.3911L55.2412 48.1101L55.2412 48.11L53.3749 47.3911ZM46.7107 52.1106L47.4296 50.2443L46.7107 52.1106ZM44.9348 44.14L43.0684 43.421L43.0684 43.4211L44.9348 44.14ZM45.2058 43.501L47.0196 44.3438L48.0585 42.1078L45.6563 41.5524L45.2058 43.501ZM34.1152 43.993L33.3798 42.1331L31.1353 43.0206L32.4243 45.0611L34.1152 43.993ZM35.1678 46.2763L33.2612 46.8802V46.8802L35.1678 46.2763ZM32.9099 54.124L32.3059 52.2174H32.3059L32.9099 54.124ZM26.6406 49.2936L28.5289 48.6346L27.5469 45.8204L25.315 47.796L26.6406 49.2936ZM24.7023 50.9752L25.9942 52.502L24.7023 50.9752ZM21.2186 53.4412L20.2118 51.7131L18.8519 52.5054L19.3022 54.0134L21.2186 53.4412ZM18.9099 61.124L19.5138 63.0306H19.5138L18.9099 61.124ZM12.6267 56.2534L14.5177 55.6022L14.0123 54.1346L12.4652 54.2599L12.6267 56.2534ZM0.107092 43.2568L2.09544 43.4724L0.107092 43.2568ZM0.167137 42.703L-1.82121 42.4874L0.167137 42.703ZM4.80866 31.9623L6.4049 33.1673L7.30634 31.9731L6.41532 30.7712L4.80866 31.9623ZM4.12097 30.9947L5.77383 29.8687L5.77383 29.8687L4.12097 30.9947ZM1.63829 16.2983L2.76437 17.9512H2.76437L1.63829 16.2983ZM13.96 23.3497L12.337 24.5184L13.4903 26.12L15.1071 24.9881L13.96 23.3497ZM26.9141 17.1982L26.4436 15.2544L26.3818 15.2693L26.3211 15.2882L26.9141 17.1982ZM29.1978 16.7351L29.5273 18.7077L31.4438 18.3876L31.1791 16.4626L29.1978 16.7351ZM28.9453 13.7442L26.9464 13.8107V13.8107L28.9453 13.7442ZM34.715 0.00161086L34.7814 2.00051L34.715 0.00161086ZM43.3256 16.4786C43.3989 15.4399 43.4198 14.3643 43.3832 13.2644L39.3854 13.3973C39.4174 14.3608 39.399 15.2981 39.3356 16.1971L43.3256 16.4786ZM52.6447 16.3298C49.0406 15.2992 45.2236 14.6446 41.491 14.3443L41.1702 18.3314C44.6656 18.6126 48.2196 19.2248 51.545 20.1757L52.6447 16.3298ZM50.3521 17.2548C50.3258 17.3117 50.2997 17.3687 50.2739 17.4257L53.9158 19.0799C53.9384 19.03 53.9612 18.9802 53.9842 18.9304L50.3521 17.2548ZM64.3297 6.58522C61.6297 5.33967 58.7038 6.78385 56.5343 8.64059C54.2201 10.6211 52.0112 13.6582 50.3521 17.2548L53.9842 18.9303C55.4583 15.735 57.3509 13.2066 59.1351 11.6796C61.064 10.0288 62.2335 10.0233 62.6542 10.2174L64.3297 6.58522ZM65.3271 24.0534C66.9657 20.4721 67.8287 16.8403 67.826 13.8111C67.8234 10.9695 67.019 7.8258 64.3297 6.58522L62.6542 10.2174C63.0727 10.4104 63.8237 11.2954 63.826 13.8147C63.8281 16.1464 63.1454 19.2077 61.6897 22.3891L65.3271 24.0534ZM73.9703 28.6361C71.1 25.9134 67.933 23.5198 64.5285 21.501L62.4883 24.9415C65.6358 26.808 68.5638 29.021 71.2175 31.5382L73.9703 28.6361ZM73.444 26.9208C72.6942 27.4455 71.9818 27.9918 71.3108 28.553L73.8771 31.6212C74.4594 31.1342 75.0807 30.6575 75.7374 30.198L73.444 26.9208ZM90.8934 24.746C89.1886 22.3098 85.9336 22.0833 83.1241 22.5942C80.1273 23.1392 76.6891 24.6498 73.444 26.9208L75.7374 30.198C78.6205 28.1804 81.5291 26.9498 83.8397 26.5297C86.3376 26.0754 87.3506 26.6598 87.6162 27.0394L90.8934 24.746ZM82.8732 40.395C86.1184 38.124 88.7154 35.4113 90.2539 32.7825C91.6962 30.3179 92.5983 27.1822 90.8934 24.746L87.6162 27.0394C87.8819 27.4191 88.084 28.5709 86.8016 30.7621C85.6154 32.789 83.4629 35.1002 80.5798 37.1178L82.8732 40.395ZM81.5141 41.2952C81.9687 41.0108 82.4223 40.7106 82.8732 40.395L80.5798 37.1178C80.185 37.3941 79.7886 37.6563 79.3924 37.9042L81.5141 41.2952ZM90.4277 64.4084C89.9608 55.1883 87.095 46.2683 82.1379 38.5217L78.7686 40.6777C83.3516 47.8396 86.0012 56.0864 86.4328 64.6107L90.4277 64.4084ZM83.336 93.69C88.4828 84.821 90.9462 74.6495 90.4277 64.4084L86.4328 64.6107C86.9122 74.0788 84.6347 83.4827 79.8764 91.6824L83.336 93.69ZM64.2896 112.817C72.1667 108.201 78.7352 101.618 83.336 93.69L79.8764 91.6824C75.6228 99.0122 69.55 105.098 62.2674 109.366L64.2896 112.817ZM71.3175 130.738C69.6296 122.597 67.3787 115.337 65.1028 110.271L61.4542 111.911C63.5764 116.634 65.7519 123.597 67.4007 131.551L71.3175 130.738ZM69.6974 162.471C70.783 162.246 71.5341 161.534 72.0207 160.812C72.5016 160.099 72.8298 159.231 73.0653 158.331C73.5383 156.523 73.7498 154.137 73.7561 151.409C73.7688 145.919 72.948 138.604 71.3175 130.738L67.4007 131.551C68.9927 139.229 69.768 146.26 69.7561 151.399C69.7502 153.986 69.5443 155.985 69.1955 157.318C69.0201 157.989 68.8363 158.38 68.7042 158.576C68.5777 158.764 68.6147 158.61 68.8854 158.554L69.6974 162.471ZM55.5957 133.998C57.2262 141.863 59.3814 148.902 61.5754 153.934C62.6657 156.435 63.8083 158.54 64.9612 160.011C65.5351 160.743 66.1814 161.409 66.9062 161.873C67.6395 162.341 68.6118 162.696 69.6974 162.471L68.8854 158.554C69.156 158.498 69.251 158.624 69.0603 158.502C68.8613 158.375 68.537 158.089 68.1095 157.544C67.2595 156.459 66.2758 154.706 65.242 152.335C63.1879 147.624 61.1043 140.865 59.5124 133.186L55.5957 133.998ZM53.1769 114.977C53.3111 120.236 54.1219 126.889 55.5957 133.998L59.5124 133.186C58.0754 126.254 57.3024 119.844 57.1756 114.875L53.1769 114.977ZM31.7954 119.781C39.9696 120.665 48.2088 119.633 55.8696 116.802L54.4828 113.05C47.4003 115.667 39.7829 116.622 32.2256 115.804L31.7954 119.781ZM32.1823 124.746C32.8889 122.514 33.4824 120.328 33.9602 118.238L30.0608 117.347C29.6081 119.327 29.0435 121.408 28.3688 123.539L32.1823 124.746ZM17.1426 145.657C18.9611 146.232 20.6405 145.282 21.8031 144.305C23.0539 143.254 24.2968 141.692 25.4817 139.838C27.8676 136.104 30.2722 130.78 32.1823 124.746L28.3688 123.539C26.533 129.339 24.2599 134.321 22.1111 137.684C21.0286 139.378 20.0399 140.562 19.2291 141.243C18.3302 141.999 18.1182 141.77 18.3497 141.843L17.1426 145.657ZM16.8748 119.901C14.9648 125.935 13.8681 131.672 13.6709 136.099C13.573 138.297 13.6908 140.29 14.1086 141.869C14.497 143.338 15.324 145.081 17.1426 145.657L18.3497 141.843C18.5812 141.916 18.276 141.982 17.9757 140.847C17.7048 139.823 17.5775 138.285 17.6669 136.277C17.8445 132.29 18.8525 126.907 20.6883 121.108L16.8748 119.901ZM18.7891 114.493C18.1148 116.205 17.4714 118.016 16.8748 119.901L20.6883 121.108C21.2578 119.309 21.8708 117.584 22.5108 115.959L18.7891 114.493ZM15.3285 115.23C16.8512 115.931 18.4066 116.56 19.9893 117.114L21.3106 113.338C19.8473 112.826 18.4093 112.245 17.0014 111.597L15.3285 115.23ZM11.8562 95.3578C6.77777 101.584 7.3436 111.554 15.3285 115.23L17.0014 111.597C12.0556 109.319 11.0363 102.691 14.9558 97.8861L11.8562 95.3578ZM18.7991 90.6126C16.1681 91.5352 13.7422 93.0456 11.8562 95.3578L14.9558 97.8861C16.2982 96.2403 18.0614 95.1101 20.1228 94.3872L18.7991 90.6126ZM22.6303 84.5548C20.8196 84.8524 19.4818 86.0589 18.6558 87.4921C17.8312 88.9227 17.4301 90.6983 17.4613 92.5339L21.4607 92.466C21.4396 91.2224 21.7191 90.1874 22.1213 89.4896C22.522 88.7944 22.9572 88.5547 23.279 88.5019L22.6303 84.5548ZM30.1985 90.8507C29.6776 89.0006 28.7302 87.3514 27.4717 86.1881C26.2137 85.0254 24.5087 84.2461 22.6303 84.5548L23.279 88.5019C23.6109 88.4473 24.127 88.5436 24.7567 89.1256C25.3858 89.7071 25.9926 90.6717 26.3481 91.9346L30.1985 90.8507ZM33.4913 89.9648C31.8361 89.6751 30.1059 89.4701 28.3597 89.3945L28.1868 93.3908C29.7378 93.4579 31.2942 93.641 32.8017 93.9049L33.4913 89.9648ZM34.9963 90.1777C34.4914 90.123 33.9895 90.052 33.4913 89.9648L32.8017 93.9049C33.3857 94.0071 33.974 94.0904 34.5658 94.1545L34.9963 90.1777ZM35.6589 90.2398C35.4379 90.2223 35.2171 90.2016 34.9963 90.1777L34.5659 94.1545C34.8247 94.1825 35.0836 94.2067 35.3425 94.2273L35.6589 90.2398ZM38.6303 83.5548C36.6741 83.8763 35.2777 85.2521 34.468 86.8381C33.6556 88.4293 33.3256 90.3997 33.5089 92.4147L37.4925 92.0524C37.3665 90.6669 37.6136 89.4736 38.0306 88.6569C38.4502 87.8349 38.9355 87.5583 39.279 87.5018L38.6303 83.5548ZM46.456 90.9648C46.0667 88.8315 45.1352 86.9107 43.8314 85.5426C42.5374 84.1848 40.6949 83.2155 38.6303 83.5548L39.279 87.5018C39.6387 87.4427 40.2337 87.5655 40.9357 88.3021C41.628 89.0285 42.2512 90.2047 42.521 91.6829L46.456 90.9648ZM47.984 87.8092C46.6808 88.4689 45.3246 89.001 43.934 89.4022L45.0429 93.2454C46.673 92.7751 48.2629 92.1513 49.7905 91.3781L47.984 87.8092ZM57.5824 78.745C55.3271 82.6313 51.9929 85.78 47.984 87.8092L49.7905 91.3781C54.4899 88.9993 58.3984 85.3083 61.042 80.7527L57.5824 78.745ZM60.6899 65.9141C60.9171 70.4016 59.8376 74.8587 57.5824 78.745L61.042 80.7527C63.6857 76.197 64.9511 70.9723 64.6847 65.7118L60.6899 65.9141ZM56.3023 53.4627C58.9385 57.1013 60.4626 61.4266 60.6899 65.9141L64.6847 65.7118C64.4184 60.4514 62.6318 55.3812 59.5415 51.1158L56.3023 53.4627ZM55.4251 52.202C55.6839 52.5825 55.9749 53.0108 56.3023 53.4627L59.5415 51.1158C59.2542 50.7193 58.9951 50.3385 58.733 49.953L55.4251 52.202ZM55.4263 52.2036L55.4266 52.2041L58.7315 49.9508L58.7312 49.9503L55.4263 52.2036ZM55.4144 52.186L55.4146 52.1864L58.7428 49.9676L58.7426 49.9672L55.4144 52.186ZM54.0203 50.3458C54.4615 50.7951 54.8484 51.3536 55.4245 52.201L58.7324 49.9521C58.2016 49.1713 57.6138 48.2962 56.8745 47.5433L54.0203 50.3458ZM52.2535 48.8193C52.9018 49.2986 53.4938 49.8095 54.0203 50.3458L56.8745 47.5433C56.1887 46.8449 55.4352 46.1971 54.6312 45.6028L52.2535 48.8193ZM55.2412 48.11C55.2687 48.0385 55.2955 47.967 55.3216 47.8953L51.5631 46.5267C51.5454 46.5752 51.5272 46.6237 51.5085 46.6723L55.2412 48.11ZM45.9918 53.9769C47.9773 54.7418 50.0106 54.1356 51.5664 53.0338C53.1364 51.922 54.4445 50.1784 55.2412 48.1101L51.5085 46.6722C50.9554 48.1082 50.0967 49.1732 49.2547 49.7695C48.3986 50.3758 47.7747 50.3772 47.4296 50.2443L45.9918 53.9769ZM43.0684 43.4211C42.2717 45.4894 42.072 47.66 42.4904 49.5377C42.905 51.3985 44.0062 53.2121 45.9918 53.9769L47.4296 50.2443C47.0845 50.1113 46.6228 49.6918 46.3946 48.6678C46.1703 47.6607 46.2479 46.2948 46.8011 44.8589L43.0684 43.4211ZM43.392 42.6583C43.2768 42.9063 43.1687 43.1607 43.0684 43.421L46.8011 44.8589C46.8691 44.6822 46.9421 44.5104 47.0196 44.3438L43.392 42.6583ZM34.8506 45.8529C37.6866 44.7315 41.2437 44.6377 44.7553 45.4496L45.6563 41.5524C41.5731 40.6084 37.1549 40.6404 33.3798 42.1331L34.8506 45.8529ZM37.0745 45.6724C36.758 44.6733 36.3262 43.7482 35.8061 42.9249L32.4243 45.0611C32.7571 45.588 33.0458 46.2002 33.2612 46.8802L37.0745 45.6724ZM33.5138 56.0306C35.5423 55.3881 36.7519 53.6449 37.279 51.8128C37.8109 49.9641 37.7438 47.7853 37.0745 45.6724L33.2612 46.8802C33.7259 48.3472 33.7203 49.7152 33.435 50.7068C33.1449 51.715 32.6585 52.1057 32.3059 52.2174L33.5138 56.0306ZM24.7523 49.9525C25.4567 51.971 26.6521 53.7045 28.1301 54.847C29.5984 55.9819 31.5411 56.6555 33.5138 56.0306L32.3059 52.2174C31.9617 52.3264 31.3656 52.2923 30.5764 51.6822C29.797 51.0798 29.0163 50.0311 28.5289 48.6346L24.7523 49.9525ZM25.9942 52.502C26.7973 51.8225 27.4195 51.2751 27.9662 50.7912L25.315 47.796C24.7777 48.2716 24.1807 48.7967 23.4105 49.4483L25.9942 52.502ZM22.2254 55.1693C23.5194 54.4154 24.7837 53.5261 25.9942 52.502L23.4105 49.4483C22.3769 50.3229 21.3031 51.0772 20.2118 51.7131L22.2254 55.1693ZM19.5138 63.0306C21.5105 62.3982 22.7151 60.6974 23.2538 58.8988C23.7966 57.0864 23.7563 54.9495 23.135 52.8689L19.3022 54.0134C19.7327 55.4552 19.7103 56.7883 19.4219 57.7511C19.1294 58.7278 18.6537 59.1072 18.3059 59.2174L19.5138 63.0306ZM10.7357 56.9046C11.4354 58.9364 12.6315 60.682 14.1126 61.8334C15.5834 62.9767 17.5332 63.658 19.5138 63.0306L18.3059 59.2174C17.9605 59.3268 17.3608 59.2919 16.5675 58.6753C15.7845 58.0667 15.0021 57.0086 14.5177 55.6022L10.7357 56.9046ZM-1.88126 43.0413C-2.43399 48.1398 -1.02561 52.2102 1.85607 54.8967C4.69519 57.5435 8.67904 58.5798 12.7882 58.2469L12.4652 54.2599C9.18083 54.526 6.4056 53.6694 4.58367 51.9709C2.80429 50.312 1.64963 47.5847 2.09544 43.4724L-1.88126 43.0413ZM-1.82121 42.4874L-1.88126 43.0413L2.09544 43.4724L2.15549 42.9185L-1.82121 42.4874ZM3.21241 30.7573C0.631094 34.1767 -1.35332 38.1714 -1.82121 42.4874L2.15549 42.9185C2.52217 39.5362 4.1067 36.2117 6.4049 33.1673L3.21241 30.7573ZM6.41532 30.7712C6.19809 30.4782 5.98404 30.1772 5.77383 29.8687L2.46811 32.1208C2.7082 32.4732 2.95306 32.8175 3.202 33.1533L6.41532 30.7712ZM5.77383 29.8687C3.79252 26.9605 2.59848 24.0366 2.20729 21.721C1.78439 19.2176 2.38146 18.212 2.76437 17.9512L0.512208 14.6454C-1.94518 16.3196 -2.21248 19.5716 -1.73683 22.3872C-1.22947 25.3906 0.237983 28.8474 2.46811 32.1208L5.77383 29.8687ZM2.76437 17.9512C3.13064 17.7016 4.20999 17.5074 6.27055 18.6912C8.18576 19.7914 10.3808 21.8018 12.337 24.5184L15.583 22.181C13.3786 19.1197 10.7833 16.6706 8.2631 15.2228C5.88823 13.8585 2.88704 13.0275 0.512207 14.6454L2.76437 17.9512ZM26.3211 15.2882C20.0936 17.2215 15.9595 19.5084 12.813 21.7114L15.1071 24.9881C17.9266 23.0142 21.6886 20.9147 27.5071 19.1083L26.3211 15.2882ZM28.8682 14.7624C28.0331 14.9019 27.2229 15.0657 26.4436 15.2544L27.3846 19.1421C28.0632 18.9779 28.7789 18.8327 29.5273 18.7077L28.8682 14.7624ZM26.9464 13.8107C26.9829 14.9082 27.0748 15.978 27.2164 17.0075L31.1791 16.4626C31.0566 15.5714 30.9762 14.6393 30.9442 13.6778L26.9464 13.8107ZM34.6485 -1.99729C31.6767 -1.89852 29.7102 0.705214 28.6048 3.33815C27.4257 6.14661 26.8149 9.852 26.9464 13.8107L30.9442 13.6778C30.8274 10.1608 31.3839 7.05196 32.293 4.88656C33.2758 2.54564 34.3183 2.0159 34.7814 2.00051L34.6485 -1.99729ZM43.3832 13.2644C43.2516 9.30574 42.3961 5.64908 41.0332 2.9251C39.7554 0.37137 37.6204 -2.09605 34.6485 -1.99729L34.7814 2.00051C35.2445 1.98512 36.3199 2.44447 37.456 4.71497C38.5068 6.81523 39.2685 9.88027 39.3854 13.3973L43.3832 13.2644Z" fill="black" mask="url(#path-1-inside-1_2294_3022)"/>
<circle cx="15.9943" cy="38.295" r="7.88489" fill="url(#paint0_linear_2294_3022)"/>
<circle cx="15.9995" cy="38.3061" r="4.97993" fill="#350F42"/>
<circle cx="16.0079" cy="38.3048" r="3.74616" fill="url(#paint1_linear_2294_3022)"/>
<circle cx="15.9932" cy="38.2959" r="1.89551" fill="#350F42"/>
<path d="M24.4511 38.2949C25.0261 38.2949 25.4981 37.8274 25.4352 37.2558C25.2001 35.1185 24.2447 33.1124 22.7097 31.5774C20.9281 29.7958 18.5117 28.7949 15.9922 28.7949C13.4726 28.7949 11.0563 29.7958 9.27467 31.5774C7.73972 33.1124 6.78428 35.1185 6.54915 37.2558C6.48628 37.8274 6.9583 38.2949 7.53328 38.2949C8.10826 38.2949 8.56686 37.8265 8.64729 37.2572C8.87104 35.6734 9.60283 34.1939 10.747 33.0497C12.1381 31.6586 14.0249 30.8771 15.9922 30.8771C17.9595 30.8771 19.8463 31.6586 21.2374 33.0497C22.3815 34.1939 23.1133 35.6734 23.3371 37.2572C23.4175 37.8265 23.8761 38.2949 24.4511 38.2949Z" fill="#350F42"/>
<circle cx="14.8344" cy="36.3969" r="1.16647" fill="white"/>
<circle cx="17.8938" cy="40.7278" r="0.538371" fill="white"/>
<circle cx="33.9979" cy="26.2986" r="4.56818" fill="url(#paint2_linear_2294_3022)"/>
<circle cx="33.9984" cy="26.3051" r="2.88516" fill="#350F42"/>
<circle cx="34.0063" cy="26.3051" r="2.17037" fill="url(#paint3_linear_2294_3022)"/>
<circle cx="33.9966" cy="26.2994" r="1.09818" fill="#350F42"/>
<path d="M38.8968 26.2988C39.23 26.2988 39.5034 26.0279 39.467 25.6968C39.3308 24.4585 38.7772 23.2963 37.8879 22.407C36.8558 21.3748 35.4558 20.7949 33.9961 20.7949C32.5364 20.7949 31.1364 21.3748 30.1042 22.407C29.215 23.2963 28.6614 24.4585 28.5252 25.6968C28.4888 26.0279 28.7622 26.2988 29.0954 26.2988C29.4285 26.2988 29.6942 26.0274 29.7408 25.6976C29.8704 24.78 30.2944 23.9229 30.9573 23.26C31.7632 22.454 32.8563 22.0013 33.9961 22.0013C35.1359 22.0013 36.229 22.454 37.0349 23.26C37.6978 23.9229 38.1218 24.78 38.2514 25.6976C38.298 26.0275 38.5637 26.2988 38.8968 26.2988Z" fill="#350F42"/>
<circle cx="33.3238" cy="25.1988" r="0.675325" fill="white"/>
<circle cx="35.0968" cy="27.7082" r="0.311688" fill="white"/>
<circle cx="53.9979" cy="37.2986" r="4.56818" fill="url(#paint4_linear_2294_3022)"/>
<circle cx="53.9984" cy="37.3051" r="2.88516" fill="#350F42"/>
<circle cx="54.0063" cy="37.3051" r="2.17037" fill="url(#paint5_linear_2294_3022)"/>
<circle cx="53.9966" cy="37.2994" r="1.09818" fill="#350F42"/>
<path d="M58.8968 37.2988C59.23 37.2988 59.5034 37.0279 59.467 36.6968C59.3308 35.4585 58.7772 34.2963 57.8879 33.407C56.8558 32.3748 55.4558 31.7949 53.9961 31.7949C52.5364 31.7949 51.1364 32.3748 50.1042 33.407C49.215 34.2963 48.6614 35.4585 48.5252 36.6968C48.4888 37.0279 48.7622 37.2988 49.0954 37.2988C49.4285 37.2988 49.6942 37.0274 49.7408 36.6976C49.8704 35.78 50.2944 34.9229 50.9573 34.26C51.7632 33.454 52.8563 33.0013 53.9961 33.0013C55.1359 33.0013 56.229 33.454 57.0349 34.26C57.6978 34.9229 58.1218 35.78 58.2514 36.6976C58.298 37.0275 58.5637 37.2988 58.8968 37.2988Z" fill="#350F42"/>
<circle cx="53.3238" cy="36.1988" r="0.675325" fill="white"/>
<circle cx="55.0968" cy="38.7082" r="0.311688" fill="white"/>
<circle cx="70.9995" cy="49.2984" r="7.05814" fill="url(#paint6_linear_2294_3022)"/>
<circle cx="71.0007" cy="49.3093" r="4.45777" fill="#350F42"/>
<circle cx="71.0135" cy="49.3084" r="3.35337" fill="url(#paint7_linear_2294_3022)"/>
<circle cx="70.9975" cy="49.3003" r="1.69677" fill="#350F42"/>
<path d="M78.5681 49.2988C79.0828 49.2988 79.5053 48.8803 79.449 48.3687C79.2385 46.4554 78.3833 44.6597 77.0093 43.2857C75.4145 41.6909 73.2515 40.7949 70.9961 40.7949C68.7407 40.7949 66.5777 41.6909 64.9829 43.2857C63.6089 44.6597 62.7537 46.4554 62.5432 48.3687C62.4869 48.8803 62.9094 49.2988 63.4241 49.2988C63.9388 49.2988 64.3493 48.8795 64.4213 48.3699C64.6216 46.9521 65.2767 45.6278 66.3009 44.6036C67.5461 43.3584 69.235 42.6588 70.9961 42.6588C72.7571 42.6588 74.4461 43.3584 75.6913 44.6036C76.7155 45.6278 77.3706 46.9522 77.5709 48.3699C77.6429 48.8795 78.0534 49.2988 78.5681 49.2988Z" fill="#350F42"/>
<circle cx="69.957" cy="47.5996" r="1.04294" fill="white"/>
<circle cx="72.6962" cy="51.4755" r="0.481358" fill="white"/>
<defs>
<linearGradient id="paint0_linear_2294_3022" x1="15.9943" y1="30.4102" x2="15.9943" y2="46.1799" gradientUnits="userSpaceOnUse">
<stop stop-color="#EBD6EB"/>
<stop offset="0.9999" stop-color="white"/>
</linearGradient>
<linearGradient id="paint1_linear_2294_3022" x1="16.0079" y1="34.5586" x2="16.0079" y2="42.0509" gradientUnits="userSpaceOnUse">
<stop stop-color="#853085"/>
<stop offset="1" stop-color="#9D4A9D"/>
</linearGradient>
<linearGradient id="paint2_linear_2294_3022" x1="33.9979" y1="21.7305" x2="33.9979" y2="30.8668" gradientUnits="userSpaceOnUse">
<stop stop-color="#EBD6EB"/>
<stop offset="0.9999" stop-color="white"/>
</linearGradient>
<linearGradient id="paint3_linear_2294_3022" x1="34.0063" y1="24.1348" x2="34.0063" y2="28.4755" gradientUnits="userSpaceOnUse">
<stop stop-color="#853085"/>
<stop offset="1" stop-color="#9D4A9D"/>
</linearGradient>
<linearGradient id="paint4_linear_2294_3022" x1="53.9979" y1="32.7305" x2="53.9979" y2="41.8668" gradientUnits="userSpaceOnUse">
<stop stop-color="#EBD6EB"/>
<stop offset="0.9999" stop-color="white"/>
</linearGradient>
<linearGradient id="paint5_linear_2294_3022" x1="54.0063" y1="35.1348" x2="54.0063" y2="39.4755" gradientUnits="userSpaceOnUse">
<stop stop-color="#853085"/>
<stop offset="1" stop-color="#9D4A9D"/>
</linearGradient>
<linearGradient id="paint6_linear_2294_3022" x1="70.9996" y1="42.2402" x2="70.9996" y2="56.3565" gradientUnits="userSpaceOnUse">
<stop stop-color="#EBD6EB"/>
<stop offset="0.9999" stop-color="white"/>
</linearGradient>
<linearGradient id="paint7_linear_2294_3022" x1="71.0135" y1="45.9551" x2="71.0135" y2="52.6618" gradientUnits="userSpaceOnUse">
<stop stop-color="#853085"/>
<stop offset="1" stop-color="#9D4A9D"/>
</linearGradient>
</defs>
</svg>
