<svg width="90" height="154" viewBox="0 0 90 154" fill="none" xmlns="http://www.w3.org/2000/svg">
<mask id="path-1-inside-1_2294_3160" fill="white">
<path fill-rule="evenodd" clip-rule="evenodd" d="M41.3882 13.3328C41.4225 14.3645 41.4029 15.3709 41.3345 16.3398C44.9478 16.6305 48.6326 17.2637 52.0968 18.2542C52.121 18.2008 52.1454 18.1475 52.17 18.0942C55.3032 11.3022 60.373 6.96325 63.4938 8.40288C66.6015 9.83648 66.6046 16.4597 63.5106 23.2222C66.7872 25.1651 69.8354 27.4687 72.5978 30.0891C73.2245 29.5649 73.8914 29.0535 74.5946 28.5614C80.7229 24.2728 87.2882 23.0789 89.2587 25.8947C91.2292 28.7105 87.8587 34.4698 81.7304 38.7583C81.3075 39.0543 80.8826 39.3355 80.4572 39.6017C85.2272 47.0559 87.9849 55.6393 88.4341 64.5115C88.9331 74.3661 86.5626 84.1538 81.6101 92.6881C77.356 100.019 71.3537 106.154 64.1657 110.563C64.144 115.097 63.7489 120.448 62.9484 126.141C60.738 141.861 56.2735 154.228 52.9767 153.765C49.68 153.301 48.7993 140.182 51.0097 124.462C51.4349 121.439 51.9434 118.539 52.511 115.831C48.662 117.017 44.6858 117.742 40.6661 117.992C44.0435 129.755 44.2914 139.889 41.1718 140.817C37.9809 141.766 32.4748 132.724 28.8738 120.62C28.5282 119.458 28.2127 118.311 27.9275 117.184C23.8594 116.407 19.9117 115.139 16.1689 113.415C9.70349 110.438 8.91096 102.14 13.4099 96.6239C15.024 94.6451 17.1183 93.3249 19.4643 92.5021C19.4117 89.4226 20.8253 86.8801 22.9579 86.5296C25.1684 86.1663 27.4006 88.2812 28.2768 91.3946C29.9255 91.4659 31.569 91.66 33.1504 91.9368C33.6915 92.0315 34.2366 92.1087 34.785 92.168C35.0246 92.194 35.2643 92.2164 35.5041 92.2355C35.1945 88.8347 36.6581 85.9076 38.9579 85.5296C41.3825 85.1311 43.8331 87.714 44.4919 91.3259C46.0024 90.8901 47.4756 90.3121 48.8911 89.5956C53.2453 87.3916 56.8666 83.9718 59.3161 79.7508C61.7656 75.5298 62.938 70.6889 62.6912 65.8149C62.4444 60.9409 60.7891 56.2432 57.9258 52.2912C57.6186 51.8672 57.3436 51.4628 57.0833 51.0799L57.083 51.0794L57.0827 51.079L57.0825 51.0787L57.0824 51.0785C56.5289 50.2644 56.0415 49.5476 55.4513 48.9465C54.845 48.329 54.172 47.7495 53.4456 47.2125C53.4237 47.2725 53.4013 47.3325 53.3782 47.3924C52.0283 50.8967 49.0446 53.0097 46.714 52.1119C44.3833 51.2141 43.5882 47.6455 44.9381 44.1412C45.0222 43.9229 45.1126 43.7099 45.2089 43.5028C41.4117 42.625 37.4243 42.688 34.119 43.995C34.5452 44.6699 34.9053 45.4383 35.1712 46.2776C36.3051 49.8575 35.2942 53.3711 32.9132 54.1253C30.5964 54.8591 27.8362 52.7102 26.6442 49.2958C26.1023 49.7755 25.4927 50.3117 24.7062 50.9771C23.5841 51.9265 22.4149 52.7484 21.2221 53.4433C22.2736 56.9654 21.2574 60.3827 18.9132 61.1253C16.5873 61.862 13.8144 59.6932 12.6302 56.2554C5.23688 56.8542 -0.887527 52.4694 0.110998 43.2588L0.171041 42.7049C0.588333 38.8557 2.37281 35.1962 4.81257 31.9642C4.57948 31.6498 4.35003 31.3272 4.12488 30.9967C-0.0865581 24.8151 -1.19809 18.2353 1.6422 16.3003C4.3833 14.4328 9.80329 17.5738 13.964 23.3517C16.9469 21.2633 20.895 19.0701 26.918 17.2002C27.647 17.0237 28.41 16.8693 29.2017 16.737C29.0696 15.7766 28.9835 14.7757 28.9493 13.7462C28.7008 6.27051 31.284 0.117721 34.7189 0.00356399C38.1538 -0.110593 41.1398 5.85711 41.3882 13.3328Z"/>
</mask>
<path fill-rule="evenodd" clip-rule="evenodd" d="M41.3882 13.3328C41.4225 14.3645 41.4029 15.3709 41.3345 16.3398C44.9478 16.6305 48.6326 17.2637 52.0968 18.2542C52.121 18.2008 52.1454 18.1475 52.17 18.0942C55.3032 11.3022 60.373 6.96325 63.4938 8.40288C66.6015 9.83648 66.6046 16.4597 63.5106 23.2222C66.7872 25.1651 69.8354 27.4687 72.5978 30.0891C73.2245 29.5649 73.8914 29.0535 74.5946 28.5614C80.7229 24.2728 87.2882 23.0789 89.2587 25.8947C91.2292 28.7105 87.8587 34.4698 81.7304 38.7583C81.3075 39.0543 80.8826 39.3355 80.4572 39.6017C85.2272 47.0559 87.9849 55.6393 88.4341 64.5115C88.9331 74.3661 86.5626 84.1538 81.6101 92.6881C77.356 100.019 71.3537 106.154 64.1657 110.563C64.144 115.097 63.7489 120.448 62.9484 126.141C60.738 141.861 56.2735 154.228 52.9767 153.765C49.68 153.301 48.7993 140.182 51.0097 124.462C51.4349 121.439 51.9434 118.539 52.511 115.831C48.662 117.017 44.6858 117.742 40.6661 117.992C44.0435 129.755 44.2914 139.889 41.1718 140.817C37.9809 141.766 32.4748 132.724 28.8738 120.62C28.5282 119.458 28.2127 118.311 27.9275 117.184C23.8594 116.407 19.9117 115.139 16.1689 113.415C9.70349 110.438 8.91096 102.14 13.4099 96.6239C15.024 94.6451 17.1183 93.3249 19.4643 92.5021C19.4117 89.4226 20.8253 86.8801 22.9579 86.5296C25.1684 86.1663 27.4006 88.2812 28.2768 91.3946C29.9255 91.4659 31.569 91.66 33.1504 91.9368C33.6915 92.0315 34.2366 92.1087 34.785 92.168C35.0246 92.194 35.2643 92.2164 35.5041 92.2355C35.1945 88.8347 36.6581 85.9076 38.9579 85.5296C41.3825 85.1311 43.8331 87.714 44.4919 91.3259C46.0024 90.8901 47.4756 90.3121 48.8911 89.5956C53.2453 87.3916 56.8666 83.9718 59.3161 79.7508C61.7656 75.5298 62.938 70.6889 62.6912 65.8149C62.4444 60.9409 60.7891 56.2432 57.9258 52.2912C57.6186 51.8672 57.3436 51.4628 57.0833 51.0799L57.083 51.0794L57.0827 51.079L57.0825 51.0787L57.0824 51.0785C56.5289 50.2644 56.0415 49.5476 55.4513 48.9465C54.845 48.329 54.172 47.7495 53.4456 47.2125C53.4237 47.2725 53.4013 47.3325 53.3782 47.3924C52.0283 50.8967 49.0446 53.0097 46.714 52.1119C44.3833 51.2141 43.5882 47.6455 44.9381 44.1412C45.0222 43.9229 45.1126 43.7099 45.2089 43.5028C41.4117 42.625 37.4243 42.688 34.119 43.995C34.5452 44.6699 34.9053 45.4383 35.1712 46.2776C36.3051 49.8575 35.2942 53.3711 32.9132 54.1253C30.5964 54.8591 27.8362 52.7102 26.6442 49.2958C26.1023 49.7755 25.4927 50.3117 24.7062 50.9771C23.5841 51.9265 22.4149 52.7484 21.2221 53.4433C22.2736 56.9654 21.2574 60.3827 18.9132 61.1253C16.5873 61.862 13.8144 59.6932 12.6302 56.2554C5.23688 56.8542 -0.887527 52.4694 0.110998 43.2588L0.171041 42.7049C0.588333 38.8557 2.37281 35.1962 4.81257 31.9642C4.57948 31.6498 4.35003 31.3272 4.12488 30.9967C-0.0865581 24.8151 -1.19809 18.2353 1.6422 16.3003C4.3833 14.4328 9.80329 17.5738 13.964 23.3517C16.9469 21.2633 20.895 19.0701 26.918 17.2002C27.647 17.0237 28.41 16.8693 29.2017 16.737C29.0696 15.7766 28.9835 14.7757 28.9493 13.7462C28.7008 6.27051 31.284 0.117721 34.7189 0.00356399C38.1538 -0.110593 41.1398 5.85711 41.3882 13.3328Z" fill="#4286A2"/>
<path d="M41.3345 16.3398L39.3395 16.1991L39.2001 18.1746L41.1741 18.3334L41.3345 16.3398ZM41.3882 13.3328L43.3871 13.2664V13.2664L41.3882 13.3328ZM52.0968 18.2542L51.547 20.1771L53.2047 20.6511L53.9177 19.0813L52.0968 18.2542ZM52.17 18.0942L53.9861 18.932L53.9861 18.9319L52.17 18.0942ZM63.4938 8.40288L64.3316 6.5868V6.5868L63.4938 8.40288ZM63.5106 23.2222L61.6919 22.3901L60.9437 24.0253L62.4905 24.9425L63.5106 23.2222ZM72.5978 30.0891L71.2214 31.5401L72.5142 32.7664L73.881 31.6232L72.5978 30.0891ZM74.5946 28.5614L73.4479 26.9227L73.4479 26.9227L74.5946 28.5614ZM89.2587 25.8947L90.8974 24.748H90.8973L89.2587 25.8947ZM81.7304 38.7583L80.5837 37.1197L81.7304 38.7583ZM80.4572 39.6017L79.3963 37.9062L77.6835 38.9779L78.7725 40.6797L80.4572 39.6017ZM88.4341 64.5115L90.4316 64.4104L88.4341 64.5115ZM81.6101 92.6881L83.3399 93.692L81.6101 92.6881ZM64.1657 110.563L63.12 108.859L62.1711 109.441L62.1658 110.554L64.1657 110.563ZM62.9484 126.141L64.9289 126.419L62.9484 126.141ZM51.0097 124.462L52.9903 124.741L51.0097 124.462ZM52.511 115.831L54.4685 116.241L55.1644 112.921L51.9224 113.92L52.511 115.831ZM40.6661 117.992L40.5419 115.996L38.0566 116.151L38.7438 118.544L40.6661 117.992ZM41.1718 140.817L41.7421 142.734H41.7421L41.1718 140.817ZM28.8738 120.62L30.7907 120.049L28.8738 120.62ZM27.9275 117.184L29.8664 116.693L29.5538 115.459L28.3029 115.22L27.9275 117.184ZM16.1689 113.415L17.0053 111.599H17.0053L16.1689 113.415ZM13.4099 96.6239L11.8601 95.3597H11.8601L13.4099 96.6239ZM19.4643 92.5021L20.1262 94.3894L21.4887 93.9115L21.464 92.4679L19.4643 92.5021ZM22.9579 86.5296L23.2823 88.5031H23.2823L22.9579 86.5296ZM28.2768 91.3946L26.3516 91.9364L26.7438 93.3302L28.1904 93.3927L28.2768 91.3946ZM33.1504 91.9368L32.8056 93.9068V93.9068L33.1504 91.9368ZM34.785 92.168L34.5698 94.1564H34.5698L34.785 92.168ZM35.5041 92.2355L35.3458 94.2292L37.7109 94.4169L37.4958 92.0542L35.5041 92.2355ZM38.9579 85.5296L39.2823 87.5031L38.9579 85.5296ZM44.4919 91.3259L42.5244 91.6848L42.9213 93.8606L45.0463 93.2475L44.4919 91.3259ZM48.8911 89.5956L49.7944 91.38L48.8911 89.5956ZM59.3161 79.7508L61.0459 80.7546L59.3161 79.7508ZM62.6912 65.8149L60.6938 65.916V65.916L62.6912 65.8149ZM57.9258 52.2912L59.5454 51.1178L57.9258 52.2912ZM57.0833 51.0799L58.7373 49.9554L58.7305 49.9454L58.7236 49.9355L57.0833 51.0799ZM57.083 51.0794L55.4189 52.1888L55.4306 52.2064L55.4427 52.2238L57.083 51.0794ZM57.0827 51.079L58.7468 49.9696L58.7381 49.9565L58.7291 49.9435L57.0827 51.079ZM57.0825 51.0787L55.4184 52.1881L55.4271 52.2012L55.436 52.2141L57.0825 51.0787ZM57.0824 51.0785L58.7465 49.9691L58.7414 49.9615L58.7363 49.954L57.0824 51.0785ZM55.4513 48.9465L54.0242 50.3477H54.0242L55.4513 48.9465ZM53.4456 47.2125L54.6344 45.6042L52.4821 44.0133L51.5663 46.5281L53.4456 47.2125ZM53.3782 47.3924L55.2445 48.1113L55.2445 48.1113L53.3782 47.3924ZM46.714 52.1119L47.4329 50.2456H47.4329L46.714 52.1119ZM44.9381 44.1412L43.0717 43.4223L43.0717 43.4223L44.9381 44.1412ZM45.2089 43.5028L47.0227 44.3455L48.0615 42.1095L45.6593 41.5542L45.2089 43.5028ZM34.119 43.995L33.3835 42.1352L31.1393 43.0226L32.428 45.063L34.119 43.995ZM35.1712 46.2776L33.2645 46.8815L35.1712 46.2776ZM32.9132 54.1253L33.5171 56.0319L32.9132 54.1253ZM26.6442 49.2958L28.5325 48.6366L27.5503 45.8229L25.3186 47.7982L26.6442 49.2958ZM24.7062 50.9771L25.9981 52.5039L24.7062 50.9771ZM21.2221 53.4433L20.2154 51.7152L18.8555 52.5074L19.3057 54.0154L21.2221 53.4433ZM18.9132 61.1253L19.5171 63.0319H19.5171L18.9132 61.1253ZM12.6302 56.2554L14.5212 55.604L14.0157 54.1366L12.4688 54.2619L12.6302 56.2554ZM0.110998 43.2588L2.09935 43.4744L2.09935 43.4743L0.110998 43.2588ZM0.171041 42.7049L-1.81731 42.4894L-1.81731 42.4894L0.171041 42.7049ZM4.81257 31.9642L6.40881 33.1692L7.31025 31.9751L6.41923 30.7732L4.81257 31.9642ZM4.12488 30.9967L5.77774 29.8706L4.12488 30.9967ZM1.6422 16.3003L2.76828 17.9531H2.76828L1.6422 16.3003ZM13.964 23.3517L12.341 24.5204L13.4942 26.122L15.111 24.9901L13.964 23.3517ZM26.918 17.2002L26.4475 15.2563L26.3857 15.2713L26.325 15.2901L26.918 17.2002ZM29.2017 16.737L29.5312 18.7097L31.4478 18.3895L31.183 16.4645L29.2017 16.737ZM28.9493 13.7462L26.9504 13.8126L26.9504 13.8126L28.9493 13.7462ZM34.7189 0.00356399L34.6525 -1.99533L34.7189 0.00356399ZM43.3295 16.4806C43.4028 15.4419 43.4237 14.3662 43.3871 13.2664L39.3893 13.3992C39.4214 14.3627 39.4029 15.3 39.3395 16.1991L43.3295 16.4806ZM52.6466 16.3312C49.0431 15.3009 45.2268 14.6465 41.4949 14.3463L41.1741 18.3334C44.6689 18.6145 48.2222 19.2265 51.547 20.1771L52.6466 16.3312ZM50.354 17.2564C50.3277 17.3133 50.3017 17.3702 50.2758 17.427L53.9177 19.0813C53.9403 19.0315 53.9631 18.9817 53.9861 18.932L50.354 17.2564ZM64.3316 6.5868C61.6315 5.34125 58.7056 6.78543 56.5361 8.64217C54.222 10.6227 52.0131 13.6598 50.3539 17.2564L53.9861 18.9319C55.4601 15.7366 57.3527 13.2082 59.137 11.6812C61.0659 10.0304 62.2353 10.0249 62.656 10.219L64.3316 6.5868ZM65.3292 24.0543C66.9677 20.4731 67.8306 16.8414 67.8278 13.8124C67.8252 10.9709 67.0208 7.82735 64.3316 6.5868L62.656 10.219C63.0745 10.412 63.8255 11.2969 63.8278 13.8161C63.83 16.1477 63.1474 19.2088 61.6919 22.3901L65.3292 24.0543ZM73.9742 28.638C71.1034 25.9149 67.9358 23.5209 64.5306 21.5019L62.4905 24.9425C65.6387 26.8092 68.5673 29.0225 71.2214 31.5401L73.9742 28.638ZM73.4479 26.9227C72.6981 27.4474 71.9857 27.9937 71.3147 28.5549L73.881 31.6232C74.4633 31.1361 75.0846 30.6595 75.7413 30.2L73.4479 26.9227ZM90.8973 24.748C89.1925 22.3118 85.9375 22.0852 83.128 22.5961C80.1312 23.1411 76.693 24.6518 73.4479 26.9227L75.7413 30.2C78.6244 28.1824 81.533 26.9518 83.8436 26.5316C86.3415 26.0774 87.3545 26.6618 87.6201 27.0414L90.8973 24.748ZM82.8771 40.397C86.1223 38.126 88.7193 35.4133 90.2578 32.7844C91.7001 30.3199 92.6022 27.1842 90.8974 24.748L87.6201 27.0414C87.8858 27.421 88.0879 28.5728 86.8055 30.764C85.6193 32.7909 83.4668 35.1021 80.5837 37.1197L82.8771 40.397ZM81.518 41.2971C81.9726 41.0127 82.4262 40.7125 82.8771 40.397L80.5837 37.1197C80.1889 37.396 79.7925 37.6583 79.3963 37.9062L81.518 41.2971ZM90.4316 64.4104C89.9647 55.1902 87.0989 46.2702 82.1418 38.5237L78.7725 40.6797C83.3555 47.8416 86.0051 56.0884 86.4367 64.6126L90.4316 64.4104ZM83.3399 93.692C88.4867 84.823 90.9501 74.6514 90.4316 64.4104L86.4367 64.6126C86.9161 74.0808 84.6386 83.4847 79.8803 91.6843L83.3399 93.692ZM65.2115 112.268C72.6813 107.686 78.919 101.31 83.3399 93.692L79.8803 91.6843C75.793 98.7276 70.0261 104.623 63.12 108.859L65.2115 112.268ZM64.9289 126.419C65.7401 120.65 66.1435 115.208 66.1657 110.573L62.1658 110.554C62.1445 114.985 61.7576 120.246 60.9679 125.862L64.9289 126.419ZM52.6982 155.745C53.7961 155.899 54.7435 155.483 55.4449 154.967C56.1382 154.458 56.7401 153.752 57.2654 152.984C58.3208 151.441 59.3248 149.267 60.2511 146.701C62.115 141.537 63.8104 134.374 64.9289 126.419L60.9679 125.862C59.8759 133.628 58.2338 140.508 56.4888 145.342C55.6105 147.775 54.7422 149.588 53.9641 150.725C53.5728 151.297 53.2677 151.604 53.0773 151.743C52.8949 151.877 52.9815 151.746 53.2552 151.784L52.6982 155.745ZM49.0292 124.184C47.9108 132.138 47.5649 139.491 47.9325 144.968C48.1152 147.69 48.4806 150.058 49.0696 151.831C49.3628 152.714 49.7465 153.56 50.2726 154.24C50.8047 154.929 51.6003 155.591 52.6982 155.745L53.2552 151.784C53.5289 151.823 53.5759 151.973 53.4375 151.794C53.293 151.607 53.0842 151.229 52.8658 150.571C52.4316 149.263 52.0968 147.281 51.9235 144.7C51.5793 139.572 51.8983 132.506 52.9903 124.741L49.0292 124.184ZM50.5536 115.421C49.9765 118.174 49.4604 121.118 49.0292 124.184L52.9903 124.741C53.4094 121.76 53.9104 118.904 54.4685 116.241L50.5536 115.421ZM40.7903 119.988C44.9676 119.728 49.0998 118.974 53.0997 117.742L51.9224 113.92C48.2243 115.059 44.4039 115.756 40.5419 115.996L40.7903 119.988ZM41.7421 142.734C43.5473 142.197 44.3955 140.497 44.8063 139.065C45.2481 137.524 45.404 135.576 45.3548 133.422C45.2556 129.084 44.3095 123.434 42.5885 117.44L38.7438 118.544C40.4001 124.312 41.2666 129.611 41.3558 133.513C41.4008 135.479 41.2449 136.973 40.9613 137.962C40.6467 139.058 40.3561 138.973 40.6015 138.9L41.7421 142.734ZM26.9568 121.19C28.7918 127.358 31.1301 132.813 33.4683 136.653C34.6295 138.56 35.851 140.17 37.0853 141.262C38.2264 142.271 39.8979 143.283 41.7421 142.734L40.6015 138.9C40.8503 138.826 40.6369 139.063 39.7356 138.266C38.9276 137.551 37.9492 136.321 36.8848 134.573C34.772 131.103 32.5568 125.986 30.7907 120.049L26.9568 121.19ZM25.9887 117.675C26.2807 118.828 26.6034 120.002 26.9568 121.19L30.7907 120.049C30.4529 118.914 30.1447 117.793 29.8664 116.693L25.9887 117.675ZM15.3324 115.232C19.2219 117.023 23.3245 118.341 27.5522 119.149L28.3029 115.22C24.3943 114.473 20.6014 113.255 17.0053 111.599L15.3324 115.232ZM11.8601 95.3597C6.78168 101.586 7.34751 111.555 15.3324 115.232L17.0053 111.599C12.0595 109.321 11.0402 102.693 14.9597 97.888L11.8601 95.3597ZM18.8024 90.6148C16.1716 91.5374 13.7459 93.0477 11.8601 95.3597L14.9597 97.888C16.302 96.2424 18.065 95.1123 20.1262 94.3894L18.8024 90.6148ZM22.6336 84.5561C20.8227 84.8537 19.4849 86.0604 18.6588 87.4938C17.8342 88.9246 17.4332 90.7004 17.4646 92.5362L21.464 92.4679C21.4428 91.2242 21.7223 90.189 22.1245 89.4911C22.5252 88.7958 22.9605 88.556 23.2823 88.5031L22.6336 84.5561ZM30.202 90.8528C29.6812 89.0024 28.7339 87.353 27.4753 86.1897C26.2173 85.0268 24.5121 84.2473 22.6336 84.5561L23.2823 88.5031C23.6142 88.4486 24.1304 88.5449 24.7601 89.127C25.3893 89.7086 25.9961 90.6733 26.3516 91.9364L30.202 90.8528ZM33.4952 89.9667C31.8399 89.677 30.1095 89.472 28.3632 89.3965L28.1904 93.3927C29.7414 93.4598 31.298 93.643 32.8056 93.9068L33.4952 89.9667ZM35.0002 90.1796C34.4953 90.125 33.9934 90.0539 33.4952 89.9667L32.8056 93.9068C33.3895 94.009 33.9779 94.0924 34.5698 94.1564L35.0002 90.1796ZM35.6623 90.2417C35.4415 90.2242 35.2208 90.2035 35.0002 90.1796L34.5698 94.1564C34.8284 94.1844 35.0871 94.2087 35.3458 94.2292L35.6623 90.2417ZM38.6336 83.5561C36.6772 83.8776 35.2808 85.2535 34.4711 86.8397C33.6588 88.4311 33.3288 90.4015 33.5123 92.4168L37.4958 92.0542C37.3697 90.6686 37.6168 89.4752 38.0338 88.6583C38.4535 87.8362 38.9388 87.5596 39.2823 87.5031L38.6336 83.5561ZM46.4595 90.967C46.0703 88.8335 45.1389 86.9125 43.835 85.5442C42.5409 84.1862 40.6984 83.2167 38.6336 83.5561L39.2823 87.5031C39.642 87.444 40.2371 87.5668 40.9392 88.3036C41.6315 89.0301 42.2548 90.2065 42.5244 91.6848L46.4595 90.967ZM47.9879 87.8112C46.6846 88.4709 45.3282 89.0031 43.9375 89.4043L45.0463 93.2475C46.6766 92.7772 48.2666 92.1533 49.7944 91.38L47.9879 87.8112ZM57.5863 78.747C55.331 82.6333 51.9968 85.7819 47.9879 87.8112L49.7944 91.38C54.4938 89.0012 58.4023 85.3103 61.0459 80.7546L57.5863 78.747ZM60.6938 65.916C60.921 70.4036 59.8415 74.8606 57.5863 78.747L61.0459 80.7546C63.6896 76.199 64.955 70.9742 64.6886 65.7138L60.6938 65.916ZM56.3062 53.4646C58.9424 57.1032 60.4666 61.4285 60.6938 65.916L64.6886 65.7138C64.4223 60.4533 62.6357 55.3831 59.5454 51.1178L56.3062 53.4646ZM55.4294 52.2044C55.688 52.5848 55.9789 53.0129 56.3062 53.4646L59.5454 51.1178C59.2582 50.7214 58.9993 50.3408 58.7373 49.9554L55.4294 52.2044ZM55.4427 52.2238L55.4431 52.2243L58.7236 49.9355L58.7232 49.935L55.4427 52.2238ZM55.4186 52.1884L55.4189 52.1888L58.7471 49.97L58.7468 49.9696L55.4186 52.1884ZM55.436 52.2141L55.4363 52.2145L58.7291 49.9435L58.7289 49.9432L55.436 52.2141ZM55.4183 52.1879L55.4184 52.1881L58.7466 49.9693L58.7465 49.9691L55.4183 52.1879ZM54.0242 50.3477C54.4654 50.797 54.8523 51.3555 55.4284 52.203L58.7363 49.954C58.2055 49.1733 57.6177 48.2982 56.8784 47.5452L54.0242 50.3477ZM52.2568 48.8208C52.9054 49.3002 53.4975 49.8113 54.0242 50.3477L56.8784 47.5452C56.1924 46.8466 55.4387 46.1987 54.6344 45.6042L52.2568 48.8208ZM55.2445 48.1113C55.272 48.0399 55.2988 47.9684 55.3249 47.8969L51.5663 46.5281C51.5487 46.5766 51.5305 46.625 51.5118 46.6736L55.2445 48.1113ZM45.9951 53.9782C47.9806 54.743 50.0139 54.1369 51.5697 53.0351C53.1397 51.9233 54.4478 50.1797 55.2445 48.1113L51.5119 46.6735C50.9587 48.1095 50.1 49.1744 49.258 49.7708C48.4019 50.3771 47.778 50.3785 47.4329 50.2456L45.9951 53.9782ZM43.0717 43.4223C42.275 45.4906 42.0753 47.6612 42.4937 49.5389C42.9083 51.3997 44.0095 53.2133 45.9951 53.9782L47.4329 50.2456C47.0878 50.1126 46.6261 49.693 46.3979 48.669C46.1736 47.6619 46.2512 46.2961 46.8044 44.8602L43.0717 43.4223ZM43.3951 42.6601C43.2799 42.908 43.172 43.1622 43.0717 43.4223L46.8044 44.8602C46.8724 44.6836 46.9453 44.5119 47.0227 44.3455L43.3951 42.6601ZM34.8544 45.8549C37.6902 44.7336 41.247 44.6397 44.7584 45.4514L45.6593 41.5542C41.5763 40.6103 37.1584 40.6425 33.3835 42.1352L34.8544 45.8549ZM37.0778 45.6736C36.7615 44.675 36.3298 43.7502 35.81 42.9271L32.428 45.063C32.7606 45.5897 33.0492 46.2017 33.2645 46.8815L37.0778 45.6736ZM33.5171 56.0319C35.5456 55.3894 36.7552 53.6462 37.2823 51.8141C37.8142 49.9654 37.7471 47.7866 37.0778 45.6736L33.2645 46.8815C33.7292 48.3485 33.7236 49.7165 33.4383 50.7081C33.1482 51.7163 32.6618 52.107 32.3092 52.2186L33.5171 56.0319ZM24.756 49.9549C25.4605 51.973 26.6559 53.7063 28.1339 54.8486C29.602 55.9833 31.5445 56.6567 33.5171 56.0319L32.3092 52.2186C31.9651 52.3277 31.3691 52.2935 30.5799 51.6837C29.8006 51.0813 29.0199 50.0329 28.5325 48.6366L24.756 49.9549ZM25.9981 52.5039C26.801 51.8246 27.4232 51.2772 27.9698 50.7934L25.3186 47.7982C24.7814 48.2737 24.1844 48.7988 23.4144 49.4503L25.9981 52.5039ZM22.2289 55.1714C23.5231 54.4175 24.7875 53.5282 25.9981 52.5039L23.4144 49.4503C22.3807 50.3249 21.3068 51.0793 20.2154 51.7152L22.2289 55.1714ZM19.5171 63.0319C21.5136 62.3995 22.7182 60.6989 23.2569 58.9006C23.7998 57.0884 23.7596 54.9516 23.1386 52.8712L19.3057 54.0154C19.7361 55.457 19.7136 56.79 19.4252 57.7527C19.1326 58.7291 18.657 59.1085 18.3092 59.2186L19.5171 63.0319ZM10.7393 56.9068C11.4391 58.9383 12.6351 60.6837 14.1162 61.8349C15.587 62.978 17.5366 63.6592 19.5171 63.0319L18.3092 59.2186C17.9639 59.328 17.3641 59.2932 16.5709 58.6767C15.7881 58.0682 15.0056 57.0103 14.5212 55.604L10.7393 56.9068ZM-1.87735 43.0432C-2.43007 48.1417 -1.02175 52.212 1.85984 54.8985C4.69888 57.5453 8.68262 58.5817 12.7917 58.2489L12.4688 54.2619C9.1845 54.5279 6.40936 53.6713 4.58748 51.9728C2.80816 50.3139 1.65354 47.5866 2.09935 43.4744L-1.87735 43.0432ZM-1.81731 42.4894L-1.87735 43.0433L2.09935 43.4743L2.15939 42.9205L-1.81731 42.4894ZM3.21632 30.7592C0.635003 34.1787 -1.34941 38.1734 -1.81731 42.4894L2.15939 42.9205C2.52607 39.5381 4.11061 36.2136 6.40881 33.1692L3.21632 30.7592ZM6.41923 30.7732C6.202 30.4801 5.98795 30.1791 5.77774 29.8706L2.47202 32.1228C2.71212 32.4752 2.95697 32.8195 3.2059 33.1553L6.41923 30.7732ZM5.77774 29.8706C3.79643 26.9624 2.60239 24.0386 2.2112 21.7229C1.7883 19.2195 2.38538 18.214 2.76828 17.9531L0.51612 14.6474C-1.94127 16.3216 -2.20857 19.5735 -1.73292 22.3892C-1.22555 25.3926 0.241895 28.8494 2.47202 32.1228L5.77774 29.8706ZM2.76828 17.9531C3.13455 17.7036 4.21391 17.5094 6.27447 18.6931C8.18968 19.7934 10.3847 21.8038 12.341 24.5204L15.5869 22.183C13.3825 19.1217 10.7872 16.6726 8.26702 15.2247C5.89214 13.8604 2.89095 13.0294 0.51612 14.6474L2.76828 17.9531ZM26.325 15.2901C20.0975 17.2235 15.9634 19.5104 12.8169 21.7133L15.111 24.9901C17.9305 23.0161 21.6925 20.9166 27.511 19.1103L26.325 15.2901ZM28.8721 14.7643C28.0371 14.9038 27.2268 15.0677 26.4475 15.2563L27.3885 19.1441C28.0671 18.9798 28.7828 18.8347 29.5312 18.7097L28.8721 14.7643ZM26.9504 13.8126C26.9868 14.9102 27.0787 15.9799 27.2203 17.0095L31.183 16.4645C31.0605 15.5734 30.9801 14.6412 30.9481 13.6798L26.9504 13.8126ZM34.6525 -1.99533C31.6806 -1.89656 29.7141 0.707168 28.6087 3.3401C27.4296 6.14856 26.8188 9.85395 26.9504 13.8126L30.9481 13.6798C30.8313 10.1628 31.3878 7.05391 32.2969 4.88851C33.2797 2.54759 34.3222 2.01785 34.7853 2.00246L34.6525 -1.99533ZM43.3871 13.2664C43.2556 9.30769 42.4 5.65103 41.0371 2.92705C39.7593 0.373323 37.6243 -2.0941 34.6525 -1.99533L34.7853 2.00246C35.2484 1.98707 36.3238 2.44642 37.4599 4.71692C38.5108 6.81718 39.2724 9.88222 39.3893 13.3992L43.3871 13.2664Z" fill="black" mask="url(#path-1-inside-1_2294_3160)"/>
<circle cx="15.9982" cy="38.297" r="7.88489" fill="url(#paint0_linear_2294_3160)"/>
<circle cx="16.0034" cy="38.3081" r="4.97993" fill="#350F42"/>
<circle cx="16.0118" cy="38.3067" r="3.74616" fill="url(#paint1_linear_2294_3160)"/>
<circle cx="15.9971" cy="38.2979" r="1.89551" fill="#350F42"/>
<path d="M24.455 38.2969C25.03 38.2969 25.502 37.8293 25.4391 37.2578C25.204 35.1204 24.2486 33.1143 22.7136 31.5794C20.932 29.7978 18.5157 28.7969 15.9961 28.7969C13.4765 28.7969 11.0602 29.7978 9.27858 31.5794C7.74363 33.1143 6.78819 35.1204 6.55306 37.2578C6.49019 37.8293 6.96221 38.2969 7.53719 38.2969C8.11217 38.2969 8.57077 37.8285 8.6512 37.2591C8.87495 35.6753 9.60674 34.1959 10.7509 33.0517C12.142 31.6606 14.0288 30.8791 15.9961 30.8791C17.9634 30.8791 19.8502 31.6606 21.2413 33.0517C22.3854 34.1959 23.1172 35.6753 23.341 37.2591C23.4214 37.8285 23.88 38.2969 24.455 38.2969Z" fill="#350F42"/>
<circle cx="14.8383" cy="36.3989" r="1.16647" fill="white"/>
<circle cx="17.8977" cy="40.7298" r="0.538371" fill="white"/>
<circle cx="34.0018" cy="26.3006" r="4.56818" fill="url(#paint2_linear_2294_3160)"/>
<circle cx="34.0024" cy="26.307" r="2.88516" fill="#350F42"/>
<circle cx="34.0102" cy="26.3071" r="2.17037" fill="url(#paint3_linear_2294_3160)"/>
<circle cx="34.0005" cy="26.3013" r="1.09818" fill="#350F42"/>
<path d="M38.9007 26.3008C39.2339 26.3008 39.5073 26.0299 39.4709 25.6988C39.3347 24.4605 38.7811 23.2982 37.8918 22.4089C36.8597 21.3767 35.4597 20.7969 34 20.7969C32.5403 20.7969 31.1403 21.3767 30.1082 22.4089C29.2189 23.2982 28.6653 24.4605 28.5291 25.6988C28.4927 26.0299 28.7661 26.3008 29.0993 26.3008C29.4324 26.3008 29.6981 26.0294 29.7447 25.6996C29.8743 24.782 30.2983 23.9248 30.9612 23.2619C31.7671 22.456 32.8602 22.0032 34 22.0032C35.1398 22.0032 36.2329 22.456 37.0388 23.2619C37.7017 23.9248 38.1257 24.782 38.2553 25.6996C38.3019 26.0294 38.5676 26.3008 38.9007 26.3008Z" fill="#350F42"/>
<circle cx="33.3277" cy="25.2007" r="0.675325" fill="white"/>
<circle cx="35.1007" cy="27.7101" r="0.311688" fill="white"/>
<circle cx="54.0018" cy="37.3006" r="4.56818" fill="url(#paint4_linear_2294_3160)"/>
<circle cx="54.0024" cy="37.307" r="2.88516" fill="#350F42"/>
<circle cx="54.0102" cy="37.3071" r="2.17037" fill="url(#paint5_linear_2294_3160)"/>
<circle cx="54.0005" cy="37.3013" r="1.09818" fill="#350F42"/>
<path d="M58.9007 37.3008C59.2339 37.3008 59.5073 37.0299 59.4709 36.6988C59.3347 35.4605 58.7811 34.2982 57.8918 33.4089C56.8597 32.3767 55.4597 31.7969 54 31.7969C52.5403 31.7969 51.1403 32.3767 50.1082 33.4089C49.2189 34.2982 48.6653 35.4605 48.5291 36.6988C48.4927 37.0299 48.7661 37.3008 49.0993 37.3008C49.4324 37.3008 49.6981 37.0294 49.7447 36.6996C49.8743 35.782 50.2983 34.9248 50.9612 34.2619C51.7671 33.456 52.8602 33.0032 54 33.0032C55.1398 33.0032 56.2329 33.456 57.0388 34.2619C57.7017 34.9248 58.1257 35.782 58.2553 36.6996C58.3019 37.0294 58.5676 37.3008 58.9007 37.3008Z" fill="#350F42"/>
<circle cx="53.3277" cy="36.2007" r="0.675325" fill="white"/>
<circle cx="55.1007" cy="38.7101" r="0.311688" fill="white"/>
<circle cx="71.0035" cy="49.3003" r="7.05814" fill="url(#paint6_linear_2294_3160)"/>
<circle cx="71.0046" cy="49.3113" r="4.45777" fill="#350F42"/>
<circle cx="71.0174" cy="49.3104" r="3.35337" fill="url(#paint7_linear_2294_3160)"/>
<circle cx="71.0014" cy="49.3022" r="1.69677" fill="#350F42"/>
<path d="M78.572 49.3008C79.0867 49.3008 79.5092 48.8822 79.4529 48.3706C79.2424 46.4574 78.3872 44.6616 77.0132 43.2876C75.4184 41.6928 73.2554 40.7969 71 40.7969C68.7446 40.7969 66.5816 41.6928 64.9868 43.2876C63.6128 44.6616 62.7576 46.4574 62.5471 48.3706C62.4908 48.8822 62.9133 49.3008 63.428 49.3008C63.9427 49.3008 64.3532 48.8815 64.4252 48.3719C64.6255 46.9541 65.2806 45.6298 66.3048 44.6056C67.55 43.3603 69.239 42.6607 71 42.6607C72.761 42.6607 74.45 43.3603 75.6952 44.6056C76.7194 45.6298 77.3745 46.9541 77.5748 48.3719C77.6468 48.8815 78.0573 49.3008 78.572 49.3008Z" fill="#350F42"/>
<circle cx="69.9609" cy="47.6015" r="1.04294" fill="white"/>
<circle cx="72.7001" cy="51.4775" r="0.481358" fill="white"/>
<defs>
<linearGradient id="paint0_linear_2294_3160" x1="15.9982" y1="30.4121" x2="15.9982" y2="46.1819" gradientUnits="userSpaceOnUse">
<stop stop-color="#EBD6EB"/>
<stop offset="0.9999" stop-color="white"/>
</linearGradient>
<linearGradient id="paint1_linear_2294_3160" x1="16.0118" y1="34.5605" x2="16.0118" y2="42.0529" gradientUnits="userSpaceOnUse">
<stop stop-color="#853085"/>
<stop offset="1" stop-color="#9D4A9D"/>
</linearGradient>
<linearGradient id="paint2_linear_2294_3160" x1="34.0018" y1="21.7324" x2="34.0018" y2="30.8688" gradientUnits="userSpaceOnUse">
<stop stop-color="#EBD6EB"/>
<stop offset="0.9999" stop-color="white"/>
</linearGradient>
<linearGradient id="paint3_linear_2294_3160" x1="34.0102" y1="24.1367" x2="34.0102" y2="28.4775" gradientUnits="userSpaceOnUse">
<stop stop-color="#853085"/>
<stop offset="1" stop-color="#9D4A9D"/>
</linearGradient>
<linearGradient id="paint4_linear_2294_3160" x1="54.0018" y1="32.7324" x2="54.0018" y2="41.8688" gradientUnits="userSpaceOnUse">
<stop stop-color="#EBD6EB"/>
<stop offset="0.9999" stop-color="white"/>
</linearGradient>
<linearGradient id="paint5_linear_2294_3160" x1="54.0102" y1="35.1367" x2="54.0102" y2="39.4775" gradientUnits="userSpaceOnUse">
<stop stop-color="#853085"/>
<stop offset="1" stop-color="#9D4A9D"/>
</linearGradient>
<linearGradient id="paint6_linear_2294_3160" x1="71.0035" y1="42.2422" x2="71.0035" y2="56.3585" gradientUnits="userSpaceOnUse">
<stop stop-color="#EBD6EB"/>
<stop offset="0.9999" stop-color="white"/>
</linearGradient>
<linearGradient id="paint7_linear_2294_3160" x1="71.0174" y1="45.957" x2="71.0174" y2="52.6638" gradientUnits="userSpaceOnUse">
<stop stop-color="#853085"/>
<stop offset="1" stop-color="#9D4A9D"/>
</linearGradient>
</defs>
</svg>
