<svg width="83" height="125" viewBox="0 0 83 125" fill="none" xmlns="http://www.w3.org/2000/svg">
<mask id="path-1-inside-1_2247_3362" fill="white">
<path fill-rule="evenodd" clip-rule="evenodd" d="M47.198 15.3973C67.4218 18.2412 83 36.0075 83 57.5C83 71.9249 75.9827 84.6714 65.2533 92.3544C65.2541 92.5856 65.2545 92.8175 65.2545 93.05C65.2545 110.695 62.7982 125 59.7682 125C57.0228 125 54.7483 113.257 54.3453 97.925C50.3006 99.2719 45.9833 100 41.5 100C37.8589 100 34.3274 99.5198 30.9624 98.6179C30.5101 113.609 28.263 125 25.5591 125C22.5782 125 20.1525 111.155 20.0747 93.9054C8.04366 86.4636 0 72.9438 0 57.5C0 50.3106 1.74314 43.5381 4.82021 37.6017C3.02125 34.0001 2 29.8769 2 25.4955C2 11.4147 12.5478 0 25.5591 0C35.2556 0 43.5838 6.3394 47.198 15.3973Z"/>
</mask>
<path fill-rule="evenodd" clip-rule="evenodd" d="M47.198 15.3973C67.4218 18.2412 83 36.0075 83 57.5C83 71.9249 75.9827 84.6714 65.2533 92.3544C65.2541 92.5856 65.2545 92.8175 65.2545 93.05C65.2545 110.695 62.7982 125 59.7682 125C57.0228 125 54.7483 113.257 54.3453 97.925C50.3006 99.2719 45.9833 100 41.5 100C37.8589 100 34.3274 99.5198 30.9624 98.6179C30.5101 113.609 28.263 125 25.5591 125C22.5782 125 20.1525 111.155 20.0747 93.9054C8.04366 86.4636 0 72.9438 0 57.5C0 50.3106 1.74314 43.5381 4.82021 37.6017C3.02125 34.0001 2 29.8769 2 25.4955C2 11.4147 12.5478 0 25.5591 0C35.2556 0 43.5838 6.3394 47.198 15.3973Z" fill="#9A2B4E"/>
<path d="M47.198 15.3973L45.3404 16.1385L45.7704 17.2162L46.9195 17.3778L47.198 15.3973ZM65.2533 92.3544L64.0889 90.7283L63.2495 91.3293L63.2533 92.3617L65.2533 92.3544ZM54.3453 97.925L56.3446 97.8724L56.2737 95.1748L53.7133 96.0274L54.3453 97.925ZM30.9624 98.6179L31.4802 96.686L29.0396 96.0318L28.9633 98.5575L30.9624 98.6179ZM20.0747 93.9054L22.0746 93.8964L22.0696 92.7877L21.1268 92.2045L20.0747 93.9054ZM4.82021 37.6017L6.59585 38.5221L7.06421 37.6185L6.60943 36.708L4.82021 37.6017ZM85 57.5C85 35.0329 68.7095 16.4026 47.4765 13.4168L46.9195 17.3778C66.134 20.0798 81 36.9821 81 57.5H85ZM66.4177 93.9805C77.6592 85.9307 85 72.585 85 57.5H81C81 71.2648 74.3061 83.412 64.0889 90.7283L66.4177 93.9805ZM63.2533 92.3617C63.2541 92.5905 63.2545 92.82 63.2545 93.05H67.2545C67.2545 92.8151 67.2541 92.5808 67.2533 92.347L63.2533 92.3617ZM63.2545 93.05C63.2545 101.795 62.6449 109.664 61.6765 115.304C61.1895 118.139 60.6276 120.316 60.0506 121.737C59.7584 122.457 59.5075 122.868 59.3418 123.065C59.1607 123.281 59.2987 123 59.7682 123V127C60.9952 127 61.8727 126.272 62.4059 125.637C62.9545 124.983 63.3927 124.139 63.7568 123.242C64.4926 121.429 65.1129 118.926 65.6188 115.981C66.6361 110.056 67.2545 101.95 67.2545 93.05H63.2545ZM59.7682 123C60.1934 123 60.3503 123.235 60.2296 123.105C60.1112 122.978 59.9015 122.677 59.6419 122.102C59.1287 120.966 58.6099 119.192 58.1402 116.823C57.2072 112.118 56.5443 105.47 56.3446 97.8724L52.346 97.9775C52.5493 105.712 53.2252 112.601 54.2165 117.601C54.709 120.084 55.2987 122.204 55.9967 123.749C56.3427 124.515 56.7643 125.251 57.2973 125.826C57.8281 126.398 58.6566 127 59.7682 127V123ZM41.5 102C46.2012 102 50.7318 101.236 54.9772 99.8225L53.7133 96.0274C49.8695 97.3075 45.7654 98 41.5 98V102ZM30.4446 100.55C33.9767 101.496 37.6823 102 41.5 102V98C38.0356 98 34.678 97.5432 31.4802 96.686L30.4446 100.55ZM25.5591 127C26.6537 127 27.4745 126.415 28.0046 125.853C28.5353 125.29 28.9545 124.568 29.298 123.821C29.9905 122.313 30.5755 120.246 31.0653 117.828C32.0516 112.958 32.7333 106.241 32.9615 98.6782L28.9633 98.5575C28.7392 105.986 28.0712 112.46 27.1449 117.034C26.6784 119.337 26.1664 121.055 25.6629 122.151C25.4084 122.706 25.2049 122.991 25.0935 123.11C24.9813 123.229 25.1405 123 25.5591 123V127ZM18.0747 93.9144C18.1139 102.615 18.7445 110.508 19.7585 116.268C20.2626 119.132 20.8779 121.567 21.6072 123.331C21.9682 124.205 22.4034 125.03 22.9494 125.67C23.4823 126.294 24.3519 127 25.5591 127V123C26.0211 123 26.1628 123.273 25.9922 123.073C25.8346 122.889 25.5907 122.497 25.3039 121.803C24.7375 120.433 24.1826 118.328 23.6979 115.575C22.7344 110.101 22.1132 102.446 22.0746 93.8964L18.0747 93.9144ZM-2 57.5C-2 73.6504 6.41403 87.8073 19.0226 95.6063L21.1268 92.2045C9.67329 85.1199 2 72.2372 2 57.5H-2ZM3.04457 36.6813C-0.177138 42.8968 -2 49.9843 -2 57.5H2C2 50.6369 3.66342 44.1795 6.59585 38.5221L3.04457 36.6813ZM0 25.4955C0 30.1893 1.0944 34.6183 3.03099 38.4954L6.60943 36.708C4.94811 33.382 4 29.5645 4 25.4955H0ZM25.5591 -2C11.2974 -2 0 10.4618 0 25.4955H4C4 12.3676 13.7981 2 25.5591 2V-2ZM49.0556 14.6561C45.1772 4.93593 36.1745 -2 25.5591 -2V2C34.3366 2 41.9905 7.74287 45.3404 16.1385L49.0556 14.6561Z" fill="black" mask="url(#path-1-inside-1_2247_3362)"/>
<circle cx="25.0064" cy="21.9986" r="13.2798" fill="url(#paint0_linear_2247_3362)"/>
<circle cx="25.0122" cy="22.0181" r="8.38725" fill="#350F42"/>
<circle cx="25.0242" cy="22.0144" r="6.30933" fill="url(#paint1_linear_2247_3362)"/>
<circle cx="24.9967" cy="22.0006" r="3.19198" fill="#350F42"/>
<path d="M39.2466 22C40.215 22 41.01 21.2125 40.9041 20.25C40.5081 16.6502 38.8989 13.2715 36.3137 10.6863C33.3131 7.68571 29.2435 6 25 6C20.7565 6 16.6869 7.68571 13.6863 10.6863C11.1011 13.2715 9.49195 16.6502 9.09594 20.25C8.99005 21.2125 9.78503 22 10.7534 22C11.7218 22 12.4942 21.2111 12.6296 20.2522C13.0065 17.5848 14.239 15.093 16.166 13.166C18.5089 10.8231 21.6866 9.50684 25 9.50684C28.3134 9.50684 31.4911 10.8231 33.834 13.166C35.761 15.093 36.9935 17.5848 37.3703 20.2522C37.5058 21.2111 38.2782 22 39.2466 22Z" fill="#350F42"/>
<circle cx="23.0456" cy="18.8014" r="1.96355" fill="white"/>
<circle cx="28.2034" cy="26.096" r="0.906515" fill="white"/>
<defs>
<linearGradient id="paint0_linear_2247_3362" x1="25.0064" y1="8.71875" x2="25.0064" y2="35.2784" gradientUnits="userSpaceOnUse">
<stop stop-color="#EBD6EB"/>
<stop offset="0.9999" stop-color="white"/>
</linearGradient>
<linearGradient id="paint1_linear_2247_3362" x1="25.0242" y1="15.7051" x2="25.0242" y2="28.3237" gradientUnits="userSpaceOnUse">
<stop stop-color="#853085"/>
<stop offset="1" stop-color="#9D4A9D"/>
</linearGradient>
</defs>
</svg>
