<svg width="17" height="17" viewBox="0 0 17 17" fill="none" xmlns="http://www.w3.org/2000/svg">
<mask id="path-1-inside-1_2243_2538" fill="white">
<path d="M17 8.5C17 13.1944 13.1944 17 8.5 17C3.80558 17 0 13.1944 0 8.5C0 3.80558 3.80558 0 8.5 0C13.1944 0 17 3.80558 17 8.5ZM3.66722 8.5C3.66722 11.1691 5.83093 13.3328 8.5 13.3328C11.1691 13.3328 13.3328 11.1691 13.3328 8.5C13.3328 5.83093 11.1691 3.66722 8.5 3.66722C5.83093 3.66722 3.66722 5.83093 3.66722 8.5Z"/>
</mask>
<path d="M17 8.5C17 13.1944 13.1944 17 8.5 17C3.80558 17 0 13.1944 0 8.5C0 3.80558 3.80558 0 8.5 0C13.1944 0 17 3.80558 17 8.5ZM3.66722 8.5C3.66722 11.1691 5.83093 13.3328 8.5 13.3328C11.1691 13.3328 13.3328 11.1691 13.3328 8.5C13.3328 5.83093 11.1691 3.66722 8.5 3.66722C5.83093 3.66722 3.66722 5.83093 3.66722 8.5Z" fill="#53C1F9" stroke="#2E9DD4" stroke-width="0.8" mask="url(#path-1-inside-1_2243_2538)"/>
<path d="M15 8.5C15 12.0899 12.0899 15 8.5 15C4.91015 15 2 12.0899 2 8.5C2 4.91015 4.91015 2 8.5 2C12.0899 2 15 4.91015 15 8.5ZM3.85791 8.5C3.85791 11.0638 5.93624 13.1421 8.5 13.1421C11.0638 13.1421 13.1421 11.0638 13.1421 8.5C13.1421 5.93624 11.0638 3.85791 8.5 3.85791C5.93624 3.85791 3.85791 5.93624 3.85791 8.5Z" fill="#BDE9FF"/>
</svg>
