<svg width="13" height="14" viewBox="0 0 13 14" fill="none" xmlns="http://www.w3.org/2000/svg">
<path d="M13 7.5C13 9.22391 12.3152 10.8772 11.0962 12.0962C9.87721 13.3152 8.22391 14 6.5 14C4.77609 14 3.12279 13.3152 1.90381 12.0962C0.68482 10.8772 2.60303e-07 9.22391 0 7.5L1.85791 7.5C1.85791 8.73116 2.34698 9.9119 3.21754 10.7825C4.08811 11.653 5.26884 12.1421 6.5 12.1421C7.73116 12.1421 8.91189 11.653 9.78246 10.7825C10.653 9.91189 11.1421 8.73116 11.1421 7.5H13Z" fill="#FFE627"/>
<path d="M13 7.5C13 9.22391 12.3152 10.8772 11.0962 12.0962C9.87721 13.3152 8.22391 14 6.5 14C4.77609 14 3.12279 13.3152 1.90381 12.0962C0.68482 10.8772 2.60303e-07 9.22391 0 7.5H1.01962C1.01962 8.95349 1.59702 10.3474 2.62479 11.3752C3.65256 12.403 5.04651 12.9804 6.5 12.9804C7.95349 12.9804 9.34744 12.403 10.3752 11.3752C11.403 10.3474 11.9804 8.95349 11.9804 7.5H13Z" fill="#FFBB27"/>
<circle cx="6.5" cy="7" r="3.5" fill="url(#paint0_linear_2360_1897)"/>
<circle cx="6.50349" cy="7.0074" r="2.21053" fill="#350F42"/>
<circle cx="6.50662" cy="7.00662" r="1.66287" fill="url(#paint1_linear_2360_1897)"/>
<circle cx="6.50155" cy="6.99764" r="0.841394" fill="#350F42"/>
<circle cx="5.99044" cy="6.15841" r="0.517781" fill="white"/>
<circle cx="7.34009" cy="8.08032" r="0.238524" fill="white"/>
<path d="M13 6.5C13 4.77609 12.3152 3.12279 11.0962 1.90381C9.87721 0.684819 8.22391 0 6.5 0C4.77609 0 3.12279 0.684819 1.90381 1.90381C0.68482 3.12279 2.60303e-07 4.77609 0 6.5L1.85791 6.5C1.85791 5.26884 2.34698 4.0881 3.21754 3.21754C4.08811 2.34698 5.26884 1.85791 6.5 1.85791C7.73116 1.85791 8.91189 2.34698 9.78246 3.21754C10.653 4.08811 11.1421 5.26884 11.1421 6.5H13Z" fill="#FFE627"/>
<path d="M12 6.5C12 5.04131 11.4205 3.64236 10.3891 2.61091C9.35764 1.57946 7.95869 1 6.5 1C5.04131 1 3.64236 1.57946 2.61091 2.61091C1.57946 3.64236 1 5.04131 1 6.5L1.8736 6.5C1.8736 5.273 2.36102 4.09626 3.22864 3.22864C4.09626 2.36102 5.273 1.8736 6.5 1.8736C7.727 1.8736 8.90374 2.36102 9.77136 3.22864C10.639 4.09626 11.1264 5.273 11.1264 6.5H12Z" fill="#FFBB27"/>
<defs>
<linearGradient id="paint0_linear_2360_1897" x1="6.5" y1="3.5" x2="6.5" y2="10.5" gradientUnits="userSpaceOnUse">
<stop stop-color="#EBD6EB"/>
<stop offset="0.9999" stop-color="white"/>
</linearGradient>
<linearGradient id="paint1_linear_2360_1897" x1="6.50662" y1="5.34375" x2="6.50662" y2="8.6695" gradientUnits="userSpaceOnUse">
<stop stop-color="#853085"/>
<stop offset="1" stop-color="#9D4A9D"/>
</linearGradient>
</defs>
</svg>
