<svg width="154" height="103" viewBox="0 0 154 103" fill="none" xmlns="http://www.w3.org/2000/svg">
<mask id="path-1-inside-1_2248_3481" fill="white">
<path fill-rule="evenodd" clip-rule="evenodd" d="M92.1615 68.3529C87.0245 68.7768 81.6934 69 76.2266 69C70.3986 69 64.7249 68.7464 59.2762 68.2663C59.427 72.6764 59.4731 76.7858 59.4079 80.4772C59.2088 91.7485 57.9887 98.1997 56.0162 98.4118C54.0436 98.6239 51.48 92.5795 48.8894 81.6082C47.8432 77.1772 46.8271 72.0893 45.8762 66.5616C43.4758 66.1564 41.1408 65.7045 38.8789 65.2091C39.0752 69.1894 39.1786 72.9117 39.1825 76.2866C39.1954 87.5596 38.097 94.0327 36.1287 94.2818C34.1604 94.531 31.4836 88.5358 28.6872 77.6152C27.4714 72.8675 26.2763 67.358 25.1505 61.3569C10.1362 56.0565 0.726562 48.4503 0.726562 40C0.726562 23.9837 34.5291 11 76.2266 11C117.924 11 151.727 23.9837 151.727 40C151.727 48.7343 141.674 56.5668 125.77 61.8834C124.811 66.9069 123.805 71.5409 122.781 75.6153C120.034 86.5483 117.384 92.5555 115.415 92.3151C113.445 92.0748 112.318 85.6067 112.28 74.3338C112.271 71.5874 112.327 68.6107 112.444 65.4517C110.371 65.8878 108.239 66.2876 106.054 66.649C104.923 73.6948 103.68 80.15 102.392 85.6082C99.8016 96.5796 97.2384 102.624 95.2658 102.412C93.2932 102.2 92.0728 95.7491 91.8731 84.4778C91.7887 79.7148 91.8894 74.2559 92.1615 68.3529Z"/>
</mask>
<path fill-rule="evenodd" clip-rule="evenodd" d="M92.1615 68.3529C87.0245 68.7768 81.6934 69 76.2266 69C70.3986 69 64.7249 68.7464 59.2762 68.2663C59.427 72.6764 59.4731 76.7858 59.4079 80.4772C59.2088 91.7485 57.9887 98.1997 56.0162 98.4118C54.0436 98.6239 51.48 92.5795 48.8894 81.6082C47.8432 77.1772 46.8271 72.0893 45.8762 66.5616C43.4758 66.1564 41.1408 65.7045 38.8789 65.2091C39.0752 69.1894 39.1786 72.9117 39.1825 76.2866C39.1954 87.5596 38.097 94.0327 36.1287 94.2818C34.1604 94.531 31.4836 88.5358 28.6872 77.6152C27.4714 72.8675 26.2763 67.358 25.1505 61.3569C10.1362 56.0565 0.726562 48.4503 0.726562 40C0.726562 23.9837 34.5291 11 76.2266 11C117.924 11 151.727 23.9837 151.727 40C151.727 48.7343 141.674 56.5668 125.77 61.8834C124.811 66.9069 123.805 71.5409 122.781 75.6153C120.034 86.5483 117.384 92.5555 115.415 92.3151C113.445 92.0748 112.318 85.6067 112.28 74.3338C112.271 71.5874 112.327 68.6107 112.444 65.4517C110.371 65.8878 108.239 66.2876 106.054 66.649C104.923 73.6948 103.68 80.15 102.392 85.6082C99.8016 96.5796 97.2384 102.624 95.2658 102.412C93.2932 102.2 92.0728 95.7491 91.8731 84.4778C91.7887 79.7148 91.8894 74.2559 92.1615 68.3529Z" fill="#348E56"/>
<path d="M92.1615 68.3529L94.1594 68.445L94.2641 66.1726L91.997 66.3597L92.1615 68.3529ZM59.2762 68.2663L59.4517 66.274L57.2001 66.0756L57.2774 68.3346L59.2762 68.2663ZM59.4079 80.4772L61.4076 80.5126L59.4079 80.4772ZM48.8894 81.6082L46.943 82.0678V82.0678L48.8894 81.6082ZM45.8762 66.5616L47.8472 66.2225L47.6069 64.8255L46.2091 64.5895L45.8762 66.5616ZM38.8789 65.2091L39.3069 63.2554L36.7525 62.6959L36.8813 65.3076L38.8789 65.2091ZM39.1825 76.2866L37.1825 76.2889L39.1825 76.2866ZM36.1287 94.2818L35.8775 92.2977L35.8775 92.2977L36.1287 94.2818ZM28.6872 77.6152L30.6246 77.1191L28.6872 77.6152ZM25.1505 61.3569L27.1162 60.9882L26.9036 59.8549L25.8163 59.471L25.1505 61.3569ZM125.77 61.8834L125.136 59.9866L124.025 60.358L123.806 61.5085L125.77 61.8834ZM122.781 75.6153L124.721 76.1027L122.781 75.6153ZM115.415 92.3151L115.657 90.3299H115.657L115.415 92.3151ZM112.28 74.3338L110.28 74.3405V74.3405L112.28 74.3338ZM112.444 65.4517L114.443 65.5259L114.538 62.9675L112.032 63.4946L112.444 65.4517ZM106.054 66.649L105.728 64.6758L104.308 64.9106L104.08 66.3318L106.054 66.649ZM102.392 85.6082L104.338 86.0677L102.392 85.6082ZM95.2658 102.412L95.4795 100.424H95.4795L95.2658 102.412ZM91.8731 84.4778L93.8727 84.4424V84.4424L91.8731 84.4778ZM76.2266 71C81.7476 71 87.1336 70.7746 92.326 70.3461L91.997 66.3597C86.9154 66.779 81.6392 67 76.2266 67V71ZM59.1007 70.2585C64.6086 70.7439 70.3409 71 76.2266 71V67C70.4564 67 64.8412 66.7489 59.4517 66.274L59.1007 70.2585ZM61.4076 80.5126C61.4735 76.7799 61.4268 72.6352 61.275 68.1979L57.2774 68.3346C57.4273 72.7176 57.4727 76.7917 57.4082 80.4419L61.4076 80.5126ZM56.23 100.4C57.8295 100.228 58.703 98.8952 59.1484 97.9809C59.6577 96.9351 60.0413 95.5546 60.3422 93.9634C60.9497 90.751 61.3073 86.1896 61.4076 80.5126L57.4082 80.4419C57.3094 86.0361 56.9573 90.336 56.4119 93.2201C56.1364 94.677 55.8326 95.6536 55.5522 96.2293C55.2078 96.9364 55.1891 96.4892 55.8023 96.4233L56.23 100.4ZM46.943 82.0678C48.2478 87.5937 49.5668 91.9749 50.8433 94.9847C51.4756 96.4756 52.1439 97.743 52.8639 98.6566C53.4935 99.4553 54.6304 100.572 56.23 100.4L55.8023 96.4233C56.4156 96.3573 56.4924 96.7983 56.0055 96.1806C55.6091 95.6777 55.1047 94.788 54.5258 93.4229C53.3797 90.7206 52.1217 86.5939 50.8359 81.1486L46.943 82.0678ZM43.9051 66.9007C44.8613 72.4587 45.8852 77.5881 46.943 82.0678L50.8359 81.1486C49.8012 76.7663 48.793 71.7198 47.8472 66.2225L43.9051 66.9007ZM38.4509 67.1628C40.7455 67.6654 43.1122 68.1233 45.5432 68.5337L46.2091 64.5895C43.8393 64.1895 41.536 63.7437 39.3069 63.2554L38.4509 67.1628ZM41.1825 76.2843C41.1785 72.8716 41.074 69.1166 40.8765 65.1106L36.8813 65.3076C37.0763 69.2622 37.1786 72.9519 37.1825 76.2889L41.1825 76.2843ZM36.3799 96.266C37.9759 96.0639 38.8242 94.7146 39.2523 93.792C39.7419 92.7368 40.0994 91.3494 40.3703 89.7528C40.9173 86.5296 41.189 81.9622 41.1825 76.2843L37.1825 76.2889C37.1889 81.884 36.9178 86.1897 36.4267 89.0835C36.1786 90.5454 35.8933 91.5276 35.6238 92.1084C35.2928 92.8219 35.2656 92.3751 35.8775 92.2977L36.3799 96.266ZM26.7497 78.1113C28.1582 83.6117 29.5594 87.9673 30.8923 90.9526C31.5525 92.4313 32.2445 93.6859 32.9816 94.5858C33.6261 95.3726 34.7838 96.468 36.3799 96.266L35.8775 92.2977C36.4895 92.2202 36.5745 92.6597 36.0761 92.0512C35.6703 91.5558 35.1493 90.6758 34.5448 89.3218C33.3481 86.6416 32.0126 82.5393 30.6246 77.1191L26.7497 78.1113ZM23.1848 61.7257C24.3165 67.7584 25.5206 73.3118 26.7497 78.1113L30.6246 77.1191C29.4222 72.4233 28.2361 66.9577 27.1162 60.9882L23.1848 61.7257ZM-1.27344 40C-1.27344 45.0266 1.53141 49.5472 6.00756 53.379C10.4898 57.216 16.844 60.5455 24.4847 63.2429L25.8163 59.471C18.4427 56.8679 12.5849 53.7441 8.6088 50.3403C4.62655 46.9314 2.72656 43.4237 2.72656 40H-1.27344ZM76.2266 9C55.1968 9 36.0676 12.2706 22.1229 17.6269C15.1572 20.3025 9.38285 23.5373 5.31516 27.2313C1.24704 30.9257 -1.27344 35.2375 -1.27344 40H2.72656C2.72656 36.7543 4.4314 33.4371 8.00429 30.1925C11.5776 26.9474 16.86 23.9333 23.5571 21.3609C36.938 16.2212 55.5588 13 76.2266 13V9ZM153.727 40C153.727 35.2375 151.206 30.9257 147.138 27.2313C143.07 23.5373 137.296 20.3025 130.33 17.6269C116.385 12.2706 97.2563 9 76.2266 9V13C96.8943 13 115.515 16.2212 128.896 21.3609C135.593 23.9333 140.876 26.9474 144.449 30.1925C148.022 33.4371 149.727 36.7543 149.727 40H153.727ZM126.404 63.7803C134.489 61.0774 141.228 57.6919 145.985 53.7659C150.732 49.8491 153.727 45.1961 153.727 40H149.727C149.727 43.5382 147.695 47.1686 143.439 50.6808C139.194 54.1837 132.955 57.3728 125.136 59.9866L126.404 63.7803ZM124.721 76.1027C125.756 71.9833 126.771 67.3106 127.735 62.2583L123.806 61.5085C122.852 66.5031 121.854 71.0986 120.842 75.1278L124.721 76.1027ZM115.172 94.3004C116.769 94.4953 117.922 93.3947 118.563 92.605C119.296 91.7018 119.983 90.4441 120.636 88.9624C121.956 85.9712 123.337 81.6094 124.721 76.1027L120.842 75.1278C119.478 80.5542 118.161 84.6625 116.976 87.348C116.378 88.7047 115.861 89.5871 115.457 90.0843C114.962 90.695 115.045 90.2551 115.657 90.3299L115.172 94.3004ZM110.28 74.3405C110.299 80.0183 110.591 84.5844 111.153 87.8052C111.431 89.4006 111.795 90.7864 112.289 91.8393C112.721 92.76 113.576 94.1055 115.173 94.3004L115.657 90.3299C116.269 90.4046 116.244 90.8515 115.91 90.1395C115.638 89.5598 115.348 88.579 115.093 87.1182C114.589 84.2266 114.299 79.9222 114.28 74.3271L110.28 74.3405ZM110.445 65.3776C110.327 68.5589 110.271 71.563 110.28 74.3405L114.28 74.3271C114.271 71.6119 114.326 68.6624 114.443 65.5259L110.445 65.3776ZM106.38 68.6222C108.593 68.2563 110.754 67.8511 112.856 67.4089L112.032 63.4946C109.989 63.9245 107.885 64.319 105.728 64.6758L106.38 68.6222ZM104.338 86.0677C105.64 80.5506 106.892 74.046 108.029 66.9661L104.08 66.3318C102.953 73.3436 101.72 79.7494 100.445 85.1487L104.338 86.0677ZM95.0521 104.401C96.6517 104.573 97.7885 103.456 98.418 102.657C99.138 101.743 99.8062 100.476 100.438 98.9848C101.715 95.9749 103.034 91.5937 104.338 86.0677L100.445 85.1487C99.1596 90.5941 97.9018 94.7209 96.7559 97.4232C96.177 98.7883 95.6726 99.678 95.2763 100.181C94.7895 100.799 94.8662 100.358 95.4795 100.424L95.0521 104.401ZM89.8734 84.5133C89.974 90.1903 90.3318 94.7517 90.9394 97.964C91.2405 99.5552 91.6241 100.936 92.1335 101.981C92.5789 102.896 93.4525 104.229 95.0521 104.401L95.4795 100.424C96.0928 100.49 96.074 100.937 95.7296 100.23C95.4491 99.654 95.1454 98.6775 94.8697 97.2205C94.3241 94.3364 93.9719 90.0366 93.8727 84.4424L89.8734 84.5133ZM90.1636 68.2608C89.8901 74.1953 89.788 79.698 89.8734 84.5133L93.8727 84.4424C93.7893 79.7316 93.8888 74.3164 94.1594 68.445L90.1636 68.2608Z" fill="black" mask="url(#path-1-inside-1_2248_3481)"/>
<g filter="url(#filter0_d_2248_3481)">
<circle cx="69.1646" cy="13.4361" r="6.17239" fill="url(#paint0_linear_2248_3481)"/>
<circle cx="69.1679" cy="13.4452" r="3.89835" fill="#350F42"/>
<circle cx="69.1747" cy="13.4443" r="2.93254" fill="url(#paint1_linear_2248_3481)"/>
<circle cx="69.1635" cy="13.437" r="1.48383" fill="#350F42"/>
<path d="M75.785 13.4367C76.2351 13.4367 76.6046 13.0707 76.5554 12.6233C76.3714 10.9502 75.6234 9.37974 74.4218 8.17817C73.0272 6.78351 71.1356 6 69.1633 6C67.1909 6 65.2994 6.78351 63.9047 8.17816C62.7032 9.37974 61.9552 10.9502 61.7712 12.6233C61.7219 13.0707 62.0914 13.4367 62.5415 13.4367C62.9916 13.4367 63.3506 13.07 63.4136 12.6244C63.5888 11.3845 64.1616 10.2264 65.0573 9.33072C66.1463 8.24174 67.6232 7.62996 69.1633 7.62996C70.7033 7.62996 72.1803 8.24174 73.2693 9.33072C74.165 10.2264 74.7378 11.3845 74.913 12.6244C74.9759 13.07 75.3349 13.4367 75.785 13.4367Z" fill="#350F42"/>
<circle cx="68.2569" cy="11.9502" r="0.913127" fill="white"/>
<circle cx="70.6519" cy="15.3414" r="0.421443" fill="white"/>
<circle cx="40.2371" cy="25.5086" r="4.57304" fill="url(#paint2_linear_2248_3481)"/>
<circle cx="40.2398" cy="25.5152" r="2.88824" fill="#350F42"/>
<circle cx="40.243" cy="25.5145" r="2.17268" fill="url(#paint3_linear_2248_3481)"/>
<circle cx="40.2357" cy="25.5091" r="1.09896" fill="#350F42"/>
<path d="M45.1423 25.5098C45.4758 25.5098 45.7495 25.2386 45.7131 24.9071C45.5767 23.6675 45.0226 22.504 44.1323 21.6138C43.099 20.5805 41.6976 20 40.2363 20C38.775 20 37.3736 20.5805 36.3403 21.6138C35.4501 22.504 34.896 23.6675 34.7596 24.9071C34.7231 25.2386 34.9969 25.5098 35.3304 25.5098C35.6638 25.5098 35.9298 25.2381 35.9765 24.9079C36.1062 23.9893 36.5307 23.1313 37.1943 22.4677C38.0011 21.6609 39.0953 21.2076 40.2363 21.2076C41.3773 21.2076 42.4716 21.6609 43.2784 22.4677C43.942 23.1313 44.3664 23.9893 44.4962 24.9079C44.5428 25.2381 44.8088 25.5098 45.1423 25.5098Z" fill="#350F42"/>
<circle cx="39.5628" cy="24.4085" r="0.676044" fill="white"/>
<circle cx="41.3396" cy="26.9216" r="0.312242" fill="white"/>
<circle cx="87.1646" cy="16.4361" r="6.17239" fill="url(#paint4_linear_2248_3481)"/>
<circle cx="87.1679" cy="16.4452" r="3.89835" fill="#350F42"/>
<circle cx="87.1747" cy="16.4443" r="2.93254" fill="url(#paint5_linear_2248_3481)"/>
<circle cx="87.1635" cy="16.437" r="1.48383" fill="#350F42"/>
<path d="M93.785 16.4367C94.2351 16.4367 94.6046 16.0707 94.5554 15.6233C94.3714 13.9502 93.6234 12.3797 92.4218 11.1782C91.0272 9.78351 89.1356 9 87.1633 9C85.1909 9 83.2994 9.78351 81.9047 11.1782C80.7032 12.3797 79.9552 13.9502 79.7712 15.6233C79.7219 16.0707 80.0914 16.4367 80.5415 16.4367C80.9916 16.4367 81.3506 16.07 81.4136 15.6244C81.5888 14.3845 82.1616 13.2264 83.0573 12.3307C84.1463 11.2417 85.6232 10.63 87.1633 10.63C88.7033 10.63 90.1803 11.2417 91.2693 12.3307C92.165 13.2264 92.7378 14.3845 92.913 15.6244C92.9759 16.07 93.3349 16.4367 93.785 16.4367Z" fill="#350F42"/>
<circle cx="86.2569" cy="14.9502" r="0.913127" fill="white"/>
<circle cx="88.6519" cy="18.3414" r="0.421443" fill="white"/>
<circle cx="138.165" cy="31.4361" r="6.17239" fill="url(#paint6_linear_2248_3481)"/>
<circle cx="138.168" cy="31.4452" r="3.89835" fill="#350F42"/>
<circle cx="138.175" cy="31.4443" r="2.93254" fill="url(#paint7_linear_2248_3481)"/>
<circle cx="138.164" cy="31.437" r="1.48383" fill="#350F42"/>
<path d="M144.785 31.4367C145.235 31.4367 145.605 31.0707 145.555 30.6233C145.371 28.9502 144.623 27.3797 143.422 26.1782C142.027 24.7835 140.136 24 138.163 24C136.191 24 134.299 24.7835 132.905 26.1782C131.703 27.3797 130.955 28.9502 130.771 30.6233C130.722 31.0707 131.091 31.4367 131.542 31.4367C131.992 31.4367 132.351 31.07 132.414 30.6244C132.589 29.3845 133.162 28.2264 134.057 27.3307C135.146 26.2417 136.623 25.63 138.163 25.63C139.703 25.63 141.18 26.2417 142.269 27.3307C143.165 28.2264 143.738 29.3845 143.913 30.6244C143.976 31.07 144.335 31.4367 144.785 31.4367Z" fill="#350F42"/>
<circle cx="137.257" cy="29.9502" r="0.913127" fill="white"/>
<circle cx="139.652" cy="33.3414" r="0.421443" fill="white"/>
<circle cx="123.726" cy="23.9996" r="3.31995" fill="url(#paint8_linear_2248_3481)"/>
<circle cx="123.73" cy="24.005" r="2.09681" fill="#350F42"/>
<circle cx="123.734" cy="24.0031" r="1.57733" fill="url(#paint9_linear_2248_3481)"/>
<circle cx="123.728" cy="23.9993" r="0.798111" fill="#350F42"/>
<path d="M127.288 24C127.53 24 127.729 23.8031 127.703 23.5625C127.604 22.6626 127.201 21.8179 126.555 21.1716C125.805 20.4214 124.787 20 123.727 20C122.666 20 121.648 20.4214 120.898 21.1716C120.252 21.8179 119.85 22.6626 119.751 23.5625C119.724 23.8031 119.923 24 120.165 24C120.407 24 120.6 23.8028 120.634 23.5631C120.728 22.8962 121.036 22.2733 121.518 21.7915C122.104 21.2058 122.898 20.8767 123.727 20.8767C124.555 20.8767 125.349 21.2058 125.935 21.7915C126.417 22.2733 126.725 22.8962 126.819 23.5631C126.853 23.8028 127.046 24 127.288 24Z" fill="#350F42"/>
<circle cx="123.237" cy="23.2001" r="0.491145" fill="white"/>
<circle cx="124.527" cy="25.0236" r="0.226682" fill="white"/>
<circle cx="22.1646" cy="26.4361" r="6.17239" fill="url(#paint10_linear_2248_3481)"/>
<circle cx="22.1679" cy="26.4452" r="3.89835" fill="#350F42"/>
<circle cx="22.1747" cy="26.4443" r="2.93254" fill="url(#paint11_linear_2248_3481)"/>
<circle cx="22.1635" cy="26.437" r="1.48383" fill="#350F42"/>
<path d="M28.785 26.4367C29.2351 26.4367 29.6046 26.0707 29.5554 25.6233C29.3714 23.9502 28.6234 22.3797 27.4218 21.1782C26.0272 19.7835 24.1356 19 22.1633 19C20.1909 19 18.2994 19.7835 16.9047 21.1782C15.7032 22.3797 14.9552 23.9502 14.7712 25.6233C14.7219 26.0707 15.0914 26.4367 15.5415 26.4367C15.9916 26.4367 16.3506 26.07 16.4136 25.6244C16.5888 24.3845 17.1616 23.2264 18.0573 22.3307C19.1463 21.2417 20.6232 20.63 22.1633 20.63C23.7033 20.63 25.1803 21.2417 26.2693 22.3307C27.165 23.2264 27.7378 24.3845 27.913 25.6244C27.9759 26.07 28.3349 26.4367 28.785 26.4367Z" fill="#350F42"/>
<circle cx="21.2569" cy="24.9502" r="0.913127" fill="white"/>
<circle cx="23.6519" cy="28.3414" r="0.421443" fill="white"/>
</g>
<ellipse cx="75.7266" cy="48" rx="49" ry="13" fill="black"/>
<defs>
<filter id="filter0_d_2248_3481" x="6.76562" y="0" width="146.793" height="47.6094" filterUnits="userSpaceOnUse" color-interpolation-filters="sRGB">
<feFlood flood-opacity="0" result="BackgroundImageFix"/>
<feColorMatrix in="SourceAlpha" type="matrix" values="0 0 0 0 0 0 0 0 0 0 0 0 0 0 0 0 0 0 127 0" result="hardAlpha"/>
<feMorphology radius="4" operator="dilate" in="SourceAlpha" result="effect1_dropShadow_2248_3481"/>
<feOffset dy="2"/>
<feGaussianBlur stdDeviation="2"/>
<feComposite in2="hardAlpha" operator="out"/>
<feColorMatrix type="matrix" values="0 0 0 0 0.207843 0 0 0 0 0.0588235 0 0 0 0 0.258824 0 0 0 1 0"/>
<feBlend mode="normal" in2="BackgroundImageFix" result="effect1_dropShadow_2248_3481"/>
<feBlend mode="normal" in="SourceGraphic" in2="effect1_dropShadow_2248_3481" result="shape"/>
</filter>
<linearGradient id="paint0_linear_2248_3481" x1="69.1646" y1="7.26367" x2="69.1646" y2="19.6085" gradientUnits="userSpaceOnUse">
<stop stop-color="#EBD6EB"/>
<stop offset="0.9999" stop-color="white"/>
</linearGradient>
<linearGradient id="paint1_linear_2248_3481" x1="69.1747" y1="10.5117" x2="69.1747" y2="16.3768" gradientUnits="userSpaceOnUse">
<stop stop-color="#853085"/>
<stop offset="1" stop-color="#9D4A9D"/>
</linearGradient>
<linearGradient id="paint2_linear_2248_3481" x1="40.2371" y1="20.9355" x2="40.2371" y2="30.0816" gradientUnits="userSpaceOnUse">
<stop stop-color="#EBD6EB"/>
<stop offset="0.9999" stop-color="white"/>
</linearGradient>
<linearGradient id="paint3_linear_2248_3481" x1="40.243" y1="23.3418" x2="40.243" y2="27.6872" gradientUnits="userSpaceOnUse">
<stop stop-color="#853085"/>
<stop offset="1" stop-color="#9D4A9D"/>
</linearGradient>
<linearGradient id="paint4_linear_2248_3481" x1="87.1646" y1="10.2637" x2="87.1646" y2="22.6085" gradientUnits="userSpaceOnUse">
<stop stop-color="#EBD6EB"/>
<stop offset="0.9999" stop-color="white"/>
</linearGradient>
<linearGradient id="paint5_linear_2248_3481" x1="87.1747" y1="13.5117" x2="87.1747" y2="19.3768" gradientUnits="userSpaceOnUse">
<stop stop-color="#853085"/>
<stop offset="1" stop-color="#9D4A9D"/>
</linearGradient>
<linearGradient id="paint6_linear_2248_3481" x1="138.165" y1="25.2637" x2="138.165" y2="37.6085" gradientUnits="userSpaceOnUse">
<stop stop-color="#EBD6EB"/>
<stop offset="0.9999" stop-color="white"/>
</linearGradient>
<linearGradient id="paint7_linear_2248_3481" x1="138.175" y1="28.5117" x2="138.175" y2="34.3768" gradientUnits="userSpaceOnUse">
<stop stop-color="#853085"/>
<stop offset="1" stop-color="#9D4A9D"/>
</linearGradient>
<linearGradient id="paint8_linear_2248_3481" x1="123.726" y1="20.6797" x2="123.726" y2="27.3196" gradientUnits="userSpaceOnUse">
<stop stop-color="#EBD6EB"/>
<stop offset="0.9999" stop-color="white"/>
</linearGradient>
<linearGradient id="paint9_linear_2248_3481" x1="123.734" y1="22.4258" x2="123.734" y2="25.5804" gradientUnits="userSpaceOnUse">
<stop stop-color="#853085"/>
<stop offset="1" stop-color="#9D4A9D"/>
</linearGradient>
<linearGradient id="paint10_linear_2248_3481" x1="22.1646" y1="20.2637" x2="22.1646" y2="32.6085" gradientUnits="userSpaceOnUse">
<stop stop-color="#EBD6EB"/>
<stop offset="0.9999" stop-color="white"/>
</linearGradient>
<linearGradient id="paint11_linear_2248_3481" x1="22.1747" y1="23.5117" x2="22.1747" y2="29.3768" gradientUnits="userSpaceOnUse">
<stop stop-color="#853085"/>
<stop offset="1" stop-color="#9D4A9D"/>
</linearGradient>
</defs>
</svg>
