<svg width="154" height="101" viewBox="0 0 154 101" fill="none" xmlns="http://www.w3.org/2000/svg">
<mask id="path-1-inside-1_2248_3709" fill="white">
<path fill-rule="evenodd" clip-rule="evenodd" d="M85.4151 68.7874C82.4033 68.9278 79.3369 69 76.2266 69C72.1878 69 68.223 68.8782 64.3559 68.6436C65.2989 73.4205 66.0657 77.8762 66.6244 81.862C68.189 93.0258 67.992 99.5885 66.0768 100.106C64.1616 100.624 60.685 95.0543 56.4118 84.6226C54.364 79.6234 52.2136 73.7036 50.0748 67.2131C47.7581 66.8845 45.4949 66.5136 43.2915 66.1026C44.1433 70.1487 44.8549 73.9414 45.4037 77.3844C47.1781 88.5169 47.1046 95.0821 45.1994 95.6358C43.2943 96.1895 39.7136 90.6862 35.2449 80.3367C33.0349 75.2183 30.6973 69.122 28.3648 62.4294C11.4913 57.1109 0.726562 49.0383 0.726562 40C0.726562 23.9837 34.5291 11 76.2266 11C117.924 11 151.727 23.9837 151.727 40C151.727 49.8171 139.027 58.4949 119.593 63.7417C117.902 67.5186 116.245 71.0076 114.663 74.1174C109.551 84.1647 105.631 89.4314 103.764 88.7587C101.898 88.0861 102.238 81.5293 104.71 70.5308C104.986 69.3038 105.286 68.0327 105.609 66.722C103.301 67.0969 100.934 67.4289 98.5158 67.7155C97.1387 70.8558 95.7883 73.7795 94.487 76.4307C89.52 86.5505 85.6757 91.873 83.7998 91.2272C81.9239 90.5815 82.17 84.0205 84.4839 72.9876C84.7668 71.6389 85.0778 70.2369 85.4151 68.7874Z"/>
</mask>
<path fill-rule="evenodd" clip-rule="evenodd" d="M85.4151 68.7874C82.4033 68.9278 79.3369 69 76.2266 69C72.1878 69 68.223 68.8782 64.3559 68.6436C65.2989 73.4205 66.0657 77.8762 66.6244 81.862C68.189 93.0258 67.992 99.5885 66.0768 100.106C64.1616 100.624 60.685 95.0543 56.4118 84.6226C54.364 79.6234 52.2136 73.7036 50.0748 67.2131C47.7581 66.8845 45.4949 66.5136 43.2915 66.1026C44.1433 70.1487 44.8549 73.9414 45.4037 77.3844C47.1781 88.5169 47.1046 95.0821 45.1994 95.6358C43.2943 96.1895 39.7136 90.6862 35.2449 80.3367C33.0349 75.2183 30.6973 69.122 28.3648 62.4294C11.4913 57.1109 0.726562 49.0383 0.726562 40C0.726562 23.9837 34.5291 11 76.2266 11C117.924 11 151.727 23.9837 151.727 40C151.727 49.8171 139.027 58.4949 119.593 63.7417C117.902 67.5186 116.245 71.0076 114.663 74.1174C109.551 84.1647 105.631 89.4314 103.764 88.7587C101.898 88.0861 102.238 81.5293 104.71 70.5308C104.986 69.3038 105.286 68.0327 105.609 66.722C103.301 67.0969 100.934 67.4289 98.5158 67.7155C97.1387 70.8558 95.7883 73.7795 94.487 76.4307C89.52 86.5505 85.6757 91.873 83.7998 91.2272C81.9239 90.5815 82.17 84.0205 84.4839 72.9876C84.7668 71.6389 85.0778 70.2369 85.4151 68.7874Z" fill="#348E56"/>
<path d="M85.4151 68.7874L87.363 69.2407L87.9621 66.6665L85.322 66.7896L85.4151 68.7874ZM64.3559 68.6436L64.477 66.6473L61.8923 66.4905L62.3938 69.0309L64.3559 68.6436ZM66.6244 81.862L64.6437 82.1395L66.6244 81.862ZM66.0768 100.106L66.5987 102.037L66.0768 100.106ZM56.4118 84.6226L54.5611 85.3808L56.4118 84.6226ZM50.0748 67.2131L51.9744 66.5872L51.5856 65.4074L50.3557 65.2329L50.0748 67.2131ZM43.2915 66.1026L43.6581 64.1365L40.7182 63.5882L41.3344 66.5147L43.2915 66.1026ZM45.4037 77.3844L47.3788 77.0696L45.4037 77.3844ZM45.1994 95.6358L44.6413 93.7152H44.6413L45.1994 95.6358ZM35.2449 80.3367L37.0811 79.5439L35.2449 80.3367ZM28.3648 62.4294L30.2534 61.7712L29.9232 60.8236L28.9661 60.5219L28.3648 62.4294ZM119.593 63.7417L119.072 61.8109L118.156 62.0582L117.768 62.9241L119.593 63.7417ZM114.663 74.1174L112.88 73.2105V73.2105L114.663 74.1174ZM103.764 88.7587L104.442 86.8772L104.442 86.8772L103.764 88.7587ZM104.71 70.5308L102.759 70.0922L102.759 70.0922L104.71 70.5308ZM105.609 66.722L107.551 67.1999L108.273 64.263L105.288 64.7479L105.609 66.722ZM98.5158 67.7155L98.2804 65.7294L97.1438 65.8641L96.6842 66.9123L98.5158 67.7155ZM94.487 76.4307L92.6916 75.5495L94.487 76.4307ZM83.7998 91.2272L84.4507 89.3361H84.4507L83.7998 91.2272ZM84.4839 72.9876L86.4414 73.3981L84.4839 72.9876ZM76.2266 71C79.3678 71 82.4653 70.927 85.5082 70.7852L85.322 66.7896C82.3414 66.9285 79.306 67 76.2266 67V71ZM64.2348 70.6399C68.1425 70.877 72.1477 71 76.2266 71V67C72.2279 67 68.3036 66.8794 64.477 66.6473L64.2348 70.6399ZM68.605 81.5844C68.0402 77.5544 67.2666 73.0613 66.3181 68.2563L62.3938 69.0309C63.3312 73.7798 64.0913 78.1981 64.6437 82.1395L68.605 81.5844ZM66.5987 102.037C68.1518 101.617 68.8062 100.164 69.1032 99.1911C69.4429 98.0786 69.6061 96.6551 69.6546 95.0364C69.7527 91.7686 69.3931 87.2073 68.605 81.5844L64.6437 82.1395C65.4203 87.6805 65.7445 91.9825 65.6564 94.9164C65.612 96.3985 65.4646 97.4106 65.2776 98.023C65.0479 98.7753 64.9595 98.3365 65.5549 98.1755L66.5987 102.037ZM54.5611 85.3808C56.7134 90.6349 58.7008 94.7562 60.432 97.5295C61.2895 98.9033 62.1476 100.051 63.0016 100.841C63.7482 101.531 65.0457 102.457 66.5987 102.037L65.5549 98.1755C66.1504 98.0146 66.2951 98.4381 65.7177 97.9041C65.2476 97.4692 64.6103 96.6693 63.8252 95.4114C62.2709 92.9215 60.3835 89.0421 58.2626 83.8645L54.5611 85.3808ZM48.1753 67.8391C50.3246 74.3617 52.4911 80.3273 54.5611 85.3808L58.2626 83.8645C56.2369 78.9194 54.1025 73.0456 51.9744 66.5872L48.1753 67.8391ZM42.9248 68.0687C45.1575 68.4851 47.4494 68.8608 49.794 69.1933L50.3557 65.2329C48.0668 64.9083 45.8322 64.542 43.6581 64.1365L42.9248 68.0687ZM47.3788 77.0696C46.8238 73.588 46.1058 69.7624 45.2485 65.6906L41.3344 66.5147C42.1808 70.5351 42.886 74.2948 43.4286 77.6992L47.3788 77.0696ZM45.7576 97.5563C47.3025 97.1074 47.9294 95.642 48.2081 94.6639C48.5268 93.5452 48.6631 92.1189 48.6813 90.4995C48.7178 87.2305 48.2725 82.6767 47.3788 77.0696L43.4286 77.6992C44.3093 83.2246 44.7144 87.5197 44.6815 90.4548C44.6649 91.9375 44.5366 92.9521 44.3611 93.568C44.1456 94.3244 44.049 93.8874 44.6413 93.7152L45.7576 97.5563ZM33.4088 81.1295C35.6595 86.3423 37.7241 90.4254 39.5071 93.1657C40.3903 94.5231 41.2699 95.6541 42.1385 96.4278C42.898 97.1042 44.2127 98.0053 45.7576 97.5563L44.6413 93.7152C45.2336 93.5431 45.3863 93.9639 44.7989 93.4408C44.3207 93.0149 43.6686 92.2271 42.8599 90.9842C41.2591 88.5239 39.299 84.6807 37.0811 79.5439L33.4088 81.1295ZM26.4762 63.0876C28.82 69.8127 31.1749 75.9559 33.4088 81.1295L37.0811 79.5439C34.8949 74.4808 32.5746 68.4312 30.2534 61.7712L26.4762 63.0876ZM-1.27344 40C-1.27344 45.3773 1.93177 50.1707 6.97422 54.1758C12.034 58.1946 19.1937 61.6357 27.7636 64.3369L28.9661 60.5219C20.6624 57.9046 14.003 54.6502 9.46202 51.0435C4.90373 47.4231 2.72656 43.6611 2.72656 40H-1.27344ZM76.2266 9C55.1968 9 36.0676 12.2706 22.1229 17.6269C15.1572 20.3025 9.38285 23.5373 5.31516 27.2313C1.24704 30.9257 -1.27344 35.2375 -1.27344 40H2.72656C2.72656 36.7543 4.4314 33.4371 8.00429 30.1925C11.5776 26.9474 16.86 23.9333 23.5571 21.3609C36.938 16.2212 55.5588 13 76.2266 13V9ZM153.727 40C153.727 35.2375 151.206 30.9257 147.138 27.2313C143.07 23.5373 137.296 20.3025 130.33 17.6269C116.385 12.2706 97.2563 9 76.2266 9V13C96.8943 13 115.515 16.2212 128.896 21.3609C135.593 23.9333 140.876 26.9474 144.449 30.1925C148.022 33.4371 149.727 36.7543 149.727 40H153.727ZM120.115 65.6726C129.965 63.0131 138.25 59.4501 144.119 55.2054C149.953 50.9873 153.727 45.8403 153.727 40H149.727C149.727 43.9768 147.151 48.0773 141.776 51.9641C136.437 55.8243 128.655 59.2235 119.072 61.8109L120.115 65.6726ZM116.445 75.0244C118.045 71.8797 119.716 68.3602 121.419 64.5594L117.768 62.9241C116.087 66.6769 114.445 70.1355 112.88 73.2105L116.445 75.0244ZM103.086 90.6403C104.6 91.1857 105.968 90.3693 106.769 89.7421C107.685 89.0247 108.634 87.9513 109.601 86.6523C111.553 84.0298 113.871 80.0849 116.445 75.0244L112.88 73.2105C110.343 78.1973 108.145 81.9093 106.392 84.2638C105.507 85.4533 104.806 86.1984 104.302 86.5933C103.683 87.0784 103.862 86.6681 104.442 86.8772L103.086 90.6403ZM102.759 70.0922C101.514 75.6318 100.782 80.1484 100.613 83.4133C100.529 85.0306 100.575 86.4626 100.823 87.5992C101.039 88.5929 101.572 90.0948 103.086 90.6403L104.442 86.8772C105.022 87.0863 104.898 87.5164 104.731 86.7479C104.595 86.1222 104.531 85.1015 104.607 83.6207C104.76 80.6894 105.435 76.4283 106.662 70.9694L102.759 70.0922ZM103.667 66.2441C103.341 67.5668 103.038 68.851 102.759 70.0922L106.662 70.9694C106.934 69.7566 107.231 68.4986 107.551 67.1999L103.667 66.2441ZM98.7512 69.7016C101.197 69.4117 103.592 69.0757 105.929 68.6961L105.288 64.7479C103.009 65.118 100.671 65.4461 98.2804 65.7294L98.7512 69.7016ZM96.2824 77.3119C97.5984 74.6307 98.9609 71.6806 100.347 68.5187L96.6842 66.9123C95.3166 70.031 93.9782 72.9282 92.6916 75.5495L96.2824 77.3119ZM83.1489 93.1183C84.6701 93.642 86.027 92.8059 86.8185 92.1673C87.7238 91.4368 88.6574 90.3499 89.6056 89.0371C91.5198 86.3868 93.7807 82.409 96.2824 77.3119L92.6916 75.5495C90.2264 80.5722 88.0816 84.3155 86.363 86.695C85.4947 87.897 84.805 88.6522 84.3067 89.0543C83.6945 89.5482 83.8675 89.1354 84.4507 89.3361L83.1489 93.1183ZM82.5265 72.577C81.361 78.134 80.6946 82.6607 80.5721 85.9277C80.5114 87.546 80.5781 88.9772 80.842 90.1101C81.0727 91.1006 81.6277 92.5947 83.1489 93.1183L84.4507 89.3361C85.034 89.5369 84.9162 89.9687 84.7377 89.2027C84.5925 88.579 84.5137 87.5593 84.5692 86.0776C84.6793 83.1444 85.2929 78.8741 86.4414 73.3981L82.5265 72.577ZM83.4671 68.3341C83.1268 69.7965 82.8127 71.2128 82.5265 72.577L86.4414 73.3981C86.721 72.065 87.0287 70.6773 87.363 69.2407L83.4671 68.3341Z" fill="black" mask="url(#path-1-inside-1_2248_3709)"/>
<g filter="url(#filter0_d_2248_3709)">
<circle cx="69.1646" cy="13.4361" r="6.17239" fill="url(#paint0_linear_2248_3709)"/>
<circle cx="69.1679" cy="13.4452" r="3.89835" fill="#350F42"/>
<circle cx="69.1747" cy="13.4443" r="2.93254" fill="url(#paint1_linear_2248_3709)"/>
<circle cx="69.1635" cy="13.437" r="1.48383" fill="#350F42"/>
<path d="M75.785 13.4367C76.2351 13.4367 76.6046 13.0707 76.5554 12.6233C76.3714 10.9502 75.6234 9.37974 74.4218 8.17817C73.0272 6.78351 71.1356 6 69.1633 6C67.1909 6 65.2994 6.78351 63.9047 8.17816C62.7032 9.37974 61.9552 10.9502 61.7712 12.6233C61.7219 13.0707 62.0914 13.4367 62.5415 13.4367C62.9916 13.4367 63.3506 13.07 63.4136 12.6244C63.5888 11.3845 64.1616 10.2264 65.0573 9.33072C66.1463 8.24174 67.6232 7.62996 69.1633 7.62996C70.7033 7.62996 72.1803 8.24174 73.2693 9.33072C74.165 10.2264 74.7378 11.3845 74.913 12.6244C74.9759 13.07 75.3349 13.4367 75.785 13.4367Z" fill="#350F42"/>
<circle cx="68.2569" cy="11.9502" r="0.913127" fill="white"/>
<circle cx="70.6519" cy="15.3414" r="0.421443" fill="white"/>
<circle cx="40.2371" cy="25.5086" r="4.57304" fill="url(#paint2_linear_2248_3709)"/>
<circle cx="40.2398" cy="25.5152" r="2.88824" fill="#350F42"/>
<circle cx="40.243" cy="25.5145" r="2.17268" fill="url(#paint3_linear_2248_3709)"/>
<circle cx="40.2357" cy="25.5091" r="1.09896" fill="#350F42"/>
<path d="M45.1423 25.5098C45.4758 25.5098 45.7495 25.2386 45.7131 24.9071C45.5767 23.6675 45.0226 22.504 44.1323 21.6138C43.099 20.5805 41.6976 20 40.2363 20C38.775 20 37.3736 20.5805 36.3403 21.6138C35.4501 22.504 34.896 23.6675 34.7596 24.9071C34.7231 25.2386 34.9969 25.5098 35.3304 25.5098C35.6638 25.5098 35.9298 25.2381 35.9765 24.9079C36.1062 23.9893 36.5307 23.1313 37.1943 22.4677C38.0011 21.6609 39.0953 21.2076 40.2363 21.2076C41.3773 21.2076 42.4716 21.6609 43.2784 22.4677C43.942 23.1313 44.3664 23.9893 44.4962 24.9079C44.5428 25.2381 44.8088 25.5098 45.1423 25.5098Z" fill="#350F42"/>
<circle cx="39.5628" cy="24.4085" r="0.676044" fill="white"/>
<circle cx="41.3396" cy="26.9216" r="0.312242" fill="white"/>
<circle cx="87.1646" cy="16.4361" r="6.17239" fill="url(#paint4_linear_2248_3709)"/>
<circle cx="87.1679" cy="16.4452" r="3.89835" fill="#350F42"/>
<circle cx="87.1747" cy="16.4443" r="2.93254" fill="url(#paint5_linear_2248_3709)"/>
<circle cx="87.1635" cy="16.437" r="1.48383" fill="#350F42"/>
<path d="M93.785 16.4367C94.2351 16.4367 94.6046 16.0707 94.5554 15.6233C94.3714 13.9502 93.6234 12.3797 92.4218 11.1782C91.0272 9.78351 89.1356 9 87.1633 9C85.1909 9 83.2994 9.78351 81.9047 11.1782C80.7032 12.3797 79.9552 13.9502 79.7712 15.6233C79.7219 16.0707 80.0914 16.4367 80.5415 16.4367C80.9916 16.4367 81.3506 16.07 81.4136 15.6244C81.5888 14.3845 82.1616 13.2264 83.0573 12.3307C84.1463 11.2417 85.6232 10.63 87.1633 10.63C88.7033 10.63 90.1803 11.2417 91.2693 12.3307C92.165 13.2264 92.7378 14.3845 92.913 15.6244C92.9759 16.07 93.3349 16.4367 93.785 16.4367Z" fill="#350F42"/>
<circle cx="86.2569" cy="14.9502" r="0.913127" fill="white"/>
<circle cx="88.6519" cy="18.3414" r="0.421443" fill="white"/>
<circle cx="138.165" cy="31.4361" r="6.17239" fill="url(#paint6_linear_2248_3709)"/>
<circle cx="138.168" cy="31.4452" r="3.89835" fill="#350F42"/>
<circle cx="138.175" cy="31.4443" r="2.93254" fill="url(#paint7_linear_2248_3709)"/>
<circle cx="138.164" cy="31.437" r="1.48383" fill="#350F42"/>
<path d="M144.785 31.4367C145.235 31.4367 145.605 31.0707 145.555 30.6233C145.371 28.9502 144.623 27.3797 143.422 26.1782C142.027 24.7835 140.136 24 138.163 24C136.191 24 134.299 24.7835 132.905 26.1782C131.703 27.3797 130.955 28.9502 130.771 30.6233C130.722 31.0707 131.091 31.4367 131.542 31.4367C131.992 31.4367 132.351 31.07 132.414 30.6244C132.589 29.3845 133.162 28.2264 134.057 27.3307C135.146 26.2417 136.623 25.63 138.163 25.63C139.703 25.63 141.18 26.2417 142.269 27.3307C143.165 28.2264 143.738 29.3845 143.913 30.6244C143.976 31.07 144.335 31.4367 144.785 31.4367Z" fill="#350F42"/>
<circle cx="137.257" cy="29.9502" r="0.913127" fill="white"/>
<circle cx="139.652" cy="33.3414" r="0.421443" fill="white"/>
<circle cx="123.726" cy="23.9996" r="3.31995" fill="url(#paint8_linear_2248_3709)"/>
<circle cx="123.73" cy="24.005" r="2.09681" fill="#350F42"/>
<circle cx="123.734" cy="24.0031" r="1.57733" fill="url(#paint9_linear_2248_3709)"/>
<circle cx="123.728" cy="23.9993" r="0.798111" fill="#350F42"/>
<path d="M127.288 24C127.53 24 127.729 23.8031 127.703 23.5625C127.604 22.6626 127.201 21.8179 126.555 21.1716C125.805 20.4214 124.787 20 123.727 20C122.666 20 121.648 20.4214 120.898 21.1716C120.252 21.8179 119.85 22.6626 119.751 23.5625C119.724 23.8031 119.923 24 120.165 24C120.407 24 120.6 23.8028 120.634 23.5631C120.728 22.8962 121.036 22.2733 121.518 21.7915C122.104 21.2058 122.898 20.8767 123.727 20.8767C124.555 20.8767 125.349 21.2058 125.935 21.7915C126.417 22.2733 126.725 22.8962 126.819 23.5631C126.853 23.8028 127.046 24 127.288 24Z" fill="#350F42"/>
<circle cx="123.237" cy="23.2001" r="0.491145" fill="white"/>
<circle cx="124.527" cy="25.0236" r="0.226682" fill="white"/>
<circle cx="22.1646" cy="26.4361" r="6.17239" fill="url(#paint10_linear_2248_3709)"/>
<circle cx="22.1679" cy="26.4452" r="3.89835" fill="#350F42"/>
<circle cx="22.1747" cy="26.4443" r="2.93254" fill="url(#paint11_linear_2248_3709)"/>
<circle cx="22.1635" cy="26.437" r="1.48383" fill="#350F42"/>
<path d="M28.785 26.4367C29.2351 26.4367 29.6046 26.0707 29.5554 25.6233C29.3714 23.9502 28.6234 22.3797 27.4218 21.1782C26.0272 19.7835 24.1356 19 22.1633 19C20.1909 19 18.2994 19.7835 16.9047 21.1782C15.7032 22.3797 14.9552 23.9502 14.7712 25.6233C14.7219 26.0707 15.0914 26.4367 15.5415 26.4367C15.9916 26.4367 16.3506 26.07 16.4136 25.6244C16.5888 24.3845 17.1616 23.2264 18.0573 22.3307C19.1463 21.2417 20.6232 20.63 22.1633 20.63C23.7033 20.63 25.1803 21.2417 26.2693 22.3307C27.165 23.2264 27.7378 24.3845 27.913 25.6244C27.9759 26.07 28.3349 26.4367 28.785 26.4367Z" fill="#350F42"/>
<circle cx="21.2569" cy="24.9502" r="0.913127" fill="white"/>
<circle cx="23.6519" cy="28.3414" r="0.421443" fill="white"/>
</g>
<ellipse cx="75.7266" cy="48" rx="49" ry="13" fill="black"/>
<defs>
<filter id="filter0_d_2248_3709" x="6.76562" y="0" width="146.793" height="47.6094" filterUnits="userSpaceOnUse" color-interpolation-filters="sRGB">
<feFlood flood-opacity="0" result="BackgroundImageFix"/>
<feColorMatrix in="SourceAlpha" type="matrix" values="0 0 0 0 0 0 0 0 0 0 0 0 0 0 0 0 0 0 127 0" result="hardAlpha"/>
<feMorphology radius="4" operator="dilate" in="SourceAlpha" result="effect1_dropShadow_2248_3709"/>
<feOffset dy="2"/>
<feGaussianBlur stdDeviation="2"/>
<feComposite in2="hardAlpha" operator="out"/>
<feColorMatrix type="matrix" values="0 0 0 0 0.207843 0 0 0 0 0.0588235 0 0 0 0 0.258824 0 0 0 1 0"/>
<feBlend mode="normal" in2="BackgroundImageFix" result="effect1_dropShadow_2248_3709"/>
<feBlend mode="normal" in="SourceGraphic" in2="effect1_dropShadow_2248_3709" result="shape"/>
</filter>
<linearGradient id="paint0_linear_2248_3709" x1="69.1646" y1="7.26367" x2="69.1646" y2="19.6085" gradientUnits="userSpaceOnUse">
<stop stop-color="#EBD6EB"/>
<stop offset="0.9999" stop-color="white"/>
</linearGradient>
<linearGradient id="paint1_linear_2248_3709" x1="69.1747" y1="10.5117" x2="69.1747" y2="16.3768" gradientUnits="userSpaceOnUse">
<stop stop-color="#853085"/>
<stop offset="1" stop-color="#9D4A9D"/>
</linearGradient>
<linearGradient id="paint2_linear_2248_3709" x1="40.2371" y1="20.9355" x2="40.2371" y2="30.0816" gradientUnits="userSpaceOnUse">
<stop stop-color="#EBD6EB"/>
<stop offset="0.9999" stop-color="white"/>
</linearGradient>
<linearGradient id="paint3_linear_2248_3709" x1="40.243" y1="23.3418" x2="40.243" y2="27.6872" gradientUnits="userSpaceOnUse">
<stop stop-color="#853085"/>
<stop offset="1" stop-color="#9D4A9D"/>
</linearGradient>
<linearGradient id="paint4_linear_2248_3709" x1="87.1646" y1="10.2637" x2="87.1646" y2="22.6085" gradientUnits="userSpaceOnUse">
<stop stop-color="#EBD6EB"/>
<stop offset="0.9999" stop-color="white"/>
</linearGradient>
<linearGradient id="paint5_linear_2248_3709" x1="87.1747" y1="13.5117" x2="87.1747" y2="19.3768" gradientUnits="userSpaceOnUse">
<stop stop-color="#853085"/>
<stop offset="1" stop-color="#9D4A9D"/>
</linearGradient>
<linearGradient id="paint6_linear_2248_3709" x1="138.165" y1="25.2637" x2="138.165" y2="37.6085" gradientUnits="userSpaceOnUse">
<stop stop-color="#EBD6EB"/>
<stop offset="0.9999" stop-color="white"/>
</linearGradient>
<linearGradient id="paint7_linear_2248_3709" x1="138.175" y1="28.5117" x2="138.175" y2="34.3768" gradientUnits="userSpaceOnUse">
<stop stop-color="#853085"/>
<stop offset="1" stop-color="#9D4A9D"/>
</linearGradient>
<linearGradient id="paint8_linear_2248_3709" x1="123.726" y1="20.6797" x2="123.726" y2="27.3196" gradientUnits="userSpaceOnUse">
<stop stop-color="#EBD6EB"/>
<stop offset="0.9999" stop-color="white"/>
</linearGradient>
<linearGradient id="paint9_linear_2248_3709" x1="123.734" y1="22.4258" x2="123.734" y2="25.5804" gradientUnits="userSpaceOnUse">
<stop stop-color="#853085"/>
<stop offset="1" stop-color="#9D4A9D"/>
</linearGradient>
<linearGradient id="paint10_linear_2248_3709" x1="22.1646" y1="20.2637" x2="22.1646" y2="32.6085" gradientUnits="userSpaceOnUse">
<stop stop-color="#EBD6EB"/>
<stop offset="0.9999" stop-color="white"/>
</linearGradient>
<linearGradient id="paint11_linear_2248_3709" x1="22.1747" y1="23.5117" x2="22.1747" y2="29.3768" gradientUnits="userSpaceOnUse">
<stop stop-color="#853085"/>
<stop offset="1" stop-color="#9D4A9D"/>
</linearGradient>
</defs>
</svg>
