<svg width="78" height="48" viewBox="0 0 78 48" fill="none" xmlns="http://www.w3.org/2000/svg">
<mask id="path-1-inside-1_0_1" fill="white">
<path fill-rule="evenodd" clip-rule="evenodd" d="M64.937 16.3963C66.1601 14.9149 66.8555 13.2149 66.8555 11.4072C66.8555 5.65945 59.8255 1 51.1537 1C43.5785 1 37.2561 4.55557 35.7783 9.28619C32.5399 9.60001 29.4571 10.2305 26.6041 11.1286C24.7519 7.57748 19.6631 5.02717 13.6757 5.02717C6.12282 5.02717 0 9.08541 0 14.0915C0 18.3057 4.33905 21.8483 10.2176 22.8635C8.8508 25.235 8.10228 27.8083 8.10228 30.4973C8.10228 32.0537 8.35308 33.4396 8.8294 34.6729C5.3915 35.8412 3.03886 38.2137 3.03886 40.9504C3.03886 44.844 7.80105 48.0004 13.6755 48.0004C18.3129 48.0004 22.2571 46.0335 23.7127 43.2896C26.1193 43.6758 28.7315 43.9284 31.4956 44.0856C33.2366 46.406 36.85 48.0004 41.0252 48.0004C45.2397 48.0004 48.8817 46.3758 50.6035 44.0199C53.296 43.8396 55.8333 43.5612 58.1637 43.1481C60.0059 45.2474 63.4366 46.6586 67.3647 46.6586C73.2391 46.6586 78.0013 43.5022 78.0013 39.6086C78.0013 36.9735 75.8201 34.6761 72.5891 33.4662C72.8171 32.553 72.9352 31.5653 72.9352 30.4973C72.9352 25.0983 69.9176 20.1655 64.937 16.3963Z"/>
</mask>
<path fill-rule="evenodd" clip-rule="evenodd" d="M64.937 16.3963C66.1601 14.9149 66.8555 13.2149 66.8555 11.4072C66.8555 5.65945 59.8255 1 51.1537 1C43.5785 1 37.2561 4.55557 35.7783 9.28619C32.5399 9.60001 29.4571 10.2305 26.6041 11.1286C24.7519 7.57748 19.6631 5.02717 13.6757 5.02717C6.12282 5.02717 0 9.08541 0 14.0915C0 18.3057 4.33905 21.8483 10.2176 22.8635C8.8508 25.235 8.10228 27.8083 8.10228 30.4973C8.10228 32.0537 8.35308 33.4396 8.8294 34.6729C5.3915 35.8412 3.03886 38.2137 3.03886 40.9504C3.03886 44.844 7.80105 48.0004 13.6755 48.0004C18.3129 48.0004 22.2571 46.0335 23.7127 43.2896C26.1193 43.6758 28.7315 43.9284 31.4956 44.0856C33.2366 46.406 36.85 48.0004 41.0252 48.0004C45.2397 48.0004 48.8817 46.3758 50.6035 44.0199C53.296 43.8396 55.8333 43.5612 58.1637 43.1481C60.0059 45.2474 63.4366 46.6586 67.3647 46.6586C73.2391 46.6586 78.0013 43.5022 78.0013 39.6086C78.0013 36.9735 75.8201 34.6761 72.5891 33.4662C72.8171 32.553 72.9352 31.5653 72.9352 30.4973C72.9352 25.0983 69.9176 20.1655 64.937 16.3963Z" fill="#5657AB"/>
<path d="M64.937 16.3963L63.3948 15.1228L62.0662 16.7319L63.7301 17.991L64.937 16.3963ZM35.7783 9.28619L35.9712 11.2769L37.2917 11.1489L37.6873 9.88255L35.7783 9.28619ZM26.6041 11.1286L24.8308 12.0535L25.6059 13.5395L27.2046 13.0363L26.6041 11.1286ZM10.2176 22.8635L11.9504 23.8622L13.3808 21.3802L10.5579 20.8927L10.2176 22.8635ZM8.8294 34.6729L9.4729 36.5666L11.4458 35.8962L10.6951 33.9524L8.8294 34.6729ZM23.7127 43.2896L24.0295 41.3149L22.6165 41.0882L21.9459 42.3524L23.7127 43.2896ZM31.4956 44.0856L33.0953 42.8852L32.5373 42.1416L31.6091 42.0888L31.4956 44.0856ZM50.6035 44.0199L50.4699 42.0244L49.5391 42.0867L48.9887 42.8398L50.6035 44.0199ZM58.1637 43.1481L59.6669 41.8289L58.9238 40.9821L57.8145 41.1788L58.1637 43.1481ZM72.5891 33.4662L70.6487 32.9817L70.2164 34.7133L71.8878 35.3392L72.5891 33.4662ZM64.8555 11.4072C64.8555 12.6754 64.3733 13.9378 63.3948 15.1228L66.4792 17.6697C67.9469 15.8921 68.8555 13.7543 68.8555 11.4072H64.8555ZM51.1537 3C55.1522 3 58.6812 4.07786 61.1516 5.71526C63.6371 7.36264 64.8555 9.41554 64.8555 11.4072H68.8555C68.8555 7.65109 66.5589 4.5004 63.3615 2.38113C60.149 0.251868 55.8271 -1 51.1537 -1V3ZM37.6873 9.88255C38.2263 8.1574 39.7271 6.44025 42.1376 5.12468C44.5274 3.82044 47.6668 3 51.1537 3V-1C47.0654 -1 43.256 -0.0426522 40.2214 1.61355C37.2074 3.25842 34.8082 5.68436 33.8693 8.68983L37.6873 9.88255ZM27.2046 13.0363C29.9207 12.1813 32.8666 11.5777 35.9712 11.2769L35.5854 7.29552C32.2132 7.6223 28.9936 8.27967 26.0036 9.22087L27.2046 13.0363ZM13.6757 7.02717C19.2453 7.02717 23.4521 9.41027 24.8308 12.0535L28.3774 10.2037C26.0516 5.7447 20.081 3.02717 13.6757 3.02717V7.02717ZM2 14.0915C2 12.4707 2.99163 10.7535 5.11046 9.34912C7.21423 7.95473 10.2367 7.02717 13.6757 7.02717V3.02717C9.56181 3.02717 5.74644 4.12873 2.90058 6.01498C0.069784 7.89125 -2 10.7062 -2 14.0915H2ZM10.5579 20.8927C7.90311 20.4342 5.69641 19.4195 4.19606 18.1502C2.69966 16.8843 2 15.4631 2 14.0915H-2C-2 16.9342 -0.530141 19.3913 1.61261 21.204C3.75142 23.0134 6.65349 24.2776 9.87719 24.8343L10.5579 20.8927ZM10.1023 30.4973C10.1023 28.1916 10.7416 25.9596 11.9504 23.8622L8.48474 21.8648C6.96003 24.5104 6.10228 27.4251 6.10228 30.4973H10.1023ZM10.6951 33.9524C10.3173 32.9741 10.1023 31.8358 10.1023 30.4973H6.10228C6.10228 32.2716 6.38889 33.9051 6.9637 35.3935L10.6951 33.9524ZM5.03886 40.9504C5.03886 39.4665 6.39361 37.613 9.4729 36.5666L8.18589 32.7793C4.38938 34.0694 1.03886 36.961 1.03886 40.9504H5.03886ZM13.6755 46.0004C11.0757 46.0004 8.81301 45.2983 7.2592 44.2685C5.69033 43.2286 5.03886 42.015 5.03886 40.9504H1.03886C1.03886 43.7794 2.76849 46.0909 5.04932 47.6026C7.34522 49.1243 10.4008 50.0004 13.6755 50.0004V46.0004ZM21.9459 42.3524C20.9657 44.2 17.8946 46.0004 13.6755 46.0004V50.0004C18.7312 50.0004 23.5484 47.867 25.4795 44.2269L21.9459 42.3524ZM31.6091 42.0888C28.8919 41.9343 26.3507 41.6873 24.0295 41.3149L23.3958 45.2644C25.888 45.6642 28.571 45.9225 31.382 46.0823L31.6091 42.0888ZM41.0252 46.0004C37.2677 46.0004 34.3475 44.5541 33.0953 42.8852L29.8958 45.2859C32.1257 48.2578 36.4323 50.0004 41.0252 50.0004V46.0004ZM48.9887 42.8398C47.7567 44.5256 44.8211 46.0004 41.0252 46.0004V50.0004C45.6583 50.0004 50.0067 48.226 52.2182 45.2L48.9887 42.8398ZM57.8145 41.1788C55.5743 41.576 53.1122 41.8475 50.4699 42.0244L50.7371 46.0155C53.4798 45.8318 56.0922 45.5465 58.5128 45.1174L57.8145 41.1788ZM67.3647 44.6586C63.8458 44.6586 61.0319 43.3843 59.6669 41.8289L56.6604 44.4673C58.9799 47.1104 63.0274 48.6586 67.3647 48.6586V44.6586ZM76.0013 39.6086C76.0013 40.6732 75.3498 41.8868 73.781 42.9267C72.2272 43.9565 69.9644 44.6586 67.3647 44.6586V48.6586C70.6393 48.6586 73.6949 47.7825 75.9908 46.2608C78.2717 44.7491 80.0013 42.4376 80.0013 39.6086H76.0013ZM71.8878 35.3392C74.7558 36.4131 76.0013 38.1793 76.0013 39.6086H80.0013C80.0013 35.7677 76.8845 32.939 73.2905 31.5932L71.8878 35.3392ZM70.9352 30.4973C70.9352 31.4172 70.8336 32.2411 70.6487 32.9817L74.5296 33.9507C74.8007 32.8649 74.9352 31.7133 74.9352 30.4973H70.9352ZM63.7301 17.991C68.3706 21.5029 70.9352 25.9008 70.9352 30.4973H74.9352C74.9352 24.2958 71.4646 18.8281 66.1439 14.8015L63.7301 17.991Z" fill="black" mask="url(#path-1-inside-1_0_1)"/>
<g filter="url(#filter0_d_0_1)">
<circle cx="51.1747" cy="13.1766" r="5.95593" fill="url(#paint0_linear_0_1)"/>
<circle cx="51.1835" cy="13.1855" r="3.76164" fill="#350F42"/>
<circle cx="51.1852" cy="13.1871" r="2.8297" fill="url(#paint1_linear_0_1)"/>
<circle cx="51.174" cy="13.1759" r="1.4318" fill="#350F42"/>
<path d="M57.5654 13.1759C57.9998 13.1759 58.3563 12.8227 58.3088 12.391C58.1312 10.7766 57.4095 9.26122 56.2501 8.10178C54.9043 6.75603 53.0791 6 51.1759 6C49.2727 6 47.4475 6.75603 46.1018 8.10178C44.9423 9.26122 44.2206 10.7766 44.043 12.391C43.9955 12.8227 44.3521 13.1759 44.7864 13.1759C45.2207 13.1759 45.5671 12.8221 45.6279 12.3921C45.7969 11.1957 46.3497 10.0782 47.2139 9.21392C48.2647 8.16313 49.6899 7.5728 51.1759 7.5728C52.662 7.5728 54.0871 8.16313 55.1379 9.21392C56.0022 10.0782 56.5549 11.1957 56.724 12.3921C56.7847 12.8221 57.1311 13.1759 57.5654 13.1759Z" fill="#350F42"/>
<circle cx="50.303" cy="11.7444" r="0.881105" fill="white"/>
<circle cx="52.6098" cy="15.0141" r="0.406664" fill="white"/>
</g>
<g filter="url(#filter1_d_0_1)">
<circle cx="14.6758" cy="14.6758" r="4.71095" fill="url(#paint2_linear_0_1)"/>
<circle cx="14.6824" cy="14.6843" r="2.97533" fill="#350F42"/>
<circle cx="14.6835" cy="14.6855" r="2.2382" fill="url(#paint3_linear_0_1)"/>
<circle cx="14.6755" cy="14.6755" r="1.1325" fill="#350F42"/>
<path d="M19.7298 14.6759C20.0734 14.6759 20.3554 14.3966 20.3178 14.0551C20.1773 12.7781 19.6065 11.5795 18.6894 10.6624C17.625 9.598 16.1813 9 14.6759 9C13.1706 9 11.7269 9.598 10.6624 10.6624C9.74536 11.5795 9.17452 12.7781 9.03403 14.0551C8.99647 14.3966 9.27849 14.6759 9.62202 14.6759C9.96555 14.6759 10.2395 14.3961 10.2876 14.0559C10.4213 13.1096 10.8585 12.2257 11.5421 11.5421C12.3732 10.711 13.5005 10.244 14.6759 10.244C15.8513 10.244 16.9786 10.711 17.8097 11.5421C18.4933 12.2257 18.9306 13.1096 19.0642 14.0559C19.1123 14.3961 19.3863 14.6759 19.7298 14.6759Z" fill="#350F42"/>
<circle cx="13.986" cy="13.5446" r="0.696925" fill="white"/>
<circle cx="15.8099" cy="16.1303" r="0.321658" fill="white"/>
</g>
<defs>
<filter id="filter0_d_0_1" x="36.0391" y="0" width="30.2734" height="29.1328" filterUnits="userSpaceOnUse" color-interpolation-filters="sRGB">
<feFlood flood-opacity="0" result="BackgroundImageFix"/>
<feColorMatrix in="SourceAlpha" type="matrix" values="0 0 0 0 0 0 0 0 0 0 0 0 0 0 0 0 0 0 127 0" result="hardAlpha"/>
<feMorphology radius="4" operator="dilate" in="SourceAlpha" result="effect1_dropShadow_0_1"/>
<feOffset dy="2"/>
<feGaussianBlur stdDeviation="2"/>
<feComposite in2="hardAlpha" operator="out"/>
<feColorMatrix type="matrix" values="0 0 0 0 0.207843 0 0 0 0 0.0588235 0 0 0 0 0.258824 0 0 0 1 0"/>
<feBlend mode="normal" in2="BackgroundImageFix" result="effect1_dropShadow_0_1"/>
<feBlend mode="normal" in="SourceGraphic" in2="effect1_dropShadow_0_1" result="shape"/>
</filter>
<filter id="filter1_d_0_1" x="1.03125" y="3" width="27.2891" height="26.3867" filterUnits="userSpaceOnUse" color-interpolation-filters="sRGB">
<feFlood flood-opacity="0" result="BackgroundImageFix"/>
<feColorMatrix in="SourceAlpha" type="matrix" values="0 0 0 0 0 0 0 0 0 0 0 0 0 0 0 0 0 0 127 0" result="hardAlpha"/>
<feMorphology radius="4" operator="dilate" in="SourceAlpha" result="effect1_dropShadow_0_1"/>
<feOffset dy="2"/>
<feGaussianBlur stdDeviation="2"/>
<feComposite in2="hardAlpha" operator="out"/>
<feColorMatrix type="matrix" values="0 0 0 0 0.207843 0 0 0 0 0.0588235 0 0 0 0 0.258824 0 0 0 1 0"/>
<feBlend mode="normal" in2="BackgroundImageFix" result="effect1_dropShadow_0_1"/>
<feBlend mode="normal" in="SourceGraphic" in2="effect1_dropShadow_0_1" result="shape"/>
</filter>
<linearGradient id="paint0_linear_0_1" x1="51.1747" y1="7.2207" x2="51.1747" y2="19.1326" gradientUnits="userSpaceOnUse">
<stop stop-color="#EBD6EB"/>
<stop offset="0.9999" stop-color="white"/>
</linearGradient>
<linearGradient id="paint1_linear_0_1" x1="51.1852" y1="10.3574" x2="51.1852" y2="16.0168" gradientUnits="userSpaceOnUse">
<stop stop-color="#853085"/>
<stop offset="1" stop-color="#9D4A9D"/>
</linearGradient>
<linearGradient id="paint2_linear_0_1" x1="14.6758" y1="9.96484" x2="14.6758" y2="19.3867" gradientUnits="userSpaceOnUse">
<stop stop-color="#EBD6EB"/>
<stop offset="0.9999" stop-color="white"/>
</linearGradient>
<linearGradient id="paint3_linear_0_1" x1="14.6835" y1="12.4473" x2="14.6835" y2="16.9237" gradientUnits="userSpaceOnUse">
<stop stop-color="#853085"/>
<stop offset="1" stop-color="#9D4A9D"/>
</linearGradient>
</defs>
</svg>
