<svg width="88" height="37" viewBox="0 0 88 37" fill="none" xmlns="http://www.w3.org/2000/svg">
<mask id="path-1-inside-1_0_1" fill="white">
<path fill-rule="evenodd" clip-rule="evenodd" d="M75.7702 14.5028C76.5653 13.4127 77 12.2324 77 11C77 5.47715 68.2696 1 57.5 1C49.2731 1 42.2361 3.61266 39.3718 7.3083C35.272 7.53848 31.378 8.05372 27.7988 8.80676C25.5641 5.9777 20.4507 4 14.5 4C6.49187 4 0 7.58172 0 12C0 15.1007 3.1972 17.7893 7.87193 19.1172C6.94568 20.54 6.45005 22.0414 6.45005 23.593C6.45005 24.0844 6.49976 24.5536 6.59712 25.0016C3.23366 26.1532 1 28.1853 1 30.5C1 34.0899 6.37258 37 13 37C17.7764 37 21.9011 35.4884 23.8324 33.3002C26.8664 33.6481 30.1977 33.8688 33.7433 34.0011C35.7747 35.7782 39.99 36.9993 44.8606 36.9993C49.7772 36.9993 54.0259 35.7551 56.0348 33.9508C60.4193 33.7581 64.451 33.4189 67.966 32.8571C70.0705 34.1731 73.1144 35 76.5 35C82.8513 35 88 32.0899 88 28.5C88 26.0467 85.5954 23.9109 82.0458 22.8044C81.7124 19.7429 79.4482 16.9009 75.7702 14.5028Z"/>
</mask>
<path fill-rule="evenodd" clip-rule="evenodd" d="M75.7702 14.5028C76.5653 13.4127 77 12.2324 77 11C77 5.47715 68.2696 1 57.5 1C49.2731 1 42.2361 3.61266 39.3718 7.3083C35.272 7.53848 31.378 8.05372 27.7988 8.80676C25.5641 5.9777 20.4507 4 14.5 4C6.49187 4 0 7.58172 0 12C0 15.1007 3.1972 17.7893 7.87193 19.1172C6.94568 20.54 6.45005 22.0414 6.45005 23.593C6.45005 24.0844 6.49976 24.5536 6.59712 25.0016C3.23366 26.1532 1 28.1853 1 30.5C1 34.0899 6.37258 37 13 37C17.7764 37 21.9011 35.4884 23.8324 33.3002C26.8664 33.6481 30.1977 33.8688 33.7433 34.0011C35.7747 35.7782 39.99 36.9993 44.8606 36.9993C49.7772 36.9993 54.0259 35.7551 56.0348 33.9508C60.4193 33.7581 64.451 33.4189 67.966 32.8571C70.0705 34.1731 73.1144 35 76.5 35C82.8513 35 88 32.0899 88 28.5C88 26.0467 85.5954 23.9109 82.0458 22.8044C81.7124 19.7429 79.4482 16.9009 75.7702 14.5028Z" fill="#5657AB"/>
<path d="M75.7702 14.5028L74.1544 13.3243L72.9124 15.027L74.6779 16.1781L75.7702 14.5028ZM39.3718 7.3083L39.484 9.30515L40.3942 9.25405L40.9527 8.53347L39.3718 7.3083ZM27.7988 8.80676L26.2294 10.0465L26.9977 11.0191L28.2106 10.7639L27.7988 8.80676ZM7.87193 19.1172L9.54807 20.2083L11.0282 17.9346L8.41842 17.1933L7.87193 19.1172ZM6.59712 25.0016L7.24497 26.8938L8.92967 26.317L8.5515 24.5769L6.59712 25.0016ZM23.8324 33.3002L24.0602 31.3132L23.0235 31.1944L22.333 31.9767L23.8324 33.3002ZM33.7433 34.0011L35.0601 32.4958L34.5264 32.029L33.8178 32.0025L33.7433 34.0011ZM56.0348 33.9508L55.947 31.9528L55.2313 31.9842L54.6984 32.4629L56.0348 33.9508ZM67.966 32.8571L69.0264 31.1613L68.3907 30.7638L67.6503 30.8821L67.966 32.8571ZM82.0458 22.8044L80.0575 23.0209L80.1994 24.3237L81.4506 24.7138L82.0458 22.8044ZM75 11C75 11.7377 74.7452 12.5141 74.1544 13.3243L77.3861 15.6813C78.3854 14.3112 79 12.7271 79 11H75ZM57.5 3C62.6345 3 67.1838 4.07154 70.3759 5.70857C73.6738 7.39979 75 9.37766 75 11H79C79 7.0995 75.9609 4.07736 72.2012 2.1493C68.3358 0.167033 63.1351 -1 57.5 -1V3ZM40.9527 8.53347C42.0648 7.09854 44.15 5.69667 47.0931 4.65334C50.0015 3.62233 53.5888 3 57.5 3V-1C53.1842 -1 49.1396 -0.316005 45.7567 0.883226C42.4085 2.07014 39.5431 3.82242 37.791 6.08313L40.9527 8.53347ZM28.2106 10.7639C31.6852 10.0329 35.4787 9.53002 39.484 9.30515L39.2597 5.31144C35.0653 5.54693 31.0708 6.07457 27.3871 6.84961L28.2106 10.7639ZM14.5 6C20.1583 6 24.5356 7.90221 26.2294 10.0465L29.3683 7.56705C26.5926 4.0532 20.743 2 14.5 2V6ZM2 12C2 10.8541 2.86691 9.38876 5.21311 8.0943C7.48864 6.83883 10.7682 6 14.5 6V2C10.2237 2 6.25323 2.95203 3.2808 4.59199C0.379029 6.19297 -2 8.72762 -2 12H2ZM8.41842 17.1933C6.28563 16.5875 4.61085 15.7023 3.50914 14.7263C2.41093 13.7534 2 12.8111 2 12H-2C-2 14.2896 -0.812332 16.2419 0.85674 17.7204C2.52231 19.1959 4.78351 20.319 7.32544 21.0411L8.41842 17.1933ZM8.45005 23.593C8.45005 22.4875 8.79871 21.3594 9.54807 20.2083L6.19579 18.0261C5.09265 19.7207 4.45005 21.5953 4.45005 23.593H8.45005ZM8.5515 24.5769C8.48593 24.2751 8.45005 23.9486 8.45005 23.593H4.45005C4.45005 24.2202 4.5136 24.8321 4.64275 25.4263L8.5515 24.5769ZM3 30.5C3 30.0321 3.21788 29.4349 3.92357 28.7562C4.63673 28.0704 5.75604 27.4036 7.24497 26.8938L5.94927 23.1094C4.07474 23.7513 2.39549 24.6763 1.15096 25.8731C-0.10105 27.0771 -1 28.6532 -1 30.5H3ZM13 35C9.95283 35 7.29326 34.3267 5.46728 33.3376C3.56255 32.3059 3 31.2128 3 30.5H-1C-1 33.3771 1.12374 35.534 3.56215 36.8548C6.07932 38.2182 9.41975 39 13 39V35ZM22.333 31.9767C20.9356 33.5599 17.4869 35 13 35V39C18.066 39 22.8665 37.417 25.3319 34.6237L22.333 31.9767ZM33.8178 32.0025C30.3055 31.8714 27.0281 31.6535 24.0602 31.3132L23.6046 35.2872C26.7047 35.6426 30.0899 35.8662 33.6687 35.9997L33.8178 32.0025ZM44.8606 34.9993C42.5852 34.9993 40.4938 34.7132 38.7679 34.2383C37.0116 33.755 35.7654 33.1129 35.0601 32.4958L32.4264 35.5064C33.7525 36.6665 35.6297 37.5234 37.7066 38.0949C39.8138 38.6748 42.2654 38.9993 44.8606 38.9993V34.9993ZM54.6984 32.4629C54.0093 33.0818 52.7689 33.7331 51.0018 34.2249C49.2669 34.7078 47.1577 34.9993 44.8606 34.9993V38.9993C47.4801 38.9993 49.9536 38.6687 52.0744 38.0784C54.163 37.4971 56.0514 36.6242 57.3712 35.4388L54.6984 32.4629ZM67.6503 30.8821C64.2384 31.4275 60.2895 31.7618 55.947 31.9528L56.1227 35.9489C60.5491 35.7543 64.6635 35.4103 68.2817 34.832L67.6503 30.8821ZM76.5 33C73.4069 33 70.7496 32.2389 69.0264 31.1613L66.9056 34.5528C69.3913 36.1072 72.8218 37 76.5 37V33ZM86 28.5C86 29.2564 85.4374 30.3434 83.6476 31.3551C81.9186 32.3323 79.3956 33 76.5 33V37C79.9556 37 83.1827 36.2126 85.6158 34.8373C87.9882 33.4964 90 31.3335 90 28.5H86ZM81.4506 24.7138C83.0187 25.2026 84.2167 25.8853 84.9866 26.6067C85.7498 27.3217 86 27.9739 86 28.5H90C90 26.5729 89.0479 24.9304 87.7214 23.6877C86.4017 22.4511 84.6225 21.5127 82.641 20.895L81.4506 24.7138ZM74.6779 16.1781C78.1359 18.4328 79.8183 20.8245 80.0575 23.0209L84.034 22.5879C83.6064 18.6614 80.7606 15.369 76.8626 12.8275L74.6779 16.1781Z" fill="black" mask="url(#path-1-inside-1_0_1)"/>
<g filter="url(#filter0_d_0_1)">
<circle cx="58.1747" cy="13.1766" r="5.95593" fill="url(#paint0_linear_0_1)"/>
<circle cx="58.1835" cy="13.1855" r="3.76164" fill="#350F42"/>
<circle cx="58.1852" cy="13.1871" r="2.8297" fill="url(#paint1_linear_0_1)"/>
<circle cx="58.174" cy="13.1759" r="1.4318" fill="#350F42"/>
<path d="M64.5654 13.1759C64.9998 13.1759 65.3563 12.8227 65.3088 12.391C65.1312 10.7766 64.4095 9.26122 63.2501 8.10178C61.9043 6.75603 60.0791 6 58.1759 6C56.2727 6 54.4475 6.75603 53.1018 8.10178C51.9423 9.26122 51.2206 10.7766 51.043 12.391C50.9955 12.8227 51.3521 13.1759 51.7864 13.1759C52.2207 13.1759 52.5671 12.8221 52.6279 12.3921C52.7969 11.1957 53.3497 10.0782 54.2139 9.21392C55.2647 8.16313 56.6899 7.5728 58.1759 7.5728C59.662 7.5728 61.0871 8.16313 62.1379 9.21392C63.0022 10.0782 63.5549 11.1957 63.724 12.3921C63.7847 12.8221 64.1311 13.1759 64.5654 13.1759Z" fill="#350F42"/>
<circle cx="57.303" cy="11.7444" r="0.881105" fill="white"/>
<circle cx="59.6098" cy="15.0141" r="0.406664" fill="white"/>
</g>
<g filter="url(#filter1_d_0_1)">
<circle cx="16.6758" cy="13.6758" r="4.71095" fill="url(#paint2_linear_0_1)"/>
<circle cx="16.6824" cy="13.6843" r="2.97533" fill="#350F42"/>
<circle cx="16.6835" cy="13.6855" r="2.2382" fill="url(#paint3_linear_0_1)"/>
<circle cx="16.6755" cy="13.6755" r="1.1325" fill="#350F42"/>
<path d="M21.7298 13.6759C22.0734 13.6759 22.3554 13.3966 22.3178 13.0551C22.1773 11.7781 21.6065 10.5795 20.6894 9.66244C19.625 8.598 18.1813 8 16.6759 8C15.1706 8 13.7269 8.598 12.6624 9.66244C11.7454 10.5795 11.1745 11.7781 11.034 13.0551C10.9965 13.3966 11.2785 13.6759 11.622 13.6759C11.9655 13.6759 12.2395 13.3961 12.2876 13.0559C12.4213 12.1096 12.8585 11.2257 13.5421 10.5421C14.3732 9.71096 15.5005 9.24403 16.6759 9.24403C17.8513 9.24403 18.9786 9.71096 19.8097 10.5421C20.4933 11.2257 20.9306 12.1096 21.0642 13.0559C21.1123 13.3961 21.3863 13.6759 21.7298 13.6759Z" fill="#350F42"/>
<circle cx="15.986" cy="12.5446" r="0.696925" fill="white"/>
<circle cx="17.8099" cy="15.1303" r="0.321658" fill="white"/>
</g>
<defs>
<filter id="filter0_d_0_1" x="43.0391" y="0" width="30.2734" height="29.1328" filterUnits="userSpaceOnUse" color-interpolation-filters="sRGB">
<feFlood flood-opacity="0" result="BackgroundImageFix"/>
<feColorMatrix in="SourceAlpha" type="matrix" values="0 0 0 0 0 0 0 0 0 0 0 0 0 0 0 0 0 0 127 0" result="hardAlpha"/>
<feMorphology radius="4" operator="dilate" in="SourceAlpha" result="effect1_dropShadow_0_1"/>
<feOffset dy="2"/>
<feGaussianBlur stdDeviation="2"/>
<feComposite in2="hardAlpha" operator="out"/>
<feColorMatrix type="matrix" values="0 0 0 0 0.207843 0 0 0 0 0.0588235 0 0 0 0 0.258824 0 0 0 1 0"/>
<feBlend mode="normal" in2="BackgroundImageFix" result="effect1_dropShadow_0_1"/>
<feBlend mode="normal" in="SourceGraphic" in2="effect1_dropShadow_0_1" result="shape"/>
</filter>
<filter id="filter1_d_0_1" x="3.03125" y="2" width="27.2891" height="26.3867" filterUnits="userSpaceOnUse" color-interpolation-filters="sRGB">
<feFlood flood-opacity="0" result="BackgroundImageFix"/>
<feColorMatrix in="SourceAlpha" type="matrix" values="0 0 0 0 0 0 0 0 0 0 0 0 0 0 0 0 0 0 127 0" result="hardAlpha"/>
<feMorphology radius="4" operator="dilate" in="SourceAlpha" result="effect1_dropShadow_0_1"/>
<feOffset dy="2"/>
<feGaussianBlur stdDeviation="2"/>
<feComposite in2="hardAlpha" operator="out"/>
<feColorMatrix type="matrix" values="0 0 0 0 0.207843 0 0 0 0 0.0588235 0 0 0 0 0.258824 0 0 0 1 0"/>
<feBlend mode="normal" in2="BackgroundImageFix" result="effect1_dropShadow_0_1"/>
<feBlend mode="normal" in="SourceGraphic" in2="effect1_dropShadow_0_1" result="shape"/>
</filter>
<linearGradient id="paint0_linear_0_1" x1="58.1747" y1="7.2207" x2="58.1747" y2="19.1326" gradientUnits="userSpaceOnUse">
<stop stop-color="#EBD6EB"/>
<stop offset="0.9999" stop-color="white"/>
</linearGradient>
<linearGradient id="paint1_linear_0_1" x1="58.1852" y1="10.3574" x2="58.1852" y2="16.0168" gradientUnits="userSpaceOnUse">
<stop stop-color="#853085"/>
<stop offset="1" stop-color="#9D4A9D"/>
</linearGradient>
<linearGradient id="paint2_linear_0_1" x1="16.6758" y1="8.96484" x2="16.6758" y2="18.3867" gradientUnits="userSpaceOnUse">
<stop stop-color="#EBD6EB"/>
<stop offset="0.9999" stop-color="white"/>
</linearGradient>
<linearGradient id="paint3_linear_0_1" x1="16.6835" y1="11.4473" x2="16.6835" y2="15.9237" gradientUnits="userSpaceOnUse">
<stop stop-color="#853085"/>
<stop offset="1" stop-color="#9D4A9D"/>
</linearGradient>
</defs>
</svg>
