<svg width="91" height="30" viewBox="0 0 91 30" fill="none" xmlns="http://www.w3.org/2000/svg">
<mask id="path-1-inside-1_0_1" fill="white">
<path fill-rule="evenodd" clip-rule="evenodd" d="M86.7895 14.9199C87.5741 14.0043 88 13.022 88 12C88 7.02944 77.9264 3 65.5 3C55.685 3 47.3378 5.51383 44.263 9.01968C39.3106 9.0911 34.5798 9.35501 30.2043 9.77998C28.1489 7.00217 22.3422 5 15.5 5C6.93959 5 0 8.13401 0 12C0 13.8765 1.635 15.5806 4.29675 16.8375C3.4496 17.6386 3 18.4765 3 19.3392C3 25.0494 22.6995 26 47 26C71.3005 26 91 25.0494 91 19.3392C91 17.7581 89.4896 16.2599 86.7895 14.9199Z"/>
</mask>
<path fill-rule="evenodd" clip-rule="evenodd" d="M86.7895 14.9199C87.5741 14.0043 88 13.022 88 12C88 7.02944 77.9264 3 65.5 3C55.685 3 47.3378 5.51383 44.263 9.01968C39.3106 9.0911 34.5798 9.35501 30.2043 9.77998C28.1489 7.00217 22.3422 5 15.5 5C6.93959 5 0 8.13401 0 12C0 13.8765 1.635 15.5806 4.29675 16.8375C3.4496 17.6386 3 18.4765 3 19.3392C3 25.0494 22.6995 26 47 26C71.3005 26 91 25.0494 91 19.3392C91 17.7581 89.4896 16.2599 86.7895 14.9199Z" fill="#5657AB"/>
<path d="M86.7895 14.9199L85.2708 13.6184L83.599 15.5693L85.9004 16.7114L86.7895 14.9199ZM44.263 9.01968L44.2918 11.0195L45.1805 11.0067L45.7666 10.3384L44.263 9.01968ZM30.2043 9.77998L28.5965 10.9696L29.2702 11.8801L30.3976 11.7706L30.2043 9.77998ZM4.29675 16.8375L5.67089 18.2907L7.79814 16.2791L5.15074 15.029L4.29675 16.8375ZM86 12C86 12.43 85.8287 12.9675 85.2708 13.6184L88.3081 16.2213C89.3196 15.041 90 13.6141 90 12H86ZM65.5 5C71.5239 5 76.8854 5.98031 80.6671 7.49299C82.5635 8.25155 83.964 9.10478 84.8576 9.9499C85.747 10.791 86 11.4845 86 12H90C90 10.0302 88.9938 8.35604 87.6061 7.04368C86.2226 5.73532 84.328 4.64921 82.1527 3.77909C77.791 2.03441 71.9025 1 65.5 1V5ZM45.7666 10.3384C46.93 9.0119 49.3472 7.64397 52.9082 6.6168C56.4016 5.60913 60.7528 5 65.5 5V1C60.4322 1 55.7023 1.64778 51.7996 2.77349C47.9646 3.87969 44.6707 5.52161 42.7594 7.70092L45.7666 10.3384ZM30.3976 11.7706C34.7154 11.3513 39.3913 11.0901 44.2918 11.0195L44.2341 7.01989C39.23 7.09205 34.4442 7.35877 30.0109 7.78934L30.3976 11.7706ZM15.5 7C18.7373 7 21.6843 7.47509 24.0193 8.24719C26.4143 9.03911 27.9246 10.0614 28.5965 10.9696L31.812 8.59037C30.4286 6.72071 28.0079 5.35305 25.2751 4.44943C22.4824 3.526 19.1049 3 15.5 3V7ZM2 12C2 11.3404 2.68652 10.0817 5.36302 8.87299C7.85436 7.74787 11.4365 7 15.5 7V3C11.0031 3 6.83523 3.81913 3.71667 5.22751C0.783271 6.55227 -2 8.79357 -2 12H2ZM5.15074 15.029C2.63456 13.8408 2 12.6365 2 12H-2C-2 15.1165 0.635446 17.3204 3.44275 18.646L5.15074 15.029ZM5 19.3392C5 19.2253 5.05107 18.8768 5.67089 18.2907L2.9226 15.3843C1.84814 16.4003 1 17.7278 1 19.3392H5ZM47 24C34.846 24 23.955 23.7607 16.1246 22.825C12.1887 22.3547 9.17829 21.7244 7.2016 20.9324C5.04316 20.0676 5 19.3994 5 19.3392H1C1 22.134 3.41927 23.726 5.71387 24.6454C8.19023 25.6377 11.6234 26.3156 15.65 26.7968C23.7445 27.764 34.8535 28 47 28V24ZM89 19.3392C89 19.3994 88.9568 20.0676 86.7984 20.9324C84.8217 21.7244 81.8113 22.3547 77.8754 22.825C70.045 23.7607 59.154 24 47 24V28C59.1465 28 70.2555 27.764 78.35 26.7968C82.3766 26.3156 85.8098 25.6377 88.2861 24.6454C90.5807 23.726 93 22.134 93 19.3392H89ZM85.9004 16.7114C87.1408 17.3269 87.9728 17.9156 88.4694 18.4292C88.9583 18.9349 89 19.2329 89 19.3392H93C93 17.8644 92.2866 16.6227 91.3452 15.649C90.4116 14.6833 89.1384 13.8528 87.6785 13.1283L85.9004 16.7114Z" fill="black" mask="url(#path-1-inside-1_0_1)"/>
<g filter="url(#filter0_d_0_1)">
<circle cx="67.1747" cy="13.1766" r="5.95593" fill="url(#paint0_linear_0_1)"/>
<circle cx="67.1835" cy="13.1855" r="3.76164" fill="#350F42"/>
<circle cx="67.1852" cy="13.1871" r="2.8297" fill="url(#paint1_linear_0_1)"/>
<circle cx="67.174" cy="13.1759" r="1.4318" fill="#350F42"/>
<path d="M73.5654 13.1759C73.9998 13.1759 74.3563 12.8227 74.3088 12.391C74.1312 10.7766 73.4095 9.26122 72.2501 8.10178C70.9043 6.75603 69.0791 6 67.1759 6C65.2727 6 63.4475 6.75603 62.1018 8.10178C60.9423 9.26122 60.2206 10.7766 60.043 12.391C59.9955 12.8227 60.3521 13.1759 60.7864 13.1759C61.2207 13.1759 61.5671 12.8221 61.6279 12.3921C61.7969 11.1957 62.3497 10.0782 63.2139 9.21392C64.2647 8.16313 65.6899 7.5728 67.1759 7.5728C68.662 7.5728 70.0871 8.16313 71.1379 9.21392C72.0022 10.0782 72.5549 11.1957 72.724 12.3921C72.7847 12.8221 73.1311 13.1759 73.5654 13.1759Z" fill="#350F42"/>
<circle cx="66.303" cy="11.7444" r="0.881105" fill="white"/>
<circle cx="68.6098" cy="15.0141" r="0.406664" fill="white"/>
</g>
<g filter="url(#filter1_d_0_1)">
<circle cx="17.6758" cy="14.6758" r="4.71095" fill="url(#paint2_linear_0_1)"/>
<circle cx="17.6824" cy="14.6843" r="2.97533" fill="#350F42"/>
<circle cx="17.6835" cy="14.6855" r="2.2382" fill="url(#paint3_linear_0_1)"/>
<circle cx="17.6755" cy="14.6755" r="1.1325" fill="#350F42"/>
<path d="M22.7298 14.6759C23.0734 14.6759 23.3554 14.3966 23.3178 14.0551C23.1773 12.7781 22.6065 11.5795 21.6894 10.6624C20.625 9.598 19.1813 9 17.6759 9C16.1706 9 14.7269 9.598 13.6624 10.6624C12.7454 11.5795 12.1745 12.7781 12.034 14.0551C11.9965 14.3966 12.2785 14.6759 12.622 14.6759C12.9655 14.6759 13.2395 14.3961 13.2876 14.0559C13.4213 13.1096 13.8585 12.2257 14.5421 11.5421C15.3732 10.711 16.5005 10.244 17.6759 10.244C18.8513 10.244 19.9786 10.711 20.8097 11.5421C21.4933 12.2257 21.9306 13.1096 22.0642 14.0559C22.1123 14.3961 22.3863 14.6759 22.7298 14.6759Z" fill="#350F42"/>
<circle cx="16.986" cy="13.5446" r="0.696925" fill="white"/>
<circle cx="18.8099" cy="16.1303" r="0.321658" fill="white"/>
</g>
<defs>
<filter id="filter0_d_0_1" x="52.0391" y="0" width="30.2734" height="29.1328" filterUnits="userSpaceOnUse" color-interpolation-filters="sRGB">
<feFlood flood-opacity="0" result="BackgroundImageFix"/>
<feColorMatrix in="SourceAlpha" type="matrix" values="0 0 0 0 0 0 0 0 0 0 0 0 0 0 0 0 0 0 127 0" result="hardAlpha"/>
<feMorphology radius="4" operator="dilate" in="SourceAlpha" result="effect1_dropShadow_0_1"/>
<feOffset dy="2"/>
<feGaussianBlur stdDeviation="2"/>
<feComposite in2="hardAlpha" operator="out"/>
<feColorMatrix type="matrix" values="0 0 0 0 0.207843 0 0 0 0 0.0588235 0 0 0 0 0.258824 0 0 0 1 0"/>
<feBlend mode="normal" in2="BackgroundImageFix" result="effect1_dropShadow_0_1"/>
<feBlend mode="normal" in="SourceGraphic" in2="effect1_dropShadow_0_1" result="shape"/>
</filter>
<filter id="filter1_d_0_1" x="4.03125" y="3" width="27.2891" height="26.3867" filterUnits="userSpaceOnUse" color-interpolation-filters="sRGB">
<feFlood flood-opacity="0" result="BackgroundImageFix"/>
<feColorMatrix in="SourceAlpha" type="matrix" values="0 0 0 0 0 0 0 0 0 0 0 0 0 0 0 0 0 0 127 0" result="hardAlpha"/>
<feMorphology radius="4" operator="dilate" in="SourceAlpha" result="effect1_dropShadow_0_1"/>
<feOffset dy="2"/>
<feGaussianBlur stdDeviation="2"/>
<feComposite in2="hardAlpha" operator="out"/>
<feColorMatrix type="matrix" values="0 0 0 0 0.207843 0 0 0 0 0.0588235 0 0 0 0 0.258824 0 0 0 1 0"/>
<feBlend mode="normal" in2="BackgroundImageFix" result="effect1_dropShadow_0_1"/>
<feBlend mode="normal" in="SourceGraphic" in2="effect1_dropShadow_0_1" result="shape"/>
</filter>
<linearGradient id="paint0_linear_0_1" x1="67.1747" y1="7.2207" x2="67.1747" y2="19.1326" gradientUnits="userSpaceOnUse">
<stop stop-color="#EBD6EB"/>
<stop offset="0.9999" stop-color="white"/>
</linearGradient>
<linearGradient id="paint1_linear_0_1" x1="67.1852" y1="10.3574" x2="67.1852" y2="16.0168" gradientUnits="userSpaceOnUse">
<stop stop-color="#853085"/>
<stop offset="1" stop-color="#9D4A9D"/>
</linearGradient>
<linearGradient id="paint2_linear_0_1" x1="17.6758" y1="9.96484" x2="17.6758" y2="19.3867" gradientUnits="userSpaceOnUse">
<stop stop-color="#EBD6EB"/>
<stop offset="0.9999" stop-color="white"/>
</linearGradient>
<linearGradient id="paint3_linear_0_1" x1="17.6835" y1="12.4473" x2="17.6835" y2="16.9237" gradientUnits="userSpaceOnUse">
<stop stop-color="#853085"/>
<stop offset="1" stop-color="#9D4A9D"/>
</linearGradient>
</defs>
</svg>
