<svg width="103" height="157" viewBox="0 0 103 157" fill="none" xmlns="http://www.w3.org/2000/svg">
<mask id="path-1-inside-1_2294_3211" fill="white">
<path fill-rule="evenodd" clip-rule="evenodd" d="M53.6728 13.3308C53.9212 20.8065 51.3381 26.9593 47.9031 27.0735C44.4682 27.1876 41.4822 21.2199 41.2338 13.7442C40.9853 6.26856 43.5685 0.115768 47.0034 0.00161086C50.4383 -0.112546 53.4243 5.85516 53.6728 13.3308ZM75.758 23.3059C72.6248 30.0979 67.555 34.4368 64.4342 32.9972C61.3134 31.5576 61.3235 24.8845 64.4566 18.0926C67.5898 11.3006 72.6596 6.96167 75.7804 8.4013C78.9012 9.84093 78.8911 16.514 75.758 23.3059ZM79.3508 41.4231C81.3214 44.2389 87.8867 43.045 94.015 38.7564C100.143 34.4678 103.514 28.7086 101.543 25.8927C99.5728 23.0769 93.0074 24.2708 86.8791 28.5594C80.7509 32.848 77.3803 38.6072 79.3508 41.4231ZM11.5939 49.6313C6.20204 52.5426 1.2031 57.2913 0.210428 63.3379C-1.70465 75.0032 9.83743 81.5414 19.1693 74.2844C21.8351 72.2113 24.3137 70.3846 26.3469 69.0679C29.0133 67.3412 31.9077 65.7474 34.7421 64.313C35.6485 63.8543 36.6291 63.4312 37.6542 63.0903C45.2496 60.5645 54.4969 62.6341 61.8195 65.8664C63.0338 66.4024 63.7945 67.1412 64.7184 68.0386C65.0126 68.3244 65.3233 68.6262 65.6706 68.9427C68.9033 71.8892 70.7723 75.3916 71.0509 79.0255C71.3295 82.6593 70.0058 86.2685 67.2403 89.4155C64.4748 92.5625 60.3862 95.1122 55.4702 96.7554C50.5542 98.3986 45.0218 99.0648 39.5439 98.6733C36.7021 98.4702 33.9382 97.9869 31.3401 97.2477C27.1064 96.0432 22.3809 96.3525 18.9598 99.1221C12.9002 104.028 13.6523 113.814 20.8133 116.897C24.6453 118.547 28.651 119.902 32.7852 120.592C31.5439 123.08 30.3149 125.79 29.1451 128.653C23.4232 142.658 21.2831 155.031 24.365 156.29C27.4468 157.55 34.5837 147.218 40.3055 133.213C41.9965 129.075 43.3746 125.078 44.3976 121.469C51.1498 121.733 58.2801 121.646 64.6021 120.572C65.6604 124.106 67.0234 127.969 68.6549 131.962C74.659 146.657 82.0246 157.549 85.1065 156.29C88.1884 155.031 85.8195 142.097 79.8154 127.402C78.3482 123.811 76.7996 120.447 75.2521 117.432C82.6746 114.335 87.4364 110.407 92.1878 105C97.7794 98.6372 100.679 85.4009 100.116 78.0537C99.5522 70.7065 95.7734 63.625 89.2372 57.6676C82.701 51.7103 73.6881 47.1329 63.2912 44.4905C52.8943 41.848 39.5439 41.3606 30.6618 42.7803C20.4168 44.8806 15.4891 47.5281 11.5939 49.6313ZM29.1777 38.6837C32.018 36.7486 30.9065 30.1688 26.695 23.9872C22.4836 17.8057 16.767 14.3632 13.9267 16.2983C11.0864 18.2334 12.198 24.8132 16.4094 30.9947C20.6208 37.1763 26.3374 40.6187 29.1777 38.6837Z"/>
</mask>
<path fill-rule="evenodd" clip-rule="evenodd" d="M53.6728 13.3308C53.9212 20.8065 51.3381 26.9593 47.9031 27.0735C44.4682 27.1876 41.4822 21.2199 41.2338 13.7442C40.9853 6.26856 43.5685 0.115768 47.0034 0.00161086C50.4383 -0.112546 53.4243 5.85516 53.6728 13.3308ZM75.758 23.3059C72.6248 30.0979 67.555 34.4368 64.4342 32.9972C61.3134 31.5576 61.3235 24.8845 64.4566 18.0926C67.5898 11.3006 72.6596 6.96167 75.7804 8.4013C78.9012 9.84093 78.8911 16.514 75.758 23.3059ZM79.3508 41.4231C81.3214 44.2389 87.8867 43.045 94.015 38.7564C100.143 34.4678 103.514 28.7086 101.543 25.8927C99.5728 23.0769 93.0074 24.2708 86.8791 28.5594C80.7509 32.848 77.3803 38.6072 79.3508 41.4231ZM11.5939 49.6313C6.20204 52.5426 1.2031 57.2913 0.210428 63.3379C-1.70465 75.0032 9.83743 81.5414 19.1693 74.2844C21.8351 72.2113 24.3137 70.3846 26.3469 69.0679C29.0133 67.3412 31.9077 65.7474 34.7421 64.313C35.6485 63.8543 36.6291 63.4312 37.6542 63.0903C45.2496 60.5645 54.4969 62.6341 61.8195 65.8664C63.0338 66.4024 63.7945 67.1412 64.7184 68.0386C65.0126 68.3244 65.3233 68.6262 65.6706 68.9427C68.9033 71.8892 70.7723 75.3916 71.0509 79.0255C71.3295 82.6593 70.0058 86.2685 67.2403 89.4155C64.4748 92.5625 60.3862 95.1122 55.4702 96.7554C50.5542 98.3986 45.0218 99.0648 39.5439 98.6733C36.7021 98.4702 33.9382 97.9869 31.3401 97.2477C27.1064 96.0432 22.3809 96.3525 18.9598 99.1221C12.9002 104.028 13.6523 113.814 20.8133 116.897C24.6453 118.547 28.651 119.902 32.7852 120.592C31.5439 123.08 30.3149 125.79 29.1451 128.653C23.4232 142.658 21.2831 155.031 24.365 156.29C27.4468 157.55 34.5837 147.218 40.3055 133.213C41.9965 129.075 43.3746 125.078 44.3976 121.469C51.1498 121.733 58.2801 121.646 64.6021 120.572C65.6604 124.106 67.0234 127.969 68.6549 131.962C74.659 146.657 82.0246 157.549 85.1065 156.29C88.1884 155.031 85.8195 142.097 79.8154 127.402C78.3482 123.811 76.7996 120.447 75.2521 117.432C82.6746 114.335 87.4364 110.407 92.1878 105C97.7794 98.6372 100.679 85.4009 100.116 78.0537C99.5522 70.7065 95.7734 63.625 89.2372 57.6676C82.701 51.7103 73.6881 47.1329 63.2912 44.4905C52.8943 41.848 39.5439 41.3606 30.6618 42.7803C20.4168 44.8806 15.4891 47.5281 11.5939 49.6313ZM29.1777 38.6837C32.018 36.7486 30.9065 30.1688 26.695 23.9872C22.4836 17.8057 16.767 14.3632 13.9267 16.2983C11.0864 18.2334 12.198 24.8132 16.4094 30.9947C20.6208 37.1763 26.3374 40.6187 29.1777 38.6837Z" fill="#4286A2"/>
<path d="M53.6728 13.3308L55.6716 13.2644V13.2644L53.6728 13.3308ZM41.2338 13.7442L39.2349 13.8107V13.8107L41.2338 13.7442ZM47.0034 0.00161086L46.937 -1.99729L47.0034 0.00161086ZM64.4342 32.9972L65.272 31.1811L64.4342 32.9972ZM75.758 23.3059L77.574 24.1437L75.758 23.3059ZM64.4566 18.0926L62.6406 17.2548L64.4566 18.0926ZM75.7804 8.4013L74.9426 10.2174L75.7804 8.4013ZM94.015 38.7564L92.8683 37.1178V37.1178L94.015 38.7564ZM79.3508 41.4231L77.7122 42.5698V42.5698L79.3508 41.4231ZM101.543 25.8927L103.182 24.746L101.543 25.8927ZM86.8791 28.5594L85.7324 26.9208L86.8791 28.5594ZM0.210428 63.3379L2.18401 63.6619L0.210428 63.3379ZM11.5939 49.6313L10.6437 47.8715L11.5939 49.6313ZM19.1693 74.2844L17.9415 72.7056L19.1693 74.2844ZM26.3469 69.0679L27.434 70.7467H27.434L26.3469 69.0679ZM34.7421 64.313L35.6451 66.0975L34.7421 64.313ZM37.6542 63.0903L37.0231 61.1925L37.6542 63.0903ZM61.8195 65.8664L61.0119 67.6961L61.8195 65.8664ZM64.7184 68.0386L66.1118 66.604L66.1118 66.6039L64.7184 68.0386ZM65.6706 68.9427L64.3233 70.4209L64.3233 70.4209L65.6706 68.9427ZM71.0509 79.0255L73.0451 78.8726L71.0509 79.0255ZM67.2403 89.4155L68.7427 90.7357V90.7357L67.2403 89.4155ZM39.5439 98.6733L39.4013 100.668H39.4013L39.5439 98.6733ZM31.3401 97.2477L31.8874 95.3241H31.8874L31.3401 97.2477ZM18.9598 99.1221L17.7013 97.5677L18.9598 99.1221ZM20.8133 116.897L21.6042 115.06L21.6042 115.06L20.8133 116.897ZM32.7852 120.592L34.5749 121.485L35.7823 119.064L33.1144 118.619L32.7852 120.592ZM29.1451 128.653L27.2936 127.897V127.897L29.1451 128.653ZM40.3055 133.213L42.157 133.97L40.3055 133.213ZM44.3976 121.469L44.4756 119.471L42.9027 119.409L42.4734 120.924L44.3976 121.469ZM64.6021 120.572L66.5181 119.998L66.0107 118.304L64.2669 118.6L64.6021 120.572ZM68.6549 131.962L66.8035 132.718L68.6549 131.962ZM85.1065 156.29L84.35 154.438H84.35L85.1065 156.29ZM79.8154 127.402L77.964 128.158H77.964L79.8154 127.402ZM75.2521 117.432L74.482 115.586L72.4844 116.419L73.4728 118.345L75.2521 117.432ZM92.1878 105L93.6902 106.32L92.1878 105ZM100.116 78.0537L102.11 77.9008L100.116 78.0537ZM89.2372 57.6676L87.8899 59.1458L89.2372 57.6676ZM30.6618 42.7803L30.3461 40.8053L30.303 40.8122L30.2601 40.821L30.6618 42.7803ZM26.695 23.9872L25.0422 25.1133L26.695 23.9872ZM29.1777 38.6837L28.0516 37.0308H28.0516L29.1777 38.6837ZM13.9267 16.2983L15.0528 17.9512L13.9267 16.2983ZM16.4094 30.9947L18.0623 29.8687L16.4094 30.9947ZM47.9696 29.0724C50.9414 28.9736 52.9079 26.3699 54.0133 23.7369C55.1924 20.9285 55.8032 17.2231 55.6716 13.2644L51.6739 13.3973C51.7907 16.9143 51.2342 20.0231 50.3251 22.1885C49.3423 24.5295 48.2998 25.0592 47.8367 25.0746L47.9696 29.0724ZM39.2349 13.8107C39.3664 17.7694 40.222 21.426 41.5849 24.15C42.8627 26.7037 44.9977 29.1712 47.9696 29.0724L47.8367 25.0746C47.3736 25.09 46.2982 24.6306 45.1621 22.3601C44.1112 20.2599 43.3496 17.1948 43.2327 13.6778L39.2349 13.8107ZM46.937 -1.99729C43.9651 -1.89852 41.9986 0.705215 40.8933 3.33815C39.7142 6.14661 39.1033 9.852 39.2349 13.8107L43.2327 13.6778C43.1158 10.1608 43.6723 7.05196 44.5814 4.88656C45.5642 2.54564 46.6068 2.0159 47.0698 2.00051L46.937 -1.99729ZM55.6716 13.2644C55.5401 9.30574 54.6846 5.64908 53.3216 2.9251C52.0438 0.371369 49.9088 -2.09605 46.937 -1.99729L47.0698 2.00051C47.5329 1.98512 48.6083 2.44447 49.7444 4.71497C50.7953 6.81523 51.557 9.88027 51.6739 13.3973L55.6716 13.2644ZM63.5964 34.8133C66.2965 36.0588 69.2224 34.6147 71.3919 32.7579C73.706 30.7774 75.9149 27.7403 77.574 24.1437L73.9419 22.4682C72.4678 25.6635 70.5752 28.1919 68.791 29.7189C66.8621 31.3697 65.6927 31.3752 65.272 31.1811L63.5964 34.8133ZM62.6406 17.2548C60.9814 20.8514 60.1048 24.5031 60.1002 27.549C60.0959 30.4046 60.8964 33.5677 63.5964 34.8133L65.272 31.1811C64.8512 30.987 64.0964 30.0939 64.1002 27.555C64.1037 25.2065 64.7987 22.1257 66.2727 18.9303L62.6406 17.2548ZM76.6182 6.58522C73.9181 5.33967 70.9923 6.78385 68.8227 8.64059C66.5086 10.6211 64.2997 13.6582 62.6406 17.2548L66.2727 18.9303C67.7468 15.735 69.6394 13.2066 71.4236 11.6796C73.3525 10.0288 74.5219 10.0233 74.9426 10.2174L76.6182 6.58522ZM77.574 24.1437C79.2332 20.5471 80.1098 16.8954 80.1144 13.8495C80.1187 10.9939 79.3182 7.83077 76.6182 6.58522L74.9426 10.2174C75.3634 10.4115 76.1182 11.3046 76.1144 13.8435C76.1109 16.192 75.4159 19.2728 73.9419 22.4682L77.574 24.1437ZM92.8683 37.1178C89.9852 39.1354 87.0765 40.366 84.7659 40.7861C82.268 41.2404 81.2551 40.656 80.9894 40.2763L77.7122 42.5698C79.4171 45.006 82.6721 45.2325 85.4816 44.7216C88.4784 44.1766 91.9165 42.666 95.1617 40.395L92.8683 37.1178ZM99.9047 27.0394C100.17 27.4191 100.372 28.5709 99.0901 30.7621C97.9039 32.789 95.7514 35.1002 92.8683 37.1178L95.1617 40.395C98.4069 38.124 101.004 35.4113 102.542 32.7825C103.985 30.3179 104.887 27.1822 103.182 24.746L99.9047 27.0394ZM88.0258 30.198C90.909 28.1804 93.8176 26.9498 96.1282 26.5297C98.6261 26.0754 99.639 26.6598 99.9047 27.0394L103.182 24.746C101.477 22.3098 98.222 22.0833 95.4125 22.5942C92.4158 23.1392 88.9776 24.6498 85.7324 26.9208L88.0258 30.198ZM80.9895 40.2764C80.7238 39.8967 80.5217 38.7449 81.8041 36.5537C82.9903 34.5268 85.1427 32.2156 88.0258 30.198L85.7324 26.9208C82.4873 29.1918 79.8903 31.9045 78.3518 34.5333C76.9095 36.9979 76.0074 40.1335 77.7122 42.5698L80.9895 40.2764ZM2.18401 63.6619C3.03063 58.5049 7.3885 54.1749 12.5441 51.3912L10.6437 47.8715C5.01559 50.9103 -0.624424 56.0776 -1.76315 63.0139L2.18401 63.6619ZM17.9415 72.7056C13.8522 75.8857 9.50787 75.9151 6.46691 74.1719C3.44091 72.4372 1.34954 68.7449 2.18401 63.6619L-1.76315 63.0139C-2.84377 69.5962 -0.121634 75.0056 4.47759 77.6421C9.06186 80.2701 15.1545 79.9401 20.397 75.8632L17.9415 72.7056ZM25.2598 67.3892C23.1546 68.7525 20.623 70.6203 17.9415 72.7056L20.397 75.8632C23.0473 73.8022 25.4729 72.0167 27.434 70.7467L25.2598 67.3892ZM33.839 62.5285C30.9655 63.9826 28.0046 65.6117 25.2598 67.3892L27.434 70.7467C30.022 69.0707 32.8498 67.5121 35.6451 66.0975L33.839 62.5285ZM37.0231 61.1925C35.8919 61.5687 34.8203 62.0319 33.839 62.5285L35.6451 66.0975C36.4767 65.6767 37.3663 65.2938 38.2853 64.9882L37.0231 61.1925ZM62.6272 64.0368C55.1341 60.7292 45.3189 58.4338 37.0231 61.1925L38.2853 64.9882C45.1802 62.6953 53.8596 64.5389 61.0119 67.6961L62.6272 64.0368ZM66.1118 66.6039C65.204 65.7222 64.2108 64.7358 62.6272 64.0368L61.0119 67.6961C61.8569 68.0691 62.385 68.5603 63.3249 69.4733L66.1118 66.6039ZM67.0179 67.4646C66.6973 67.1724 66.4081 66.8917 66.1118 66.604L63.3249 69.4733C63.617 69.757 63.9494 70.08 64.3233 70.4209L67.0179 67.4646ZM73.0451 78.8726C72.7199 74.6322 70.5472 70.6814 67.0178 67.4646L64.3233 70.4209C67.2594 73.0969 68.8246 76.151 69.0568 79.1784L73.0451 78.8726ZM68.7427 90.7357C71.806 87.2499 73.3711 83.1252 73.0451 78.8726L69.0568 79.1784C69.2879 82.1934 68.2057 85.2871 65.738 88.0953L68.7427 90.7357ZM56.1042 98.6522C61.2766 96.9233 65.6943 94.2045 68.7427 90.7357L65.738 88.0953C63.2552 90.9205 59.4958 93.301 54.8361 94.8585L56.1042 98.6522ZM39.4013 100.668C45.1262 101.077 50.9236 100.384 56.1042 98.6522L54.8361 94.8585C50.1847 96.4133 44.9175 97.0523 39.6865 96.6784L39.4013 100.668ZM30.7928 99.1714C33.528 99.9496 36.4278 100.456 39.4013 100.668L39.6865 96.6784C36.9764 96.4847 34.3484 96.0242 31.8874 95.3241L30.7928 99.1714ZM20.2183 100.677C22.9716 98.4475 26.954 98.0792 30.7928 99.1714L31.8874 95.3241C27.2588 94.0072 21.7902 94.2574 17.7013 97.5677L20.2183 100.677ZM21.6042 115.06C16.0247 112.658 15.1543 104.776 20.2183 100.677L17.7013 97.5677C10.646 103.28 11.2799 114.97 20.0225 118.734L21.6042 115.06ZM33.1144 118.619C29.188 117.964 25.3423 116.669 21.6042 115.06L20.0225 118.734C23.9484 120.424 28.114 121.84 32.456 122.565L33.1144 118.619ZM30.9965 129.41C32.1482 126.591 33.3567 123.927 34.5749 121.485L30.9956 119.699C29.731 122.234 28.4816 124.989 27.2936 127.897L30.9965 129.41ZM25.1214 154.439C25.3459 154.531 25.3531 154.664 25.2655 154.475C25.1721 154.273 25.0589 153.881 24.9986 153.227C24.8785 151.924 25.0046 150.019 25.4243 147.592C26.2582 142.771 28.1734 136.319 30.9965 129.41L27.2936 127.897C24.3949 134.992 22.3791 141.729 21.4829 146.91C21.0376 149.485 20.8488 151.785 21.0155 153.594C21.0986 154.495 21.279 155.386 21.6361 156.156C21.999 156.94 22.6135 157.735 23.6085 158.142L25.1214 154.439ZM38.4541 132.457C35.631 139.366 32.4803 145.313 29.6997 149.339C28.2999 151.365 27.0561 152.813 26.0579 153.66C25.5568 154.084 25.2012 154.285 24.9933 154.364C24.7984 154.437 24.8969 154.347 25.1214 154.439L23.6085 158.142C24.6035 158.548 25.5992 158.411 26.4068 158.106C27.2014 157.805 27.9537 157.296 28.6445 156.711C30.03 155.536 31.5059 153.762 32.9908 151.612C35.9796 147.285 39.2582 141.064 42.157 133.97L38.4541 132.457ZM42.4734 120.924C41.4725 124.455 40.1194 128.381 38.4541 132.457L42.157 133.97C43.8736 129.768 45.2768 125.702 46.3218 122.015L42.4734 120.924ZM64.2669 118.6C58.1467 119.64 51.177 119.733 44.4756 119.471L44.3196 123.468C51.1226 123.733 58.4135 123.653 64.9373 122.543L64.2669 118.6ZM70.5064 131.205C68.8975 127.268 67.5564 123.466 66.5181 119.998L62.6862 121.145C63.7643 124.746 65.1494 128.67 66.8035 132.718L70.5064 131.205ZM84.35 154.438C84.6059 154.334 84.7223 154.44 84.5126 154.355C84.2936 154.266 83.9227 154.044 83.4028 153.586C82.3692 152.675 81.0822 151.131 79.6333 148.988C76.7542 144.731 73.4724 138.465 70.5064 131.205L66.8035 132.718C69.8415 140.154 73.2446 146.682 76.3198 151.229C77.848 153.489 79.3555 155.35 80.7574 156.586C81.4553 157.202 82.2123 157.739 83.0095 158.062C83.8159 158.389 84.8366 158.56 85.863 158.141L84.35 154.438ZM77.964 128.158C80.93 135.418 82.9749 142.189 83.9009 147.245C84.3669 149.789 84.5292 151.792 84.4295 153.167C84.3793 153.858 84.27 154.276 84.1758 154.493C84.0857 154.7 84.0942 154.543 84.35 154.438L85.8629 158.141C86.8893 157.722 87.4979 156.885 87.8446 156.087C88.1874 155.298 88.3517 154.384 88.419 153.456C88.5543 151.592 88.327 149.207 87.8355 146.524C86.8464 141.124 84.7049 134.081 81.6668 126.646L77.964 128.158ZM73.4728 118.345C74.9925 121.306 76.5172 124.617 77.964 128.158L81.6668 126.646C80.1791 123.004 78.6067 119.588 77.0314 116.519L73.4728 118.345ZM90.6855 103.68C86.0903 108.909 81.5673 112.63 74.482 115.586L76.0222 119.278C83.7819 116.04 88.7824 111.905 93.6902 106.32L90.6855 103.68ZM98.1214 78.2066C98.381 81.5934 97.8411 86.5047 96.5286 91.3756C95.2105 96.2675 93.1902 100.83 90.6855 103.68L93.6902 106.32C96.777 102.808 99.0022 97.5701 100.391 92.4163C101.785 87.2416 102.413 81.8611 102.11 77.9008L98.1214 78.2066ZM87.8899 59.1458C94.1295 64.8328 97.6045 71.4659 98.1214 78.2066L102.11 77.9008C101.5 69.9471 97.4172 62.4172 90.5844 56.1895L87.8899 59.1458ZM62.7985 46.4288C72.9443 49.0075 81.643 53.4521 87.8899 59.1458L90.5844 56.1895C83.7589 49.9685 74.4319 45.2584 63.7838 42.5521L62.7985 46.4288ZM30.9774 44.7552C39.5836 43.3797 52.6589 43.8518 62.7985 46.4288L63.7838 42.5521C53.1296 39.8442 39.5042 39.3416 30.3461 40.8053L30.9774 44.7552ZM12.5441 51.3912C16.3407 49.3412 21.0776 46.7867 31.0635 44.7395L30.2601 40.821C19.756 42.9745 14.6375 45.715 10.6437 47.8715L12.5441 51.3912ZM25.0422 25.1133C27.0235 28.0215 28.2175 30.9453 28.6087 33.261C29.0316 35.7644 28.4345 36.7699 28.0516 37.0308L30.3038 40.3365C32.7612 38.6623 33.0285 35.4104 32.5528 32.5947C32.0455 29.5913 30.578 26.1345 28.3479 22.8611L25.0422 25.1133ZM15.0528 17.9512C15.4357 17.6903 16.59 17.5026 18.7649 18.8124C20.7768 20.0239 23.0608 22.2051 25.0422 25.1133L28.3479 22.8611C26.1177 19.5878 23.4378 16.957 20.8284 15.3857C18.3822 13.9126 15.258 12.9712 12.8006 14.6454L15.0528 17.9512ZM18.0623 29.8687C16.081 26.9605 14.8869 24.0366 14.4957 21.721C14.0728 19.2176 14.6699 18.212 15.0528 17.9512L12.8006 14.6454C10.3433 16.3196 10.076 19.5716 10.5516 22.3872C11.059 25.3906 12.5264 28.8474 14.7565 32.1208L18.0623 29.8687ZM28.0516 37.0308C27.6687 37.2917 26.5144 37.4793 24.3395 36.1696C22.3276 34.9581 20.0436 32.7768 18.0623 29.8687L14.7565 32.1208C16.9867 35.3942 19.6666 38.0249 22.276 39.5963C24.7222 41.0694 27.8464 42.0107 30.3038 40.3365L28.0516 37.0308Z" fill="black" mask="url(#path-1-inside-1_2294_3211)"/>
<circle cx="25.6896" cy="58.5001" r="7.88489" fill="url(#paint0_linear_2294_3211)"/>
<circle cx="25.6948" cy="58.5112" r="4.97993" fill="#350F42"/>
<circle cx="25.7032" cy="58.5098" r="3.74616" fill="url(#paint1_linear_2294_3211)"/>
<circle cx="25.6885" cy="58.501" r="1.89551" fill="#350F42"/>
<path d="M34.1464 58.5C34.7214 58.5 35.1934 58.0324 35.1305 57.4609C34.8954 55.3236 33.94 53.3174 32.405 51.7825C30.6234 50.0009 28.2071 49 25.6875 49C23.1679 49 20.7516 50.0009 18.97 51.7825C17.435 53.3174 16.4796 55.3236 16.2445 57.4609C16.1816 58.0324 16.6536 58.5 17.2286 58.5C17.8036 58.5 18.2622 58.0316 18.3426 57.4623C18.5664 55.8784 19.2981 54.399 20.4423 53.2548C21.8334 51.8637 23.7202 51.0822 25.6875 51.0822C27.6548 51.0822 29.5416 51.8637 30.9327 53.2548C32.0769 54.399 32.8086 55.8784 33.0324 57.4623C33.1128 58.0316 33.5714 58.5 34.1464 58.5Z" fill="#350F42"/>
<circle cx="24.5298" cy="56.602" r="1.16647" fill="white"/>
<circle cx="27.5892" cy="60.9329" r="0.538371" fill="white"/>
<circle cx="43.6932" cy="46.5037" r="4.56818" fill="url(#paint2_linear_2294_3211)"/>
<circle cx="43.6938" cy="46.5102" r="2.88516" fill="#350F42"/>
<circle cx="43.7016" cy="46.5102" r="2.17037" fill="url(#paint3_linear_2294_3211)"/>
<circle cx="43.6919" cy="46.5044" r="1.09818" fill="#350F42"/>
<path d="M48.5921 46.5039C48.9253 46.5039 49.1987 46.233 49.1623 45.9019C49.0261 44.6636 48.4725 43.5013 47.5833 42.6121C46.5511 41.5799 45.1511 41 43.6914 41C42.2317 41 40.8317 41.5799 39.7996 42.6121C38.9103 43.5013 38.3567 44.6636 38.2205 45.9019C38.1841 46.233 38.4575 46.5039 38.7907 46.5039C39.1238 46.5039 39.3895 46.2325 39.4361 45.9027C39.5657 44.9851 39.9897 44.1279 40.6526 43.4651C41.4585 42.6591 42.5516 42.2063 43.6914 42.2063C44.8312 42.2063 45.9243 42.6591 46.7302 43.4651C47.3931 44.1279 47.8171 44.9851 47.9467 45.9027C47.9933 46.2325 48.259 46.5039 48.5921 46.5039Z" fill="#350F42"/>
<circle cx="43.0191" cy="45.4038" r="0.675325" fill="white"/>
<circle cx="44.7922" cy="47.9132" r="0.311688" fill="white"/>
<circle cx="63.6932" cy="57.5037" r="4.56818" fill="url(#paint4_linear_2294_3211)"/>
<circle cx="63.6938" cy="57.5102" r="2.88516" fill="#350F42"/>
<circle cx="63.7016" cy="57.5102" r="2.17037" fill="url(#paint5_linear_2294_3211)"/>
<circle cx="63.6919" cy="57.5044" r="1.09818" fill="#350F42"/>
<path d="M68.5921 57.5039C68.9253 57.5039 69.1987 57.233 69.1623 56.9019C69.0261 55.6636 68.4725 54.5013 67.5833 53.6121C66.5511 52.5799 65.1511 52 63.6914 52C62.2317 52 60.8317 52.5799 59.7996 53.6121C58.9103 54.5013 58.3567 55.6636 58.2205 56.9019C58.1841 57.233 58.4575 57.5039 58.7907 57.5039C59.1238 57.5039 59.3895 57.2325 59.4361 56.9027C59.5657 55.9851 59.9897 55.1279 60.6526 54.4651C61.4585 53.6591 62.5516 53.2063 63.6914 53.2063C64.8312 53.2063 65.9243 53.6591 66.7302 54.4651C67.3931 55.1279 67.8171 55.9851 67.9467 56.9027C67.9933 57.2325 68.259 57.5039 68.5921 57.5039Z" fill="#350F42"/>
<circle cx="63.0191" cy="56.4038" r="0.675325" fill="white"/>
<circle cx="64.7922" cy="58.9132" r="0.311688" fill="white"/>
<circle cx="80.6949" cy="69.5035" r="7.05814" fill="url(#paint6_linear_2294_3211)"/>
<circle cx="80.6961" cy="69.5144" r="4.45777" fill="#350F42"/>
<circle cx="80.7088" cy="69.5135" r="3.35337" fill="url(#paint7_linear_2294_3211)"/>
<circle cx="80.6929" cy="69.5054" r="1.69677" fill="#350F42"/>
<path d="M88.2634 69.5039C88.7781 69.5039 89.2006 69.0854 89.1443 68.5738C88.9338 66.6605 88.0786 64.8647 86.7046 63.4907C85.1098 61.8959 82.9468 61 80.6914 61C78.436 61 76.273 61.8959 74.6782 63.4907C73.3042 64.8647 72.449 66.6605 72.2385 68.5738C72.1822 69.0854 72.6047 69.5039 73.1194 69.5039C73.6341 69.5039 74.0446 69.0846 74.1166 68.575C74.3169 67.1572 74.972 65.8329 75.9962 64.8087C77.2414 63.5634 78.9304 62.8639 80.6914 62.8639C82.4525 62.8639 84.1414 63.5634 85.3866 64.8087C86.4108 65.8329 87.0659 67.1572 87.2662 68.575C87.3382 69.0846 87.7487 69.5039 88.2634 69.5039Z" fill="#350F42"/>
<circle cx="79.6523" cy="67.8047" r="1.04294" fill="white"/>
<circle cx="82.3915" cy="71.6806" r="0.481358" fill="white"/>
<defs>
<linearGradient id="paint0_linear_2294_3211" x1="25.6896" y1="50.6152" x2="25.6896" y2="66.385" gradientUnits="userSpaceOnUse">
<stop stop-color="#EBD6EB"/>
<stop offset="0.9999" stop-color="white"/>
</linearGradient>
<linearGradient id="paint1_linear_2294_3211" x1="25.7032" y1="54.7637" x2="25.7032" y2="62.256" gradientUnits="userSpaceOnUse">
<stop stop-color="#853085"/>
<stop offset="1" stop-color="#9D4A9D"/>
</linearGradient>
<linearGradient id="paint2_linear_2294_3211" x1="43.6932" y1="41.9355" x2="43.6932" y2="51.0719" gradientUnits="userSpaceOnUse">
<stop stop-color="#EBD6EB"/>
<stop offset="0.9999" stop-color="white"/>
</linearGradient>
<linearGradient id="paint3_linear_2294_3211" x1="43.7016" y1="44.3398" x2="43.7016" y2="48.6806" gradientUnits="userSpaceOnUse">
<stop stop-color="#853085"/>
<stop offset="1" stop-color="#9D4A9D"/>
</linearGradient>
<linearGradient id="paint4_linear_2294_3211" x1="63.6932" y1="52.9355" x2="63.6932" y2="62.0719" gradientUnits="userSpaceOnUse">
<stop stop-color="#EBD6EB"/>
<stop offset="0.9999" stop-color="white"/>
</linearGradient>
<linearGradient id="paint5_linear_2294_3211" x1="63.7016" y1="55.3398" x2="63.7016" y2="59.6806" gradientUnits="userSpaceOnUse">
<stop stop-color="#853085"/>
<stop offset="1" stop-color="#9D4A9D"/>
</linearGradient>
<linearGradient id="paint6_linear_2294_3211" x1="80.6949" y1="62.4453" x2="80.6949" y2="76.5616" gradientUnits="userSpaceOnUse">
<stop stop-color="#EBD6EB"/>
<stop offset="0.9999" stop-color="white"/>
</linearGradient>
<linearGradient id="paint7_linear_2294_3211" x1="80.7088" y1="66.1602" x2="80.7088" y2="72.8669" gradientUnits="userSpaceOnUse">
<stop stop-color="#853085"/>
<stop offset="1" stop-color="#9D4A9D"/>
</linearGradient>
</defs>
</svg>
