<svg width="129" height="126" viewBox="0 0 129 126" fill="none" xmlns="http://www.w3.org/2000/svg">
<mask id="path-1-inside-1_2298_3258" fill="white">
<path fill-rule="evenodd" clip-rule="evenodd" d="M65.1676 8.24136C65.3188 12.7929 63.7461 16.5389 61.6548 16.6084C59.5634 16.6779 57.7455 13.0446 57.5942 8.49305C57.4429 3.94155 59.0157 0.195484 61.107 0.125981C63.1983 0.0564772 65.0163 3.68986 65.1676 8.24136ZM78.7553 21.5948C80.8478 22.5601 84.2471 19.6508 86.348 15.0968C88.4488 10.5427 88.4555 6.06841 86.363 5.10314C84.2705 4.13786 80.8712 7.04713 78.7704 11.6012C76.6696 16.1552 76.6628 20.6295 78.7553 21.5948ZM104.885 27.5055C100.544 30.544 95.8919 31.3899 94.4957 29.3949C93.0996 27.3999 95.4877 23.3194 99.8296 20.2809C104.172 17.2424 108.823 16.3965 110.219 18.3915C111.615 20.3865 109.227 24.467 104.885 27.5055ZM0.483175 58.5252C1.82814 52.7991 6.83777 48.7931 12.3815 46.8275C13.2554 46.5176 14.1389 46.1842 15.0678 45.8336L15.0679 45.8336C20.0483 43.954 26.3352 41.5813 39.4609 39.7006C50.7967 38.4342 67.8351 38.869 81.1041 41.2261C94.3731 43.5832 105.876 47.6663 114.218 52.9803C122.559 58.2944 127.382 64.6112 128.101 71.165C128.82 77.7189 125.119 89.5258 117.983 95.2016C112.879 99.261 107.766 102.386 100.627 104.921C104.694 114.934 105.509 124.041 102.44 125.295C99.3579 126.554 93.5268 119.418 89.4156 109.356C89.2489 108.948 89.0875 108.541 88.9316 108.136C78.8426 110.128 66.1045 110.211 54.5278 109.817C54.4503 110.012 54.3715 110.208 54.2913 110.405C50.4167 119.888 44.7774 126.555 41.6955 125.296C38.9686 124.181 39.1576 117.235 41.9215 109.08C37.5362 108.553 33.2652 107.618 29.1415 106.467C20.6833 104.105 19.878 92.5887 27.5209 88.264C30.1913 86.7529 33.3811 86.5561 36.3432 87.3566C40.7523 88.5481 45.6753 89.3022 50.7967 89.5581C57.7879 89.9073 64.8485 89.3131 71.1225 87.8473C77.3966 86.3815 82.6146 84.1071 86.1441 81.3C89.6736 78.4928 91.363 75.2733 91.0074 72.0319C90.6518 68.7904 88.2665 65.6662 84.1408 63.0379C83.6977 62.7556 83.3011 62.4864 82.9256 62.2315L82.9255 62.2314C81.574 61.3139 80.4962 60.5822 78.5064 60.0958C68.9137 57.7506 58.3238 55.6064 48.6839 57.7495C46.9454 58.136 45.3009 58.6558 43.8376 59.2132C43.3519 59.3983 42.8645 59.583 42.3761 59.7681C39.8721 60.7171 37.343 61.6756 34.8969 62.7322C30.5723 64.6003 24.3457 67.9795 18.033 71.5738C8.31213 77.1084 -2.07463 69.4149 0.483175 58.5252ZM43.2636 29.5711C44.9454 28.4253 44.2872 24.5291 41.7935 20.8687C39.2997 17.2084 35.9146 15.1699 34.2328 16.3158C32.5509 17.4616 33.2091 21.3578 35.7029 25.0182C38.1967 28.6786 41.5817 30.717 43.2636 29.5711Z"/>
</mask>
<path fill-rule="evenodd" clip-rule="evenodd" d="M65.1676 8.24136C65.3188 12.7929 63.7461 16.5389 61.6548 16.6084C59.5634 16.6779 57.7455 13.0446 57.5942 8.49305C57.4429 3.94155 59.0157 0.195484 61.107 0.125981C63.1983 0.0564772 65.0163 3.68986 65.1676 8.24136ZM78.7553 21.5948C80.8478 22.5601 84.2471 19.6508 86.348 15.0968C88.4488 10.5427 88.4555 6.06841 86.363 5.10314C84.2705 4.13786 80.8712 7.04713 78.7704 11.6012C76.6696 16.1552 76.6628 20.6295 78.7553 21.5948ZM104.885 27.5055C100.544 30.544 95.8919 31.3899 94.4957 29.3949C93.0996 27.3999 95.4877 23.3194 99.8296 20.2809C104.172 17.2424 108.823 16.3965 110.219 18.3915C111.615 20.3865 109.227 24.467 104.885 27.5055ZM0.483175 58.5252C1.82814 52.7991 6.83777 48.7931 12.3815 46.8275C13.2554 46.5176 14.1389 46.1842 15.0678 45.8336L15.0679 45.8336C20.0483 43.954 26.3352 41.5813 39.4609 39.7006C50.7967 38.4342 67.8351 38.869 81.1041 41.2261C94.3731 43.5832 105.876 47.6663 114.218 52.9803C122.559 58.2944 127.382 64.6112 128.101 71.165C128.82 77.7189 125.119 89.5258 117.983 95.2016C112.879 99.261 107.766 102.386 100.627 104.921C104.694 114.934 105.509 124.041 102.44 125.295C99.3579 126.554 93.5268 119.418 89.4156 109.356C89.2489 108.948 89.0875 108.541 88.9316 108.136C78.8426 110.128 66.1045 110.211 54.5278 109.817C54.4503 110.012 54.3715 110.208 54.2913 110.405C50.4167 119.888 44.7774 126.555 41.6955 125.296C38.9686 124.181 39.1576 117.235 41.9215 109.08C37.5362 108.553 33.2652 107.618 29.1415 106.467C20.6833 104.105 19.878 92.5887 27.5209 88.264C30.1913 86.7529 33.3811 86.5561 36.3432 87.3566C40.7523 88.5481 45.6753 89.3022 50.7967 89.5581C57.7879 89.9073 64.8485 89.3131 71.1225 87.8473C77.3966 86.3815 82.6146 84.1071 86.1441 81.3C89.6736 78.4928 91.363 75.2733 91.0074 72.0319C90.6518 68.7904 88.2665 65.6662 84.1408 63.0379C83.6977 62.7556 83.3011 62.4864 82.9256 62.2315L82.9255 62.2314C81.574 61.3139 80.4962 60.5822 78.5064 60.0958C68.9137 57.7506 58.3238 55.6064 48.6839 57.7495C46.9454 58.136 45.3009 58.6558 43.8376 59.2132C43.3519 59.3983 42.8645 59.583 42.3761 59.7681C39.8721 60.7171 37.343 61.6756 34.8969 62.7322C30.5723 64.6003 24.3457 67.9795 18.033 71.5738C8.31213 77.1084 -2.07463 69.4149 0.483175 58.5252ZM43.2636 29.5711C44.9454 28.4253 44.2872 24.5291 41.7935 20.8687C39.2997 17.2084 35.9146 15.1699 34.2328 16.3158C32.5509 17.4616 33.2091 21.3578 35.7029 25.0182C38.1967 28.6786 41.5817 30.717 43.2636 29.5711Z" fill="#4286A2"/>
<path d="M65.1676 8.24136L67.1665 8.17493V8.17493L65.1676 8.24136ZM57.5942 8.49305L59.5931 8.42662V8.42662L57.5942 8.49305ZM61.107 0.125981L61.0406 -1.87292L61.107 0.125981ZM86.363 5.10314L87.2008 3.28706L87.2008 3.28705L86.363 5.10314ZM94.4957 29.3949L92.8571 30.5416V30.5416L94.4957 29.3949ZM104.885 27.5055L106.032 29.1441L104.885 27.5055ZM99.8296 20.2809L100.976 21.9195L99.8296 20.2809ZM110.219 18.3915L108.581 19.5382V19.5382L110.219 18.3915ZM12.3815 46.8275L13.0499 48.7125H13.0499L12.3815 46.8275ZM0.483175 58.5252L-1.46384 58.0679L0.483175 58.5252ZM15.0678 45.8336L15.774 47.7048L15.7845 47.7008L15.7949 47.6968L15.0678 45.8336ZM15.0679 45.8336L14.3617 43.9624L14.3513 43.9663L14.3408 43.9704L15.0679 45.8336ZM39.4609 39.7006L39.2389 37.7129L39.208 37.7164L39.1773 37.7208L39.4609 39.7006ZM128.101 71.165L130.089 70.947L128.101 71.165ZM117.983 95.2016L119.228 96.7669L117.983 95.2016ZM100.627 104.921L99.9578 103.036L97.987 103.736L98.774 105.673L100.627 104.921ZM102.44 125.295L101.683 123.443L102.44 125.295ZM89.4156 109.356L87.5642 110.112H87.5642L89.4156 109.356ZM88.9316 108.136L90.7979 107.417L90.1935 105.848L88.5441 106.174L88.9316 108.136ZM54.5278 109.817L54.5958 107.818L53.1871 107.77L52.6682 109.081L54.5278 109.817ZM54.2913 110.405L56.1427 111.161L56.1427 111.161L54.2913 110.405ZM41.6955 125.296L40.939 127.147H40.939L41.6955 125.296ZM41.9215 109.08L43.8156 109.722L44.6065 107.389L42.1603 107.095L41.9215 109.08ZM29.1415 106.467L28.6037 108.393H28.6037L29.1415 106.467ZM27.5209 88.264L28.5059 90.0046H28.5059L27.5209 88.264ZM36.3432 87.3566L36.8649 85.4258H36.8649L36.3432 87.3566ZM50.7967 89.5581L50.6969 91.5556L50.7967 89.5581ZM71.1225 87.8473L70.6675 85.8997L71.1225 87.8473ZM86.1441 81.3L84.8992 79.7347L86.1441 81.3ZM91.0074 72.0319L89.0193 72.25L91.0074 72.0319ZM84.1408 63.0379L83.0662 64.7247V64.7247L84.1408 63.0379ZM82.9256 62.2315L84.049 60.5768L84.0026 60.5453L83.9546 60.5165L82.9256 62.2315ZM82.9255 62.2314L81.8021 63.8861L81.8485 63.9176L81.8965 63.9464L82.9255 62.2314ZM78.5064 60.0958L78.0315 62.0386L78.5064 60.0958ZM48.6839 57.7495L49.1179 59.7019H49.1179L48.6839 57.7495ZM43.8376 59.2132L43.1256 57.3443L43.8376 59.2132ZM42.3761 59.7681L43.0849 61.6383H43.0849L42.3761 59.7681ZM34.8969 62.7322L34.1038 60.8962V60.8962L34.8969 62.7322ZM18.033 71.5738L19.0225 73.3118V73.3118L18.033 71.5738ZM43.2636 29.5711L44.3896 31.224L43.2636 29.5711ZM61.7212 18.6073C64.0213 18.5309 65.3992 16.54 66.0962 14.8799C66.8669 13.0442 67.2494 10.6715 67.1665 8.17493L63.1687 8.30779C63.2369 10.3627 62.9088 12.1388 62.4081 13.3314C61.8337 14.6996 61.3796 14.6165 61.5883 14.6095L61.7212 18.6073ZM55.5953 8.55949C55.6783 11.0561 56.2175 13.3981 57.1084 15.1786C57.914 16.7888 59.4211 18.6838 61.7212 18.6073L61.5883 14.6095C61.7971 14.6026 61.3495 14.7157 60.6856 13.3887C60.1068 12.2319 59.6614 10.4815 59.5931 8.42662L55.5953 8.55949ZM61.0406 -1.87292C58.7405 -1.79647 57.3625 0.194413 56.6656 1.85456C55.8949 3.69024 55.5123 6.0629 55.5953 8.55949L59.5931 8.42662C59.5248 6.3717 59.853 4.59558 60.3537 3.40297C60.9281 2.03484 61.3821 2.11794 61.1734 2.12488L61.0406 -1.87292ZM67.1665 8.17493C67.0835 5.67834 66.5443 3.33631 65.6534 1.55586C64.8477 -0.0543518 63.3406 -1.94936 61.0406 -1.87292L61.1734 2.12488C60.9647 2.13181 61.4122 2.01875 62.0762 3.34573C62.655 4.50246 63.1004 6.25288 63.1687 8.30779L67.1665 8.17493ZM84.5319 14.259C83.574 16.3354 82.3571 17.9469 81.2481 18.896C79.9944 19.969 79.4997 19.7356 79.5931 19.7787L77.9175 23.4109C80.1035 24.4193 82.3546 23.2139 83.8489 21.935C85.4879 20.5324 87.0211 18.4122 88.164 15.9345L84.5319 14.259ZM85.5252 6.91921C85.4318 6.87612 85.9305 7.10101 85.928 8.75114C85.9258 10.2109 85.4897 12.1826 84.5319 14.259L88.164 15.9345C89.307 13.4569 89.9247 10.9144 89.928 8.75717C89.9309 6.79033 89.3867 4.29543 87.2008 3.28706L85.5252 6.91921ZM80.5864 12.4389C81.5443 10.3626 82.7612 8.75108 83.8702 7.8019C85.1239 6.72895 85.6187 6.96231 85.5252 6.91922L87.2008 3.28705C85.0149 2.27868 82.7637 3.48403 81.2694 4.76291C79.6304 6.16557 78.0972 8.28575 76.9543 10.7634L80.5864 12.4389ZM79.5931 19.7787C79.6865 19.8218 79.1879 19.5969 79.1904 17.9468C79.1926 16.487 79.6286 14.5153 80.5864 12.4389L76.9543 10.7634C75.8113 13.2411 75.1936 15.7836 75.1904 17.9408C75.1874 19.9076 75.7316 22.4025 77.9175 23.4109L79.5931 19.7787ZM92.8571 30.5416C94.2748 32.5674 96.9078 32.6758 98.9437 32.3055C101.167 31.9012 103.68 30.7901 106.032 29.1441L103.739 25.8669C101.749 27.2595 99.7652 28.0905 98.2281 28.3701C97.4578 28.5101 96.891 28.4952 96.5265 28.4152C96.3512 28.3767 96.2483 28.3288 96.1953 28.297C96.1472 28.268 96.1358 28.2503 96.1344 28.2482L92.8571 30.5416ZM98.6829 18.6422C96.3309 20.2882 94.4262 22.2687 93.2848 24.219C92.2396 26.005 91.4395 28.5158 92.8571 30.5416L96.1344 28.2482C96.1329 28.2461 96.1201 28.2294 96.1094 28.1742C96.0976 28.1135 96.0879 28.0004 96.1118 27.8226C96.1615 27.4527 96.3416 26.9151 96.737 26.2394C97.5261 24.891 98.9864 23.312 100.976 21.9195L98.6829 18.6422ZM111.858 17.2448C110.44 15.219 107.807 15.1106 105.771 15.4809C103.548 15.8852 101.035 16.9963 98.6829 18.6422L100.976 21.9195C102.966 20.5269 104.95 19.6959 106.487 19.4163C107.257 19.2763 107.824 19.2912 108.189 19.3712C108.364 19.4097 108.467 19.4575 108.52 19.4894C108.568 19.5184 108.579 19.5361 108.581 19.5382L111.858 17.2448ZM106.032 29.1441C108.384 27.4982 110.289 25.5177 111.43 23.5674C112.476 21.7814 113.276 19.2706 111.858 17.2448L108.581 19.5382C108.582 19.5403 108.595 19.557 108.606 19.6122C108.617 19.6729 108.627 19.786 108.603 19.9638C108.554 20.3337 108.373 20.8713 107.978 21.547C107.189 22.8954 105.729 24.4743 103.739 25.8669L106.032 29.1441ZM11.7131 44.9425C5.81309 47.0345 0.0951182 51.4308 -1.46384 58.0679L2.43019 58.9825C3.56116 54.1675 7.86246 50.5518 13.0499 48.7125L11.7131 44.9425ZM14.3616 43.9624C13.4291 44.3144 12.5647 44.6405 11.7131 44.9425L13.0499 48.7125C13.9461 48.3947 14.8487 48.054 15.774 47.7048L14.3616 43.9624ZM14.3408 43.9704L14.3407 43.9705L15.7949 47.6968L15.795 47.6967L14.3408 43.9704ZM39.1773 37.7208C25.8614 39.6288 19.4272 42.0507 14.3617 43.9624L15.7741 47.7047C20.6694 45.8573 26.809 43.5339 39.7446 41.6803L39.1773 37.7208ZM81.4539 39.2569C67.9991 36.8668 50.7682 36.4249 39.2389 37.7129L39.683 41.6882C50.8253 40.4434 67.671 40.8711 80.7543 43.1952L81.4539 39.2569ZM115.292 51.2935C106.665 45.7978 94.893 41.6442 81.4539 39.2569L80.7543 43.1952C93.8532 45.5221 105.086 49.5347 113.143 54.6671L115.292 51.2935ZM130.089 70.947C129.276 63.5377 123.883 56.7665 115.292 51.2935L113.143 54.6671C121.235 59.8223 125.488 65.6848 126.113 71.3831L130.089 70.947ZM119.228 96.7669C123.164 93.6362 126.047 88.9188 127.854 84.232C129.656 79.5577 130.494 74.6368 130.089 70.947L126.113 71.3831C126.427 74.2471 125.774 78.5066 124.122 82.7932C122.474 87.0673 119.938 91.0912 116.738 93.6363L119.228 96.7669ZM101.296 106.805C108.675 104.186 113.979 100.942 119.228 96.7669L116.738 93.6363C111.779 97.5804 106.858 100.586 99.9578 103.036L101.296 106.805ZM103.196 127.146C104.84 126.475 105.613 124.901 105.965 123.468C106.331 121.982 106.376 120.168 106.202 118.215C105.851 114.282 104.567 109.305 102.48 104.168L98.774 105.673C100.755 110.549 101.911 115.132 102.217 118.57C102.372 120.302 102.299 121.626 102.081 122.513C101.85 123.453 101.574 123.488 101.683 123.443L103.196 127.146ZM87.5642 110.112C89.6734 115.274 92.2509 119.76 94.7649 122.836C96.0138 124.365 97.3212 125.638 98.6268 126.449C99.885 127.231 101.546 127.821 103.196 127.146L101.683 123.443C101.793 123.399 101.569 123.568 100.739 123.052C99.9556 122.565 98.9704 121.661 97.8624 120.305C95.6626 117.613 93.2691 113.499 91.2671 108.599L87.5642 110.112ZM87.0653 108.855C87.226 109.272 87.3924 109.692 87.5642 110.112L91.2671 108.599C91.1054 108.204 90.949 107.809 90.7979 107.417L87.0653 108.855ZM54.4597 111.816C66.0521 112.21 78.9879 112.138 89.319 110.098L88.5441 106.174C78.6972 108.118 66.157 108.212 54.5958 107.818L54.4597 111.816ZM56.1427 111.161C56.2257 110.958 56.3072 110.755 56.3873 110.553L52.6682 109.081C52.5935 109.269 52.5173 109.459 52.4399 109.648L56.1427 111.161ZM40.939 127.147C42.5404 127.801 44.1619 127.298 45.4261 126.561C46.7215 125.806 48.0064 124.609 49.2231 123.17C51.6715 120.276 54.1483 116.042 56.1427 111.161L52.4399 109.648C50.5597 114.25 48.2795 118.092 46.1692 120.587C45.1065 121.843 44.1615 122.669 43.4117 123.106C43.0429 123.321 42.7789 123.408 42.6163 123.436C42.539 123.45 42.4928 123.449 42.4721 123.447C42.4616 123.446 42.4558 123.445 42.4539 123.445C42.4528 123.444 42.4522 123.444 42.4521 123.444C42.452 123.444 42.452 123.444 42.452 123.444C42.452 123.444 42.452 123.444 42.452 123.444C42.4504 123.444 42.4535 123.445 42.452 123.444C42.4504 123.444 42.4535 123.445 42.452 123.444C42.4504 123.444 42.4535 123.445 42.452 123.444C42.4504 123.444 42.4534 123.445 42.4519 123.444L40.939 127.147ZM40.0273 108.438C38.603 112.641 37.8065 116.628 37.7498 119.792C37.7216 121.366 37.8735 122.851 38.301 124.091C38.7261 125.323 39.5224 126.568 40.939 127.147L42.4519 123.444C42.4519 123.444 42.4519 123.444 42.4519 123.444C42.4518 123.444 42.4515 123.444 42.4508 123.443C42.4497 123.443 42.4463 123.441 42.4406 123.436C42.4295 123.428 42.4047 123.407 42.3696 123.363C42.2961 123.271 42.1885 123.094 42.0824 122.787C41.8648 122.156 41.7254 121.186 41.7491 119.864C41.7962 117.238 42.4761 113.675 43.8156 109.722L40.0273 108.438ZM28.6037 108.393C32.8003 109.565 37.1735 110.524 41.6826 111.066L42.1603 107.095C37.899 106.582 33.73 105.672 29.6793 104.541L28.6037 108.393ZM26.536 86.5233C21.9784 89.1022 19.9389 93.8412 20.2999 98.2644C20.6629 102.711 23.4729 106.961 28.6037 108.393L29.6793 104.541C26.3519 103.612 24.5302 100.922 24.2867 97.939C24.0412 94.9322 25.4205 91.7505 28.5059 90.0046L26.536 86.5233ZM36.8649 85.4258C33.4932 84.5147 29.7454 84.7072 26.536 86.5233L28.5059 90.0046C30.6372 88.7986 33.2691 88.5976 35.8214 89.2873L36.8649 85.4258ZM50.8965 87.5606C45.9025 87.3111 41.1222 86.5763 36.8649 85.4258L35.8214 89.2873C40.3824 90.5199 45.4482 91.2934 50.6969 91.5556L50.8965 87.5606ZM70.6675 85.8997C64.5901 87.3196 57.7173 87.9013 50.8965 87.5606L50.6969 91.5556C57.8585 91.9134 65.1068 91.3066 71.5775 89.7948L70.6675 85.8997ZM84.8992 79.7347C81.6788 82.296 76.7681 84.4745 70.6675 85.8997L71.5775 89.7948C78.0251 88.2885 83.5505 85.9183 87.3891 82.8652L84.8992 79.7347ZM89.0193 72.25C89.273 74.5629 88.1186 77.1741 84.8992 79.7347L87.3891 82.8652C91.2287 79.8114 93.4529 75.9837 92.9955 71.8138L89.0193 72.25ZM83.0662 64.7247C86.9426 67.1941 88.7576 69.864 89.0193 72.25L92.9955 71.8138C92.546 67.7169 89.5905 64.1383 85.2153 61.3511L83.0662 64.7247ZM81.8022 63.8862C82.1757 64.1397 82.5951 64.4246 83.0662 64.7247L85.2154 61.3511C84.8002 61.0866 84.4264 60.833 84.049 60.5768L81.8022 63.8862ZM81.8965 63.9464L81.8966 63.9465L83.9546 60.5165L83.9545 60.5164L81.8965 63.9464ZM78.0315 62.0386C79.6534 62.4351 80.4829 62.9905 81.8021 63.8861L84.0488 60.5767C82.665 59.6373 81.3389 58.7294 78.9814 58.153L78.0315 62.0386ZM49.1179 59.7019C58.2482 57.6721 68.4139 59.6873 78.0315 62.0386L78.9814 58.153C69.4135 55.8139 58.3993 53.5408 48.2498 55.7972L49.1179 59.7019ZM44.5497 61.0822C45.9359 60.5541 47.4871 60.0644 49.1179 59.7019L48.2498 55.7972C46.4037 56.2076 44.666 56.7575 43.1256 57.3443L44.5497 61.0822ZM43.0849 61.6383C43.573 61.4533 44.0621 61.268 44.5497 61.0822L43.1256 57.3443C42.6418 57.5286 42.156 57.7127 41.6673 57.8979L43.0849 61.6383ZM35.69 64.5683C38.0872 63.5328 40.5735 62.5901 43.0849 61.6383L41.6673 57.8979C39.1708 58.8441 36.5988 59.8185 34.1038 60.8962L35.69 64.5683ZM19.0225 73.3118C25.3398 69.7149 31.4787 66.3873 35.69 64.5683L34.1038 60.8962C29.6658 62.8132 23.3516 66.2441 17.0434 69.8357L19.0225 73.3118ZM-1.46384 58.0679C-2.9172 64.2555 -0.698837 69.7256 3.46133 72.8144C7.61906 75.9014 13.5048 76.4534 19.0225 73.3118L17.0434 69.8357C12.8403 72.2288 8.67223 71.7014 5.84583 69.6028C3.02185 67.5061 1.32574 63.6846 2.43019 58.9825L-1.46384 58.0679ZM40.1406 21.9948C41.2631 23.6424 41.9144 25.265 42.1223 26.496C42.362 27.9147 41.9412 28.052 42.1375 27.9183L44.3896 31.224C46.2678 29.9444 46.3589 27.5607 46.0664 25.8297C45.7423 23.9111 44.8176 21.7554 43.4463 19.7426L40.1406 21.9948ZM35.3589 17.9686C35.1626 18.1024 35.4443 17.761 36.6769 18.5032C37.7464 19.1473 39.0181 20.3472 40.1406 21.9948L43.4463 19.7426C42.075 17.7299 40.4073 16.0804 38.7404 15.0766C37.2365 14.171 34.9849 13.3833 33.1067 14.6629L35.3589 17.9686ZM37.3558 23.8921C36.2333 22.2445 35.582 20.6219 35.374 19.3909C35.1344 17.9722 35.5552 17.8349 35.3589 17.9686L33.1067 14.6629C31.2285 15.9425 31.1375 18.3262 31.4299 20.0572C31.754 21.9758 32.6787 24.1315 34.05 26.1443L37.3558 23.8921ZM42.1375 27.9183C42.3338 27.7845 42.052 28.1259 40.8194 27.3837C39.75 26.7396 38.4782 25.5397 37.3558 23.8921L34.05 26.1443C35.4213 28.1571 37.089 29.8065 38.756 30.8103C40.2598 31.7159 42.5115 32.5036 44.3896 31.224L42.1375 27.9183Z" fill="black" mask="url(#path-1-inside-1_2298_3258)"/>
<circle cx="30.6896" cy="52.5001" r="7.88489" fill="url(#paint0_linear_2298_3258)"/>
<circle cx="30.6948" cy="52.5112" r="4.97993" fill="#350F42"/>
<circle cx="30.7032" cy="52.5098" r="3.74616" fill="url(#paint1_linear_2298_3258)"/>
<circle cx="30.6885" cy="52.501" r="1.89551" fill="#350F42"/>
<path d="M39.1464 52.5C39.7214 52.5 40.1934 52.0324 40.1305 51.4609C39.8954 49.3236 38.94 47.3174 37.405 45.7825C35.6234 44.0009 33.2071 43 30.6875 43C28.1679 43 25.7516 44.0009 23.97 45.7825C22.435 47.3174 21.4796 49.3236 21.2445 51.4609C21.1816 52.0324 21.6536 52.5 22.2286 52.5C22.8036 52.5 23.2622 52.0316 23.3426 51.4623C23.5664 49.8784 24.2981 48.399 25.4423 47.2548C26.8334 45.8637 28.7202 45.0822 30.6875 45.0822C32.6548 45.0822 34.5416 45.8637 35.9327 47.2548C37.0769 48.399 37.8086 49.8784 38.0324 51.4623C38.1128 52.0316 38.5714 52.5 39.1464 52.5Z" fill="#350F42"/>
<circle cx="29.5298" cy="50.602" r="1.16647" fill="white"/>
<circle cx="32.5892" cy="54.9329" r="0.538371" fill="white"/>
<circle cx="60.7088" cy="43.5076" r="4.56818" fill="url(#paint2_linear_2298_3258)"/>
<circle cx="60.7094" cy="43.5141" r="2.88516" fill="#350F42"/>
<circle cx="60.7172" cy="43.5141" r="2.17037" fill="url(#paint3_linear_2298_3258)"/>
<circle cx="60.7076" cy="43.5083" r="1.09818" fill="#350F42"/>
<path d="M65.6078 43.5078C65.9409 43.5078 66.2144 43.2369 66.1779 42.9058C66.0417 41.6675 65.4882 40.5052 64.5989 39.616C63.5667 38.5838 62.1668 38.0039 60.707 38.0039C59.2473 38.0039 57.8474 38.5838 56.8152 39.616C55.9259 40.5052 55.3724 41.6675 55.2361 42.9058C55.1997 43.2369 55.4732 43.5078 55.8063 43.5078C56.1394 43.5078 56.4051 43.2364 56.4517 42.9066C56.5813 41.989 57.0053 41.1319 57.6682 40.469C58.4741 39.663 59.5672 39.2102 60.707 39.2102C61.8468 39.2102 62.9399 39.663 63.7459 40.469C64.4088 41.1319 64.8327 41.989 64.9624 42.9066C65.009 43.2364 65.2747 43.5078 65.6078 43.5078Z" fill="#350F42"/>
<circle cx="60.0347" cy="42.4077" r="0.675325" fill="white"/>
<circle cx="61.8078" cy="44.9172" r="0.311688" fill="white"/>
<circle cx="81.6932" cy="52.5037" r="4.56818" fill="url(#paint4_linear_2298_3258)"/>
<circle cx="81.6938" cy="52.5102" r="2.88516" fill="#350F42"/>
<circle cx="81.7016" cy="52.5102" r="2.17037" fill="url(#paint5_linear_2298_3258)"/>
<circle cx="81.6919" cy="52.5044" r="1.09818" fill="#350F42"/>
<path d="M86.5921 52.5039C86.9253 52.5039 87.1987 52.233 87.1623 51.9019C87.0261 50.6636 86.4725 49.5013 85.5833 48.6121C84.5511 47.5799 83.1511 47 81.6914 47C80.2317 47 78.8317 47.5799 77.7996 48.6121C76.9103 49.5013 76.3567 50.6636 76.2205 51.9019C76.1841 52.233 76.4575 52.5039 76.7907 52.5039C77.1238 52.5039 77.3895 52.2325 77.4361 51.9027C77.5657 50.9851 77.9897 50.1279 78.6526 49.4651C79.4585 48.6591 80.5516 48.2063 81.6914 48.2063C82.8312 48.2063 83.9243 48.6591 84.7302 49.4651C85.3931 50.1279 85.8171 50.9851 85.9467 51.9027C85.9933 52.2325 86.259 52.5039 86.5921 52.5039Z" fill="#350F42"/>
<circle cx="81.0191" cy="51.4038" r="0.675325" fill="white"/>
<circle cx="82.7922" cy="53.9132" r="0.311688" fill="white"/>
<circle cx="105.695" cy="68.5035" r="7.05814" fill="url(#paint6_linear_2298_3258)"/>
<circle cx="105.696" cy="68.5144" r="4.45777" fill="#350F42"/>
<circle cx="105.709" cy="68.5135" r="3.35337" fill="url(#paint7_linear_2298_3258)"/>
<circle cx="105.693" cy="68.5054" r="1.69677" fill="#350F42"/>
<path d="M113.263 68.5039C113.778 68.5039 114.201 68.0854 114.144 67.5738C113.934 65.6605 113.079 63.8647 111.705 62.4907C110.11 60.8959 107.947 60 105.691 60C103.436 60 101.273 60.8959 99.6782 62.4907C98.3042 63.8647 97.449 65.6605 97.2385 67.5738C97.1822 68.0854 97.6047 68.5039 98.1194 68.5039C98.6341 68.5039 99.0446 68.0846 99.1166 67.575C99.3169 66.1572 99.972 64.8329 100.996 63.8087C102.241 62.5634 103.93 61.8639 105.691 61.8639C107.452 61.8639 109.141 62.5634 110.387 63.8087C111.411 64.8329 112.066 66.1572 112.266 67.575C112.338 68.0846 112.749 68.5039 113.263 68.5039Z" fill="#350F42"/>
<circle cx="104.652" cy="66.8047" r="1.04294" fill="white"/>
<circle cx="107.392" cy="70.6806" r="0.481358" fill="white"/>
<defs>
<linearGradient id="paint0_linear_2298_3258" x1="30.6896" y1="44.6152" x2="30.6896" y2="60.385" gradientUnits="userSpaceOnUse">
<stop stop-color="#EBD6EB"/>
<stop offset="0.9999" stop-color="white"/>
</linearGradient>
<linearGradient id="paint1_linear_2298_3258" x1="30.7032" y1="48.7637" x2="30.7032" y2="56.256" gradientUnits="userSpaceOnUse">
<stop stop-color="#853085"/>
<stop offset="1" stop-color="#9D4A9D"/>
</linearGradient>
<linearGradient id="paint2_linear_2298_3258" x1="60.7088" y1="38.9395" x2="60.7088" y2="48.0758" gradientUnits="userSpaceOnUse">
<stop stop-color="#EBD6EB"/>
<stop offset="0.9999" stop-color="white"/>
</linearGradient>
<linearGradient id="paint3_linear_2298_3258" x1="60.7172" y1="41.3438" x2="60.7172" y2="45.6845" gradientUnits="userSpaceOnUse">
<stop stop-color="#853085"/>
<stop offset="1" stop-color="#9D4A9D"/>
</linearGradient>
<linearGradient id="paint4_linear_2298_3258" x1="81.6932" y1="47.9355" x2="81.6932" y2="57.0719" gradientUnits="userSpaceOnUse">
<stop stop-color="#EBD6EB"/>
<stop offset="0.9999" stop-color="white"/>
</linearGradient>
<linearGradient id="paint5_linear_2298_3258" x1="81.7016" y1="50.3398" x2="81.7016" y2="54.6806" gradientUnits="userSpaceOnUse">
<stop stop-color="#853085"/>
<stop offset="1" stop-color="#9D4A9D"/>
</linearGradient>
<linearGradient id="paint6_linear_2298_3258" x1="105.695" y1="61.4453" x2="105.695" y2="75.5616" gradientUnits="userSpaceOnUse">
<stop stop-color="#EBD6EB"/>
<stop offset="0.9999" stop-color="white"/>
</linearGradient>
<linearGradient id="paint7_linear_2298_3258" x1="105.709" y1="65.1602" x2="105.709" y2="71.8669" gradientUnits="userSpaceOnUse">
<stop stop-color="#853085"/>
<stop offset="1" stop-color="#9D4A9D"/>
</linearGradient>
</defs>
</svg>
