<svg width="10" height="16" viewBox="0 0 10 16" fill="none" xmlns="http://www.w3.org/2000/svg">
<path d="M6.45123 15.615C6.45123 15.809 6.32842 15.8682 6.16898 15.9995C5.99955 15.871 5.88672 15.809 5.88672 15.615C5.88672 15.421 6.01309 15.2637 6.16898 15.2637C6.32486 15.2637 6.45123 15.421 6.45123 15.615Z" fill="url(#paint0_linear_2212_1934)"/>
<path d="M6.38391 15.4909C6.38391 15.6163 6.29039 15.6546 6.16898 15.7395C6.03996 15.6564 5.95405 15.6163 5.95405 15.4909C5.95405 15.3654 6.05027 15.2637 6.16898 15.2637C6.28768 15.2637 6.38391 15.3654 6.38391 15.4909Z" fill="url(#paint1_linear_2212_1934)"/>
<path d="M10 6.2598C10 9.71699 7.82438 10.7721 5 13.1103C1.99869 10.8213 0 9.71699 0 6.2598C0 2.80261 2.23858 0 5 0C7.76142 0 10 2.80261 10 6.2598Z" fill="url(#paint2_linear_2212_1934)"/>
<path d="M8.80734 4.04825C8.80734 6.28404 7.15067 6.96639 5 8.47851C2.7146 6.99822 1.19266 6.28404 1.19266 4.04825C1.19266 1.81246 2.89726 0 5 0C7.10274 0 8.80734 1.81246 8.80734 4.04825Z" fill="url(#paint3_linear_2212_1934)"/>
<path d="M7.54915 2.5489C7.54915 3.95662 6.43995 4.38624 5 5.33832C3.46984 4.40629 2.45085 3.95662 2.45085 2.5489C2.45085 1.14118 3.59214 0 5 0C6.40786 0 7.54915 1.14118 7.54915 2.5489Z" fill="url(#paint4_linear_2212_1934)"/>
<defs>
<linearGradient id="paint0_linear_2212_1934" x1="6.16898" y1="15.2637" x2="6.16898" y2="15.9995" gradientUnits="userSpaceOnUse">
<stop stop-color="#FF6A00"/>
<stop offset="1" stop-color="#DC5C00"/>
</linearGradient>
<linearGradient id="paint1_linear_2212_1934" x1="6.16898" y1="15.2637" x2="6.16898" y2="15.7395" gradientUnits="userSpaceOnUse">
<stop stop-color="#FFF942"/>
<stop offset="1" stop-color="#FFCC00"/>
</linearGradient>
<linearGradient id="paint2_linear_2212_1934" x1="5" y1="0" x2="5" y2="13.1103" gradientUnits="userSpaceOnUse">
<stop stop-color="#FF6A00"/>
<stop offset="1" stop-color="#DC5C00"/>
</linearGradient>
<linearGradient id="paint3_linear_2212_1934" x1="5" y1="0" x2="5" y2="13.1103" gradientUnits="userSpaceOnUse">
<stop stop-color="#FFF942"/>
<stop offset="1" stop-color="#FFCC00"/>
</linearGradient>
<linearGradient id="paint4_linear_2212_1934" x1="5" y1="0" x2="5" y2="5.33832" gradientUnits="userSpaceOnUse">
<stop stop-color="white"/>
<stop offset="1" stop-color="#FFF8CA"/>
</linearGradient>
</defs>
</svg>
