<svg width="149" height="49" viewBox="0 0 149 49" fill="none" xmlns="http://www.w3.org/2000/svg">
<mask id="path-1-inside-1_2248_4132" fill="white">
<path fill-rule="evenodd" clip-rule="evenodd" d="M84.0011 6.13685C84.0011 9.63207 82.6593 13.2504 80.2357 16.4815C98.4399 17.5875 113.144 20.5074 119.932 24.2846C120.994 24.2632 122.076 24.2579 123.175 24.2697C137.007 24.4187 148.192 27.2256 148.156 30.5391C148.12 33.8526 136.878 36.418 123.046 36.269C120.218 36.2386 117.501 36.0971 114.968 35.8629C112.339 36.7778 109.199 37.6168 105.634 38.3611C110.611 41.0274 113.558 43.8682 112.939 45.8658C111.958 49.031 102.396 48.8805 91.5816 45.5297C87.767 44.3477 84.3061 42.9255 81.467 41.4406C75.9405 41.8044 70.0762 42 64.0011 42C51.4711 42 39.8382 41.1678 30.2155 39.7446C27.6822 40.7247 24.7931 41.6163 21.6904 42.3393C10.6639 44.9088 1.11562 44.3756 0.36358 41.1483C-0.12368 39.0574 3.20123 36.3485 8.60202 34.0013C5.63795 32.4618 4.00107 30.7723 4.00107 29C4.00107 26.3742 7.59423 23.9302 13.7734 21.8862C7.60022 17.4949 4.00107 11.285 4.00107 6.13706C4.00107 -2.3953 12.0104 -0.382813 23.0861 2.40016C29.9332 4.12063 37.9522 6.13557 45.9753 6.13557C54.2762 6.13557 61.9558 3.97868 68.2085 2.22257C77.7749 -0.464252 84.0011 -2.21291 84.0011 6.13685Z"/>
</mask>
<path fill-rule="evenodd" clip-rule="evenodd" d="M84.0011 6.13685C84.0011 9.63207 82.6593 13.2504 80.2357 16.4815C98.4399 17.5875 113.144 20.5074 119.932 24.2846C120.994 24.2632 122.076 24.2579 123.175 24.2697C137.007 24.4187 148.192 27.2256 148.156 30.5391C148.12 33.8526 136.878 36.418 123.046 36.269C120.218 36.2386 117.501 36.0971 114.968 35.8629C112.339 36.7778 109.199 37.6168 105.634 38.3611C110.611 41.0274 113.558 43.8682 112.939 45.8658C111.958 49.031 102.396 48.8805 91.5816 45.5297C87.767 44.3477 84.3061 42.9255 81.467 41.4406C75.9405 41.8044 70.0762 42 64.0011 42C51.4711 42 39.8382 41.1678 30.2155 39.7446C27.6822 40.7247 24.7931 41.6163 21.6904 42.3393C10.6639 44.9088 1.11562 44.3756 0.36358 41.1483C-0.12368 39.0574 3.20123 36.3485 8.60202 34.0013C5.63795 32.4618 4.00107 30.7723 4.00107 29C4.00107 26.3742 7.59423 23.9302 13.7734 21.8862C7.60022 17.4949 4.00107 11.285 4.00107 6.13706C4.00107 -2.3953 12.0104 -0.382813 23.0861 2.40016C29.9332 4.12063 37.9522 6.13557 45.9753 6.13557C54.2762 6.13557 61.9558 3.97868 68.2085 2.22257C77.7749 -0.464252 84.0011 -2.21291 84.0011 6.13685Z" fill="#28657E"/>
<path d="M80.2357 16.4815L78.6358 15.2814L76.4072 18.2526L80.1144 18.4778L80.2357 16.4815ZM119.932 24.2846L118.96 26.0323L119.432 26.2951L119.973 26.2842L119.932 24.2846ZM123.175 24.2697L123.196 22.2699L123.175 24.2697ZM148.156 30.5391L146.156 30.5176V30.5176L148.156 30.5391ZM123.046 36.269L123.067 34.2692L123.046 36.269ZM114.968 35.8629L115.153 33.8714L114.721 33.8315L114.311 33.9739L114.968 35.8629ZM105.634 38.3611L105.226 36.4033L99.8434 37.5273L104.69 40.124L105.634 38.3611ZM112.939 45.8658L111.029 45.2738L112.939 45.8658ZM91.5816 45.5297L92.1735 43.6193L91.5816 45.5297ZM81.467 41.4406L82.3939 39.6684L81.8961 39.408L81.3356 39.4449L81.467 41.4406ZM30.2155 39.7446L30.5081 37.7662L29.9861 37.6889L29.4939 37.8793L30.2155 39.7446ZM21.6904 42.3393L22.1443 44.2872V44.2871L21.6904 42.3393ZM0.36358 41.1483L2.31139 40.6945H2.31139L0.36358 41.1483ZM8.60202 34.0013L9.39919 35.8356L13.2502 34.1619L9.52388 32.2264L8.60202 34.0013ZM13.7734 21.8862L14.4015 23.785L18.1499 22.5451L14.9327 20.2565L13.7734 21.8862ZM23.0861 2.40016L23.5734 0.460456V0.460456L23.0861 2.40016ZM68.2085 2.22257L68.7492 4.14807L68.2085 2.22257ZM81.8357 17.6816C84.4681 14.172 86.0011 10.1425 86.0011 6.13685H82.0011C82.0011 9.12166 80.8504 12.3288 78.6358 15.2814L81.8357 17.6816ZM120.905 22.537C117.234 20.4943 111.615 18.7719 104.752 17.4191C97.8455 16.0578 89.5272 15.0423 80.357 14.4852L80.1144 18.4778C89.1485 19.0267 97.2843 20.0241 103.978 21.3436C110.715 22.6716 115.842 24.2977 118.96 26.0323L120.905 22.537ZM119.973 26.2842C121.014 26.2632 122.075 26.258 123.153 26.2696L123.196 22.2699C122.077 22.2578 120.974 22.2632 119.892 22.285L119.973 26.2842ZM123.153 26.2696C129.96 26.3429 136.051 27.0713 140.379 28.1576C142.559 28.7046 144.181 29.3156 145.209 29.9122C146.394 30.6007 146.152 30.875 146.156 30.5176L150.156 30.5607C150.177 28.5465 148.551 27.2274 147.217 26.453C145.725 25.5867 143.693 24.8653 141.353 24.2779C136.64 23.0951 130.222 22.3455 123.196 22.2699L123.153 26.2696ZM146.156 30.5176C146.16 30.1602 146.396 30.4397 145.196 31.1025C144.156 31.6768 142.521 32.2526 140.33 32.7526C135.979 33.7454 129.874 34.3425 123.067 34.2692L123.024 38.2689C130.05 38.3446 136.482 37.7334 141.219 36.6524C143.572 36.1155 145.619 35.438 147.129 34.604C148.479 33.8586 150.134 32.5748 150.156 30.5607L146.156 30.5176ZM123.067 34.2692C120.292 34.2393 117.629 34.1004 115.153 33.8714L114.784 37.8544C117.373 38.0938 120.145 38.2379 123.024 38.2689L123.067 34.2692ZM106.043 40.3188C109.667 39.5622 112.894 38.7023 115.626 37.7519L114.311 33.9739C111.784 34.8533 108.731 35.6714 105.226 36.4033L106.043 40.3188ZM114.849 46.4577C115.189 45.3629 114.986 44.2951 114.58 43.3996C114.181 42.5193 113.543 41.701 112.806 40.9565C111.328 39.4656 109.156 37.9788 106.579 36.5982L104.69 40.124C107.09 41.4097 108.879 42.6764 109.964 43.7719C110.508 44.3206 110.802 44.7537 110.937 45.0512C111.065 45.3335 110.999 45.3698 111.029 45.2738L114.849 46.4577ZM90.9896 47.4401C96.5259 49.1555 101.813 50.0765 105.916 50.141C107.954 50.1731 109.819 49.9966 111.309 49.5276C112.729 49.0807 114.31 48.197 114.849 46.4577L111.029 45.2738C111.077 45.1172 111.095 45.4016 110.109 45.712C109.192 46.0003 107.806 46.1703 105.979 46.1415C102.353 46.0844 97.4519 45.2548 92.1735 43.6193L90.9896 47.4401ZM80.5401 43.2129C83.4991 44.7605 87.074 46.2268 90.9896 47.4401L92.1735 43.6193C88.4599 42.4686 85.113 41.0905 82.3939 39.6684L80.5401 43.2129ZM64.0011 44C70.1187 44 76.0267 43.803 81.5983 43.4363L81.3356 39.4449C75.8542 39.8057 70.0338 40 64.0011 40V44ZM29.9229 41.7231C39.6566 43.1627 51.3885 44 64.0011 44V40C51.5537 40 40.0198 39.1729 30.5081 37.7662L29.9229 41.7231ZM22.1443 44.2871C25.3311 43.5445 28.3102 42.6261 30.9371 41.6099L29.4939 37.8793C27.0541 38.8232 24.255 39.6881 21.2365 40.3915L22.1443 44.2871ZM-1.58423 41.6022C-1.17099 43.3756 0.342876 44.3701 1.72746 44.9173C3.18061 45.4916 5.02759 45.8009 7.06257 45.9145C11.16 46.1433 16.4996 45.6025 22.1443 44.2872L21.2365 40.3915C15.8547 41.6456 10.907 42.123 7.2856 41.9207C5.46119 41.8188 4.09093 41.5503 3.19768 41.1973C2.23586 40.8171 2.27417 40.5347 2.31139 40.6945L-1.58423 41.6022ZM7.80485 32.167C5.01219 33.3807 2.63256 34.738 0.977417 36.1488C0.151439 36.8528 -0.574886 37.6379 -1.05902 38.502C-1.55074 39.3796 -1.85147 40.4554 -1.58423 41.6022L2.31139 40.6945C2.335 40.7958 2.26716 40.7488 2.4306 40.4571C2.60162 40.1519 2.95271 39.721 3.57215 39.193C4.80784 38.1398 6.79106 36.9691 9.39919 35.8356L7.80485 32.167ZM2.00107 29C2.00107 30.5469 2.72443 31.8762 3.72716 32.9518C4.72053 34.0173 6.08834 34.9494 7.68015 35.7762L9.52388 32.2264C8.15163 31.5137 7.21897 30.8313 6.65288 30.2241C6.09616 29.627 6.00107 29.2255 6.00107 29H2.00107ZM13.1453 19.9874C9.97085 21.0374 7.31233 22.2353 5.40668 23.5981C3.55913 24.9193 2.00107 26.7079 2.00107 29H6.00107C6.00107 28.6662 6.2396 27.92 7.73341 26.8517C9.16912 25.825 11.3967 24.7789 14.4015 23.785L13.1453 19.9874ZM2.00107 6.13706C2.00107 12.1298 6.09807 18.8807 12.614 23.5159L14.9327 20.2565C9.10237 16.1091 6.00107 10.4403 6.00107 6.13706H2.00107ZM23.5734 0.460456C20.8192 -0.231599 18.1847 -0.894193 15.8115 -1.35345C13.4534 -1.80976 11.2142 -2.09478 9.26315 -1.9706C7.30716 -1.84611 5.38583 -1.29235 3.97903 0.181113C2.56835 1.65864 2.00107 3.71821 2.00107 6.13706H6.00107C6.00107 4.28973 6.43496 3.40123 6.87214 2.94334C7.3132 2.48139 8.08642 2.11239 9.51722 2.02132C10.9529 1.92995 12.7927 2.13659 15.0515 2.57369C17.295 3.00785 19.8151 3.64043 22.5987 4.33987L23.5734 0.460456ZM45.9753 4.13557C38.2398 4.13557 30.4587 2.1905 23.5734 0.460456L22.5987 4.33987C29.4077 6.05076 37.6647 8.13556 45.9753 8.13556V4.13557ZM67.6677 0.297075C61.3894 2.06037 53.9622 4.13557 45.9753 4.13557V8.13556C54.5901 8.13556 62.5222 5.89699 68.7492 4.14807L67.6677 0.297075ZM86.0011 6.13685C86.0011 3.85135 85.5839 1.88432 84.4732 0.417515C83.306 -1.12401 81.6351 -1.77757 79.888 -1.9494C78.1979 -2.11562 76.2788 -1.85256 74.2948 -1.42954C72.2907 -1.00221 70.0413 -0.369595 67.6677 0.297075L68.7492 4.14807C71.1588 3.47133 73.2751 2.87781 75.129 2.48252C77.003 2.08293 78.4341 1.9269 79.4964 2.03139C80.5016 2.13025 80.9852 2.43718 81.2843 2.83219C81.64 3.30192 82.0011 4.24748 82.0011 6.13685H86.0011Z" fill="black" mask="url(#path-1-inside-1_2248_4132)"/>
<circle cx="42.5021" cy="23.5001" r="7.88489" fill="url(#paint0_linear_2248_4132)"/>
<circle cx="42.5073" cy="23.5112" r="4.97993" fill="#350F42"/>
<circle cx="42.5157" cy="23.5098" r="3.74616" fill="url(#paint1_linear_2248_4132)"/>
<circle cx="42.501" cy="23.501" r="1.89551" fill="#350F42"/>
<path d="M50.9589 23.5C51.5339 23.5 52.0059 23.0324 51.943 22.4609C51.7079 20.3236 50.7525 18.3174 49.2175 16.7825C47.4359 15.0009 45.0196 14 42.5 14C39.9804 14 37.5641 15.0009 35.7825 16.7825C34.2475 18.3174 33.2921 20.3236 33.057 22.4609C32.9941 23.0324 33.4661 23.5 34.0411 23.5C34.6161 23.5 35.0747 23.0316 35.1551 22.4623C35.3789 20.8784 36.1106 19.399 37.2548 18.2548C38.6459 16.8637 40.5327 16.0822 42.5 16.0822C44.4673 16.0822 46.3541 16.8637 47.7452 18.2548C48.8894 19.399 49.6211 20.8784 49.8449 22.4623C49.9253 23.0316 50.3839 23.5 50.9589 23.5Z" fill="#350F42"/>
<circle cx="41.3423" cy="21.602" r="1.16647" fill="white"/>
<circle cx="44.4017" cy="25.9329" r="0.538371" fill="white"/>
<defs>
<linearGradient id="paint0_linear_2248_4132" x1="42.5021" y1="15.6152" x2="42.5021" y2="31.385" gradientUnits="userSpaceOnUse">
<stop stop-color="#EBD6EB"/>
<stop offset="0.9999" stop-color="white"/>
</linearGradient>
<linearGradient id="paint1_linear_2248_4132" x1="42.5157" y1="19.7637" x2="42.5157" y2="27.256" gradientUnits="userSpaceOnUse">
<stop stop-color="#853085"/>
<stop offset="1" stop-color="#9D4A9D"/>
</linearGradient>
</defs>
</svg>
