<svg width="19" height="27" viewBox="0 0 19 27" fill="none" xmlns="http://www.w3.org/2000/svg">
<path d="M7.97545 24.5L8.25964 24.9114L7.21965 25.6298L7.48674 24.3943C9.18042 16.5598 8.38458 13.3802 6.95614 11.6568C6.2269 10.7769 5.29928 10.2279 4.27331 9.62955L4.23125 9.60502C3.23544 9.02431 2.15217 8.3926 1.26221 7.36056C0.797873 6.82209 0.533374 6.27696 0.503 5.72692C0.472083 5.16705 0.687929 4.68194 1.0266 4.28134C1.67624 3.51289 2.84774 2.97061 4.01405 2.58193C5.20562 2.18483 6.4959 1.91568 7.48077 1.74605C7.97486 1.66095 8.39563 1.6003 8.69347 1.56087C8.84245 1.54114 8.96083 1.5267 9.04243 1.51714C9.08323 1.51236 9.11486 1.50879 9.13652 1.5064L9.16146 1.50369L9.16815 1.50298L9.17002 1.50278L9.17058 1.50272C9.17076 1.5027 9.17089 1.50269 9.22266 2L9.17089 1.50269L10.7071 1.34279L9.55861 2.37031L9.55812 2.37078L9.55797 2.37089L9.55615 2.37262C9.55419 2.37448 9.5511 2.37745 9.54698 2.38151C9.5443 2.38415 9.54118 2.38725 9.53766 2.39081C9.51977 2.40891 9.49164 2.43856 9.457 2.47913C9.38739 2.56066 9.2936 2.68379 9.2038 2.84334C9.02467 3.16158 8.86662 3.61392 8.93327 4.17535C9.06569 5.29077 10.132 7.10298 14.5542 9.22186C15.7279 9.78425 16.5495 10.472 17.0488 11.2717C17.5521 12.0775 17.7025 12.9564 17.6025 13.8477C17.4064 15.5943 16.2466 17.4112 14.8809 19.0129C13.5008 20.6315 11.8441 22.1059 10.5398 23.1713C9.88619 23.7052 9.3179 24.139 8.91242 24.4397C8.70962 24.5901 8.5474 24.7074 8.43541 24.7873C8.37941 24.8273 8.33596 24.858 8.30627 24.8788L8.27219 24.9027L8.26316 24.9089L8.26071 24.9106L8.26 24.9111C8.25979 24.9113 8.25964 24.9114 7.97545 24.5Z" fill="#EDF0F1" stroke="#B5B0B0"/>
</svg>
