<svg width="19" height="27" viewBox="0 0 19 27" fill="none" xmlns="http://www.w3.org/2000/svg">
<path d="M10.1574 24.5L9.87318 24.9114L10.9132 25.6298L10.6461 24.3943C8.95239 16.5598 9.74823 13.3802 11.1767 11.6568C11.9059 10.7769 12.8335 10.2279 13.8595 9.62955L13.9016 9.60502C14.8974 9.02431 15.9806 8.3926 16.8706 7.36056C17.3349 6.82209 17.5994 6.27696 17.6298 5.72692C17.6607 5.16705 17.4449 4.68194 17.1062 4.28134C16.4566 3.51289 15.2851 2.97061 14.1188 2.58193C12.9272 2.18483 11.6369 1.91568 10.652 1.74605C10.158 1.66095 9.73718 1.6003 9.43934 1.56087C9.29037 1.54114 9.17198 1.5267 9.09038 1.51714C9.04958 1.51236 9.01796 1.50879 8.99629 1.5064L8.97135 1.50369L8.96466 1.50298L8.96279 1.50278L8.96223 1.50272C8.96205 1.5027 8.96192 1.50269 8.91016 2L8.96192 1.50269L7.42567 1.34279L8.5742 2.37031L8.5747 2.37078L8.57484 2.37089L8.57666 2.37262C8.57862 2.37448 8.58171 2.37745 8.58583 2.38151C8.58851 2.38415 8.59163 2.38725 8.59515 2.39081C8.61304 2.40891 8.64117 2.43856 8.67581 2.47913C8.74542 2.56066 8.83921 2.68379 8.92901 2.84334C9.10814 3.16158 9.2662 3.61392 9.19955 4.17535C9.06713 5.29077 8.00082 7.10298 3.57861 9.22186C2.40489 9.78425 1.58334 10.472 1.08397 11.2717C0.58075 12.0775 0.430294 12.9564 0.530352 13.8477C0.726452 15.5943 1.88623 17.4112 3.25189 19.0129C4.63197 20.6315 6.28874 22.1059 7.59301 23.1713C8.24662 23.7052 8.81492 24.139 9.22039 24.4397C9.42319 24.5901 9.58541 24.7074 9.6974 24.7873C9.7534 24.8273 9.79685 24.858 9.82655 24.8788L9.86063 24.9027L9.86965 24.9089L9.87211 24.9106L9.87282 24.9111C9.87302 24.9113 9.87318 24.9114 10.1574 24.5Z" fill="#EDF0F1" stroke="#B5B0B0"/>
</svg>
